<svg xmlns="http://www.w3.org/2000/svg" viewBox="0 0 24 24" enable-background="new 0 0 24 24"><path d="M16.468 10.575l3.555.953.259.035c.442 0 .846-.295.965-.742.143-.533-.173-1.082-.707-1.225l-1.624-.435 1.377-.795c.478-.275.642-.89.367-1.366-.275-.476-.89-.641-1.366-.366l-1.269.732.389-1.453c.143-.533-.173-1.082-.707-1.225-.533-.145-1.082.174-1.225.707l-.906 3.385-2.576 1.488v-3.02l2.541-2.541c.391-.391.391-1.023 0-1.414s-1.023-.391-1.414 0l-1.127 1.126v-1.419c0-.55-.45-1-1-1s-1 .45-1 1v1.419l-1.126-1.126c-.391-.391-1.023-.391-1.414 0s-.391 1.023 0 1.414l2.54 2.541v3.02l-2.656-1.533-.952-3.556c-.143-.533-.691-.852-1.225-.707-.534.143-.85.692-.707 1.225l.435 1.624-1.189-.687c-.477-.275-1.091-.11-1.366.366-.275.476-.11 1.091.366 1.366l1.081.624-1.453.39c-.534.143-.85.691-.707 1.225.12.447.523.742.965.742l.259-.035 3.385-.907 2.764 1.595-2.547 1.47-3.727-.999c-.534-.145-1.082.174-1.225.707-.143.533.173 1.082.707 1.225l1.795.481-1.298.75c-.476.275-.64.89-.365 1.366.275.476.89.641 1.366.366l.973-.562-.344 1.283c-.143.533.173 1.082.707 1.225l.259.034c.441 0 .846-.295.965-.741l.861-3.214 2.873-1.659v2.771l-2.791 2.79c-.391.391-.391 1.023 0 1.414.196.195.452.293.708.293s.512-.098.707-.293l1.376-1.376v1.669c0 .55.45 1 1 1s1-.45 1-1v-1.169l.876.876c.196.195.452.293.707.293s.512-.098.707-.293c.391-.391.391-1.023 0-1.414l-2.29-2.29v-3.271l2.36 1.363.998 3.726c.12.447.523.741.965.741l.259-.034c.534-.143.85-.691.707-1.225l-.481-1.794 1.485.857c.476.275 1.091.11 1.366-.366.275-.476.11-1.091-.366-1.366l-1.161-.67 1.283-.344c.534-.143.85-.691.707-1.225-.143-.533-.69-.851-1.225-.707l-3.214.861-2.683-1.549 2.468-1.425z" fill="#34363D"/></svg>