<svg xmlns="http://www.w3.org/2000/svg" viewBox="0 0 16 16" enable-background="new 0 0 16 16"><path d="M15.166 9.003c-.143-.534-.689-.85-1.225-.707l-2.342.628-1.599-.924 1.579-.912 2.374.636.26.035c.441 0 .846-.295.965-.742.143-.534-.174-1.082-.707-1.225l-.442-.118.534-.308c.476-.275.641-.89.366-1.366-.275-.476-.89-.641-1.366-.366l-.514.297.11-.41c.143-.534-.174-1.082-.707-1.225-.532-.141-1.082.173-1.225.707l-.627 2.342-1.6.923v-1.824l1.737-1.737c.391-.391.391-1.023 0-1.414s-1.023-.391-1.414 0l-.323.323v-.616c0-.55-.45-1-1-1s-1 .45-1 1v.593l-.3-.3c-.391-.391-1.023-.391-1.414 0s-.391 1.023 0 1.414l1.714 1.714v1.847l-1.58-.912-.636-2.373c-.141-.534-.689-.85-1.224-.707-.534.143-.85.691-.707 1.224l.118.441-.533-.307c-.477-.275-1.091-.11-1.366.366-.275.476-.11 1.091.366 1.366l.514.297-.41.11c-.533.143-.85.691-.707 1.225.119.447.523.742.965.742l.26-.035 2.342-.628 1.598.923-1.579.912-2.374-.636c-.531-.144-1.082.173-1.225.707s.174 1.082.707 1.225l.442.118-.534.308c-.476.275-.64.89-.365 1.366.275.476.89.641 1.366.366l.514-.297-.11.41c-.143.533.174 1.082.707 1.225l.26.034c.441 0 .846-.294.965-.741l.627-2.342 1.599-.923v1.824l-1.737 1.737c-.391.391-.391 1.023 0 1.414.195.195.451.293.707.293s.512-.098.707-.293l.323-.323v.616c0 .55.45 1 1 1s1-.45 1-1v-.593l.3.3c.195.195.451.293.707.293s.512-.098.707-.293c.391-.391.391-1.023 0-1.414l-1.714-1.714v-1.847l1.58.912.636 2.373c.119.446.523.741.965.741l.26-.034c.533-.144.85-.691.707-1.225l-.118-.441.533.308c.476.275 1.091.11 1.366-.366.275-.476.11-1.091-.366-1.366l-.514-.297.41-.11c.533-.143.85-.69.707-1.224z" fill="#34363D"/></svg>