<svg width="64" height="24" viewBox="0 0 64 24" fill="none" xmlns="http://www.w3.org/2000/svg">
<g clip-path="url(#clip0_1335_241)">
<path fill-rule="evenodd" clip-rule="evenodd" d="M0 24L5.26167 0H63.2249L57.9632 24H0Z" fill="#FFF400"/>
<path d="M40.1925 15.9717C39.7852 15.5304 40.0228 14.6648 40.2435 13.6634L40.9563 10.3027H43.8757L44.4019 7.80767H41.4825L42.0087 5.31262H39.242L37.4429 13.901C37.1713 15.191 37.0695 16.1924 37.6296 17.2787C38.1388 18.2801 39.904 19.2476 42.1275 18.6365L42.6197 16.3112C41.0921 16.4979 40.4981 16.2942 40.1925 15.9717ZM16.8545 5.31262L15.5306 11.5078H10.6932L12.0002 5.31262H9.23355L6.41602 18.6196H9.19961L10.1671 14.0029H15.0044L14.02 18.6196H16.7696L19.5872 5.31262H16.8545ZM32.7413 8.74119C31.7739 9.5559 31.2307 10.6082 30.8743 12.2886L29.5334 18.6196H32.3L33.4033 13.3749C33.6579 12.1528 33.8616 11.372 34.3198 10.8968C34.9478 10.2518 35.8644 10.2179 36.9676 10.3027L37.4938 7.80767C35.5589 7.31545 33.8616 7.80767 32.7413 8.74119ZM54.2633 7.80767H45.6579L45.1317 10.3027H50.1218L43.8757 16.2094L43.3665 18.6196H51.9719L52.4981 16.1245H47.474L53.7541 10.1839L54.2633 7.80767ZM25.2053 7.62097C24.2717 7.62097 22.9988 7.90951 21.7597 8.89395C18.9252 11.1174 17.5334 18.8232 23.5928 18.8232C25.1543 18.8232 26.9026 18.331 28.1246 17.3975L27.0384 15.5304C26.1218 16.2433 21.4882 17.7879 21.9804 14.0198H29.194C29.194 14.0198 30.1105 10.9986 28.7866 9.18249C27.6664 7.63794 25.5956 7.62097 25.2053 7.62097ZM27.0044 11.7454H22.5744C22.7272 11.1514 23.6777 9.67472 25.4089 9.82747C27.293 9.99721 27.0044 11.7454 27.0044 11.7454Z" fill="#272425"/>
<path d="M54.9931 15.9547C54.1784 15.9547 53.4146 16.5997 53.2449 17.3974L53.2109 17.7029C53.2109 18.3479 53.6692 18.8232 54.3651 18.8232C55.1628 18.8232 55.9266 18.1612 56.0964 17.3805L56.1303 17.0919C56.1473 16.4469 55.672 15.9547 54.9931 15.9547ZM55.9097 17.3465C55.7739 18.0424 55.061 18.6365 54.3651 18.6365C53.7541 18.6365 53.4146 18.2631 53.4146 17.7029L53.4316 17.4483C53.5674 16.7694 54.2802 16.1584 54.9592 16.1584C55.5702 16.1754 55.9097 16.5488 55.9266 17.0919L55.9097 17.3465ZM54.8743 16.7015H54.2633L53.9747 18.0764H54.2802L54.3651 17.6351H54.6027L54.8064 18.0764H55.1628L54.9252 17.5841C55.1119 17.5162 55.2647 17.3805 55.3156 17.1598C55.3835 16.8713 55.1968 16.7015 54.8743 16.7015ZM55.0101 17.1768C54.9761 17.2956 54.8913 17.3805 54.7385 17.3805H54.433L54.5179 16.9731H54.8234C54.9592 16.9731 55.0271 17.041 55.0101 17.1768Z" fill="#272425"/>
</g>
<defs>
<clipPath id="clip0_1335_241">
<rect width="63.2249" height="24" fill="white"/>
</clipPath>
</defs>
</svg>
