<svg xmlns="http://www.w3.org/2000/svg" viewBox="0 0 211 36"><path d="M70.187 14.115a.577.577 0 0 1-.765.365c-.969-.373-2.065-.64-3.09-.64-1.764 0-3.426.53-3.426 2.296 0 .954.53 1.449 2.227 1.98l1.236.387c2.473.776 3.533 1.907 3.533 4.096 0 3.778-2.65 6.358-7.452 6.358-1.887 0-3.501-.296-4.87-.773-.333-.116-.493-.486-.394-.825l.565-1.96c.094-.325.456-.479.77-.353 1.237.5 2.608.839 3.822.839 2.156 0 3.673-.742 3.673-2.474 0-1.024-.706-1.411-2.296-1.907l-1.343-.423c-2.367-.777-3.427-2.19-3.427-4.45 0-3.851 3.216-5.933 7.454-5.933 1.275 0 2.732.285 3.947.702.335.114.497.486.394.824l-.558 1.891zm8.347-10.082c.33 0 .575.3.514.623l-2.6 13.436c2.45-1.787 4.59-3.887 6.48-6.324a1.27 1.27 0 0 1 1.007-.494h2.828c.272 0 .423.307.267.53-1.859 2.621-3.986 5.04-6.237 6.993l3.582 9.017a.434.434 0 0 1-.402.592h-3.005a.915.915 0 0 1-.854-.595l-2.465-6.717c-.662.446-1.346.859-2.049 1.237l-1.046 5.451a.772.772 0 0 1-.753.624h-2.582a.523.523 0 0 1-.512-.624l4.49-23.126a.768.768 0 0 1 .756-.624h2.581v.001zm13.213 7.24c.33 0 .577.302.514.626l-1.75 9.019c-.142.67-.283 1.518-.283 2.332 0 1.058.6 1.766 2.013 1.766 1.378 0 3.001-.601 4.203-1.73l2.245-11.388a.774.774 0 0 1 .756-.624h2.582c.329 0 .575.3.511.625l-2.314 11.88c-.283 1.377-.6 2.931-.882 4.168C97.999 33.528 95.456 36 90.369 36c-1.12 0-2.235-.14-3.205-.4a.687.687 0 0 1-.494-.818l.442-1.804a.616.616 0 0 1 .738-.461c.733.175 1.571.304 2.343.304 3.005 0 4.768-1.272 5.404-4.732l.25-1.308c-1.307 1.13-3.252 1.872-5.087 1.872-2.968 0-4.557-1.483-4.557-3.85 0-1.413.283-2.968.6-4.59l1.61-8.313a.773.773 0 0 1 .755-.626h2.579v-.001zm23.306 2.855a.577.577 0 0 1-.765.366c-.968-.374-2.066-.642-3.09-.642-1.764 0-3.424.532-3.424 2.297 0 .954.527 1.449 2.223 1.98l1.237.387c2.472.776 3.533 1.907 3.533 4.097 0 3.778-2.65 6.358-7.452 6.358-1.885 0-3.502-.297-4.868-.774-.334-.116-.494-.486-.397-.825l.567-1.96c.093-.325.457-.479.77-.353 1.236.5 2.607.839 3.82.839 2.155 0 3.674-.742 3.674-2.474 0-1.024-.705-1.411-2.294-1.907l-1.346-.423c-2.365-.777-3.424-2.19-3.424-4.45 0-3.851 3.214-5.933 7.454-5.933 1.275 0 2.73.285 3.946.702.332.114.494.486.393.824l-.557 1.891zm15.075.387a.526.526 0 0 1-.735.323c-.93-.425-1.982-.668-3.181-.668-3.743 0-6.007 3.216-6.007 7.313.036 2.439.92 4.063 3.676 4.098 1.22.03 2.493-.217 3.644-.613.282-.096.59.101.556.396l-.243 2.058a1.044 1.044 0 0 1-.692.868c-1.28.445-2.675.681-4.254.681-4.593 0-6.747-2.613-6.747-6.924 0-6.108 3.462-11.335 10.101-11.335 1.61 0 2.97.3 4.075.775.343.151.52.533.415.893l-.608 2.135zm2.814-1.969a.92.92 0 0 1 .618-.85c1.692-.565 3.828-.984 5.685-.984 3.531 0 5.827 1.059 5.827 4.132 0 .635-.106 1.413-.281 2.26l-1.377 7.24c-.213 1.087-.108 1.695.362 1.933.288.145.53.422.464.739l-.207 1.017c-.08.392-.377.716-.769.8a6.464 6.464 0 0 1-1.264.14c-1.592 0-2.367-.743-2.472-2.05h-.106c-1.165 1.272-2.93 2.05-5.017 2.05-3.001 0-4.943-1.518-4.943-4.556 0-4.098 3.25-7.03 10.526-7.03h.955c.104-.53.174-1.06.174-1.448 0-1.413-.707-2.05-2.93-2.05-1.415 0-3.112.338-4.713.883a.432.432 0 0 1-.572-.421l.04-1.805zm6.762 7.595c-3.567 0-6.182 1.165-6.182 3.743 0 1.132.673 1.838 2.191 1.838 1.447 0 2.967-.742 3.92-1.731l.775-3.85h-.704zm12.01-8.867c.341 0 .608.293.574.634l-.115 1.204h.034c1.73-1.449 3.957-2.4 6.111-2.4 2.685 0 4.45 1.552 4.45 4.026 0 1.2-.175 2.188-.387 3.319l-1.859 9.726a.774.774 0 0 1-.754.624h-2.582a.521.521 0 0 1-.512-.624l1.714-8.879c.178-.882.32-1.872.32-2.472 0-1.306-.708-1.977-2.192-1.977-1.623 0-3.461.845-4.767 2.082l-2.142 11.246a.77.77 0 0 1-.752.624h-2.581a.523.523 0 0 1-.516-.624l3.045-15.884a.768.768 0 0 1 .752-.625h2.159zm17.485 0a.58.58 0 0 1 .575.634l-.117 1.204h.035c1.731-1.449 3.955-2.4 6.109-2.4 2.686 0 4.452 1.552 4.452 4.026 0 1.2-.178 2.188-.388 3.319l-1.86 9.726a.772.772 0 0 1-.754.624h-2.582a.525.525 0 0 1-.515-.624l1.72-8.879c.176-.882.317-1.872.317-2.472 0-1.306-.707-1.977-2.191-1.977-1.624 0-3.46.845-4.768 2.082l-2.14 11.246a.771.771 0 0 1-.755.624h-2.582a.525.525 0 0 1-.516-.624l3.047-15.884a.768.768 0 0 1 .755-.625h2.158zm16.53 10.208c-.06.517-.05 1.04.035 1.555.318 1.73 1.66 2.578 3.92 2.578 1.578 0 3.234-.243 4.689-.706.28-.089.57.126.532.418l-.235 1.955c-.046.382-.289.721-.654.849-1.6.559-3.41.84-5.11.84-4.873 0-7.24-2.084-7.24-6.816 0-4.099 1.34-7.877 4.239-9.89 1.448-1.026 3.25-1.553 5.51-1.553 4.097 0 5.898 2.328 5.898 5.792 0 1.193-.142 2.781-.471 4.388-.073.355-.402.59-.764.59h-10.349zm7.416-2.79c.18-.668.275-1.357.283-2.049 0-1.59-.705-2.72-2.506-2.72-2.614 0-4.205 1.908-4.769 4.769h6.992zm10.495-7.418a.59.59 0 0 1 .588.634l-.098 1.38h.07c1.308-1.59 3.217-2.402 5.017-2.402a7.2 7.2 0 0 1 .514.016c.337.021.527.376.426.697l-.715 2.285c-.113.365-.468.597-.85.613-1.784.077-3.508.587-4.674 1.406l-2.28 11.88a.773.773 0 0 1-.756.624h-2.58a.524.524 0 0 1-.515-.624l3.046-15.884a.77.77 0 0 1 .752-.625h2.055zM28.247 14.713c4.78-4.781 11.05-7.158 17.318-7.152l.05.001c.57 1.336.901 2.763.978 4.214a20.283 20.283 0 0 0-1-.025l-.028.002-.026-.002a20.127 20.127 0 0 0-14.322 5.933 20.126 20.126 0 0 0-5.934 14.321l.003.072H21.09c-.017-6.282 2.361-12.572 7.156-17.365l.001.001zm24.843 8.02c.03-.329.046-.662.046-.999 0-1.604-.369-3.12-1.023-4.473a16.159 16.159 0 0 0-6.548-1.371 16.06 16.06 0 0 0-11.43 4.715 16.063 16.063 0 0 0-4.716 11.473h4.21c-.018-3.08 1.132-6.162 3.475-8.505a11.87 11.87 0 0 1 8.25-3.473v-.003l.211.002.213-.002v.003c2.597.038 5.183.913 7.312 2.633zm-42.019-4.917l-.002-.017.002.017zm40.225 8.491a8.011 8.011 0 0 0-5.518-2.353v.002l-.213-.002-.212.002v-.002a8.014 8.014 0 0 0-5.517 2.353 8.02 8.02 0 0 0-2.35 5.772h4.04c.265-1.35.51-2.032 1.28-2.803a3.83 3.83 0 0 1 2.76-1.11 3.83 3.83 0 0 1 2.76 1.11c.263.264.473.558.642.869a10.095 10.095 0 0 0 2.851-3.258 7.998 7.998 0 0 0-.523-.58zm-34.17 5.7c0-14.844 11.382-27.026 25.895-28.301A12.408 12.408 0 0 0 34.164 0c-6.382 0-11.64 4.8-12.368 10.985a7.013 7.013 0 0 0-3.737-1.074c-3.89 0-7.432 3.892-6.988 7.905a7.562 7.562 0 1 0-4.603 14.183c.287.05.582.08.883.08h9.775v-.074.002zM11.06 17.718l.009.08-.009-.08z"/></svg>