<svg xmlns="http://www.w3.org/2000/svg" viewBox="0 0 16 16" enable-background="new 0 0 16 16"><g fill="#34363D"><path d="M4 4.439v8.873c0 .795.644 1.439 1.439 1.439h.561v-11.751h-.561c-.795 0-1.439.644-1.439 1.439z"/><circle cx="11.5" cy="14.5" r="1.5"/><path d="M11.5 11.678c.171 0 .337.021.5.05v-8.728h-.008v-1.818c0-.652-.529-1.182-1.181-1.182h-1.329c-.294 0-.532.238-.532.532s.238.532.532.532h1.329c.065 0 .119.054.119.119v1.817h-3.29v11.75h1.063l-.025-.25c0-1.559 1.263-2.822 2.822-2.822z"/></g></svg>