<svg xmlns="http://www.w3.org/2000/svg" viewBox="0 0 24 24" enable-background="new 0 0 24 24"><path d="M3.291 14.588c-.493-1.055-.364-2.361.427-3.296l6.154-7.276c.792-.936 2.018-1.234 3.085-.857l-9.666 11.429zm5.709 2.412c-1.105 0-2 .895-2 2s.895 2 2 2 2-.895 2-2-.895-2-2-2zm11.998-11.699c-.018-.34-.165-.649-.412-.872l-1.192-1.068c-.322-.289-.811-.248-1.091.091-.28.338-.245.845.077 1.132l.942.841-1.57 1.825-3.346-3.071-9.961 11.777 1.75 1.606c.503-1.113 1.582-1.889 2.841-1.889 1.02 0 1.918.514 2.493 1.298l9.157-10.748c.219-.255.33-.582.312-.922z" fill="#34363D"/></svg>