<svg xmlns="http://www.w3.org/2000/svg" viewBox="0 0 48 48"><path d="M35.408 27.707l11.419 3.71A23.995 23.995 0 0 0 48 24H36c0 1.294-.212 2.538-.592 3.707z" opacity=".25" fill="#34363D"/><path d="M16.957 33.694l-7.061 9.719a23.902 23.902 0 0 0 6.688 3.413l3.71-11.419a11.915 11.915 0 0 1-3.337-1.713z" opacity=".6" fill="#34363D"/><path d="M12.592 27.707l-11.419 3.71a23.902 23.902 0 0 0 3.413 6.688l9.719-7.061a11.996 11.996 0 0 1-1.713-3.337z" opacity=".7" fill="#34363D"/><path d="M20.293 35.408l-3.71 11.419A23.995 23.995 0 0 0 24 48V36c-1.294 0-2.538-.212-3.707-.592z" opacity=".55" fill="#34363D"/><path d="M27.707 35.408l3.71 11.419a23.902 23.902 0 0 0 6.688-3.413l-7.061-9.719a11.996 11.996 0 0 1-3.337 1.713z" opacity=".45" fill="#34363D"/><path d="M35.408 27.707a11.97 11.97 0 0 1-1.713 3.337l9.719 7.061a23.902 23.902 0 0 0 3.413-6.688l-11.419-3.71z" opacity=".3" fill="#34363D"/><path d="M24 36v12c2.589 0 5.08-.415 7.417-1.174l-3.71-11.419A11.937 11.937 0 0 1 24 36z" opacity=".5" fill="#34363D"/><path d="M31.043 33.694l7.061 9.719a24.109 24.109 0 0 0 5.309-5.309l-9.719-7.061a12.034 12.034 0 0 1-2.651 2.651z" opacity=".35" fill="#34363D"/><path d="M12 24H0c0 2.589.415 5.08 1.174 7.417l11.419-3.71A11.937 11.937 0 0 1 12 24z" opacity=".75" fill="#34363D"/><path d="M14.306 31.043l-9.719 7.061a24.109 24.109 0 0 0 5.309 5.309l7.061-9.719a12.034 12.034 0 0 1-2.651-2.651z" opacity=".65" fill="#34363D"/><path d="M12.592 20.293l-11.419-3.71A23.995 23.995 0 0 0 0 24h12c0-1.294.212-2.538.592-3.707z" opacity=".8" fill="#34363D"/><path d="M31.043 14.306l7.061-9.719a23.902 23.902 0 0 0-6.688-3.413l-3.71 11.419c1.21.393 2.33.979 3.337 1.713z" opacity=".05" fill="#34363D"/><path d="M35.408 20.293l11.419-3.71a23.902 23.902 0 0 0-3.413-6.688l-9.719 7.061a11.996 11.996 0 0 1 1.713 3.337z" opacity=".15" fill="#34363D"/><path d="M36 24h12c0-2.589-.415-5.08-1.174-7.417l-11.419 3.71C35.788 21.462 36 22.706 36 24z" opacity=".2" fill="#34363D"/><path d="M33.694 16.957l9.719-7.061a24.109 24.109 0 0 0-5.309-5.309l-7.061 9.719a12.034 12.034 0 0 1 2.651 2.651z" opacity=".1" fill="#34363D"/><path d="M14.306 16.957L4.587 9.895a23.902 23.902 0 0 0-3.413 6.688l11.419 3.71a11.923 11.923 0 0 1 1.713-3.336z" opacity=".85" fill="#34363D"/><path d="M16.957 14.306L9.895 4.587a24.121 24.121 0 0 0-5.308 5.308l9.719 7.061a12.05 12.05 0 0 1 2.651-2.65z" opacity=".9" fill="#34363D"/><path d="M24 12V0c-2.589 0-5.08.415-7.417 1.174l3.71 11.419A11.937 11.937 0 0 1 24 12z" fill="#34363D"/><path d="M20.293 12.592l-3.71-11.419a23.945 23.945 0 0 0-6.688 3.414l7.061 9.719a11.972 11.972 0 0 1 3.337-1.714z" opacity=".95" fill="#34363D"/></svg>