<svg xmlns="http://www.w3.org/2000/svg" viewBox="0 0 48 48" enable-background="new 0 0 48 48">
    <path d="M35.408 27.707l11.419 3.71c.758-2.337 1.173-4.828 1.173-7.417h-12c0 1.294-.212 2.538-.592 3.707z" opacity=".25" fill="#34363D"/>
    <path d="M16.957 33.694l-7.061 9.719c2.015 1.467 4.267 2.627 6.688 3.413l3.71-11.419c-1.21-.393-2.33-.979-3.337-1.713z" opacity=".6" fill="#34363D"/>
    <path d="M12.592 27.707l-11.419 3.71c.786 2.421 1.946 4.673 3.413 6.688l9.719-7.061c-.733-1.008-1.319-2.128-1.713-3.337z" opacity=".7" fill="#34363D"/>
    <path d="M20.293 35.408l-3.71 11.419c2.337.758 4.828 1.173 7.417 1.173v-12c-1.294 0-2.538-.212-3.707-.592z" opacity=".55" fill="#34363D"/>
    <path d="M27.707 35.408l3.71 11.419c2.421-.786 4.673-1.946 6.688-3.413l-7.061-9.719c-1.008.733-2.128 1.319-3.337 1.713z" opacity=".45" fill="#34363D"/>
    <path d="M35.408 27.707c-.394 1.209-.979 2.329-1.713 3.337l9.719 7.061c1.467-2.015 2.627-4.267 3.413-6.688l-11.419-3.71z" opacity=".3" fill="#34363D"/>
    <path d="M24 36v12c2.589 0 5.08-.415 7.417-1.174l-3.71-11.419c-1.169.381-2.413.593-3.707.593z" opacity=".5" fill="#34363D"/>
    <path d="M31.043 33.694l7.061 9.719c2.035-1.481 3.828-3.273 5.309-5.309l-9.719-7.061c-.74 1.017-1.634 1.911-2.651 2.651z" opacity=".35" fill="#34363D"/>
    <path d="M12 24h-12c0 2.589.415 5.08 1.174 7.417l11.419-3.71c-.381-1.169-.593-2.413-.593-3.707z" opacity=".75" fill="#34363D"/>
    <path d="M14.306 31.043l-9.719 7.061c1.481 2.035 3.273 3.828 5.309 5.309l7.061-9.719c-1.017-.74-1.911-1.634-2.651-2.651z" opacity=".65" fill="#34363D"/>
    <path d="M12.592 20.293l-11.419-3.71c-.758 2.337-1.173 4.828-1.173 7.417h12c0-1.294.212-2.538.592-3.707z" opacity=".8" fill="#34363D"/>
    <path d="M31.043 14.306l7.061-9.719c-2.015-1.467-4.267-2.627-6.688-3.413l-3.71 11.419c1.21.393 2.33.979 3.337 1.713z" opacity=".05" fill="#34363D"/>
    <path d="M35.408 20.293l11.419-3.71c-.786-2.421-1.946-4.673-3.413-6.688l-9.719 7.061c.733 1.008 1.319 2.128 1.713 3.337z" opacity=".15" fill="#34363D"/>
    <path d="M36 24h12c0-2.589-.415-5.08-1.174-7.417l-11.419 3.71c.381 1.169.593 2.413.593 3.707z" opacity=".2" fill="#34363D"/>
    <path d="M33.694 16.957l9.719-7.061c-1.481-2.035-3.273-3.828-5.309-5.309l-7.061 9.719c1.017.74 1.911 1.634 2.651 2.651z" opacity=".1" fill="#34363D"/>
    <path d="M14.306 16.957l-9.719-7.062c-1.467 2.015-2.627 4.267-3.413 6.688l11.419 3.71c.393-1.209.979-2.329 1.713-3.336z" opacity=".85" fill="#34363D"/>
    <path d="M16.957 14.306l-7.062-9.719c-2.035 1.481-3.827 3.273-5.308 5.308l9.719 7.061c.74-1.016 1.634-1.91 2.651-2.65z" opacity=".9" fill="#34363D"/>
    <path d="M24 12v-12c-2.589 0-5.08.415-7.417 1.174l3.71 11.419c1.169-.381 2.413-.593 3.707-.593z" fill="#34363D"/>
    <path d="M20.293 12.592l-3.71-11.419c-2.421.787-4.672 1.947-6.688 3.414l7.061 9.719c1.008-.734 2.128-1.32 3.337-1.714z" opacity=".95" fill="#34363D"/>
</svg>