<svg xmlns="http://www.w3.org/2000/svg" xmlns:xlink="http://www.w3.org/1999/xlink" viewBox="0 0 24 24"><defs><symbol id="material_system_icon_border" data-name="material_system_icon_border" viewBox="0 0 48 48"><rect width="48" height="48" fill="none"/></symbol></defs><title>expand</title><g id="icon"><path d="M12.52,11.29h0a1,1,0,0,0,1.41,0L19,6.23V9a1,1,0,0,0,2,0V4a1,1,0,0,0-1-1H15a1,1,0,0,0,0,2h2.4L12.52,9.88A1,1,0,0,0,12.52,11.29Zm-1,1.41h0a1,1,0,0,0-1.41,0L5,17.77V15a1,1,0,1,0-2,0v5a1,1,0,0,0,1,1H9a1,1,0,0,0,0-2H6.6l4.88-4.88A1,1,0,0,0,11.48,12.71Z"/></g><g id="border"><use id="material_system_icon_border-3" data-name="material_system_icon_border" width="48" height="48" transform="translate(0) scale(0.5)" xlink:href="#material_system_icon_border"/></g></svg>