<svg xmlns="http://www.w3.org/2000/svg" viewBox="0 0 18 18"><g fill="none"><path fill="#E6E4EB" d="M3.995 0h10.01A3.997 3.997 0 0 1 18 3.995v10.01A3.997 3.997 0 0 1 14.005 18H3.995A3.997 3.997 0 0 1 0 14.005V3.995A3.997 3.997 0 0 1 3.995 0z"/><path fill="#E6E4EB" d="M1 14.005A2.997 2.997 0 0 0 3.995 17h10.01A2.997 2.997 0 0 0 17 14.005V3.995A2.997 2.997 0 0 0 14.005 1H3.995A2.997 2.997 0 0 0 1 3.995v10.01zM3.995 0h10.01A3.997 3.997 0 0 1 18 3.995v10.01A3.997 3.997 0 0 1 14.005 18H3.995A3.997 3.997 0 0 1 0 14.005V3.995A3.997 3.997 0 0 1 3.995 0z"/><path fill="#B2AEBD" d="M7.471 13.307c-.284 0-.498-.071-.711-.284L4.2 10.819c-.213-.213-.284-.569-.071-.782l.782-.853c.142-.213.498-.213.782-.071l1.564 1.28c.071.071.213.071.356 0l4.551-5.191c.213-.213.569-.284.782-.071l.853.782c.213.213.284.569.071.782l-5.476 6.187c-.284.356-.569.427-.924.427z"/></g></svg>