<svg id="Layer_1" data-name="Layer 1" xmlns="http://www.w3.org/2000/svg" xmlns:xlink="http://www.w3.org/1999/xlink" viewBox="0 0 212.5 46.4"><defs><style>.cls-1{fill:none;}.cls-2{fill:#005466;opacity:0.2;isolation:isolate;}.cls-3{fill:#fd5250;}.cls-4,.cls-5{fill:#990300;}.cls-5{opacity:0.2;}.cls-6{fill:#c72120;}.cls-7{clip-path:url(#clip-path);}.cls-8{fill:#fdd345;}.cls-9{clip-path:url(#clip-path-2);}.cls-10{fill:#fff;}</style><clipPath id="clip-path"><path class="cls-1" d="M10.2,11.9v7.8h1.9V15.2a.22.22,0,0,1,.2-.2H15a.22.22,0,0,1,.2.2v4.5H17V11.9Z"/></clipPath><clipPath id="clip-path-2"><path class="cls-1" d="M25.4,11.9v7.8h1.9V15.2a.22.22,0,0,1,.2-.2h2.7a.22.22,0,0,1,.2.2h0v4.5h1.9V11.9Z"/></clipPath></defs><title>Artboard 1</title><g id="Layer_1-2" data-name="Layer 1"><path class="cls-2" d="M3.5,45.1H39a.47.47,0,0,1,.5.5v.3a.47.47,0,0,1-.5.5H3.5a.47.47,0,0,1-.5-.5v-.3A.47.47,0,0,1,3.5,45.1Z"/><path class="cls-3" d="M6.1,21.6l-3.4.7-.3.2L.8,26.1a.44.44,0,0,0,.1.5.31.31,0,0,1,.2.1l5,.5L6.6,22a.43.43,0,0,0-.4-.4Z"/><path class="cls-4" d="M6.6,27.9,1,27.3a1.17,1.17,0,0,1-.9-1.1.37.37,0,0,1,.1-.3l1.6-3.5a1.06,1.06,0,0,1,.7-.6L6,21.1H6a1,1,0,0,1,1.2.8v.3ZM1.5,26.2l4.1.4L6,22.3,2.9,23Z"/><path class="cls-3" d="M6.1,27.3,4.8,39.2l-2.9-.3A1.46,1.46,0,0,1,.6,37.3l.8-10.6Z"/><path class="cls-4" d="M5.4,39.8l-3.5-.4A2.08,2.08,0,0,1,0,37.3L.8,26.1l6,.6ZM1.9,27.4l-.7,9.9a.88.88,0,0,0,.8.9l2.3.2L5.4,27.8Z"/><path class="cls-3" d="M36.3,21.6l3.4.7.3.2L41.6,26a.44.44,0,0,1-.1.5.31.31,0,0,0-.2.1l-5,.5-.5-5.2a.38.38,0,0,1,.5-.3Z"/><path class="cls-4" d="M35.8,27.9l-.6-5.8a1,1,0,0,1,.9-1.1h.3l3.4.7a1.06,1.06,0,0,1,.7.6l1.6,3.5a1,1,0,0,1-.5,1.3c-.1,0-.2.1-.3.1Zm.6-5.6.5,4.3,4.1-.4L39.6,23Z"/><path class="cls-3" d="M36.4,27.3l1.3,11.9,2.9-.3a1.46,1.46,0,0,0,1.3-1.6l-.8-10.6Z"/><path class="cls-4" d="M37.1,39.8,35.7,26.7l6-.6.8,11.2a2.08,2.08,0,0,1-1.8,2.2Zm-.1-12,1.1,10.7,2.3-.2a.88.88,0,0,0,.8-.9l-.7-9.9Z"/><path class="cls-3" d="M21.2.6A3.8,3.8,0,1,0,25,4.4h0A3.8,3.8,0,0,0,21.2.6Zm0,5.8a2,2,0,1,1,2-2A2,2,0,0,1,21.2,6.4Z"/><path class="cls-4" d="M21.2,8.7a4.44,4.44,0,0,1-4.4-4.4,4.4,4.4,0,0,1,8.8,0h0A4.44,4.44,0,0,1,21.2,8.7Zm0-7.5A3.16,3.16,0,0,0,18,4.4a3.2,3.2,0,1,0,6.4,0,3.16,3.16,0,0,0-3.2-3.2Zm0,5.8a2.65,2.65,0,0,1-2.6-2.6,2.6,2.6,0,1,1,5.2,0A2.65,2.65,0,0,1,21.2,7Zm0-4a1.37,1.37,0,0,0-1.4,1.4,1.4,1.4,0,0,0,2.8,0h0A1.37,1.37,0,0,0,21.2,3Z"/><path class="cls-3" d="M35.3,14.3l2.5,27.4a3.19,3.19,0,0,1-1,2.6h0a3.23,3.23,0,0,1-2.1.8H7.8a3.23,3.23,0,0,1-2.1-.8h0a3.19,3.19,0,0,1-1-2.6L7.2,14.3Z"/><path class="cls-4" d="M34.7,45.7H7.8A3.69,3.69,0,0,1,4.1,42v-.3l2.6-28H35.8l2.5,27.9a3.77,3.77,0,0,1-3.4,4h-.3ZM7.8,14.9,5.3,41.7a2.48,2.48,0,0,0,2.3,2.7H34.7a2.48,2.48,0,0,0,2.5-2.5v-.2L34.7,14.9Z"/><path class="cls-5" d="M6.7,22.9l1.1,2.4a2.6,2.6,0,0,0,2.4,1.6h2.5a1.91,1.91,0,0,0,1.8,0H27.9a1.91,1.91,0,0,0,1.8,0h2.6a2.6,2.6,0,0,0,2.4-1.6l1.1-2.4Z"/><path class="cls-3" d="M37.2,9.8,35.6,21.4a4.64,4.64,0,0,1-4.6,4H11.5a4.64,4.64,0,0,1-4.6-4L5.3,9.8A4.48,4.48,0,0,1,9.1,4.6c.2,0,.4-.1.7-.1H32.6A4.72,4.72,0,0,1,37.3,9C37.3,9.3,37.2,9.6,37.2,9.8Z"/><path class="cls-4" d="M31,26H11.5a5.27,5.27,0,0,1-5.2-4.5L4.7,9.8A5.26,5.26,0,0,1,9.2,3.9H32.6a5.16,5.16,0,0,1,5.2,5.2v.7L36.2,21.5A5.27,5.27,0,0,1,31,26ZM9.8,5.1a4,4,0,0,0-4,4v.6L7.5,21.3a4,4,0,0,0,4,3.4H31a4,4,0,0,0,4-3.4L36.6,9.7a4.12,4.12,0,0,0-3.4-4.6H9.8Z"/><path class="cls-6" d="M9.8,22.9a.27.27,0,0,1-.3-.3V22a.52.52,0,0,1,.2-.4c.1-.1.3.1.4.2v.6a.27.27,0,0,1-.3.3Zm-.2-1.8a.27.27,0,0,1-.3-.3v-.6a.3.3,0,0,1,.6,0v.6A.27.27,0,0,1,9.6,21.1Zm-.2-1.8c-.2.1-.3,0-.4-.2v-.7a.52.52,0,0,1,.2-.4c.1-.1.3.1.4.2h0V19a.27.27,0,0,1-.3.3Zm-.2-1.8a.27.27,0,0,1-.3-.3v-.6a.52.52,0,0,1,.2-.4c.1-.1.3.1.4.2h0V17a.27.27,0,0,1-.3.3ZM9,15.7a.27.27,0,0,1-.3-.3h0v-.6a.52.52,0,0,1,.2-.4c.1-.1.3.1.4.2h0v.6a.27.27,0,0,1-.3.3H9Zm-.2-1.8a.27.27,0,0,1-.3-.3h0V13a.52.52,0,0,1,.2-.4c.1-.1.3.1.4.2v.6a.27.27,0,0,1-.3.3h0Zm-.2-1.8a.27.27,0,0,1-.3-.3h0v-.6a.52.52,0,0,1,.2-.4c.1-.1.3.1.4.2h0v.6a.27.27,0,0,1-.3.3h0Zm-.2-1.8a.27.27,0,0,1-.3-.3h0V9.5a.52.52,0,0,1,.2-.4c.1-.1.3.1.4.2V10a.27.27,0,0,1-.3.3ZM7.9,8.6a.27.27,0,0,1-.3-.3h0V7.7c0-.2.1-.3.2-.3s.3.1.3.2v.6a.27.27,0,0,1-.3.3h0Z"/><path class="cls-6" d="M32.7,22.9h0a.27.27,0,0,1-.3-.3V22c0-.2.2-.3.3-.2s.3.2.2.4v.6C33,22.8,32.8,22.9,32.7,22.9Zm.2-1.8h0a.27.27,0,0,1-.3-.3v-.6c0-.2.2-.3.3-.2s.3.2.2.4V21C33.2,21,33,21.1,32.9,21.1Zm.2-1.8h0a.27.27,0,0,1-.3-.3v-.6c0-.2.2-.3.3-.2s.3.2.2.4V19c.1.2,0,.3-.2.3Zm.2-1.8h0a.27.27,0,0,1-.3-.3v-.6c0-.2.2-.3.3-.2s.3.2.2.4v.6c.1,0,0,.1-.2.1Zm.2-1.8h0a.27.27,0,0,1-.3-.3v-.6c0-.2.2-.3.3-.2s.3.2.2.3v.6c.1.1,0,.2-.2.2Zm.2-1.8h0a.27.27,0,0,1-.3-.3V13c0-.2.2-.3.3-.2s.3.2.2.3v.6c0,.1,0,.1-.1.2Zm.2-1.8h0a.27.27,0,0,1-.3-.3v-.6c0-.2.2-.3.3-.2s.3.2.2.3v.6c0,.1,0,.1-.1.2Zm.2-1.8h0a.27.27,0,0,1-.3-.3V9.4c0-.2.2-.3.3-.2s.3.2.2.3v.6a.19.19,0,0,1,0,.3Zm.2-1.8h0a.27.27,0,0,1-.3-.3V7.6c0-.2.2-.3.3-.2s.3.2.2.3v.6a.19.19,0,0,1,0,.3Z"/><path class="cls-3" d="M11.2,6.4H31.3a1.32,1.32,0,0,1,1.3,1.3v.9a1.32,1.32,0,0,1-1.3,1.3H11.2A1.32,1.32,0,0,1,9.9,8.6V7.7A1.32,1.32,0,0,1,11.2,6.4Z"/><circle class="cls-3" cx="13.7" cy="25.2" r="0.9"/><circle class="cls-3" cx="28.8" cy="25.2" r="0.9"/><path class="cls-4" d="M12.1,4.8V25.2a1.5,1.5,0,0,0,1.6,1.5,1.56,1.56,0,0,0,1.6-1.5V4.8Zm1.5,21a.5.5,0,1,1,.5-.5c0,.2-.3.4-.5.5Zm0-2.5a.5.5,0,1,1,.5-.5c0,.2-.3.4-.5.5Zm0-2.5a.5.5,0,1,1,.5-.5A.47.47,0,0,1,13.6,20.8Zm0-2.5a.5.5,0,1,1,.5-.5A.47.47,0,0,1,13.6,18.3Z"/><path class="cls-4" d="M27.3,4.8V25.2a1.47,1.47,0,0,0,1.5,1.5,1.56,1.56,0,0,0,1.6-1.5V4.8Zm1.5,21a.5.5,0,1,1,.5-.5c0,.2-.3.4-.5.5Zm0-2.5a.5.5,0,1,1,.5-.5c0,.2-.3.4-.5.5Zm0-2.5a.5.5,0,1,1,.5-.5A.47.47,0,0,1,28.8,20.8Zm0-2.5a.5.5,0,1,1,.5-.5A.47.47,0,0,1,28.8,18.3Z"/><g class="cls-7"><path class="cls-8" d="M12.9,14.2h1.5a1.75,1.75,0,0,1,1.7,1.7v1.5a1.75,1.75,0,0,1-1.7,1.7H12.9a1.75,1.75,0,0,1-1.7-1.7V15.9A1.75,1.75,0,0,1,12.9,14.2Z"/><path class="cls-4" d="M15.2,19.4H12a1.16,1.16,0,0,1-1.2-1.2h0V15A1.28,1.28,0,0,1,12,13.9h3.2A1.28,1.28,0,0,1,16.4,15v3.2A1.16,1.16,0,0,1,15.2,19.4ZM12,14.5a.65.65,0,0,0-.6.6h0v3.2a.65.65,0,0,0,.6.6h3.2a.65.65,0,0,0,.6-.6h0V15a.65.65,0,0,0-.6-.6h0Z"/></g><path class="cls-8" d="M13.5,13.3h.3a.27.27,0,0,1,.3.3v1.6a.27.27,0,0,1-.3.3h-.3a.27.27,0,0,1-.3-.3V13.6A.27.27,0,0,1,13.5,13.3Z"/><path class="cls-4" d="M13.6,15.8a.86.86,0,0,1-.8-.8h0V13.8a.79.79,0,0,1,1.5-.5.64.64,0,0,1,0,.6V15A.85.85,0,0,1,13.6,15.8Zm0-2.2-.2.2V15l.2.2.2-.2V13.8Z"/><g class="cls-9"><path class="cls-8" d="M28.1,14.2h1.5a1.75,1.75,0,0,1,1.7,1.7v1.5a1.75,1.75,0,0,1-1.7,1.7H28.1a1.75,1.75,0,0,1-1.7-1.7V15.9A1.75,1.75,0,0,1,28.1,14.2Z"/><path class="cls-4" d="M30.4,19.4H27.2A1.16,1.16,0,0,1,26,18.2h0V15a1.16,1.16,0,0,1,1.2-1.2h3.2A1.16,1.16,0,0,1,31.6,15v3.2A1.16,1.16,0,0,1,30.4,19.4Zm-3.2-4.9a.65.65,0,0,0-.6.6h0v3.2a.65.65,0,0,0,.6.6h3.2a.65.65,0,0,0,.6-.6h0V15a.65.65,0,0,0-.6-.6h0Z"/></g><path class="cls-8" d="M28.7,13.3H29a.27.27,0,0,1,.3.3v1.6a.27.27,0,0,1-.3.3h-.3a.27.27,0,0,1-.3-.3V13.6A.27.27,0,0,1,28.7,13.3Z"/><path class="cls-4" d="M28.8,15.8A.86.86,0,0,1,28,15V13.8a.79.79,0,0,1,1.5-.5.64.64,0,0,1,0,.6V15A.85.85,0,0,1,28.8,15.8Zm0-2.2-.2.2V15l.2.2L29,15V13.8Z"/><path class="cls-3" d="M3.4,23.2H4.8a.43.43,0,0,1,.4.4V24a.43.43,0,0,1-.4.4H3.4A.43.43,0,0,1,3,24v-.4A.43.43,0,0,1,3.4,23.2Z"/><path class="cls-3" d="M37.6,23.2H39a.43.43,0,0,1,.4.4V24a.43.43,0,0,1-.4.4H37.6a.43.43,0,0,1-.4-.4v-.4A.43.43,0,0,1,37.6,23.2Z"/><path class="cls-6" d="M6.7,41.4h0a.27.27,0,0,1-.3-.3v-.6a.27.27,0,0,1,.3-.3.27.27,0,0,1,.3.3H7v.6A.27.27,0,0,1,6.7,41.4Zm.1-1.8h0a.27.27,0,0,1-.3-.3v-.6a.27.27,0,0,1,.3-.3.27.27,0,0,1,.3.3v.6A.27.27,0,0,1,6.8,39.6Zm.1-1.8h0a.27.27,0,0,1-.3-.3v-.6a.27.27,0,0,1,.3-.3.27.27,0,0,1,.3.3v.6A.27.27,0,0,1,6.9,37.8ZM7.1,36h0c-.3,0-.4-.1-.4-.3V35a.27.27,0,0,1,.3-.3.27.27,0,0,1,.3.3v.6c.1.2,0,.3-.2.4Zm.1-1.8h0a.27.27,0,0,1-.3-.3v-.6a.27.27,0,0,1,.3-.3.27.27,0,0,1,.3.3v.6A.27.27,0,0,1,7.2,34.2Zm.1-1.8h0a.27.27,0,0,1-.3-.3v-.7a.27.27,0,0,1,.3-.3.27.27,0,0,1,.3.3V32c.1.2,0,.3-.2.4Zm.1-1.8h0a.27.27,0,0,1-.3-.3v-.6a.27.27,0,0,1,.3-.3.27.27,0,0,1,.3.3v.6c0,.1-.1.3-.2.3Zm.1-1.8h0a.27.27,0,0,1-.3-.3v-.6a.27.27,0,0,1,.3-.3.27.27,0,0,1,.3.3v.6c0,.1-.1.3-.2.3ZM7.7,27h0a.27.27,0,0,1-.3-.3V26A.3.3,0,1,1,8,26H8v.6c.1.2,0,.3-.2.4Z"/><path class="cls-6" d="M35.7,41.4a.27.27,0,0,1-.3-.3v-.6a.3.3,0,0,1,.6,0V41a.27.27,0,0,1-.3.3Zm-.1-1.8a.27.27,0,0,1-.3-.3v-.6a.3.3,0,0,1,.6,0v.6A.27.27,0,0,1,35.6,39.6Zm-.1-1.8a.27.27,0,0,1-.3-.3v-.6a.3.3,0,0,1,.6,0h0v.6A.27.27,0,0,1,35.5,37.8ZM35.3,36a.27.27,0,0,1-.3-.3v-.6a.3.3,0,0,1,.6,0v.6A.27.27,0,0,1,35.3,36Zm-.1-1.8a.27.27,0,0,1-.3-.3v-.6a.3.3,0,0,1,.6,0v.6A.27.27,0,0,1,35.2,34.2ZM35,32.4a.27.27,0,0,1-.3-.3v-.6a.3.3,0,0,1,.6,0V32a.27.27,0,0,1-.3.3Zm-.1-1.8a.27.27,0,0,1-.3-.3v-.6a.3.3,0,1,1,.6,0v.6A.27.27,0,0,1,34.9,30.6Zm-.1-1.8a.27.27,0,0,1-.3-.3v-.6a.3.3,0,0,1,.6,0v.6A.27.27,0,0,1,34.8,28.8ZM34.6,27a.27.27,0,0,1-.3-.3v-.6a.3.3,0,0,1,.6,0v.6A.27.27,0,0,1,34.6,27Z"/><polygon class="cls-1" points="21 42.2 21.4 42.2 34.6 42.2 36.8 37.9 34.7 14.9 7.8 14.9 5.7 37.9 7.9 42.2 21 42.2"/><path class="cls-5" d="M5.7,43.3a2.61,2.61,0,0,0,2.1,1.1H34.7a2.61,2.61,0,0,0,2.1-1.1,2.93,2.93,0,0,0,.4-1.6L36.9,38l-1.4,2.6a2.88,2.88,0,0,1-2.6,1.6H9.7a2.88,2.88,0,0,1-2.6-1.6L5.7,37.9l-.3,3.7A2.49,2.49,0,0,0,5.7,43.3Z"/><path class="cls-3" d="M12.3,33.4l1.3,8.9c.1.5.3.8.5.8H28.4c.2,0,.5-.3.5-.8l1.3-8.9c.1-.7-.2-1.3-.5-1.3H12.8C12.5,32.1,12.2,32.7,12.3,33.4Z"/><path class="cls-4" d="M28.4,43.6H14.1c-.6,0-1-.5-1.1-1.3l-1.3-8.9a2.09,2.09,0,0,1,.4-1.7,1,1,0,0,1,.7-.4H29.6a1,1,0,0,1,.7.4,2.09,2.09,0,0,1,.4,1.7l-1.3,8.9C29.4,43.1,28.9,43.6,28.4,43.6ZM14.3,42.4h14v-.3l1.3-8.9a1.27,1.27,0,0,0-.1-.6H13a1.27,1.27,0,0,0-.1.6l1.3,8.9Z"/><path class="cls-3" d="M31.3,34.5l-1.4-4.7a.55.55,0,0,0-.6-.4h-16a.55.55,0,0,0-.6.4l-1.4,4.7c-.1.3.2.6.5.7H30.7a.65.65,0,0,0,.6-.6Z"/><path class="cls-4" d="M30.7,35.8H11.8a1.22,1.22,0,0,1-1.2-1.5L12,29.6a1.3,1.3,0,0,1,1.2-.8h16a1.3,1.3,0,0,1,1.2.8l1.4,4.8a1.23,1.23,0,0,1-.2,1A1.09,1.09,0,0,1,30.7,35.8ZM11.8,34.6H30.7l-1.4-4.7h-16Z"/><path class="cls-3" d="M15.1,30.5H27a.65.65,0,0,1,.6.6v.5a.65.65,0,0,1-.6.6H15.1a.65.65,0,0,1-.6-.6v-.5A.65.65,0,0,1,15.1,30.5Z"/><circle class="cls-8" cx="21.2" cy="33.6" r="0.4"/><polygon class="cls-5" points="29.2 35.8 29 37.1 13.4 37.1 13.3 35.8 29.2 35.8"/><path class="cls-10" d="M74.7,13.9a6.36,6.36,0,0,1,1.2,3.8,5.67,5.67,0,0,1-1.2,3.7,5.22,5.22,0,0,1-1.9,1.4A5.81,5.81,0,0,1,75.7,25a6.86,6.86,0,0,1,1,3.7,8,8,0,0,1-1.1,4A6.92,6.92,0,0,1,71,35.9a21.86,21.86,0,0,1-3.6.3H56v-25H68.2C71.3,11.3,73.4,12.2,74.7,13.9ZM61,15.6v5.6h6.1a5.1,5.1,0,0,0,2.7-.6,2.35,2.35,0,0,0,1-2.2A2.35,2.35,0,0,0,69.5,16a10.32,10.32,0,0,0-3-.4Zm0,9.7V32h6.1a5.69,5.69,0,0,0,2.6-.4,3.26,3.26,0,0,0,1.7-3.1,2.7,2.7,0,0,0-1.6-2.7,6.9,6.9,0,0,0-2.5-.4Z"/><path class="cls-10" d="M87.5,25.1l1.9-.4a1.5,1.5,0,0,0,1-1.4,1.55,1.55,0,0,0-.8-1.6,5.07,5.07,0,0,0-2.4-.4,3,3,0,0,0-2.5.9,3.63,3.63,0,0,0-.7,1.7H79.4a6.71,6.71,0,0,1,1.4-4c1.3-1.7,3.5-2.5,6.7-2.5A13,13,0,0,1,93,18.6c1.6.8,2.4,2.3,2.4,4.6V33.9a2.77,2.77,0,0,0,.3,1.3,1.34,1.34,0,0,0,.7.6v.7H91.1c-.1-.4-.2-.7-.3-1.1a3.75,3.75,0,0,1-.1-1.1,10.59,10.59,0,0,1-2.3,1.9,7.4,7.4,0,0,1-3.6.9,6,6,0,0,1-4.2-1.4,4.86,4.86,0,0,1-1.7-4.1,5.42,5.42,0,0,1,2.7-5,10.64,10.64,0,0,1,4.3-1.2Zm3,2.3-.9.5-1.3.3-1.1.2a8.08,8.08,0,0,0-2.2.7,2.09,2.09,0,0,0-1.2,2.1,2.09,2.09,0,0,0,.7,1.8,2.72,2.72,0,0,0,1.7.6,5.21,5.21,0,0,0,2.9-.9,4,4,0,0,0,1.4-3.4Z"/><path class="cls-10" d="M110,24.5a4.38,4.38,0,0,0-.7-1.9,2.88,2.88,0,0,0-2.6-1.1,3.42,3.42,0,0,0-3.4,2.4,9.67,9.67,0,0,0-.5,3.4,9.46,9.46,0,0,0,.5,3.3,3.33,3.33,0,0,0,3.3,2.3A2.72,2.72,0,0,0,109,32a5,5,0,0,0,.9-2.4h5a8,8,0,0,1-1.6,4.2,7.63,7.63,0,0,1-6.8,3.2q-4.5,0-6.6-2.7a10.66,10.66,0,0,1-2.1-6.9,11.39,11.39,0,0,1,2.3-7.5,8.4,8.4,0,0,1,6.5-2.7,9.68,9.68,0,0,1,5.7,1.6c1.5,1.1,2.3,2.9,2.6,5.6Z"/><path class="cls-10" d="M117.6,11.3h4.8V24.9l6.1-7h6.1l-6.7,6.9,6.9,11.6h-5.9l-4.5-8-2,2.1v5.9h-4.8Z"/><path class="cls-10" d="M152.8,19.8c1.5,1.6,2.3,4,2.3,7.1a11.74,11.74,0,0,1-2.2,7.5,7.32,7.32,0,0,1-5.7,2.6,5.57,5.57,0,0,1-3.7-1.1,6.9,6.9,0,0,1-1.6-1.8v9.7H137v-26h4.7v2.8a7.72,7.72,0,0,1,1.7-1.9,6,6,0,0,1,3.9-1.2A7.47,7.47,0,0,1,152.8,19.8ZM149,23.3a3.51,3.51,0,0,0-3.2-1.7,3.58,3.58,0,0,0-3.7,2.5,9.67,9.67,0,0,0-.5,3.4,5.74,5.74,0,0,0,1.7,4.6,4.38,4.38,0,0,0,2.5.8,3.84,3.84,0,0,0,3.1-1.6,7,7,0,0,0,1.1-4.2A7.46,7.46,0,0,0,149,23.3Z"/><path class="cls-10" d="M165.2,25.1l1.9-.4a1.5,1.5,0,0,0,1-1.4,1.55,1.55,0,0,0-.8-1.6,5.07,5.07,0,0,0-2.4-.4,3,3,0,0,0-2.5.9,3.63,3.63,0,0,0-.7,1.7H157a6.71,6.71,0,0,1,1.4-4c1.3-1.7,3.5-2.5,6.7-2.5a13,13,0,0,1,5.5,1.2c1.6.8,2.4,2.3,2.4,4.6V33.9a2.77,2.77,0,0,0,.3,1.3,1.34,1.34,0,0,0,.7.6v.7h-5.3c-.1-.4-.2-.7-.3-1.1a3.75,3.75,0,0,1-.1-1.1,10.59,10.59,0,0,1-2.3,1.9,7.4,7.4,0,0,1-3.6.9,6,6,0,0,1-4.2-1.4,4.86,4.86,0,0,1-1.7-4.1,5.42,5.42,0,0,1,2.7-5,10.64,10.64,0,0,1,4.3-1.2Zm3,2.3-.9.5-1.3.3-1.1.2a8.08,8.08,0,0,0-2.2.7,2.09,2.09,0,0,0-1.2,2.1,2.09,2.09,0,0,0,.7,1.8,2.72,2.72,0,0,0,1.7.6,5.21,5.21,0,0,0,2.9-.9,4,4,0,0,0,1.4-3.4Z"/><path class="cls-10" d="M187.7,24.5a4.38,4.38,0,0,0-.7-1.9,2.88,2.88,0,0,0-2.6-1.1,3.42,3.42,0,0,0-3.4,2.4,9.67,9.67,0,0,0-.5,3.4,9.46,9.46,0,0,0,.5,3.3,3.33,3.33,0,0,0,3.3,2.3,2.72,2.72,0,0,0,2.4-.9,5,5,0,0,0,.9-2.4h5a8,8,0,0,1-1.6,4.2,7.63,7.63,0,0,1-6.8,3.2q-4.5,0-6.6-2.7a10.66,10.66,0,0,1-2.1-6.9,11.39,11.39,0,0,1,2.3-7.5,8.4,8.4,0,0,1,6.5-2.7,9.68,9.68,0,0,1,5.7,1.6c1.5,1.1,2.3,2.9,2.6,5.6Z"/><path class="cls-10" d="M195.3,11.3H200V24.9l6.1-7h6.1l-6.7,6.9,6.9,11.6h-5.9l-4.5-8-2,2.1v5.9h-4.8Z"/></g></svg>