<?xml version="1.0" encoding="UTF-8"?>
<svg width="43px" height="46px" viewBox="0 0 43 46" version="1.1" xmlns="http://www.w3.org/2000/svg" xmlns:xlink="http://www.w3.org/1999/xlink">
    <!-- Generator: Sketch 48.2 (47327) - http://www.bohemiancoding.com/sketch -->
    <title>Backpack</title>
    <desc>Created with Sketch.</desc>
    <defs></defs>
    <g id="Artboard" stroke="none" stroke-width="1" fill="none" fill-rule="evenodd" transform="translate(-10.000000, -59.000000)">
        <g id="Backpack" transform="translate(10.000000, 59.000000)">
            <path d="M3.50684932,45 L39.4931507,45 C39.7972603,45 40,45.1538462 40,45.3846154 L40,45.6153846 C40,45.8461538 39.7972603,46 39.4931507,46 L3.50684932,46 C3.20273973,46 3,45.8461538 3,45.6153846 L3,45.3846154 C3,45.1538462 3.20273973,45 3.50684932,45 Z" id="Shape" fill="#005466" fill-rule="nonzero" opacity="0.2"></path>
            <path d="M6.48642636,22 L2.99412565,22.75 L2.68598147,22.9642857 L1.04254583,26.8214286 C0.939831106,27.0357143 1.04254583,27.25 1.14526056,27.3571429 C1.14526056,27.3571429 1.24797529,27.3571429 1.35069001,27.4642857 L6.48642636,28 L7,22.4285714 C7,22.2142857 6.79457055,22 6.58914109,22 C6.58914109,22 6.48642636,22 6.48642636,22 Z" id="Shape" fill="#FD5250" fill-rule="nonzero"></path>
            <path d="M6.4084507,28 L0.887323944,27.3840694 C0.394366197,27.2814143 0,26.7681388 0,26.2548633 C0,26.1522082 0,26.0495531 0.0985915493,25.946898 L1.67605634,22.3539695 C1.77464789,22.0460042 2.07042254,21.840694 2.36619718,21.7380389 L5.81690141,21.0194532 C6.30985915,20.9167981 6.90140845,21.2247634 7,21.840694 C7,21.9433491 7,22.0460042 7,22.1486593 L6.4084507,28 Z M1.38028169,26.2548633 L5.42253521,26.6654837 L5.81690141,22.2513144 L2.76056338,22.9699001 L1.38028169,26.2548633 Z" id="Shape" fill="#990300" fill-rule="nonzero"></path>
            <path d="M7,27.624 L5.58462419,40 L2.42724739,39.688 C1.55624689,39.584 0.902996514,38.856 1.01187158,38.024 L1.88287207,27 L7,27.624 Z" id="Shape" fill="#FD5250" fill-rule="nonzero"></path>
            <path d="M5.55882353,40 L1.95588235,39.5912409 C0.823529412,39.4890511 0,38.5693431 0,37.4452555 L0.823529412,26 L7,26.6131387 L5.55882353,40 Z M1.95588235,27.3284672 L1.23529412,37.4452555 C1.23529412,37.9562044 1.54411765,38.2627737 2.05882353,38.3649635 L4.42647059,38.5693431 L5.55882353,27.7372263 L1.95588235,27.3284672 Z" id="Shape" fill="#990300" fill-rule="nonzero"></path>
            <path d="M36.5135736,22.028877 L40.0058744,22.7888381 L40.3140185,23.0059699 L41.9574542,26.8057754 C42.0601689,27.0229072 41.9574542,27.2400389 41.8547394,27.3486048 C41.8547394,27.3486048 41.7520247,27.3486048 41.64931,27.4571706 L36.5135736,28 L36,22.3545747 C36,22.1374429 36.3081442,21.9203112 36.5135736,22.028877 C36.5135736,22.028877 36.5135736,22.028877 36.5135736,22.028877 Z" id="Shape" fill="#FD5250" fill-rule="nonzero"></path>
            <path d="M35.6160224,28 L35.015332,22.115942 C34.9152169,21.6086957 35.3156772,21.1014493 35.9163675,21 C36.0164826,21 36.1165977,21 36.2167127,21 L39.6206248,21.7101449 C39.9209699,21.8115942 40.2213151,22.0144928 40.3214302,22.3188406 L41.9232711,25.8695652 C42.1235013,26.3768116 41.9232711,26.9855072 41.4226958,27.1884058 C41.3225808,27.1884058 41.2224657,27.2898551 41.1223507,27.2898551 L35.6160224,28 Z M36.2167127,22.3188406 L36.717288,26.6811594 L40.8220055,26.2753623 L39.4203946,23.0289855 L36.2167127,22.3188406 Z" id="Shape" fill="#990300" fill-rule="nonzero"></path>
            <path d="M36,27.624 L37.4153758,40 L40.5727526,39.688 C41.4437531,39.584 42.0970035,38.856 41.9881284,38.024 L41.1171279,27 L36,27.624 Z" id="Shape" fill="#FD5250" fill-rule="nonzero"></path>
            <path d="M37.4393901,40 L36,26.6131387 L42.1688147,26 L42.9913234,37.4452555 C43.094137,38.5693431 42.2716283,39.4890511 41.140679,39.6934307 L37.4393901,40 Z M37.3365765,27.7372263 L38.4675259,38.6715328 L40.8322382,38.4671533 C41.3463061,38.3649635 41.6547468,38.0583942 41.6547468,37.5474453 L40.9350518,27.4306569 L37.3365765,27.7372263 Z" id="Shape" fill="#990300" fill-rule="nonzero"></path>
            <path d="M21,1 C18.7894737,1 17,2.78947368 17,5 C17,7.21052632 18.7894737,9 21,9 C23.2105263,9 25,7.21052632 25,5 C25,2.78947368 23.2105263,1 21,1 Z M21,7.10526316 C19.8421053,7.10526316 18.8947368,6.15789474 18.8947368,5 C18.8947368,3.84210526 19.8421053,2.89473684 21,2.89473684 C22.1578947,2.89473684 23.1052632,3.84210526 23.1052632,5 C23.1052632,6.15789474 22.1578947,7.10526316 21,7.10526316 Z" id="Shape" fill="#FD5250" fill-rule="nonzero"></path>
            <path d="M21.5,9 C19.0454545,9 17,6.95454545 17,4.5 C17,2.04545455 19.0454545,0 21.5,0 C23.9545455,0 26,2.04545455 26,4.5 C26,6.95454545 23.9545455,9 21.5,9 Z M21.5,1.32954545 C19.6590909,1.32954545 18.2272727,2.76136364 18.2272727,4.60227273 C18.2272727,6.44318182 19.6590909,7.875 21.5,7.875 C23.3409091,7.875 24.7727273,6.44318182 24.7727273,4.60227273 C24.7727273,2.76136364 23.3409091,1.32954545 21.5,1.32954545 Z M21.5,7.26136364 C20.0681818,7.26136364 18.8409091,6.03409091 18.8409091,4.60227273 C18.8409091,3.17045455 20.0681818,1.94318182 21.5,1.94318182 C22.9318182,1.94318182 24.1590909,3.17045455 24.1590909,4.60227273 C24.1590909,6.03409091 22.9318182,7.26136364 21.5,7.26136364 Z M21.5,3.17045455 C20.6818182,3.17045455 20.0681818,3.78409091 20.0681818,4.60227273 C20.0681818,5.42045455 20.6818182,6.03409091 21.5,6.03409091 C22.3181818,6.03409091 22.9318182,5.42045455 22.9318182,4.60227273 C22.9318182,3.78409091 22.3181818,3.17045455 21.5,3.17045455 Z" id="Shape" fill="#990300" fill-rule="nonzero"></path>
            <path d="M35.4946945,14 L37.9848536,41.5779221 C38.08446,42.5844156 37.6860345,43.4902597 36.9887899,44.1948052 C36.3911517,44.6980519 35.6939072,45 34.8970563,45 L8.10294375,45 C7.30609282,45 6.60884825,44.6980519 6.01121006,44.1948052 C5.31396549,43.4902597 4.91554003,42.5844156 5.01514639,41.5779221 L7.50530555,14 L35.4946945,14 Z" id="Shape" fill="#FD5250" fill-rule="nonzero"></path>
            <path d="M34.4060142,46 L7.6765442,46 C5.68922301,46 4,44.4 4,42.3 C4,42.2 4,42.1 4,42 L6.58351755,14 L35.4990409,14 L37.9831924,41.9 C38.1819245,43.9 36.5920675,45.7 34.6047463,45.9 C34.5053803,45.9 34.4060142,45.9 34.3066482,45.9 L34.4060142,46 Z M7.6765442,15.2 L5.19239271,42 C5.09302666,43.4 6.08668725,44.6 7.47781209,44.7 C7.57717814,44.7 7.57717814,44.7 7.6765442,44.7 L34.4060142,44.7 C35.7971391,44.7 36.8901657,43.6 36.8901657,42.2 C36.8901657,42.1 36.8901657,42.1 36.8901657,42 L34.4060142,15.2 L7.6765442,15.2 Z" id="Shape" fill="#990300" fill-rule="nonzero"></path>
            <path d="M7,23 L8.09621993,25.2721893 C8.49484536,26.2189349 9.49140893,26.7869822 10.4879725,26.7869822 L12.9793814,26.7869822 C13.5773196,27.0710059 14.1752577,27.0710059 14.7731959,26.7869822 L28.1271478,26.7869822 C28.7250859,27.0710059 29.3230241,27.0710059 29.9209622,26.7869822 L32.5120275,26.7869822 C33.5085911,26.7869822 34.5051546,26.2189349 34.9037801,25.2721893 L36,23 L7,23 Z" id="Shape" fill="#E89E9D" fill-rule="nonzero"></path>
            <path d="M36.9001819,10.3253589 L35.3030925,21.9808612 C35.0036383,24.291866 33.0072766,26 30.7114606,26 L11.2469339,26 C8.9511179,26 6.95475619,24.291866 6.65530193,21.9808612 L5.05821256,10.3253589 C4.65894021,7.81339713 6.35584767,5.40191388 8.85129982,5.10047847 C9.05093599,5.10047847 9.25057216,5 9.55002642,5 L32.30855,5 C34.8040021,5 36.9001819,7.00956938 37,9.5215311 C37,9.82296651 36.9001819,10.1244019 36.9001819,10.3253589 Z" id="Shape" fill="#FD5250" fill-rule="nonzero"></path>
            <path d="M31.2309538,26 L11.8197183,26 C9.23155361,26 7.04156807,24.1085973 6.64338888,21.520362 L5.05067213,9.87330317 C4.65249294,7.08597285 6.64338888,4.39819005 9.530188,4 C9.7292776,4 9.92836719,4 10.1274568,4 L32.8236705,4 C35.7104697,4 38,6.28959276 38,9.17647059 C38,9.47511312 38,9.67420814 38,9.87330317 L36.4072832,21.520362 C36.0091041,24.1085973 33.8191185,26 31.2309538,26 Z M10.1274568,5.19457014 C7.93747125,5.19457014 6.1456649,6.88687783 6.1456649,9.17647059 C6.1456649,9.37556561 6.1456649,9.57466063 6.1456649,9.77375566 L7.83792645,21.321267 C8.13656084,23.3122172 9.82882239,24.7058824 11.8197183,24.7058824 L31.2309538,24.7058824 C33.2218497,24.7058824 34.9141113,23.3122172 35.2127457,21.321267 L36.8054624,9.77375566 C37.1040968,7.58371041 35.6109249,5.59276018 33.4209393,5.19457014 C33.2218497,5.19457014 33.0227601,5.19457014 32.8236705,5.19457014 L10.1274568,5.19457014 Z" id="Shape" fill="#990300" fill-rule="nonzero"></path>
            <path d="M9.76,22 C9.6,22 9.52,21.9032258 9.52,21.7096774 L9.52,21.1290323 C9.52,20.9354839 9.6,20.8387097 9.68,20.7419355 C9.76,20.6451613 9.92,20.8387097 10,20.9354839 L10,21.516129 C10,21.7096774 9.92,21.8064516 9.76,21.8064516 L9.76,22 Z M9.6,20.2580645 C9.44,20.2580645 9.36,20.1612903 9.36,19.9677419 L9.36,19.3870968 C9.36,19.1935484 9.44,19.0967742 9.6,19.0967742 C9.76,19.0967742 9.84,19.1935484 9.84,19.3870968 L9.84,19.9677419 C9.84,20.1612903 9.76,20.2580645 9.6,20.2580645 Z M9.44,18.516129 C9.28,18.6129032 9.2,18.516129 9.12,18.3225806 C9.12,18.3225806 9.12,18.2258065 9.12,18.2258065 L9.12,17.6451613 C9.12,17.4516129 9.2,17.3548387 9.28,17.2580645 C9.36,17.1612903 9.52,17.3548387 9.6,17.4516129 L9.6,18.2258065 C9.6,18.4193548 9.52,18.516129 9.36,18.516129 L9.44,18.516129 Z M9.28,16.7741935 C9.12,16.7741935 9.04,16.6774194 9.04,16.483871 L9.04,15.9032258 C9.04,15.7096774 9.12,15.6129032 9.2,15.516129 C9.28,15.4193548 9.44,15.6129032 9.52,15.7096774 L9.52,16.2903226 C9.52,16.483871 9.44,16.5806452 9.28,16.5806452 L9.28,16.7741935 Z M9.12,15.0322581 C8.96,15.0322581 8.88,14.9354839 8.88,14.7419355 L8.88,14.1612903 C8.88,13.9677419 8.96,13.8709677 9.04,13.7741935 C9.12,13.6774194 9.28,13.8709677 9.36,13.9677419 L9.36,14.5483871 C9.36,14.7419355 9.28,14.8387097 9.12,14.8387097 L9.12,15.0322581 Z M8.96,13.2903226 C8.8,13.2903226 8.72,13.1935484 8.72,13 L8.72,12.4193548 C8.72,12.2258065 8.8,12.1290323 8.88,12.0322581 C8.96,11.9354839 9.12,12.1290323 9.2,12.2258065 L9.2,12.8064516 C9.2,13 9.12,13.0967742 8.96,13.0967742 L8.96,13.2903226 Z M8.8,11.5483871 C8.64,11.5483871 8.56,11.4516129 8.56,11.2580645 L8.56,10.6774194 C8.56,10.483871 8.64,10.3870968 8.72,10.2903226 C8.8,10.1935484 8.96,10.3870968 9.04,10.483871 L9.04,11.0645161 C9.04,11.2580645 8.96,11.3548387 8.8,11.3548387 L8.8,11.5483871 Z M8.64,9.80645161 C8.48,9.80645161 8.4,9.70967742 8.4,9.51612903 L8.4,9.03225806 C8.4,8.83870968 8.48,8.74193548 8.56,8.64516129 C8.64,8.5483871 8.8,8.74193548 8.88,8.83870968 L8.88,9.51612903 C8.88,9.70967742 8.8,9.80645161 8.64,9.80645161 Z M8.24,8.16129032 C8.08,8.16129032 8,8.06451613 8,7.87096774 L8,7.29032258 C8,7.09677419 8.08,7 8.16,7 C8.24,7 8.4,7.09677419 8.4,7.19354839 L8.4,7.77419355 C8.4,7.96774194 8.32,8.06451613 8.16,8.06451613 L8.24,8.16129032 Z" id="Shape" fill="#C72120" fill-rule="nonzero"></path>
            <path d="M32.2758621,23 C32.091954,23 32,22.8970348 32,22.6911044 L32,22.0733132 C32,21.8673828 32.183908,21.7644176 32.2758621,21.8673828 C32.4597701,21.8673828 32.5517241,22.0733132 32.4597701,22.2792436 L32.4597701,22.8970348 C32.5517241,22.8970348 32.3678161,23 32.2758621,23 Z M32.4597701,21.1466264 C32.2758621,21.1466264 32.183908,21.0436612 32.183908,20.8377308 L32.183908,20.2199396 C32.183908,20.0140092 32.3678161,19.911044 32.4597701,20.0140092 C32.6436782,20.0140092 32.7356322,20.2199396 32.6436782,20.42587 L32.6436782,21.0436612 C32.7356322,21.0436612 32.5517241,21.1466264 32.4597701,21.1466264 Z M32.6436782,19.2932527 C32.4597701,19.2932527 32.3678161,19.1902875 32.3678161,18.9843571 L32.3678161,18.3665659 C32.3678161,18.1606355 32.5517241,18.0576703 32.6436782,18.1606355 C32.8275862,18.1606355 32.9195402,18.3665659 32.8275862,18.5724963 L32.8275862,18.9843571 C32.9195402,19.1902875 32.8275862,19.2932527 32.6436782,19.2932527 Z M32.8275862,17.4398791 C32.6436782,17.4398791 32.5517241,17.3369139 32.5517241,17.1309835 L32.5517241,16.5131923 C32.5517241,16.3072619 32.7356322,16.2042967 32.8275862,16.3072619 C33.0114943,16.3072619 33.1034483,16.5131923 33.0114943,16.7191227 L33.0114943,17.3369139 C33.1034483,17.3369139 33.0114943,17.4398791 32.8275862,17.4398791 Z M33.0114943,15.5865055 C32.8275862,15.5865055 32.7356322,15.4835403 32.7356322,15.2776099 L32.7356322,14.6598187 C32.7356322,14.4538883 32.9195402,14.3509231 33.0114943,14.4538883 C33.1954023,14.4538883 33.2873563,14.6598187 33.1954023,14.7627839 L33.1954023,15.3805751 C33.2873563,15.4835403 33.1954023,15.5865055 33.0114943,15.5865055 Z M33.1954023,13.7331319 C33.0114943,13.7331319 32.9195402,13.6301667 32.9195402,13.4242362 L32.9195402,12.806445 C32.9195402,12.6005146 33.1034483,12.4975494 33.1954023,12.6005146 C33.3793103,12.6005146 33.4712644,12.806445 33.3793103,12.9094102 L33.3793103,13.5272015 C33.3793103,13.6301667 33.3793103,13.6301667 33.2873563,13.7331319 L33.1954023,13.7331319 Z M33.3793103,11.8797582 C33.1954023,11.8797582 33.1034483,11.776793 33.1034483,11.5708626 L33.1034483,10.9530714 C33.1034483,10.747141 33.2873563,10.6441758 33.3793103,10.747141 C33.5632184,10.747141 33.6551724,10.9530714 33.5632184,11.0560366 L33.5632184,11.6738278 C33.5632184,11.776793 33.5632184,11.776793 33.4712644,11.8797582 L33.3793103,11.8797582 Z M33.5632184,10.0263846 C33.3793103,10.0263846 33.2873563,9.92341939 33.2873563,9.71748899 L33.2873563,9.09969778 C33.2873563,8.89376738 33.4712644,8.79080218 33.5632184,8.89376738 C33.7471264,8.89376738 33.8390805,9.09969778 33.7471264,9.20266298 L33.7471264,9.82045419 C33.8390805,9.92341939 33.8390805,10.0263846 33.7471264,10.1293498 L33.5632184,10.0263846 Z M33.7471264,8.17301097 C33.5632184,8.17301097 33.4712644,8.07004576 33.4712644,7.86411536 L33.4712644,7.24632415 C33.4712644,7.04039375 33.6551724,6.93742855 33.7471264,7.04039375 C33.9310345,7.04039375 34.0229885,7.24632415 33.9310345,7.34928935 L33.9310345,7.96708056 C34.0229885,8.07004576 34.0229885,8.17301097 33.9310345,8.27597617 L33.7471264,8.17301097 Z" id="Shape" fill="#C72120" fill-rule="nonzero"></path>
            <path d="M11.3171806,6 L31.6828194,6 C32.3920705,6 33,6.68571429 33,7.48571429 L33,8.51428571 C33,9.31428571 32.3920705,10 31.6828194,10 L11.3171806,10 C10.6079295,10 10,9.31428571 10,8.51428571 L10,7.48571429 C10,6.68571429 10.6079295,6 11.3171806,6 Z" id="Shape" fill="#FD5250" fill-rule="nonzero"></path>
            <circle id="Oval" fill="#FD5250" fill-rule="nonzero" cx="14" cy="25" r="1"></circle>
            <circle id="Oval" fill="#FD5250" fill-rule="nonzero" cx="29" cy="25" r="1"></circle>
            <path d="M12,5 L12,25.4931507 C12,26.3972603 12.65625,27 13.5,27 C14.34375,27 15,26.2968037 15,25.4931507 L15,5 L12,5 Z M13.40625,26.0958904 C13.125,26.0958904 12.9375,25.8949772 12.9375,25.5936073 C12.9375,25.2922374 13.125,25.0913242 13.40625,25.0913242 C13.6875,25.0913242 13.875,25.2922374 13.875,25.5936073 C13.875,25.7945205 13.59375,25.9954338 13.40625,26.0958904 Z M13.40625,23.5844749 C13.125,23.5844749 12.9375,23.3835616 12.9375,23.0821918 C12.9375,22.7808219 13.125,22.5799087 13.40625,22.5799087 C13.6875,22.5799087 13.875,22.7808219 13.875,23.0821918 C13.875,23.283105 13.59375,23.4840183 13.40625,23.5844749 Z M13.40625,21.0730594 C13.125,21.0730594 12.9375,20.8721461 12.9375,20.5707763 C12.9375,20.2694064 13.125,20.0684932 13.40625,20.0684932 C13.6875,20.0684932 13.875,20.2694064 13.875,20.5707763 C13.875,20.8721461 13.6875,21.0730594 13.40625,21.0730594 Z M13.40625,18.5616438 C13.125,18.5616438 12.9375,18.3607306 12.9375,18.0593607 C12.9375,17.7579909 13.125,17.5570776 13.40625,17.5570776 C13.6875,17.5570776 13.875,17.7579909 13.875,18.0593607 C13.875,18.3607306 13.6875,18.5616438 13.40625,18.5616438 Z" id="Shape" fill="#990300" fill-rule="nonzero"></path>
            <path d="M27,5 L27,25.4931507 C27,26.3972603 27.6774194,27 28.4516129,27 C29.3225806,27 30,26.2968037 30,25.4931507 L30,5 L27,5 Z M28.4516129,26.0958904 C28.1612903,26.0958904 27.9677419,25.8949772 27.9677419,25.5936073 C27.9677419,25.2922374 28.1612903,25.0913242 28.4516129,25.0913242 C28.7419355,25.0913242 28.9354839,25.2922374 28.9354839,25.5936073 C28.9354839,25.7945205 28.6451613,25.9954338 28.4516129,26.0958904 Z M28.4516129,23.5844749 C28.1612903,23.5844749 27.9677419,23.3835616 27.9677419,23.0821918 C27.9677419,22.7808219 28.1612903,22.5799087 28.4516129,22.5799087 C28.7419355,22.5799087 28.9354839,22.7808219 28.9354839,23.0821918 C28.9354839,23.283105 28.6451613,23.4840183 28.4516129,23.5844749 Z M28.4516129,21.0730594 C28.1612903,21.0730594 27.9677419,20.8721461 27.9677419,20.5707763 C27.9677419,20.2694064 28.1612903,20.0684932 28.4516129,20.0684932 C28.7419355,20.0684932 28.9354839,20.2694064 28.9354839,20.5707763 C28.9354839,20.8721461 28.7419355,21.0730594 28.4516129,21.0730594 Z M28.4516129,18.5616438 C28.1612903,18.5616438 27.9677419,18.3607306 27.9677419,18.0593607 C27.9677419,17.7579909 28.1612903,17.5570776 28.4516129,17.5570776 C28.7419355,17.5570776 28.9354839,17.7579909 28.9354839,18.0593607 C28.9354839,18.3607306 28.7419355,18.5616438 28.4516129,18.5616438 Z" id="Shape" fill="#990300" fill-rule="nonzero"></path>
            <g id="Group" transform="translate(10.000000, 13.000000)" fill-rule="nonzero">
                <path d="M2.9,1.2 L4.4,1.2 C5.3,1.2 6.1,2 6.1,2.9 L6.1,4.4 C6.1,5.3 5.3,6.1 4.4,6.1 L2.9,6.1 C2,6.1 1.2,5.3 1.2,4.4 L1.2,2.9 C1.2,2 2,1.2 2.9,1.2 Z" id="Shape" fill="#FDD345"></path>
                <path d="M5.2,6.4 L2,6.4 C1.3,6.4 0.8,5.9 0.8,5.2 L0.8,2 C0.9,1.4 1.4,0.9 2,0.9 L5.2,0.9 C5.8,0.9 6.3,1.4 6.4,2 L6.4,5.2 C6.4,5.9 5.9,6.4 5.2,6.4 Z M2,1.5 C1.7,1.5 1.4,1.8 1.4,2.1 L1.4,5.3 C1.4,5.6 1.7,5.9 2,5.9 L5.2,5.9 C5.5,5.9 5.8,5.6 5.8,5.3 L5.8,2 C5.8,1.7 5.5,1.4 5.2,1.4 L2,1.5 Z" id="Shape" fill="#990300"></path>
            </g>
            <path d="M13.3,13 L13.6,13 C13.8,13 13.9,13.0909091 13.9,13.2727273 L13.9,14.7272727 C13.9,14.9090909 13.8,15 13.6,15 L13.3,15 C13.1,15 13,14.9090909 13,14.7272727 L13,13.2727273 C13,13.0909091 13.1,13 13.3,13 Z" id="Shape" fill="#FDD345" fill-rule="nonzero"></path>
            <path d="M14.0541052,16 C13.5659014,16 13.0776976,15.6083116 13.0776976,15.2166232 L13.0776976,14.0415581 C12.8335957,13.6498697 13.1997485,13.1602592 13.6879523,13.0623372 C14.1761561,12.866493 14.7864108,13.1602592 14.9084618,13.5519476 C15.0305127,13.7477918 15.0305127,13.943636 14.9084618,14.1394802 L14.9084618,15.2166232 C14.9084618,15.6083116 14.5423089,15.9020779 14.0541052,16 Z M14.0541052,13.8457139 L13.8100033,14.0415581 L13.8100033,15.2166232 L14.0541052,15.4124674 L14.298207,15.2166232 L14.298207,14.0415581 L14.0541052,13.8457139 Z" id="Shape" fill="#990300" fill-rule="nonzero"></path>
            <g id="Group" transform="translate(26.000000, 13.000000)" fill-rule="nonzero">
                <path d="M2.1,1.2 L3.6,1.2 C4.5,1.2 5.3,2 5.3,2.9 L5.3,4.4 C5.3,5.3 4.5,6.1 3.6,6.1 L2.1,6.1 C1.2,6.1 0.4,5.3 0.4,4.4 L0.4,2.9 C0.4,2 1.2,1.2 2.1,1.2 Z" id="Shape" fill="#FDD345"></path>
                <path d="M4.4,6.4 L1.2,6.4 C0.5,6.4 0,5.9 0,5.2 L0,2 C0,1.3 0.5,0.8 1.2,0.8 L4.4,0.8 C5.1,0.8 5.6,1.3 5.6,2 L5.6,5.2 C5.6,5.9 5.1,6.4 4.4,6.4 Z M1.2,1.5 C0.9,1.5 0.6,1.8 0.6,2.1 L0.6,5.3 C0.6,5.6 0.9,5.9 1.2,5.9 L4.4,5.9 C4.7,5.9 5,5.6 5,5.3 L5,2 C5,1.7 4.7,1.4 4.4,1.4 L1.2,1.5 Z" id="Shape" fill="#990300"></path>
            </g>
            <path d="M28.3,13 L28.6,13 C28.8,13 28.9,13.0909091 28.9,13.2727273 L28.9,14.7272727 C28.9,14.9090909 28.8,15 28.6,15 L28.3,15 C28.1,15 28,14.9090909 28,14.7272727 L28,13.2727273 C28,13.0909091 28.1,13 28.3,13 Z" id="Shape" fill="#FDD345" fill-rule="nonzero"></path>
            <path d="M29.0541052,16 C28.5659014,16 28.0776976,15.6083116 28.0776976,15.2166232 L28.0776976,14.0415581 C27.8335957,13.6498697 28.1997485,13.1602592 28.6879523,13.0623372 C29.1761561,12.866493 29.7864108,13.1602592 29.9084618,13.5519476 C30.0305127,13.7477918 30.0305127,13.943636 29.9084618,14.1394802 L29.9084618,15.2166232 C29.9084618,15.6083116 29.5423089,15.9020779 29.0541052,16 Z M29.0541052,13.8457139 L28.8100033,14.0415581 L28.8100033,15.2166232 L29.0541052,15.4124674 L29.298207,15.2166232 L29.298207,14.0415581 L29.0541052,13.8457139 Z" id="Shape" fill="#990300" fill-rule="nonzero"></path>
            <path d="M3.36363636,23 L4.63636364,23 C4.81818182,23 5,23.1666667 5,23.3333333 L5,23.6666667 C5,23.8333333 4.81818182,24 4.63636364,24 L3.36363636,24 C3.18181818,24 3,23.8333333 3,23.6666667 L3,23.3333333 C3,23.1666667 3.18181818,23 3.36363636,23 Z" id="Shape" fill="#FD5250" fill-rule="nonzero"></path>
            <path d="M37.3636364,23 L38.6363636,23 C38.8181818,23 39,23.1666667 39,23.3333333 L39,23.6666667 C39,23.8333333 38.8181818,24 38.6363636,24 L37.3636364,24 C37.1818182,24 37,23.8333333 37,23.6666667 L37,23.3333333 C37,23.1666667 37.1818182,23 37.3636364,23 Z" id="Shape" fill="#FD5250" fill-rule="nonzero"></path>
            <path d="M6.3660254,42 C6.12200847,42 6,41.8980892 6,41.6942675 L6,41.0828025 C6,40.8789809 6.12200847,40.7770701 6.3660254,40.7770701 C6.61004234,40.7770701 6.73205081,40.8789809 6.73205081,41.0828025 L6.73205081,41.6942675 C6.73205081,41.8980892 6.61004234,42 6.3660254,42 Z M6.48803387,40.1656051 C6.24401694,40.1656051 6.12200847,40.0636943 6.12200847,39.8598726 L6.12200847,39.2484076 C6.12200847,39.044586 6.24401694,38.9426752 6.48803387,38.9426752 C6.73205081,38.9426752 6.85405928,39.044586 6.85405928,39.2484076 L6.85405928,39.8598726 C6.85405928,40.0636943 6.73205081,40.1656051 6.48803387,40.1656051 Z M6.61004234,38.3312102 C6.3660254,38.3312102 6.24401694,38.2292994 6.24401694,38.0254777 L6.24401694,37.4140127 C6.24401694,37.2101911 6.3660254,37.1082803 6.61004234,37.1082803 C6.85405928,37.1082803 6.97606774,37.2101911 6.97606774,37.4140127 L6.97606774,38.0254777 C6.97606774,38.2292994 6.85405928,38.3312102 6.61004234,38.3312102 Z M6.85405928,36.4968153 C6.48803387,36.4968153 6.3660254,36.3949045 6.3660254,36.1910828 L6.3660254,35.477707 C6.3660254,35.2738854 6.48803387,35.1719745 6.73205081,35.1719745 C6.97606774,35.1719745 7.09807621,35.2738854 7.09807621,35.477707 L7.09807621,36.089172 C7.22008468,36.2929936 7.09807621,36.3949045 6.85405928,36.4968153 C6.85405928,36.4968153 6.85405928,36.4968153 6.85405928,36.4968153 Z M6.97606774,34.6624204 C6.73205081,34.6624204 6.61004234,34.5605096 6.61004234,34.3566879 L6.61004234,33.7452229 C6.61004234,33.5414013 6.73205081,33.4394904 6.97606774,33.4394904 C7.22008468,33.4394904 7.34209315,33.5414013 7.34209315,33.7452229 L7.34209315,34.3566879 C7.34209315,34.5605096 7.22008468,34.6624204 6.97606774,34.6624204 Z M7.09807621,32.8280255 C6.85405928,32.8280255 6.73205081,32.7261146 6.73205081,32.522293 C6.73205081,32.522293 6.73205081,32.4203822 6.73205081,32.4203822 L6.73205081,31.8089172 C6.73205081,31.6050955 6.85405928,31.5031847 7.09807621,31.5031847 C7.34209315,31.5031847 7.46410162,31.6050955 7.46410162,31.8089172 L7.46410162,32.4203822 C7.58611008,32.6242038 7.46410162,32.7261146 7.22008468,32.8280255 C7.22008468,32.8280255 7.09807621,32.8280255 7.09807621,32.8280255 Z M7.22008468,30.9936306 C6.97606774,30.9936306 6.85405928,30.8917197 6.85405928,30.6878981 L6.85405928,30.0764331 C6.85405928,29.8726115 6.97606774,29.7707006 7.22008468,29.7707006 C7.46410162,29.7707006 7.58611008,29.8726115 7.58611008,30.0764331 L7.58611008,30.6878981 C7.58611008,30.7898089 7.46410162,30.9936306 7.34209315,30.9936306 L7.22008468,30.9936306 Z M7.34209315,29.1592357 C7.09807621,29.1592357 6.97606774,29.0573248 6.97606774,28.8535032 L6.97606774,28.2420382 C6.97606774,28.0382166 7.09807621,27.9363057 7.34209315,27.9363057 C7.58611008,27.9363057 7.70811855,28.0382166 7.70811855,28.2420382 L7.70811855,28.8535032 C7.70811855,28.955414 7.58611008,29.1592357 7.46410162,29.1592357 L7.34209315,29.1592357 Z M7.58611008,27.3248408 C7.34209315,27.3248408 7.22008468,27.2229299 7.22008468,27.0191083 L7.22008468,26.3057325 C7.22008468,26.1019108 7.34209315,26 7.58611008,26 C7.83012702,26 7.95213549,26.1019108 7.95213549,26.3057325 L7.95213549,26.9171975 C8.07414395,27.1210191 7.95213549,27.2229299 7.70811855,27.3248408 C7.70811855,27.3248408 7.58611008,27.3248408 7.58611008,27.3248408 Z" id="Shape" fill="#C72120" fill-rule="nonzero"></path>
            <path d="M35.6470588,42 C35.4117647,42 35.2941176,41.8974359 35.2941176,41.6923077 L35.2941176,41.0769231 C35.2941176,40.8717949 35.4117647,40.7692308 35.6470588,40.7692308 C35.8823529,40.7692308 36,40.8717949 36,41.0769231 L36,41.5897436 C36,41.7948718 35.8823529,41.8974359 35.6470588,41.8974359 L35.6470588,42 Z M35.5294118,40.1538462 C35.2941176,40.1538462 35.1764706,40.0512821 35.1764706,39.8461538 L35.1764706,39.2307692 C35.1764706,39.025641 35.2941176,38.9230769 35.5294118,38.9230769 C35.7647059,38.9230769 35.8823529,39.025641 35.8823529,39.2307692 L35.8823529,39.8461538 C35.8823529,40.0512821 35.7647059,40.1538462 35.5294118,40.1538462 Z M35.4117647,38.3076923 C35.1764706,38.3076923 35.0588235,38.2051282 35.0588235,38 L35.0588235,37.3846154 C35.0588235,37.1794872 35.1764706,37.0769231 35.4117647,37.0769231 C35.6470588,37.0769231 35.7647059,37.1794872 35.7647059,37.3846154 L35.7647059,38 C35.7647059,38.2051282 35.6470588,38.3076923 35.4117647,38.3076923 Z M35.1764706,36.4615385 C34.9411765,36.4615385 34.8235294,36.3589744 34.8235294,36.1538462 L34.8235294,35.5384615 C34.8235294,35.3333333 34.9411765,35.2307692 35.1764706,35.2307692 C35.4117647,35.2307692 35.5294118,35.3333333 35.5294118,35.5384615 L35.5294118,36.1538462 C35.5294118,36.3589744 35.4117647,36.4615385 35.1764706,36.4615385 Z M35.0588235,34.6153846 C34.8235294,34.6153846 34.7058824,34.5128205 34.7058824,34.3076923 L34.7058824,33.6923077 C34.7058824,33.4871795 34.8235294,33.3846154 35.0588235,33.3846154 C35.2941176,33.3846154 35.4117647,33.4871795 35.4117647,33.6923077 L35.4117647,34.3076923 C35.4117647,34.5128205 35.2941176,34.6153846 35.0588235,34.6153846 Z M34.8235294,32.7692308 C34.5882353,32.7692308 34.4705882,32.6666667 34.4705882,32.4615385 L34.4705882,31.8461538 C34.4705882,31.6410256 34.5882353,31.5384615 34.8235294,31.5384615 C35.0588235,31.5384615 35.1764706,31.6410256 35.1764706,31.8461538 L35.1764706,32.3589744 C35.1764706,32.5641026 35.0588235,32.6666667 34.8235294,32.6666667 L34.8235294,32.7692308 Z M34.7058824,30.9230769 C34.4705882,30.9230769 34.3529412,30.8205128 34.3529412,30.6153846 L34.3529412,30 C34.3529412,29.7948718 34.4705882,29.6923077 34.7058824,29.6923077 C34.9411765,29.6923077 35.0588235,29.7948718 35.0588235,30 L35.0588235,30.6153846 C35.0588235,30.8205128 34.9411765,30.9230769 34.7058824,30.9230769 Z M34.5882353,29.0769231 C34.3529412,29.0769231 34.2352941,28.974359 34.2352941,28.7692308 L34.2352941,28.1538462 C34.2352941,27.9487179 34.3529412,27.8461538 34.5882353,27.8461538 C34.8235294,27.8461538 34.9411765,27.9487179 34.9411765,28.1538462 L34.9411765,28.7692308 C34.9411765,28.974359 34.8235294,29.0769231 34.5882353,29.0769231 Z M34.3529412,27.2307692 C34.1176471,27.2307692 34,27.1282051 34,26.9230769 L34,26.3076923 C34,26.1025641 34.1176471,26 34.3529412,26 C34.5882353,26 34.7058824,26.1025641 34.7058824,26.3076923 L34.7058824,26.9230769 C34.7058824,27.1282051 34.5882353,27.2307692 34.3529412,27.2307692 Z" id="Shape" fill="#C72120" fill-rule="nonzero"></path>
            <polygon id="Shape" points="21.2508039 42 21.6495177 42 34.807074 42 37 37.7472527 34.9067524 15 8.09324759 15 6 37.7472527 8.19292605 42"></polygon>
            <path d="M5.33922261,43.8153846 C5.84177464,44.5692308 6.64585787,45 7.44994111,45 L34.4872399,45 C35.2913231,45 36.0954064,44.5692308 36.5979584,43.8153846 C36.8994896,43.2769231 37,42.7384615 37,42.0923077 L36.6984688,38.1076923 L35.2913231,40.9076923 C34.7887711,41.9846154 33.7836671,42.6307692 32.6780526,42.6307692 L9.35963879,42.6307692 C8.25402434,42.6307692 7.2489203,41.9846154 6.74636828,40.9076923 L5.33922261,38 L5.0376914,41.9846154 C4.937181,42.6307692 5.0376914,43.2769231 5.33922261,43.8153846 Z" id="Shape" fill="#E89E9D" fill-rule="nonzero"></path>
            <path d="M12.0196817,33.3 L13.3240855,42.2 C13.4244242,42.7 13.6251017,43 13.8257792,43 L28.1742208,43 C28.3748983,43 28.6759145,42.7 28.6759145,42.2 L29.9803183,33.3 C30.0806571,32.6 29.7796408,32 29.4786246,32 L12.5213754,32 C12.2203592,32 11.9193429,32.6 12.0196817,33.3 Z" id="Shape" fill="#FD5250" fill-rule="nonzero"></path>
            <path d="M28.6727677,43 L14.4268541,43 C13.8291235,43 13.4306364,42.5121951 13.3310146,41.7317073 L12.0359316,33.0487805 C11.9363098,32.4634146 12.0359316,31.8780488 12.4344187,31.3902439 C12.6336622,31.195122 12.8329057,31 13.1317711,31 L29.8682289,31 C30.1670943,31 30.3663378,31.195122 30.5655813,31.3902439 C30.9640684,31.8780488 31.0636902,32.4634146 30.9640684,33.0487805 L29.6689854,41.7317073 C29.6689854,42.5121951 29.1708765,43 28.6727677,43 Z M14.6260977,41.8292683 L28.5731459,41.8292683 L28.5731459,41.5365854 L29.8682289,32.8536585 C29.8682289,32.6585366 29.8682289,32.4634146 29.7686072,32.2682927 L13.3310146,32.2682927 C13.2313928,32.4634146 13.2313928,32.6585366 13.2313928,32.8536585 L14.5264759,41.5365854 L14.6260977,41.8292683 Z" id="Shape" fill="#990300" fill-rule="nonzero"></path>
            <path d="M31,34.2758621 L29.6013717,29.4137931 C29.5014697,29.1034483 29.3016657,29 29.0019596,29 L13.0176364,29 C12.7179304,29 12.5181263,29.1034483 12.4182243,29.4137931 L11.019596,34.2758621 C10.919694,34.5862069 11.2194001,34.8965517 11.5191061,35 C11.5191061,35 11.6190081,35 11.6190081,35 L30.4005879,35 C30.7002939,35 31,34.6896552 31,34.3793103 C31,34.3793103 31,34.2758621 31,34.2758621 Z" id="Shape" fill="#FD5250" fill-rule="nonzero"></path>
            <path d="M30.8756781,36 L12.2230133,36 C11.8282479,36 11.4334825,35.8 11.2360998,35.5 C11.0387171,35.2 10.9400257,34.8 11.0387171,34.5 L12.420396,29.8 C12.6177787,29.3 13.1112354,29 13.6046921,29 L29.3953079,29 C29.8887646,29 30.3822213,29.3 30.579604,29.8 L31.9612829,34.6 C32.0599743,34.9 31.9612829,35.3 31.7639002,35.6 C31.5665175,35.9 31.1717521,36 30.8756781,36 Z M12.2230133,34.8 L30.8756781,34.8 L29.4939992,30.1 L13.7033835,30.1 L12.2230133,34.8 Z" id="Shape" fill="#990300" fill-rule="nonzero"></path>
            <path d="M15.5954198,31 L27.4045802,31 C27.7022901,31 28,31.3529412 28,31.7058824 L28,32.2941176 C28,32.6470588 27.7022901,33 27.4045802,33 L15.5954198,33 C15.2977099,33 15,32.6470588 15,32.2941176 L15,31.7058824 C15,31.3529412 15.2977099,31 15.5954198,31 Z" id="Shape" fill="#FD5250" fill-rule="nonzero"></path>
            <circle id="Oval" fill="#FDD345" fill-rule="nonzero" cx="21.4" cy="33.4" r="1"></circle>
            <polygon id="Shape" fill="#E89E9D" fill-rule="nonzero" points="29 36 28.7987421 37 13.1006289 37 13 36"></polygon>
        </g>
    </g>
</svg>