<svg xmlns="http://www.w3.org/2000/svg" viewBox="0 0 24 24"><path d="M22.494 8.477C22.528 8.765 22.29 9 22 9h-9.25a.525.525 0 0 1-.499-.69l2.385-6.468a.474.474 0 0 1 .497-.339c2.915.343 6.968 3.595 7.361 6.974zM3 11.25c0-.387.363-.75.75-.75h18c.387 0 .744.314.744.7.006 3-2.244 5.25-5.794 5.25H8.46c-3.21 0-5.46-2.2-5.46-5.2zM8.25 22.5a2.25 2.25 0 1 0 0-4.5 2.25 2.25 0 0 0 0 4.5zm11.25-2.25a2.25 2.25 0 1 1-4.5 0 2.25 2.25 0 0 1 4.5 0zM4.06 3.44a1.5 1.5 0 1 0-2.12 2.12C2.673 6.296 3 6.66 3 7.5a1.5 1.5 0 1 0 3 0c0-2.123-1.134-3.256-1.9-4.021l-.04-.04z"/></svg>