<svg xmlns="http://www.w3.org/2000/svg" viewBox="0 0 24 24"><path fill-rule="evenodd" d="M12 1.5c-2.703 0-4.688 1.426-5.543 2.46C6.111 4.38 6 4.895 6 5.32v1.43a.75.75 0 0 1-.75.75H4.5a3 3 0 0 0-3 3v9a3 3 0 0 0 3 3h15a3 3 0 0 0 3-3v-9a3 3 0 0 0-3-3h-.75a.75.75 0 0 1-.75-.75V5.385c0-.514-.162-1.074-.555-1.5C16.547 2.914 14.693 1.5 12 1.5zm2.625 6c.207 0 .375-.224.375-.5v-.528c0-.274-.082-.539-.242-.71C14.208 5.176 13.276 4.5 12 4.5c-1.278 0-2.248.676-2.77 1.233-.155.164-.23.42-.23.684V7c0 .276.168.5.375.5h5.25z" clip-rule="evenodd"/></svg>