<svg xmlns="http://www.w3.org/2000/svg" viewBox="0 0 24 24"><path d="M12 1.5c-2.703 0-4.688 1.426-5.543 2.46C6.111 4.38 6 4.895 6 5.32v1.43a.75.75 0 0 1-.75.75H4.5a3 3 0 0 0-3 3v9a3 3 0 0 0 3 3h15a3 3 0 0 0 3-3v-9a3 3 0 0 0-3-3h-.75a.75.75 0 0 1-.75-.75V5.385c0-.514-.162-1.074-.555-1.5C16.547 2.914 14.693 1.5 12 1.5zm2.625 6h-5.25C9.168 7.5 9 7.276 9 7v-.583c0-.264.075-.52.23-.684C9.751 5.176 10.721 4.5 12 4.5c1.276 0 2.208.676 2.758 1.262.16.171.242.436.242.71V7c0 .276-.168.5-.375.5zM10.5 12a1.5 1.5 0 0 1 3 0v1.5H15a1.5 1.5 0 0 1 0 3h-1.5V18a1.5 1.5 0 0 1-3 0v-1.5H9a1.5 1.5 0 0 1 0-3h1.5V12z"/></svg>