<svg xmlns="http://www.w3.org/2000/svg" viewBox="0 0 24 24"><path d="M5.706 15.258a.852.852 0 0 1-.372-.551 13.856 13.856 0 0 1 0-5.414.852.852 0 0 1 .372-.55l2.532-1.637A1.531 1.531 0 0 0 9 5.844V3.223a1.81 1.81 0 0 0-1.69-1.61l-1.192-.107a1.552 1.552 0 0 0-1.422.66A17.123 17.123 0 0 0 1.5 12.002a17.117 17.117 0 0 0 3.195 9.832 1.55 1.55 0 0 0 1.424.66l1.191-.11A1.808 1.808 0 0 0 9 20.779v-2.621a1.528 1.528 0 0 0-.762-1.261L5.706 15.26z"/><path d="M21 13.5a1.5 1.5 0 0 0 0-3h-7.654a.3.3 0 0 1-.213-.512l1.428-1.427a1.5 1.5 0 0 0-2.122-2.122l-5.03 5.03a.75.75 0 0 0 0 1.06l5.03 5.03a1.5 1.5 0 0 0 2.122-2.12l-1.428-1.427a.3.3 0 0 1 .213-.512z"/></svg>