<svg xmlns="http://www.w3.org/2000/svg" viewBox="0 0 24 24"><path d="M24 14.22v1.08c0 1.08 0 2.7-1 2.7h-1.25c-.414 0-.74-.341-.843-.742a3.001 3.001 0 0 0-5.814 0c-.103.401-.429.742-.843.742h-4.5c-.414 0-.74-.341-.843-.742a3.001 3.001 0 0 0-5.814 0c-.103.401-.429.742-.843.742H1.5v-.006a.481.481 0 0 1-.063.005h-.03c-.03 0-.06.001-.09-.003C.331 18 .072 16.241.004 15.315a1.976 1.976 0 0 1 .225-1.043l1.658-3.058c.17-.365.612-.714 1.112-.714h11c1 0 .88-1.033.194-1.57-.563-.44-1.03-.767-1.596-.998-.881-.362-1.912-.545-3.061-.545-1 0-2.084.139-3.226.417-1.39.334-3.239.954-4.401 1.387-.286.105-.588-.075-.69-.408l-.003-.012c-.104-.344.044-.722.334-.845A29.787 29.787 0 0 1 6.07 6.41c1.208-.292 2.32-.41 3.322-.409h.1c1.34 0 2.536.193 3.498.587 1.37.562 3.327 2.42 4.05 3.136.184.182.42.288.668.31.843.078 2.924.375 4.79 1.486 1 .54 1.501 1.62 1.501 2.7z"/><path d="M7.5 18a1.5 1.5 0 1 1-3 0 1.5 1.5 0 0 1 3 0zm12 0a1.5 1.5 0 1 1-3 0 1.5 1.5 0 0 1 3 0z"/></svg>