<svg xmlns="http://www.w3.org/2000/svg" viewBox="0 0 24 24"><path d="M7.88 2.857l1.298 1.58a.967.967 0 0 0 1.029.323l3.2-.95a.565.565 0 0 0 .04-1.054l-3.34-1.192a.953.953 0 0 0-.593-.015l-1.376.408a.572.572 0 0 0-.257.9z"/><path d="M.704 4.957a.953.953 0 0 1 .757.09l2.85 1.658a2.863 2.863 0 0 0 2.265.271l12.988-3.853c1.628-.482 3.428-.249 4.305 1.027a.87.87 0 0 1-.56 1.28l-5.712 1.694a1.481 1.481 0 0 0-.896.757l-3.04 5.987a1.086 1.086 0 0 1-.72.75l-1.252.371a.514.514 0 0 1-.64-.55l.352-4.738a.515.515 0 0 0-.64-.55L6.159 10.52a3.315 3.315 0 0 1-3.273-1.212L.126 5.953a.572.572 0 0 1 .256-.9z"/><path d="M3 19.51a1.5 1.5 0 1 1 0-3h14.379l-.44-.44a1.5 1.5 0 0 1 2.122-2.12l4.059 4.06-4.06 4.06a1.5 1.5 0 0 1-2.122-2.12l.44-.44z"/></svg>