<svg xmlns="http://www.w3.org/2000/svg" viewBox="0 0 24 24"><path d="M23.535 3.847a2.721 2.721 0 0 0-1.757-1.39 4.104 4.104 0 0 0-3.3.666 9.382 9.382 0 0 0-2.3 2.318 22.357 22.357 0 0 0-2.416 4.419L7.197 7.739a3.166 3.166 0 0 0-2.615.305l-1.447.875c.435-2.621 1.616-3.937 3.132-4.32a2.311 2.311 0 0 1 1.108-.095.732.732 0 0 1 .011.14 1.478 1.478 0 1 0 2.955 0A3.072 3.072 0 0 0 9.137 2.1v-.001a4.216 4.216 0 0 0-3.586-.386 6.63 6.63 0 0 0-4.589 4.12A10.658 10.658 0 0 0 .26 8.262a16.78 16.78 0 0 0-.252 2.546L0 10.812q0 .13.002.259C0 11.16 0 11.25 0 11.34v.299a1.107 1.107 0 0 0 .031.26c.26 4.568 2.21 10.6 8.38 10.6a14.115 14.115 0 0 0 10.255-4.34 15.903 15.903 0 0 0 2.395-3.251c.302-.504.582-1.033.837-1.574a25.873 25.873 0 0 0 1.322-3.24 13.27 13.27 0 0 0 .777-4.297 4.395 4.395 0 0 0-.462-1.951zm-3.12 5.315a20.971 20.971 0 0 1-3.33 6.336 5.919 5.919 0 0 1-.936-3.653l.011.004a20.169 20.169 0 0 1 2.4-4.647 6.46 6.46 0 0 1 1.535-1.588 1.328 1.328 0 0 1 .868-.288 1.966 1.966 0 0 1 .08.562 10.425 10.425 0 0 1-.628 3.274z"/></svg>