<svg xmlns="http://www.w3.org/2000/svg" viewBox="0 0 24 24"><path d="M2.98 3h5.333a7.33 7.33 0 0 1 3.809 1.069l8.94 5.812c1.722 1.047 1.938 3.49.427 4.83L19.51 16.5c-.596.529-.495 1.244 0 1.87l.152.193c.776.982.085 2.437-1.156 2.437H12c-.818 0-1.5-.672-1.5-1.5 0-1.5-1.5-3-3-3H2.98A1.49 1.49 0 0 1 1.5 15v-3c0-.828.663-1.5 1.48-1.5h8.124a1.49 1.49 0 0 0 1.48-1.5c0-.828-.663-1.5-1.48-1.5H2.98A1.49 1.49 0 0 1 1.5 6V4.5c0-.828.663-1.5 1.48-1.5z"/><path d="M3 18a1.5 1.5 0 0 0 0 3h4.5a1.5 1.5 0 0 0 0-3H3z"/></svg>