<svg xmlns="http://www.w3.org/2000/svg" viewBox="0 0 24 24"><path d="M7.5 3a1.5 1.5 0 0 1 3 0v6a1.5 1.5 0 0 1-3 0v-.75a.75.75 0 0 0-.75-.75H3a1.5 1.5 0 0 1 0-3h3.75a.75.75 0 0 0 .75-.75zM3 19.5h5.222a.85.85 0 0 0 .803-.952 6.077 6.077 0 0 1 0-1.096.85.85 0 0 0-.803-.952H3a1.5 1.5 0 0 0 0 3zm12.75 0a.75.75 0 0 0-.75.75V21a1.5 1.5 0 0 1-3 0v-6a1.5 1.5 0 0 1 3 0v.75a.75.75 0 0 0 .75.75H21a1.5 1.5 0 0 1 0 3zM13.5 6A1.5 1.5 0 0 1 15 4.5h6a1.5 1.5 0 0 1 0 3h-6A1.5 1.5 0 0 1 13.5 6z"/><path d="M1.5 18A1.5 1.5 0 0 1 3 16.5h6a1.5 1.5 0 0 1 0 3H3A1.5 1.5 0 0 1 1.5 18z"/></svg>