<svg xmlns="http://www.w3.org/2000/svg" viewBox="0 0 24 24"><path d="M12 1.5A10.5 10.5 0 1 0 22.5 12 10.5 10.5 0 0 0 12 1.5zm7.331 14.606a.977.977 0 0 1-.944.478l-2.503-.21a1.05 1.05 0 0 0-1.101.771l-.658 2.424a.977.977 0 0 1-.774.723h-.001a8.457 8.457 0 0 1-2.7 0 .977.977 0 0 1-.774-.723l-.658-2.424a1.05 1.05 0 0 0-1.101-.771l-2.503.21a.977.977 0 0 1-.944-.478 8.344 8.344 0 0 1-.924-2.54.977.977 0 0 1 .415-.973l2.053-1.447a1.05 1.05 0 0 0 .348-1.3L5.509 7.569a.978.978 0 0 1 .127-1.051A8.43 8.43 0 0 1 8.35 4.433a.977.977 0 0 1 1.049.148l1.93 1.609a1.05 1.05 0 0 0 1.344 0l1.93-1.609a.977.977 0 0 1 1.049-.148 8.435 8.435 0 0 1 2.986 2.417.98.98 0 0 1 .098 1.014l-1.037 2.243a1.05 1.05 0 0 0 .348 1.298l1.78 1.256a.974.974 0 0 1 .414.98 8.344 8.344 0 0 1-.91 2.465zm-4.362-4.538l-.672 2.648a1.045 1.045 0 0 1-1.018.784h-2.558a1.047 1.047 0 0 1-1.018-.784l-.672-2.648a1.028 1.028 0 0 1 .436-1.112h.001l1.95-1.282a1.062 1.062 0 0 1 1.165 0l1.95 1.282a1.028 1.028 0 0 1 .436 1.112z"/></svg>