<svg xmlns="http://www.w3.org/2000/svg" viewBox="0 0 24 24"><path d="M1.5 8.981c.006-.726.325-1.369.798-1.599L4.62 6.25c4.79-2.333 9.968-2.333 14.758 0l2.323 1.132c.473.23.792.873.798 1.599v1.895a6.925 6.925 0 0 0-5.09.232l-1.05.468c-.888.397-1.36 1.285-1.36 2.146v.528a.75.75 0 0 0 1.5 0v-.527c0-.342.187-.65.471-.777l1.05-.468a5.43 5.43 0 0 1 4.457 0l1.05.468c.285.127.472.435.472.777V16.5a3 3 0 0 1-3 3H3a3 3 0 0 1-3-3v-2.777c0-.342.187-.65.471-.777l1.05-.468a5.43 5.43 0 0 1 4.457 0l1.05.468c.285.127.472.435.472.777v.527a.75.75 0 0 0 1.5 0v-.527c0-.862-.472-1.75-1.36-2.147l-1.05-.468a6.925 6.925 0 0 0-5.09-.232V8.981z"/></svg>