<svg xmlns="http://www.w3.org/2000/svg" viewBox="0 0 24 24"><path d="M12 .75a7.388 7.388 0 0 0-5.543 2.46A2.138 2.138 0 0 0 6 4.57v17.18a1.5 1.5 0 0 0 3 0v-1.5h6v1.5a1.5 1.5 0 0 0 3 0V4.635a2.21 2.21 0 0 0-.555-1.5A7.451 7.451 0 0 0 12 .75zm3 5.5c0 .276-.168.5-.375.5h-5.25c-.207 0-.375-.224-.375-.5v-.583a1.003 1.003 0 0 1 .23-.684A3.862 3.862 0 0 1 12 3.75a3.793 3.793 0 0 1 2.758 1.262 1.048 1.048 0 0 1 .242.71zm-10.5 2v10.5a1.5 1.5 0 0 1-3 0V8.25a1.5 1.5 0 0 1 3 0zm18 0v10.5a1.5 1.5 0 0 1-3 0V8.25a1.5 1.5 0 0 1 3 0z"/></svg>