<svg xmlns="http://www.w3.org/2000/svg" viewBox="0 0 24 24"><path d="M21 6a1.5 1.5 0 0 0-1.5 1.5v9a1.5 1.5 0 0 1-.78 1.317c-.364.198-.72-.153-.72-.567V6a3 3 0 0 0-3-3H4.5a3 3 0 0 0-3 3v12a3 3 0 0 0 3 3H18a4.5 4.5 0 0 0 4.5-4.5v-9A1.5 1.5 0 0 0 21 6zM9 13.5A1.5 1.5 0 0 1 7.5 15H6a1.5 1.5 0 0 1-1.5-1.5V12A1.5 1.5 0 0 1 6 10.5h1.5A1.5 1.5 0 0 1 9 12zm5.25 1.5h-3a.75.75 0 0 1 0-1.5h3a.75.75 0 0 1 0 1.5zm0-3h-3a.75.75 0 0 1 0-1.5h3a.75.75 0 0 1 0 1.5zm0-3h-9a.75.75 0 0 1 0-1.5h9a.75.75 0 0 1 0 1.5z"/></svg>