<svg xmlns="http://www.w3.org/2000/svg" viewBox="0 0 24 24"><path fill-rule="evenodd" d="M1.5 4.406c0-.328.074-.65.244-.88C2.575 2.395 4.5 1.5 7.5 1.5c3 0 4.762.858 5.687 1.986.209.256.313.63.313 1.014v15.59c0 1.33-.838 2.41-1.875 2.41h-8.25C2.34 22.5 1.5 21.42 1.5 20.09V4.405zm3 2.344A.75.75 0 0 1 5.25 6h4.5a.75.75 0 0 1 .75.75v3a.75.75 0 0 1-.75.75h-4.5a.75.75 0 0 1-.75-.75v-3z" clip-rule="evenodd"/><path d="M17.45 4.84a1.5 1.5 0 0 0-1.9 2.32l3.4 2.783a1.5 1.5 0 0 1 .55 1.16v4.647a.75.75 0 0 1-1.5 0v-3a1.5 1.5 0 0 0-3 0v3a3.75 3.75 0 1 0 7.5 0v-4.646a4.5 4.5 0 0 0-1.65-3.483l-3.4-2.782z"/></svg>