<svg xmlns="http://www.w3.org/2000/svg" viewBox="0 0 24 24"><path fill-rule="evenodd" d="M6.848 3.979A1.5 1.5 0 0 1 8.255 3h.828a1.5 1.5 0 1 0 0-3h-.828a4.5 4.5 0 0 0-4.22 2.937L3.32 4.866A5.252 5.252 0 0 0 3 14.495V15a9 9 0 1 0 18 0v-.505a5.25 5.25 0 0 0-.32-9.63l-.715-1.928A4.5 4.5 0 0 0 15.745 0h-.828a1.5 1.5 0 0 0 0 3h.828a1.5 1.5 0 0 1 1.407.979l.193.521H6.655l.193-.521zM18.75 7.5H5.25a2.25 2.25 0 0 0 0 4.5h2.054c.596 0 1.156-.28 1.513-.757 1.592-2.121 4.774-2.121 6.366 0 .357.477.917.757 1.513.757h2.054a2.25 2.25 0 0 0 0-4.5z" clip-rule="evenodd"/></svg>