<svg xmlns="http://www.w3.org/2000/svg" viewBox="0 0 24 24"><path d="M16.12 2.857l-1.298 1.58a.967.967 0 0 1-1.029.323l-3.2-.95a.565.565 0 0 1-.04-1.054l3.34-1.192a.953.953 0 0 1 .593-.015l1.376.408a.572.572 0 0 1 .257.9z"/><path d="M23.296 4.957a.954.954 0 0 0-.757.09l-2.85 1.658a2.863 2.863 0 0 1-2.265.271L4.436 3.123C2.808 2.641 1.008 2.874.13 4.15a.87.87 0 0 0 .56 1.28l5.712 1.694a1.481 1.481 0 0 1 .896.757l3.04 5.987a1.087 1.087 0 0 0 .72.75l1.252.371a.514.514 0 0 0 .64-.55l-.35-4.738a.515.515 0 0 1 .64-.55l4.603 1.367a3.317 3.317 0 0 0 3.274-1.212l2.757-3.353a.572.572 0 0 0-.255-.9l-.322-.096z"/><path d="M21 19.51a1.5 1.5 0 0 0 0-3H6.621l.44-.44a1.5 1.5 0 0 0-2.122-2.12L.88 18.01l4.06 4.06a1.5 1.5 0 0 0 2.122-2.12l-.44-.44z"/></svg>