<svg xmlns="http://www.w3.org/2000/svg" viewBox="0 0 24 24"><path d="M12 1.5c-.518 0-.932.135-1.2.274-.204.105-.3.36-.3.626v2.262C10.5 5.55 11.25 6 12 6s1.5-.45 1.5-1.338V2.4c0-.262-.104-.514-.304-.62-.267-.14-.67-.28-1.196-.28zm3 8.918a.45.45 0 0 1-.566.435l-.251-.067a8.465 8.465 0 0 0-4.366 0l-.251.067A.45.45 0 0 1 9 10.42v-.851c0-.55.199-1.066.536-1.284a4.761 4.761 0 0 1 1.872-.736c.104-.016.208.35.313.72.104.364.209.732.314.732.121 0 .241-.372.36-.74.117-.367.233-.728.348-.712a4.331 4.331 0 0 1 1.72.627c.34.211.537.727.537 1.277v.966zm-9 3.509c0-.367.234-.686.568-.775l3.25-.866a8.465 8.465 0 0 1 4.365 0l3.249.866c.334.089.568.409.568.775v.975c0 .882-.672 1.598-1.5 1.598h-.75a.75.75 0 0 0-.75.75V21a1.5 1.5 0 0 1-1.5 1.5h-3A1.5 1.5 0 0 1 9 21v-3.75a.75.75 0 0 0-.75-.75H7.5c-.828 0-1.5-.716-1.5-1.598v-.975z"/></svg>