<svg xmlns="http://www.w3.org/2000/svg" viewBox="0 0 24 24"><path d="M13.585 12h.493l-.415-.44a1.563 1.563 0 0 1 0-2.12 1.36 1.36 0 0 1 1.922-.081q.042.039.081.081l3.51 3.717a.5.5 0 0 1 0 .686l-3.51 3.718a1.361 1.361 0 0 1-1.923.08q-.042-.038-.08-.08a1.564 1.564 0 0 1 0-2.122l.415-.439H9.922l.415.44a1.564 1.564 0 0 1 0 2.12 1.361 1.361 0 0 1-1.923.08q-.042-.038-.08-.08l-3.51-3.717a.5.5 0 0 1 0-.686l3.51-3.718a1.36 1.36 0 0 1 1.922-.081q.042.039.081.081a1.563 1.563 0 0 1 0 2.122l-.415.44zM3.3 1.774A2.637 2.637 0 0 1 4.5 1.5a2.563 2.563 0 0 1 1.196.28A.685.685 0 0 1 6 2.4v2.262A1.377 1.377 0 0 1 4.5 6 1.377 1.377 0 0 1 3 4.662V2.4a.679.679 0 0 1 .3-.626z"/><path d="M6.97 8.698a.338.338 0 0 0-.006-.523A4.444 4.444 0 0 0 4.535 7.5a4.575 4.575 0 0 0-2.5.784A1.542 1.542 0 0 0 1.5 9.568v4.383a2.458 2.458 0 0 0 .295 1.217c.05.087.103.174.156.262a3.136 3.136 0 0 1 .564 1.415l.408 4.312c.054.764.483 1.343.995 1.343h1.235c.511 0 .94-.58.994-1.343l.257-2.71A1.5 1.5 0 0 0 6 17.274L3.41 14.53a1.5 1.5 0 0 1 0-2.06l3.562-3.772zm10.69 9.68a1.5 1.5 0 0 1 .403-1.17l2.528-2.678a1.5 1.5 0 0 0 0-2.06l-3.568-3.778a.266.266 0 0 1 .012-.408 4.575 4.575 0 0 1 2.5-.784 4.441 4.441 0 0 1 2.429.675 1.514 1.514 0 0 1 .536 1.277v4.383a3.083 3.083 0 0 1-.254 1.273c-.066.14-.14.278-.214.417a3.272 3.272 0 0 0-.477 1.32l-.408 4.312c-.053.764-.483 1.343-.994 1.343h-1.235c-.512 0-.941-.58-.995-1.343zM19.5 1.5a2.634 2.634 0 0 0-1.2.274.679.679 0 0 0-.3.626v2.262A1.377 1.377 0 0 0 19.5 6 1.377 1.377 0 0 0 21 4.662V2.4a.685.685 0 0 0-.304-.62A2.566 2.566 0 0 0 19.5 1.5z"/><path d="M13.663 11.56l.415.44H9.922l.415-.44a1.563 1.563 0 0 0 0-2.12 1.36 1.36 0 0 0-1.922-.081q-.042.039-.081.081l-3.348 3.545a.75.75 0 0 0 0 1.03l3.348 3.546a1.362 1.362 0 0 0 2.003 0 1.564 1.564 0 0 0 0-2.122L9.922 15h4.156l-.415.44a1.564 1.564 0 0 0 0 2.12 1.36 1.36 0 0 0 1.922.081q.042-.039.081-.08l3.348-3.546a.75.75 0 0 0 0-1.03L15.666 9.44a1.36 1.36 0 0 0-1.922-.081q-.042.039-.081.081a1.563 1.563 0 0 0 0 2.122z"/></svg>