<svg xmlns="http://www.w3.org/2000/svg" viewBox="0 0 24 24"><path d="M7.5 1.5A1.5 1.5 0 0 0 6 3v6.75a.75.75 0 0 1-.75.75H4.5a1.5 1.5 0 0 0 0 3h6a1.5 1.5 0 0 0 0-3h-.75A.75.75 0 0 1 9 9.75V3a1.5 1.5 0 0 0-1.5-1.5zm9 3a1.5 1.5 0 1 0 0-3 1.5 1.5 0 0 0 0 3zm0 18a1.5 1.5 0 1 0 0-3 1.5 1.5 0 0 0 0 3zM18 12a1.5 1.5 0 1 1-3 0 1.5 1.5 0 0 1 3 0zm-1.5-3a1.5 1.5 0 1 0 0-3 1.5 1.5 0 0 0 0 3zm1.5 7.5a1.5 1.5 0 1 1-3 0 1.5 1.5 0 0 1 3 0zM7.5 15A1.5 1.5 0 0 0 6 16.5V21a1.5 1.5 0 0 0 3 0v-4.5A1.5 1.5 0 0 0 7.5 15z"/></svg>