<svg xmlns="http://www.w3.org/2000/svg" viewBox="0 0 24 24"><path d="M19.382 21H8.605C6.338 21 4.5 19.14 4.5 16.846A4.16 4.16 0 0 1 7.698 12.8c.518-.12.957-.52 1.092-1.04.635-2.451 2.839-4.259 5.46-4.259 2.331 0 4.333 1.43 5.194 3.47.17.406.535.702.96.799C22.462 12.239 24 14.1 24 16.327 24 18.907 21.932 21 19.382 21z"/><path d="M14.486 5.603C14.6 5.78 14.46 6 14.25 6c-3.16 0-5.823 2.065-6.773 4.91a.874.874 0 0 1-.562.551 5.665 5.665 0 0 0-3.851 4.534c-.028.186-.21.313-.386.247A4.153 4.153 0 0 1 0 12.346 4.16 4.16 0 0 1 3.198 8.3c.518-.12.957-.52 1.092-1.04C4.925 4.807 7.129 3 9.75 3a5.624 5.624 0 0 1 4.736 2.603z"/></svg>