<svg xmlns="http://www.w3.org/2000/svg" viewBox="0 0 24 24"><path d="M12 7.438c-3.529 0-6.806.99-9.537 2.692a.658.658 0 0 1-.845-.12L.555 8.794a.727.727 0 0 1 .152-1.098l.019-.012C3.956 5.672 7.834 4.5 12 4.5c4.166 0 8.044 1.172 11.274 3.183l.02.012c.38.238.446.76.15 1.098l-1.062 1.218a.658.658 0 0 1-.844.119C18.806 8.429 15.529 7.438 12 7.438zm-6.445 7.083a.787.787 0 0 0 .968.161A11.494 11.494 0 0 1 12 13.313c1.997 0 3.866.498 5.477 1.37a.787.787 0 0 0 .968-.162l1.007-1.153c.3-.344.226-.875-.171-1.1A14.776 14.776 0 0 0 12 10.375a14.78 14.78 0 0 0-7.281 1.893.716.716 0 0 0-.171 1.1l1.006 1.153zm3.821 4.386l1.52 1.62c.592.63 1.616.63 2.208 0l1.52-1.62c.536-.57.52-1.474-.183-1.835A5.314 5.314 0 0 0 12 16.5c-.9 0-1.728.205-2.442.572-.703.361-.719 1.264-.183 1.835z"/></svg>