<svg xmlns="http://www.w3.org/2000/svg" viewBox="0 0 24 24"><path d="M15.925 2.196A10.484 10.484 0 0 0 2.788 6.994q-.18.327-.339.668c-.057.127-.122.249-.174.38-.052.128-.088.26-.134.389a9.89 9.89 0 0 0-.176.51l-.064.228a10.333 10.333 0 0 0-.426 2.89 10.5 10.5 0 0 0 20.198 4.022l.002-.004v-.003q.05-.113.095-.228c.064-.158.109-.318.164-.477.027-.08.056-.158.082-.238a10.493 10.493 0 0 0-6.091-12.935zm-5.493 4.203a13.627 13.627 0 0 0-1.475.554l-.285-.33a.177.177 0 0 1-.06-.126.182.182 0 0 1 .072-.104 2.627 2.627 0 0 0 .36-.545c.194-.344.403-.712.589-.74.285-.042.523.607.667 1 .063.174.108.298.132.291zm1.727 13.151a11.767 11.767 0 0 1-.05-.944c0-.24-.144-.263-.306-.288-.153-.024-.322-.05-.396-.266q-.029-.078-.053-.157c-.117-.357-.194-.595-.604-.63a1.035 1.035 0 0 1-.476-.14c-.127-.07-.206-.113-.546.02a2.09 2.09 0 0 1-2.27-.743 4.497 4.497 0 0 1-.843-2.37 1.445 1.445 0 0 1 .242-.77 1.319 1.319 0 0 1 .506-.396 2.269 2.269 0 0 0 .303-.195l.137-.116a2.33 2.33 0 0 0 1.022-1.459l2.1-.087a7.546 7.546 0 0 0 4.12-.003c.223-.04.444-.08.66-.116.415-.326.066-1.052-.437-1.21a4.626 4.626 0 0 0-1.57.033c-.527.021-1.164-.219-1.232-.742a1.422 1.422 0 0 1-.01-.162c-.006-.158-.01-.316-.13-.404a.444.444 0 0 0-.411-.002 11.148 11.148 0 0 0-1.547.916 1.78 1.78 0 0 1-1.711.174l.056-1.017a.984.984 0 0 1 .688-.25c.305-.036.594-.07.65-.342a1.75 1.75 0 0 0-.021-.378c-.005-.41.398-.62.802-.833.402-.21.805-.422.804-.83a2.061 2.061 0 0 0-.2-.613 1.58 1.58 0 0 1 .003-.644c.177-.012.355-.027.536-.027a7.49 7.49 0 0 1 7.114 9.863.742.742 0 0 1-.172-.036.72.72 0 0 1-.26-.31 9.709 9.709 0 0 1-.894-2.29l-1.328.54a.45.45 0 0 0-.28.217.427.427 0 0 0 .024.28 5.168 5.168 0 0 0 2.51 2.564 7.49 7.49 0 0 1-6.53 4.163z"/></svg>