<svg xmlns="http://www.w3.org/2000/svg" viewBox="0 0 24 24"><path fill-rule="evenodd" d="M22.286 9.884a10.417 10.417 0 0 0-1.054-2.889 10.514 10.514 0 0 0-1.809-2.42 10.44 10.44 0 0 0-8.596-3.006c-.046.005-.09.013-.136.02a3.51 3.51 0 0 1-.1.016 10.458 10.458 0 0 0-1.033.19l-.07.019a10.5 10.5 0 0 0-.983.293l-.068.025c-.36.129-.711.278-1.054.446a.638.638 0 0 0-.175.083l-.003.003a10.49 10.49 0 0 0-2.268 1.577l-.03.027-.066.06a10.539 10.539 0 0 0-1.708 2.053l-.082.134-.038.063a10.455 10.455 0 0 0-.578 1.09c-.017.035-.035.07-.05.106-.177.4-.328.81-.453 1.23-.014.045-.025.09-.036.136-.008.034-.016.068-.026.102-.094.349-.17.702-.228 1.06l-.003.017a9.44 9.44 0 0 0-.052.337 10.494 10.494 0 0 0 4.896 10.279 10.502 10.502 0 0 0 12.194-.833 10.515 10.515 0 0 0 3.61-10.218zM12.212 20.309a1.94 1.94 0 0 1-.02.081c-.03 0-.06.003-.088.005-.036.002-.072.005-.108.005a8.39 8.39 0 0 1-7.48-4.562 8.383 8.383 0 0 1 .665-8.733c-.112.25-.17.52-.173.794.035.377.146.743.327 1.075l.963 2.093c.066.173.166.332.293.467.238.168.508.287.793.35.5.184.898.544 1.298.905.314.284.63.57.997.771a5.362 5.362 0 0 0 1.849.496 3.56 3.56 0 0 1-.343 1.721 1.873 1.873 0 0 0 .06 1.704c.141.188.34.322.539.456.225.152.45.302.587.532.287.476.09 1.07-.09 1.608l-.039.12c-.012.037-.02.074-.03.112zm6.729-4.815l.615.11A8.264 8.264 0 0 0 20.399 12a8.405 8.405 0 0 0-8.119-8.386A6.609 6.609 0 0 1 14.64 6.1a5.28 5.28 0 0 0-2.953 2.472 1.21 1.21 0 0 1-.208.417c-.021.022-.045.043-.068.064a.448.448 0 0 0-.13.155.446.446 0 0 0 .015.286c.099.353.208.704.328 1.05-.425.249-1.051.46-1.334.058-.087-.125-.122-.29-.157-.452-.052-.243-.102-.475-.325-.532a.621.621 0 0 0-.3.023l-1.15.284a4.169 4.169 0 0 0-.072 1.943c.765-.114 1.698-.163 2.15.464.095.133.17.295.245.455.159.344.314.68.665.708.19-.006.375-.06.538-.156a3.459 3.459 0 0 1 3.286.284c.277.257.627.424 1.002.477l.077-.003c.113-.008.23-.015.308.062a.5.5 0 0 1 .086.3c.07.521.645.815 1.165.894.15.023.305.036.459.049l.204.018c.025.002.05.006.074.01.02.004.04.008.061.01l.002-.005.202.036.047.008.084.015z" clip-rule="evenodd"/><path fill-rule="evenodd" d="M12 19.5a7.5 7.5 0 1 0 0-15 7.5 7.5 0 0 0 0 15zm0 3c5.799 0 10.5-4.701 10.5-10.5S17.799 1.5 12 1.5 1.5 6.201 1.5 12 6.201 22.5 12 22.5z" clip-rule="evenodd"/></svg>