<svg xmlns="http://www.w3.org/2000/svg" viewBox="0 0 24 24"><path fill-rule="evenodd" d="M12 1.5a10.483 10.483 0 0 0-9.02 5.145l-.004.006c-.103.174-.204.348-.298.528l-.048.1-.034.072c-.221.442-.41.9-.567 1.37-.061.187-.113.38-.164.571-.03.114-.061.228-.088.343a10.542 10.542 0 0 0-.18 1.014l-.014.1a10.344 10.344 0 0 0-.084 1.254 10.438 10.438 0 0 0 1.267 5.007c.034.063.072.122.11.182.026.041.052.083.076.125a10.493 10.493 0 0 0 13.304 4.281A10.5 10.5 0 0 0 12 1.5zM4.906 13.239c-.168-.242-.337-.484-.552-.579a3.468 3.468 0 0 0-.708-1.54 8.385 8.385 0 0 0 3.603 7.823 8.378 8.378 0 0 0 7.79.886l-.244-.482a.859.859 0 0 0-.251-.341.871.871 0 0 0-.714-.017l-2.822.756a5.28 5.28 0 0 0-.035-1.349 1.7 1.7 0 0 1 .326-1.276c.35-.28.757-.478 1.194-.578a3.245 3.245 0 0 0 1.645-1.425l.889.049c.798-.05 1.6-.058 2.399-.024.08-.005.16.015.229.055a.44.44 0 0 1 .133.279 4.653 4.653 0 0 0 .745 1.685l.04.058a8.386 8.386 0 0 0-4.247-13.283c-.107.328-.118.68-.03 1.014.032.086.08.166.127.246.044.073.088.146.12.225a.925.925 0 0 1-.41 1.135l-1.15-1.343a1.57 1.57 0 0 0-.429.878c.005.167.037.333.094.49l.548 1.794c-.904.388-1.757.888-2.537 1.488a.151.151 0 0 0-.044.25l.66 1.023c.062.078.1.171.11.27a.414.414 0 0 1-.099.25c-.349.381-.9.503-1.376.303a3.166 3.166 0 0 1-1.185-.91 17.681 17.681 0 0 1-1.39-1.72 1.06 1.06 0 0 0-.86.535c-.17.309-.287.645-.345.993l-.49 2.168-.182.792c-.215-.095-.384-.337-.552-.579z" clip-rule="evenodd"/><path fill-rule="evenodd" d="M12 19.5a7.5 7.5 0 1 0 0-15 7.5 7.5 0 0 0 0 15zm0 3c5.799 0 10.5-4.701 10.5-10.5S17.799 1.5 12 1.5C6.2 1.5 1.5 6.201 1.5 12S6.201 22.5 12 22.5z" clip-rule="evenodd"/></svg>