<svg id="icon" xmlns="http://www.w3.org/2000/svg" viewBox="0 0 24 24"><title>rating--star-outline</title><path d="M16.74,21a1.81,1.81,0,0,1-.9-.24l-3.75-2.55L8.3,20.76a1.8,1.8,0,0,1-1.86-.17,1.75,1.75,0,0,1-.72-1.66l0-.15L7,14.6l-3.23-3a1.7,1.7,0,0,1-.66-1.79,1.77,1.77,0,0,1,1.53-1.3l3.86-.59L10.4,4A1.75,1.75,0,0,1,12,3a1.77,1.77,0,0,1,1.61,1l1.89,3.86,4,.61a1.79,1.79,0,0,1,1,3l-3.3,3,1.29,4.33a1.82,1.82,0,0,1-.77,1.75A1.71,1.71,0,0,1,16.74,21ZM8.39,13.17A1.73,1.73,0,0,1,9,14.65l0,.29-1.11,3.7,3.42-2.32a1.94,1.94,0,0,1,1.47-.05l.25.12,3.3,2.25-1.15-4a2,2,0,0,1,.56-1.41l3-2.79L15,9.86a1.8,1.8,0,0,1-1.22-1L12,5.32,10.27,8.86a1.73,1.73,0,0,1-.95.92L9,9.9l-3.54.54Zm10.8-2.65h0Zm-14.29,0Zm7.31-5.63v0Z"/></svg>