<svg xmlns="http://www.w3.org/2000/svg" xmlns:xlink="http://www.w3.org/1999/xlink" viewBox="0 0 24 24"><defs><symbol id="material_system_icon_border" data-name="material_system_icon_border" viewBox="0 0 48 48"><rect width="48" height="48" fill="none"/></symbol></defs><title>city-center</title><g id="icon"><path d="M18.09,4.77a8.08,8.08,0,0,0-12.18,0C3.11,8,3.45,12.6,6.52,16l4.77,5.71a1,1,0,0,0,1.41,0L17.48,16C20.55,12.6,20.89,8,18.09,4.77ZM12,15a5,5,0,1,1,5-5A5,5,0,0,1,12,15Zm0-3a2,2,0,1,1,2-2A2,2,0,0,1,12,12Z"/></g><g id="border"><use id="material_system_icon_border-3" data-name="material_system_icon_border" width="48" height="48" transform="translate(0) scale(0.5)" xlink:href="#material_system_icon_border"/></g></svg>