<svg xmlns="http://www.w3.org/2000/svg" viewBox="0 0 24 24"><defs><style>.a{fill:#34363d;}</style></defs><title>accessibility-24</title><path class="a" d="M12,0A12,12,0,1,0,24,12,12,12,0,0,0,12,0Zm0,22A10,10,0,1,1,22,12,10,10,0,0,1,12,22Z"/><path class="a" d="M12,4a8,8,0,1,0,8,8A8,8,0,0,0,12,4Zm0.07,1a1.59,1.59,0,1,1-1.55,1.59A1.57,1.57,0,0,1,12.07,5Zm1.6,5.51v3l1.43,4.62a0.45,0.45,0,0,1-.79.45l-2.31-5-2.35,5a0.47,0.47,0,0,1-.65.11,0.44,0.44,0,0,1-.11-0.62l1.46-4.6,0-3.07L6.25,9.1A0.45,0.45,0,0,1,6,8.71a0.49,0.49,0,0,1,.25-0.42,0.75,0.75,0,0,1,.48,0L12,9.2l5.29-.89,0.2,0a0.45,0.45,0,0,1,.48.28,0.46,0.46,0,0,1-.17.53Z"/></svg>