<?xml version="1.0" encoding="utf-8"?>
<!-- Generator: Adobe Illustrator 19.2.1, SVG Export Plug-In . SVG Version: 6.00 Build 0)  -->
<svg version="1.1" xmlns="http://www.w3.org/2000/svg" xmlns:xlink="http://www.w3.org/1999/xlink" x="0px" y="0px"
	 viewBox="0 0 24 24" enable-background="new 0 0 24 24" xml:space="preserve">
<g id="aw">
	<path fill="#34363D" d="M12.025,2c-5.523,0-10,4.477-10,10c0,5.523,4.477,10,10,10c5.523,0,10-4.477,10-10
		C22.025,6.477,17.548,2,12.025,2z M12.025,5c1.657,0,3,1.343,3,3s-1.343,3-3,3s-3-1.343-3-3S10.368,5,12.025,5z M12.025,20
		c-2.523,0-4.774-1.177-6.241-3.008c0.609-1.218,1.524-2.256,2.691-3.105l0.005-0.003C9.271,13.309,10.224,13,11.202,13h1.642
		c0.981,0,1.938,0.311,2.732,0.888c1.167,0.849,2.083,1.886,2.691,3.104C16.799,18.823,14.549,20,12.025,20z"/>
</g>
<g id="guides">
</g>
</svg>
