<?xml version="1.0" encoding="utf-8"?>
<!-- Generator: Adobe Illustrator 19.2.1, SVG Export Plug-In . SVG Version: 6.00 Build 0)  -->
<svg version="1.1" xmlns="http://www.w3.org/2000/svg" xmlns:xlink="http://www.w3.org/1999/xlink" x="0px" y="0px"
	 viewBox="0 0 24 24" enable-background="new 0 0 24 24" xml:space="preserve">
<g id="aw">
	<path fill="#34363D" d="M12.464,7.031l1.28,2.594l2.862,0.416c0.401,0.058,0.561,0.551,0.271,0.834l-2.071,2.019l0.489,2.851
		c0.069,0.399-0.351,0.704-0.71,0.516l-2.56-1.346l-2.56,1.346c-0.359,0.189-0.778-0.116-0.71-0.516l0.489-2.851l-2.071-2.019
		c-0.29-0.283-0.13-0.776,0.271-0.834l2.862-0.416l1.28-2.594C11.766,6.667,12.284,6.667,12.464,7.031z M21.231,12
		c0,0.875,0.953,1.864,0.737,2.671c-0.223,0.835-1.549,1.214-1.972,1.945c-0.429,0.742-0.099,2.078-0.701,2.679
		c-0.602,0.602-1.938,0.272-2.68,0.701c-0.731,0.423-1.11,1.749-1.945,1.972c-0.807,0.216-1.796-0.737-2.671-0.737
		s-1.864,0.953-2.671,0.737c-0.835-0.223-1.214-1.549-1.945-1.972c-0.742-0.429-2.078-0.099-2.679-0.701
		c-0.602-0.602-0.272-1.938-0.701-2.679c-0.423-0.731-1.749-1.11-1.972-1.945C1.816,13.864,2.769,12.875,2.769,12
		s-0.953-1.864-0.737-2.671c0.223-0.835,1.549-1.214,1.972-1.945c0.429-0.742,0.099-2.078,0.701-2.679
		c0.602-0.602,1.938-0.272,2.68-0.701c0.731-0.423,1.11-1.749,1.945-1.972C10.136,1.816,11.125,2.769,12,2.769
		s1.864-0.953,2.671-0.737c0.835,0.223,1.214,1.549,1.945,1.972c0.742,0.429,2.078,0.099,2.679,0.701
		c0.602,0.602,0.272,1.938,0.701,2.68c0.423,0.731,1.749,1.11,1.972,1.945C22.184,10.136,21.231,11.125,21.231,12z M19,12
		c0-3.866-3.134-7-7-7s-7,3.134-7,7c0,3.866,3.134,7,7,7S19,15.866,19,12z"/>
</g>
<g id="guides">
</g>
<g id="Layer_3">
</g>
</svg>
