<?xml version="1.0" encoding="utf-8"?>
<!-- Generator: Adobe Illustrator 19.2.1, SVG Export Plug-In . SVG Version: 6.00 Build 0)  -->
<svg version="1.1" xmlns="http://www.w3.org/2000/svg" xmlns:xlink="http://www.w3.org/1999/xlink" x="0px" y="0px"
	 viewBox="0 0 24 24" enable-background="new 0 0 24 24" xml:space="preserve">
<g id="aw">
	<path fill="#34363D" d="M20,8h-4c0-2.2-1.8-4-4-4S8,5.8,8,8H4c-1.1,0-2,0.9-2,2v8c0,1.1,0.9,2,2,2h16c1.1,0,2-0.9,2-2v-8
		C22,8.9,21.1,8,20,8z M12,6c1.103,0,2,0.897,2,2h-4C10,6.897,10.897,6,12,6z M15.887,11.929l-4.38,5.243
		c-0.181,0.217-0.434,0.328-0.689,0.328c-0.213,0-0.427-0.077-0.6-0.236l-2.06-1.85c-0.191-0.174-0.211-0.477-0.045-0.677l0.6-0.725
		c0.166-0.2,0.455-0.221,0.646-0.047l1.234,1.096c0.076,0.07,0.192,0.061,0.259-0.018l3.659-4.378c0.166-0.2,0.455-0.22,0.646-0.045
		l0.689,0.632C16.034,11.426,16.053,11.729,15.887,11.929z"/>
</g>
<g id="guides">
</g>
</svg>
