<?xml version="1.0" encoding="utf-8"?>
<!-- Generator: Adobe Illustrator 19.2.1, SVG Export Plug-In . SVG Version: 6.00 Build 0)  -->
<svg version="1.1" xmlns="http://www.w3.org/2000/svg" xmlns:xlink="http://www.w3.org/1999/xlink" x="0px" y="0px"
	 viewBox="0 0 24 24" enable-background="new 0 0 24 24" xml:space="preserve">
<g id="aw">
	<path fill="#34363D" d="M12,4C9.8,4,8,5.8,8,8H7v12h10V8h-1C16,5.8,14.2,4,12,4z M12,6c1.103,0,2,0.897,2,2h-4
		C10,6.897,10.897,6,12,6z M4,8h1v12H4c-1.1,0-2-0.9-2-2v-8C2,8.9,2.9,8,4,8z M22,10v8c0,1.1-0.9,2-2,2h-1V8h1C21.1,8,22,8.9,22,10z
		"/>
</g>
<g id="guides">
</g>
</svg>
