<?xml version="1.0" encoding="utf-8"?>
<!-- Generator: Adobe Illustrator 19.2.1, SVG Export Plug-In . SVG Version: 6.00 Build 0)  -->
<svg version="1.1" xmlns="http://www.w3.org/2000/svg" xmlns:xlink="http://www.w3.org/1999/xlink" x="0px" y="0px"
	 viewBox="0 0 24 24" enable-background="new 0 0 24 24" xml:space="preserve">
<g id="aw">
	<path fill="#34363D" d="M20,8h-4c0-2.2-1.8-4-4-4S8,5.8,8,8H4c-1.1,0-2,0.9-2,2v8c0,1.1,0.9,2,2,2h16c1.1,0,2-0.9,2-2v-8
		C22,8.9,21.1,8,20,8z M12,6c1.103,0,2,0.897,2,2h-4C10,6.897,10.897,6,12,6z M15.855,16.451c0.194,0.194,0.194,0.508,0,0.702
		l-0.702,0.702c-0.194,0.194-0.508,0.194-0.702,0L12,15.404l-2.451,2.451c-0.194,0.194-0.508,0.194-0.702,0l-0.702-0.702
		c-0.194-0.194-0.194-0.508,0-0.702L10.596,14l-2.451-2.451c-0.194-0.194-0.194-0.508,0-0.702l0.702-0.702
		c0.194-0.194,0.508-0.194,0.702,0L12,12.596l2.451-2.451c0.194-0.194,0.508-0.194,0.702,0l0.702,0.702
		c0.194,0.194,0.194,0.508,0,0.702L13.404,14L15.855,16.451z"/>
</g>
<g id="guides">
</g>
</svg>
