<?xml version="1.0" encoding="utf-8"?>
<!-- Generator: Adobe Illustrator 19.2.1, SVG Export Plug-In . SVG Version: 6.00 Build 0)  -->
<svg version="1.1" xmlns="http://www.w3.org/2000/svg" xmlns:xlink="http://www.w3.org/1999/xlink" x="0px" y="0px"
	 viewBox="0 0 24 24" enable-background="new 0 0 24 24" xml:space="preserve">
<g id="aw">
	<path fill="#34363D" d="M2,18h20c0,1.105-1.895,2-3,2H5C3.895,20,2,19.105,2,18z M22,6.952v2.873c0,2.246-1.777,4.064-4,4.157
		v0.104c0,1.609-1.304,2.913-2.913,2.913H8.913C7.304,16.999,6,15.695,6,14.086V4h12h0v1h2.048C21.126,5,22,5.874,22,6.952z
		 M15.844,7.751l-0.689-0.632c-0.19-0.175-0.479-0.154-0.646,0.045l-3.659,4.378c-0.067,0.08-0.182,0.088-0.259,0.018l-1.234-1.096
		c-0.191-0.174-0.48-0.153-0.646,0.047l-0.6,0.725c-0.166,0.2-0.146,0.503,0.045,0.677l2.06,1.85c0.173,0.159,0.387,0.236,0.6,0.236
		c0.255,0,0.508-0.111,0.689-0.328l4.38-5.243C16.053,8.229,16.034,7.926,15.844,7.751z M20,7h-2v4.993c1.118-0.089,2-1.027,2-2.168
		V7z"/>
</g>
<g id="guides">
</g>
</svg>
