<?xml version="1.0" encoding="utf-8"?>
<!-- Generator: Adobe Illustrator 19.2.1, SVG Export Plug-In . SVG Version: 6.00 Build 0)  -->
<svg version="1.1" xmlns="http://www.w3.org/2000/svg" xmlns:xlink="http://www.w3.org/1999/xlink" x="0px" y="0px"
	 viewBox="0 0 24 24" enable-background="new 0 0 24 24" xml:space="preserve">
<g id="aw">
	<path fill="#34363D" d="M2,18h20c0,1.105-1.895,2-3,2H5C3.895,20,2,19.105,2,18z M22,6.952v2.873c0,2.246-1.777,4.064-4,4.157
		v0.104c0,1.609-1.304,2.913-2.913,2.913H8.913C7.304,16.999,6,15.695,6,14.086V4h12h0v1h2.048C21.126,5,22,5.874,22,6.952z
		 M13.404,10.5l2.451-2.451c0.194-0.194,0.194-0.508,0-0.702l-0.702-0.702c-0.194-0.194-0.508-0.194-0.702,0L12,9.096L9.549,6.645
		c-0.194-0.194-0.508-0.194-0.702,0L8.145,7.347c-0.194,0.194-0.194,0.508,0,0.702l2.451,2.451l-2.451,2.451
		c-0.194,0.194-0.194,0.508,0,0.702l0.702,0.702c0.194,0.194,0.508,0.194,0.702,0L12,11.903l2.451,2.451
		c0.194,0.194,0.508,0.194,0.702,0l0.702-0.702c0.194-0.194,0.194-0.508,0-0.702L13.404,10.5z M20,7h-2v4.993
		c1.118-0.089,2-1.027,2-2.168V7z"/>
</g>
<g id="guides">
</g>
</svg>
