<svg xmlns="http://www.w3.org/2000/svg" viewBox="0 0 24 24"><path fill="#34363D" d="M12.408 9.3l-.7 5.2c0 .3-.2.5-.5.5h-.5l-1 7h-2l-1-7h-.5c-.3 0-.5-.2-.5-.5l-.7-5.2c-.1-1.2.8-2.3 2-2.3h.7l.754 3.771c.054.269.438.269.492 0L9.708 7h.7c1.2 0 2.2 1.1 2 2.3zM8.708 6c1.1 0 2-.9 2-2s-.9-2-2-2-2 .9-2 2 .9 2 2 2zM18 16.123v4.753c0 .619-.505 1.124-1.123 1.124h-2.753A1.126 1.126 0 0 1 13 20.877v-4.753c0-.574.442-1.034 1-1.098v-.651c0-.757.618-1.375 1.374-1.375h.251c.757 0 1.375.618 1.375 1.374v.651c.558.065 1 .524 1 1.098zm-2.965-1.749V15h.93v-.626a.345.345 0 0 0-.34-.34h-.251a.345.345 0 0 0-.339.34z"/></svg>