<?xml version="1.0" encoding="utf-8"?>
<!-- Generator: Adobe Illustrator 19.2.1, SVG Export Plug-In . SVG Version: 6.00 Build 0)  -->
<svg version="1.1" xmlns="http://www.w3.org/2000/svg" xmlns:xlink="http://www.w3.org/1999/xlink" x="0px" y="0px"
	 viewBox="0 0 24 24" enable-background="new 0 0 24 24" xml:space="preserve">
<g id="aw">
	<path fill="#34363D" d="M12.408,9.3l-0.7,5.2c0,0.3-0.2,0.5-0.5,0.5h-0.5l-1,7h-2l-1-7h-0.5c-0.3,0-0.5-0.2-0.5-0.5l-0.7-5.2
		c-0.1-1.2,0.8-2.3,2-2.3h0.7l0.754,3.771c0.054,0.269,0.438,0.269,0.492,0L9.708,7h0.7C11.608,7,12.608,8.1,12.408,9.3z M8.708,6
		c1.1,0,2-0.9,2-2c0-1.1-0.9-2-2-2c-1.1,0-2,0.9-2,2C6.708,5.1,7.608,6,8.708,6z M18,16.123v4.753C18,21.495,17.495,22,16.877,22
		h-2.753C13.505,22,13,21.495,13,20.877v-4.753c0-0.574,0.442-1.034,1-1.098v-0.651C14,13.618,14.618,13,15.374,13h0.251
		C16.382,13,17,13.618,17,14.374v0.651C17.558,15.09,18,15.549,18,16.123z M15.035,14.374V15h0.93v-0.626
		c0-0.184-0.156-0.34-0.34-0.34h-0.251C15.19,14.035,15.035,14.19,15.035,14.374z"/>
</g>
<g id="guides">
</g>
</svg>
