<svg xmlns="http://www.w3.org/2000/svg" viewBox="0 0 24 24" enable-background="new 0 0 24 24"><g fill="#34363D"><path d="M7 20c0 .5.5 1 1 1h2c.5 0 1-.5 1-1v-2h-4v2zM17.3 7c1.1 0 2-.9 2-2s-.9-2-2-2-2 .9-2 2 .9 2 2 2zM17.3 9l1-1h-2zM19.3 8l-2 3-2-3c-.3 0-.6.2-.8.3l-.2.1-.1.1-2.3 2.7c-.3-.8-1-1.3-1.9-1.3l-1-5c-.2-1.1-1.2-1.9-2.3-1.9h-3.7v1.9h3.7c.4 0 .7.3.8.6l.5 4.5h-5v7h9v-2.9c.1-.1.2-.1.2-.2l2.4-2.8.7 3.9 1 6h2l1-6h.5c.3 0 .5-.2.5-.5l.7-4.2c.1-1.1-.7-2.1-1.7-2.3zm-10.8 7c-.8 0-1.5-.7-1.5-1.5s.7-1.5 1.5-1.5 1.5.7 1.5 1.5-.7 1.5-1.5 1.5z"/></g></svg>