<?xml version="1.0" encoding="utf-8"?>
<!-- Generator: Adobe Illustrator 19.2.1, SVG Export Plug-In . SVG Version: 6.00 Build 0)  -->
<svg version="1.1" xmlns="http://www.w3.org/2000/svg" xmlns:xlink="http://www.w3.org/1999/xlink" x="0px" y="0px"
	 viewBox="0 0 24 24" enable-background="new 0 0 24 24" xml:space="preserve">
<g id="aw">
	<path fill="#34363D" d="M12.025,6c-2.206,0-4,1.794-4,4s1.794,4,4,4c2.206,0,4-1.794,4-4S14.231,6,12.025,6z M12.025,12
		c-1.105,0-2-0.895-2-2s0.895-2,2-2c1.105,0,2,0.895,2,2S13.13,12,12.025,12z M18.114,4.769c-1.612-1.844-3.85-2.766-6.089-2.768
		C9.787,2.003,7.549,2.925,5.937,4.769c-2.804,3.207-2.458,7.836,0.61,11.232l4.774,5.707c0.195,0.193,0.449,0.289,0.704,0.291
		c0.256-0.002,0.51-0.098,0.705-0.291l4.773-5.707C20.572,12.605,20.918,7.976,18.114,4.769z M12.025,16c-3.314,0-6-2.686-6-6
		s2.686-6,6-6s6,2.686,6,6S15.339,16,12.025,16z"/>
</g>
<g id="guides">
</g>
</svg>
