<?xml version="1.0" encoding="utf-8"?>
<!-- Generator: Adobe Illustrator 18.1.1, SVG Export Plug-In . SVG Version: 6.00 Build 0)  -->
<!DOCTYPE svg PUBLIC "-//W3C//DTD SVG 1.1//EN" "http://www.w3.org/Graphics/SVG/1.1/DTD/svg11.dtd">
<svg version="1.1" xmlns="http://www.w3.org/2000/svg" xmlns:xlink="http://www.w3.org/1999/xlink" x="0px" y="0px"
	 viewBox="0 0 24 24" style="enable-background:new 0 0 24 24;" xml:space="preserve">
<g id="aw">
	<path style="fill:#34363D;" d="M6.413,13.652l3.935,3.935l8.525-8.525l-3.935-3.935L6.413,13.652z M15.266,7.422l-5.902,5.902
		c-0.181,0.181-0.475,0.181-0.656,0s-0.181-0.475,0-0.656l5.902-5.902c0.181-0.181,0.475-0.181,0.656,0S15.448,7.241,15.266,7.422z
		 M3.036,20.363C2.906,20.686,3.148,21,3.456,21c0.059,0,0.12-0.011,0.181-0.036l5.399-2.065l-3.935-3.935L3.036,20.363z
		 M7.239,18.515l-2.842,1.087l1.087-2.842L7.239,18.515z M20.185,7.75L16.25,3.815c1.087-1.087,2.848-1.087,3.935,0
		C21.272,4.901,21.272,6.663,20.185,7.75z"/>
</g>
<g id="guides">
</g>
<g id="Isolation_Mode">
</g>
</svg>
