<?xml version="1.0" encoding="utf-8"?>
<!-- Generator: Adobe Illustrator 19.2.1, SVG Export Plug-In . SVG Version: 6.00 Build 0)  -->
<svg version="1.1" xmlns="http://www.w3.org/2000/svg" xmlns:xlink="http://www.w3.org/1999/xlink" x="0px" y="0px"
	 viewBox="0 0 24 24" enable-background="new 0 0 24 24" xml:space="preserve">
<g id="aw">
	<path fill="#34363D" d="M3,14.672l0.112,4.458c0.023,0.964,0.797,1.736,1.757,1.758L9.328,21c0.669,0.016,1.226-0.513,1.242-1.182
		c0.017-0.669-0.513-1.225-1.182-1.243L7.195,18.52l3.928-3.928c0.473-0.473,0.473-1.242,0-1.715s-1.242-0.473-1.715,0L5.48,16.805
		l-0.055-2.193c-0.009-0.324-0.143-0.615-0.355-0.827c-0.227-0.227-0.542-0.363-0.888-0.355C3.513,13.446,2.984,14.003,3,14.672z"/>
	<path fill="#34363D" d="M21,9.328L20.887,4.87c-0.023-0.964-0.797-1.736-1.757-1.758L14.672,3
		c-0.669-0.016-1.226,0.513-1.242,1.182c-0.017,0.669,0.513,1.225,1.182,1.243l2.193,0.055l-3.928,3.928
		c-0.473,0.473-0.473,1.242,0,1.715s1.242,0.473,1.715,0l3.928-3.928l0.055,2.193c0.009,0.324,0.143,0.615,0.355,0.827
		c0.227,0.227,0.542,0.363,0.888,0.355C20.487,10.554,21.016,9.997,21,9.328z"/>
</g>
<g id="guides">
</g>
</svg>
