<svg xmlns="http://www.w3.org/2000/svg" viewBox="0 0 24 24" enable-background="new 0 0 24 24"><g><path d="M12.966 21c.548 0 1.092-.208 1.481-.614l5.492-5.746c1.414-1.481 1.414-3.8 0-5.28l-5.492-5.746c-.716-.748-1.958-.823-2.775-.17-.818.655-.9 1.792-.185 2.54l5.492 5.746c.121.126.121.413 0 .539l-5.492 5.745c-.715.749-.632 1.885.185 2.54.373.299.834.446 1.294.446zM6.255 19.135l4.297-4.495c1.412-1.477 1.412-3.803 0-5.28l-4.297-4.495c-.677-.708-1.782-.781-2.546-.169-.865.693-.951 1.978-.185 2.78l4.067 4.255c.142.148.142.391 0 .539l-4.068 4.255c-.766.801-.681 2.087.184 2.78.766.611 1.871.538 2.548-.17z" fill="#34363D"/></g></svg>