<svg xmlns="http://www.w3.org/2000/svg" viewBox="0 0 24 24" enable-background="new 0 0 24 24"><path fill="#34363D" d="M12 2c-5.5 0-10 4.5-10 10s4.5 10 10 10 10-4.5 10-10-4.5-10-10-10zm7.9 9h-4c-.1-2.6-.6-4.9-1.4-6.6 2.9 1 5 3.5 5.4 6.6zm-7.9 9c-.6-.5-1.8-2.9-2-7h4c-.2 4.1-1.4 6.5-2 7zm-2-9c.2-4.1 1.4-6.5 2-7 .6.5 1.8 2.9 2 7h-4zm-.6-6.6c-.8 1.7-1.3 4-1.4 6.6h-4c.5-3.1 2.6-5.6 5.4-6.6zm-5.3 8.6h4c.1 2.6.6 4.9 1.4 6.6-2.9-1-5-3.5-5.4-6.6zm10.5 6.6c.8-1.6 1.3-3.9 1.4-6.6h4c-.5 3.1-2.6 5.6-5.4 6.6z"/></svg>