<?xml version="1.0" encoding="utf-8"?>
<!-- Generator: Adobe Illustrator 19.2.1, SVG Export Plug-In . SVG Version: 6.00 Build 0)  -->
<svg version="1.1" xmlns="http://www.w3.org/2000/svg" xmlns:xlink="http://www.w3.org/1999/xlink" x="0px" y="0px"
	 viewBox="0 0 24 24" enable-background="new 0 0 24 24" xml:space="preserve">
<g id="aw">
	<path fill="#34363D" d="M22,12c0,0.55-0.45,1-1,1v1.5c0,0.825-0.675,1.5-1.5,1.5c-0.176,0-0.343-0.036-0.5-0.093V13v-2V8.093
		C19.157,8.036,19.324,8,19.5,8C20.325,8,21,8.675,21,9.5V11C21.55,11,22,11.45,22,12z M3,9.5V11c-0.55,0-1,0.45-1,1s0.45,1,1,1v1.5
		C3,15.325,3.675,16,4.5,16c0.176,0,0.343-0.036,0.5-0.093V13v-2V8.093C4.843,8.036,4.676,8,4.5,8C3.675,8,3,8.675,3,9.5z M16,6
		c-1.1,0-2,0.9-2,2v3h-4V8c0-1.1-0.9-2-2-2S6,6.9,6,8v1.5V11v2v1.5V16c0,1.1,0.9,2,2,2s2-0.9,2-2v-3h4v3c0,1.1,0.9,2,2,2s2-0.9,2-2
		v-1.5V13v-2V9.5V8C18,6.9,17.1,6,16,6z"/>
</g>
<g id="guides">
</g>
</svg>
