<?xml version="1.0" encoding="utf-8"?>
<!-- Generator: Adobe Illustrator 19.2.1, SVG Export Plug-In . SVG Version: 6.00 Build 0)  -->
<svg version="1.1" xmlns="http://www.w3.org/2000/svg" xmlns:xlink="http://www.w3.org/1999/xlink" x="0px" y="0px"
	 viewBox="0 0 24 24" enable-background="new 0 0 24 24" xml:space="preserve">
<g id="aw">
	<path fill="#34363D" d="M12,2C6.477,2,2,6.477,2,12c0,5.523,4.477,10,10,10s10-4.477,10-10C22,6.477,17.523,2,12,2z M13.205,17.316
		c0,0.276-0.224,0.5-0.5,0.5h-1.336c-0.276,0-0.5-0.224-0.5-0.5v-1.258c0-0.276,0.224-0.5,0.5-0.5h1.336c0.276,0,0.5,0.224,0.5,0.5
		V17.316z M15.433,11.238c-0.198,0.281-0.577,0.641-1.138,1.078l-0.553,0.43c-0.301,0.234-0.501,0.508-0.6,0.82
		c-0.062,0.198-0.097,0.505-0.102,0.922h-1.59c-0.293,0-0.52-0.254-0.499-0.547c0.042-0.59,0.116-1.016,0.22-1.278
		c0.135-0.336,0.483-0.723,1.044-1.16l0.569-0.445c0.187-0.141,0.337-0.294,0.452-0.461c0.208-0.286,0.312-0.602,0.312-0.945
		c0-0.396-0.116-0.756-0.347-1.082c-0.231-0.325-0.653-0.488-1.267-0.488c-0.603,0-1.03,0.201-1.282,0.602
		c-0.175,0.279-0.289,0.565-0.343,0.859c-0.042,0.23-0.25,0.391-0.484,0.391H8.565c-0.294,0-0.539-0.256-0.501-0.547
		C8.22,8.188,8.723,7.318,9.573,6.777c0.614-0.396,1.37-0.594,2.266-0.594c1.177,0,2.155,0.281,2.934,0.844
		c0.778,0.562,1.168,1.396,1.168,2.5C15.94,10.205,15.771,10.775,15.433,11.238z"/>
</g>
<g id="guides">
</g>
</svg>
