<svg xmlns="http://www.w3.org/2000/svg" viewBox="0 0 24 24"><path fill="#34363D" d="M21 5c-.2-.3-.6-.4-.6-.4-.8-.4-4.6-.6-8.5-.6s-7.7.2-8.5.6c0 0-.4.1-.6.4-.6.6-.9 3-.9 5.5s.3 4.9.9 5.5c.2.3.6.4.6.4.5.2 1.8.4 3.6.5v2.6c0 .3.3.6.7.5 1-.3 2.7-1.2 4-3h.3c3.9 0 7.7-.2 8.5-.6 0 0 .4-.1.6-.4.6-.6.9-3.1.9-5.5s-.4-4.9-1-5.5zm-14.6 7c-.8 0-1.5-.7-1.5-1.5s.7-1.5 1.5-1.5 1.5.7 1.5 1.5-.6 1.5-1.5 1.5zm6.6-.4c-.3.3-.6.4-1.1.4-.8 0-1.5-.7-1.5-1.5 0-.6.4-1.1.9-1.3.2-.1.4-.2.6-.2.8 0 1.5.7 1.5 1.5 0 .4-.1.8-.4 1.1zm4.4.4c-.8 0-1.5-.7-1.5-1.5s.6-1.5 1.5-1.5 1.5.7 1.5 1.5-.7 1.5-1.5 1.5z"/></svg>