<?xml version="1.0" encoding="utf-8"?>
<!-- Generator: Adobe Illustrator 19.2.1, SVG Export Plug-In . SVG Version: 6.00 Build 0)  -->
<svg version="1.1" xmlns="http://www.w3.org/2000/svg" xmlns:xlink="http://www.w3.org/1999/xlink" x="0px" y="0px"
	 viewBox="0 0 24 24" enable-background="new 0 0 24 24" xml:space="preserve">
<g id="aw">
	<path fill="#34363D" d="M9.485,7.333l-0.188,0.5C9.259,7.933,9.158,8,9.044,8H6.956C6.842,8,6.741,7.933,6.703,7.833l-0.188-0.5
		C6.454,7.17,6.584,7,6.768,7h2.463C9.416,7,9.546,7.17,9.485,7.333z M8,2L8,2C7.327,2,6.759,2.722,6.672,3.687L6.502,5.59
		C6.483,5.807,6.6,6,6.751,6h2.497C9.4,6,9.517,5.807,9.498,5.59l-0.17-1.904C9.241,2.722,8.673,2,8,2z M5,15.474
		c0,2.203,0.278,4.212,0.735,5.754C5.873,21.692,6.236,22,6.647,22c0.746,0,1.961,0,2.707,0c0.411,0,0.774-0.308,0.911-0.772
		C10.722,19.686,11,17.677,11,15.474c0-2.441-0.972-4.642-1.581-6.235C9.362,9.09,9.241,9,9.105,9h-2.21
		C6.759,9,6.638,9.09,6.581,9.239C5.972,10.831,5,13.033,5,15.474z M20,16c0,3.314-2.686,6-6,6c-0.986,0-1.913-0.242-2.734-0.663
		c0.47-1.66,0.734-3.728,0.734-5.863c0-1.74-0.45-3.352-0.931-4.706C11.936,10.28,12.935,10,14,10C17.314,10,20,12.686,20,16z
		 M15,16c0-0.552-0.448-1-1-1s-1,0.448-1,1c0,0.552,0.448,1,1,1S15,16.552,15,16z M16,13c0-0.552-0.448-1-1-1s-1,0.448-1,1
		c0,0.552,0.448,1,1,1S16,13.552,16,13z M18,15c0-0.552-0.448-1-1-1s-1,0.448-1,1c0,0.552,0.448,1,1,1S18,15.552,18,15z"/>
</g>
<g id="guides">
</g>
</svg>
