<?xml version="1.0" encoding="utf-8"?>
<!-- Generator: Adobe Illustrator 19.2.1, SVG Export Plug-In . SVG Version: 6.00 Build 0)  -->
<svg version="1.1" xmlns="http://www.w3.org/2000/svg" xmlns:xlink="http://www.w3.org/1999/xlink" x="0px" y="0px"
	 viewBox="0 0 24 24" enable-background="new 0 0 24 24" xml:space="preserve">
<g id="aw">
	<path fill="#34363D" d="M4,8L4,8C2.895,8,2,7.105,2,6v0c0-1.105,0.895-2,2-2h0c1.105,0,2,0.895,2,2v0C6,7.105,5.105,8,4,8z M6,12
		L6,12c0-1.105-0.895-2-2-2h0c-1.105,0-2,0.895-2,2v0c0,1.105,0.895,2,2,2h0C5.105,14,6,13.105,6,12z M6,18L6,18
		c0-1.105-0.895-2-2-2h0c-1.105,0-2,0.895-2,2v0c0,1.105,0.895,2,2,2h0C5.105,20,6,19.105,6,18z M11,8h10c0.552,0,1-0.448,1-1V5
		c0-0.552-0.448-1-1-1H11c-0.552,0-1,0.448-1,1v2C10,7.552,10.448,8,11,8z M11,14h10c0.552,0,1-0.448,1-1v-2c0-0.552-0.448-1-1-1H11
		c-0.552,0-1,0.448-1,1v2C10,13.552,10.448,14,11,14z M11,20h10c0.552,0,1-0.448,1-1v-2c0-0.552-0.448-1-1-1H11
		c-0.552,0-1,0.448-1,1v2C10,19.552,10.448,20,11,20z"/>
</g>
<g id="guides">
</g>
</svg>
