<svg xmlns="http://www.w3.org/2000/svg" viewBox="0 0 24 24" enable-background="new 0 0 24 24"><path d="M18.096 4.768c-1.612-1.843-3.85-2.766-6.088-2.768-2.239.002-4.477.925-6.089 2.768-2.804 3.207-2.458 7.836.611 11.232l4.773 5.707c.195.193.449.289.705.291.255-.002.51-.098.705-.291l4.773-5.707c3.068-3.396 3.414-8.025.61-11.232zm-3.977 7.336c-.541.537-1.287.869-2.112.871-.825-.002-1.571-.334-2.112-.871-.541-.538-.877-1.282-.877-2.104 0-1.641 1.338-2.971 2.99-2.975 1.652.004 2.99 1.334 2.99 2.975-.001.822-.336 1.566-.879 2.104z" fill="#34363D"/><path d="M14.121 12.104c.543-.538.879-1.282.879-2.104 0-1.641-1.339-2.971-2.992-2.975v5.951c.825-.003 1.572-.335 2.113-.872z" fill="none"/></svg>