<?xml version="1.0" encoding="utf-8"?>
<!-- Generator: Adobe Illustrator 19.2.1, SVG Export Plug-In . SVG Version: 6.00 Build 0)  -->
<svg version="1.1" xmlns="http://www.w3.org/2000/svg" xmlns:xlink="http://www.w3.org/1999/xlink" x="0px" y="0px"
	 viewBox="0 0 24 24" enable-background="new 0 0 24 24" xml:space="preserve">
<g id="aw">
	<path fill="#34363D" d="M20.5,8h-5.91l3.521-3.521c0.338-0.338,0.338-0.887,0-1.225v0c-0.338-0.338-0.887-0.338-1.225,0L12.141,8
		h-0.916L6.479,3.254c-0.338-0.338-0.887-0.338-1.225,0v0c-0.338,0.338-0.338,0.887,0,1.225L8.775,8H3.5C2.675,8,2,8.675,2,9.5v9
		C2,19.325,2.675,20,3.5,20h17c0.825,0,1.5-0.675,1.5-1.5v-9C22,8.675,21.325,8,20.5,8z M18,17.6c0,0.221-0.209,0.4-0.467,0.4H4.467
		C4.209,18,4,17.821,4,17.6v-7.2C4,10.179,4.209,10,4.467,10h13.067C17.791,10,18,10.179,18,10.4V17.6z M20.5,15h-1
		c-0.275,0-0.5-0.225-0.5-0.5c0-0.275,0.225-0.5,0.5-0.5h1c0.275,0,0.5,0.225,0.5,0.5C21,14.775,20.775,15,20.5,15z M20,12
		c-0.55,0-1-0.45-1-1s0.45-1,1-1s1,0.45,1,1S20.55,12,20,12z"/>
</g>
<g id="guides">
</g>
</svg>
