<?xml version="1.0" encoding="utf-8"?>
<!-- Generator: Adobe Illustrator 19.2.1, SVG Export Plug-In . SVG Version: 6.00 Build 0)  -->
<svg version="1.1" xmlns="http://www.w3.org/2000/svg" xmlns:xlink="http://www.w3.org/1999/xlink" x="0px" y="0px"
	 viewBox="0 0 24 24" enable-background="new 0 0 24 24" xml:space="preserve">
<g id="aw">
	<path fill="#34363D" d="M12.707,11.293C12.896,11.482,13,11.733,13,12c0,0.267-0.104,0.518-0.293,0.707
		C12.518,12.896,12.267,13,12,13c-0.267,0-0.518-0.104-0.707-0.293C11.104,12.518,11,12.267,11,12c0-0.267,0.104-0.518,0.293-0.707
		C11.482,11.104,11.733,11,12,11C12.267,11,12.518,11.104,12.707,11.293z M22,12c0,5.523-4.477,10-10,10S2,17.523,2,12
		C2,6.477,6.477,2,12,2S22,6.477,22,12z M17.415,6.24l-6.114,3.891c-0.26,0.097-0.506,0.246-0.715,0.455
		c-0.209,0.209-0.358,0.455-0.455,0.715l-3.89,6.114c-0.144,0.226,0.12,0.489,0.345,0.345l6.113-3.89
		c0.261-0.097,0.506-0.246,0.716-0.455c0.209-0.209,0.358-0.455,0.455-0.715l3.891-6.114C17.904,6.36,17.64,6.096,17.415,6.24z"/>
</g>
<g id="guides">
</g>
</svg>
