<svg xmlns="http://www.w3.org/2000/svg" viewBox="0 0 24 24"><path fill="#34363D" d="M5 3.5c0-.3.2-.5.5-.5H17c1.1 0 2 .9 2 2v13.5c0 .3-.2.5-.5.5s-.5-.2-.5-.5v-13c0-.8-.7-1.5-1.5-1.5h-11c-.3 0-.5-.2-.5-.5zM4 5h11.9c.6 0 1 .4 1 1v12.5c0 .8.7 1.5 1.5 1.5s1.6-.7 1.6-1.5v-11c0-.3.2-.5.5-.5s.5.2.5.5v11.1c0 1.9-1.5 3.4-3.4 3.4H7c-2.2 0-4-1.8-4-4V6c0-.6.4-1 1-1zm6 14h3.5c.3 0 .5-.2.5-.5s-.2-.5-.5-.5H10c-.3 0-.5.2-.5.5s.2.5.5.5zm-3.5-3h7c.3 0 .5-.2.5-.5s-.2-.5-.5-.5h-7c-.3 0-.5.2-.5.5s.2.5.5.5zm0-3h7c.3 0 .5-.2.5-.5s-.2-.5-.5-.5h-7c-.3 0-.5.2-.5.5s.2.5.5.5zm1-3h5c.8 0 1.5-.7 1.5-1.5S13.3 7 12.5 7h-5C6.7 7 6 7.7 6 8.5S6.7 10 7.5 10z"/></svg>