<?xml version="1.0" encoding="utf-8"?>
<!-- Generator: Adobe Illustrator 19.2.1, SVG Export Plug-In . SVG Version: 6.00 Build 0)  -->
<svg version="1.1" xmlns="http://www.w3.org/2000/svg" xmlns:xlink="http://www.w3.org/1999/xlink" x="0px" y="0px"
	 viewBox="0 0 24 24" enable-background="new 0 0 24 24" xml:space="preserve">
<g id="aw">
	<path fill="#34363D" d="M19.355,5.093c-2.193-2.193-5.748-2.193-7.941,0l-7.219,7.219c-1.595,1.595-1.595,4.18,0,5.775
		c1.595,1.595,4.18,1.595,5.775,0l7.219-7.219c0.997-0.997,0.997-2.613,0-3.609c-0.997-0.997-2.613-0.997-3.609,0l-7.219,7.219
		c-0.399,0.399-0.399,1.045,0,1.444c0.399,0.399,1.045,0.399,1.444,0l7.219-7.219c0.199-0.199,0.523-0.199,0.722,0
		c0.199,0.199,0.199,0.523,0,0.722l-7.219,7.219c-0.797,0.797-2.09,0.797-2.888,0c-0.797-0.797-0.797-2.09,0-2.888l7.219-7.219
		c1.395-1.395,3.658-1.395,5.053,0s1.395,3.658,0,5.053l-7.219,7.219c-0.399,0.399-0.399,1.045,0,1.444
		c0.399,0.399,1.045,0.399,1.444,0l7.219-7.219C21.548,10.841,21.548,7.286,19.355,5.093z"/>
</g>
<g id="guides">
</g>
</svg>
