<svg xmlns="http://www.w3.org/2000/svg" viewBox="0 0 24 24" enable-background="new 0 0 24 24"><path fill="#34363D" d="M20.74 11.481l-2.539-5.804c.46-.167.75-.64.646-1.132-.114-.538-.648-.885-1.186-.77l-4.661.99v-.768c0-.548-.449-.997-.997-.997h-.006c-.548 0-.997.449-.997.997v1.193l-5.077 1.079c-.538.114-.885.648-.77 1.186.062.293.253.519.497.655l-2.39 5.463c-.172.392-.26.814-.26 1.241 0 .579.151 1.155.469 1.639.648.987 1.762 1.639 3.031 1.639 1.269 0 2.383-.652 3.031-1.639.318-.484.469-1.059.469-1.639 0-.427-.088-.849-.26-1.241l-2.43-5.554 3.239-.688-.049.224v1.891c0 .286.222.515.5.544v9.01h-4.578c-.872 0-1.668.492-2.058 1.272l-.202.404c-.074.149.034.324.2.324h15.276c.166 0 .275-.175.2-.324l-.202-.404c-.39-.78-1.187-1.272-2.058-1.272h-4.578v-9.011c.278-.029.5-.258.5-.544v-1.89c0-.286-.222-.515-.5-.544v-.201l3.642-.774-2.382 5.445c-.172.391-.26.814-.26 1.241 0 .579.151 1.155.469 1.639.647.987 1.762 1.639 3.031 1.639 1.269 0 2.383-.652 3.031-1.639.318-.484.469-1.06.469-1.639v-.001c0-.427-.088-.849-.26-1.24zm-16.284 1.945l1.788-4.086c.098-.224.415-.224.513 0l1.788 4.086h-4.089zm11-2.093l1.788-4.086c.098-.224.415-.224.513 0l1.788 4.086h-4.089z"/></svg>