<svg xmlns="http://www.w3.org/2000/svg" viewBox="0 0 24 24" enable-background="new 0 0 24 24"><path d="M16.119 3.547c-.729-.729-1.922-.729-2.651 0l-2.653 2.653c.051.17.016.361-.119.496-.098.098-.226.146-.354.146l-.143-.028-6.654 6.654c-.729.729-.729 1.922 0 2.651l4.334 4.334c.729.729 1.922.729 2.651 0l6.653-6.653c-.051-.17-.016-.362.118-.497.135-.135.326-.17.497-.119l2.654-2.654c.729-.729.729-1.922 0-2.651l-4.333-4.332zm-4.501 12.981l-1.636-.021-.945 1.336c-.191.271-.61.204-.709-.112l-.486-1.562-1.562-.486c-.317-.098-.383-.517-.112-.709l1.336-.945-.021-1.636c-.004-.331.373-.524.639-.326l1.311.978 1.549-.525c.314-.107.614.193.507.507l-.525 1.549.978 1.311c.2.267.008.645-.324.641zm1.073-7.837c-.098.098-.226.146-.354.146s-.256-.049-.354-.146l-.665-.665c-.195-.195-.195-.512 0-.707s.512-.195.707 0l.665.665c.196.195.196.512.001.707zm1.995 1.995c-.098.098-.226.146-.354.146s-.256-.049-.354-.146l-.665-.665c-.195-.195-.195-.512 0-.707s.512-.195.707 0l.665.665c.196.195.196.511.001.707zm1.995 1.995c-.098.098-.226.146-.354.146s-.256-.049-.354-.146l-.665-.665c-.195-.195-.195-.512 0-.707s.512-.195.707 0l.665.665c.196.195.196.511.001.707z" fill="#34363D"/></svg>