<svg xmlns="http://www.w3.org/2000/svg" viewBox="0 0 24 24" enable-background="new 0 0 24 24"><g><path d="M12 2c-5.523 0-10 4.477-10 10s4.477 10 10 10 10-4.477 10-10-4.477-10-10-10zm-2.5 14.25c0 .275-.225.5-.5.5h-1c-.275 0-.5-.225-.5-.5v-1c0-.275.225-.5.5-.5h1c.275 0 .5.225.5.5v1zm0-4c0 .275-.225.5-.5.5h-1c-.275 0-.5-.225-.5-.5v-1c0-.275.225-.5.5-.5h1c.275 0 .5.225.5.5v1zm0-4c0 .275-.225.5-.5.5h-1c-.275 0-.5-.225-.5-.5v-1c0-.275.225-.5.5-.5h1c.275 0 .5.225.5.5v1zm7 2.5c0 .55-.45 1-1 1h-1v5c0 .55-.45 1-1 1s-1-.45-1-1v-5h-1c-.55 0-1-.45-1-1v-1c0-.55.45-1 1-1h1v-2c0-.55.45-1 1-1s1 .45 1 1v2h1c.55 0 1 .45 1 1v1zm-1-.5c0 .276-.224.5-.5.5h-3c-.276 0-.5-.224-.5-.5s.224-.5.5-.5h3c.276 0 .5.224.5.5z"/><path d="M12 2c-5.523 0-10 4.477-10 10s4.477 10 10 10 10-4.477 10-10-4.477-10-10-10zm-2.5 14.25c0 .275-.225.5-.5.5h-1c-.275 0-.5-.225-.5-.5v-1c0-.275.225-.5.5-.5h1c.275 0 .5.225.5.5v1zm0-4c0 .275-.225.5-.5.5h-1c-.275 0-.5-.225-.5-.5v-1c0-.275.225-.5.5-.5h1c.275 0 .5.225.5.5v1zm0-4c0 .275-.225.5-.5.5h-1c-.275 0-.5-.225-.5-.5v-1c0-.275.225-.5.5-.5h1c.275 0 .5.225.5.5v1zm7 2.5c0 .55-.45 1-1 1h-1v5c0 .55-.45 1-1 1s-1-.45-1-1v-5h-1c-.55 0-1-.45-1-1v-1c0-.55.45-1 1-1h1v-2c0-.55.45-1 1-1s1 .45 1 1v2h1c.55 0 1 .45 1 1v1zm-1-.5c0 .276-.224.5-.5.5h-3c-.276 0-.5-.224-.5-.5s.224-.5.5-.5h3c.276 0 .5.224.5.5z" fill="#34363D"/></g></svg>