<svg xmlns="http://www.w3.org/2000/svg" viewBox="0 0 24 24" enable-background="new 0 0 24 24"><g><path d="M12 2c-5.523 0-10 4.477-10 10s4.477 10 10 10 10-4.477 10-10-4.477-10-10-10zm4.5 9v1.001c0 .551-.447.999-.999.999h-2.501v3.5c0 .552-.448 1-1 1s-1-.448-1-1v-3.5h-1.5v3.5c0 .552-.448 1-1 1s-1-.448-1-1v-9c0-.552.448-1 1-1s1 .448 1 1v3.5h1.5v-3.5c0-.552.448-1 1-1s1 .448 1 1v3.5h1.5v-3.5c0-.552.448-1 1-1s1 .448 1 1v3.5z"/><path d="M12 2c-5.523 0-10 4.477-10 10s4.477 10 10 10 10-4.477 10-10-4.477-10-10-10zm4.5 9v1.001c0 .551-.447.999-.999.999h-2.501v3.5c0 .552-.448 1-1 1s-1-.448-1-1v-3.5h-1.5v3.5c0 .552-.448 1-1 1s-1-.448-1-1v-9c0-.552.448-1 1-1s1 .448 1 1v3.5h1.5v-3.5c0-.552.448-1 1-1s1 .448 1 1v3.5h1.5v-3.5c0-.552.448-1 1-1s1 .448 1 1v3.5z" fill="#34363D"/></g></svg>