<svg xmlns="http://www.w3.org/2000/svg" viewBox="0 0 24 24" enable-background="new 0 0 24 24"><g fill="#34363D"><circle cx="12" cy="12" r="4"/><path d="M12 6c-.6 0-1-.4-1-1v-2c0-.6.4-1 1-1s1 .4 1 1v2c0 .6-.4 1-1 1zM7.8 7.8c-.4.4-1 .4-1.4 0l-1.5-1.5c-.4-.4-.4-1 0-1.4.4-.4 1-.4 1.4 0l1.4 1.4c.4.4.4 1.1.1 1.5zM6 12c0 .6-.4 1-1 1h-2c-.6 0-1-.4-1-1s.4-1 1-1h2c.5 0 1 .4 1 1zM7.7 16.2c.4.4.4 1 0 1.4l-1.4 1.4c-.4.4-1 .4-1.4 0-.4-.4-.4-1 0-1.4l1.4-1.4c.4-.3 1.1-.3 1.4 0zM12 18c.6 0 1 .4 1 1v2c0 .6-.4 1-1 1s-1-.4-1-1v-2c0-.5.4-1 1-1zM16.2 16.3c.4-.4 1-.4 1.4 0l1.4 1.4c.4.4.4 1 0 1.4-.4.4-1 .4-1.4 0l-1.4-1.4c-.4-.4-.4-1.1 0-1.4zM18 12c0-.6.4-1 1-1h2c.6 0 1 .4 1 1s-.4 1-1 1h-2c-.6 0-1-.4-1-1zM16.2 7.8c-.4-.4-.4-1 0-1.4l1.4-1.4c.4-.4 1-.4 1.4 0 .4.4.4 1 0 1.4l-1.4 1.4c-.3.4-1 .4-1.4 0z"/></g></svg>