<svg xmlns="http://www.w3.org/2000/svg" viewBox="0 0 24 24"><path d="M21.773 10.386a.795.795 0 0 0-.416-1.34l-5.476-.828a1 1 0 0 1-.755-.563l-2.454-5.217a.735.735 0 0 0-1.344 0L8.875 7.655a1 1 0 0 1-.756.563l-5.476.83a.795.795 0 0 0-.416 1.338l3.993 4.07a1 1 0 0 1 .273.863l-.948 5.76a.757.757 0 0 0 1.087.829l4.885-2.695a1 1 0 0 1 .966 0l4.885 2.695a.757.757 0 0 0 1.087-.827l-.943-5.763a1 1 0 0 1 .272-.862zm-5.417 2.672a3 3 0 0 0-.818 2.584l.535 3.268-2.624-1.447a3 3 0 0 0-2.898 0l-2.622 1.446.537-3.265a3 3 0 0 0-.818-2.588l-2.343-2.388 3.114-.471a3 3 0 0 0 2.265-1.69L12 5.71l1.316 2.797a3 3 0 0 0 2.266 1.69l3.115.47z"/></svg>