<svg xmlns="http://www.w3.org/2000/svg" xmlns:xlink="http://www.w3.org/1999/xlink" viewBox="0 0 24 24"><path d="M12 4c-4.4 0-8 3.6-8 8s3.6 8 8 8 8-3.6 8-8-3.6-8-8-8zm4.4 5.8l-4.9 5.6c-.4.4-1 .5-1.4.1l-2.3-2c-.2-.2-.2-.5-.1-.7l.6-.8c.2-.2.5-.2.7 0l1.4 1.2c.1.1.2.1.3 0l4.1-4.7c.2-.2.5-.2.7-.1l.8.6c.2.2.3.6.1.8z"/><use width="48" height="48" y="-48" overflow="visible" transform="scale(.5 -.5)" xlink:href="#material_x5F_system_x5F_icon_x5F_border"/><use width="48" height="48" y="-48" opacity=".15" overflow="visible" transform="scale(.5 -.5)" xlink:href="#material_x5F_system_x5F_icon_x5F_grid"/><use width="48" height="48" y="-48" overflow="visible" transform="scale(.5 -.5)" xlink:href="#material_x5F_system_x5F_icon_x5F_keylines"/><path d="M20.627 1.96l1.414 1.413L3.373 22.041 1.96 20.627z"/><path d="M20.626 1.894l.708.707L2.666 21.268l-.708-.707z"/></svg>