<svg xmlns="http://www.w3.org/2000/svg" viewBox="0 0 383.233 788.886" enable-background="new 0 0 383.233 788.886"><path d="M-1436.748 417.753l-45.261-31.702c-7.011-4.911-7.011-15.295 0-20.206l45.261-31.702c4.248-2.976 9.905-2.976 14.153 0l45.261 31.702c7.011 4.911 7.011 15.295 0 20.206l-45.261 31.702c-4.248 2.976-9.905 2.976-14.153 0z" fill="#FDD345"/><g fill="#61596E"  font-size="11.491"><text transform="translate(-1456.039 374.51)">Is it being</text><text transform="translate(-1464.593 388.299)">worked on?</text><text transform="matrix(.583 0 0 .583 -1398.796 384.473)">2</text></g><circle cx="-1265.812" cy="371.219" r="46.511" fill="#03B0D5"/><text transform="translate(-1292.142 371.551)"><tspan x="0" y="0" fill="#fff"  font-size="11.491">Sync with</tspan><tspan x="2.774" y="13.789" fill="#fff"  font-size="11.491">designer</tspan></text><path d="M-1436.748 280.562l-45.261-31.702c-7.011-4.911-7.011-15.295 0-20.206l45.261-31.702c4.248-2.976 9.905-2.976 14.153 0l45.261 31.702c7.011 4.911 7.011 15.295 0 20.206l-45.261 31.702c-4.248 2.976-9.905 2.976-14.153 0z" fill="#FDD345"/><text transform="translate(-1445.726 235.32)" fill="#61596E"  font-size="11.491">Is it in</text><text transform="translate(-1462.087 249.109)" fill="#61596E"  font-size="11.491">Backpack?</text><text transform="matrix(.583 0 0 .583 -1400.38 245.282)" fill="#61596E"  font-size="11.491">1</text><circle cx="-908.17" cy="518.954" r="46.511" fill="#0CD573"/><g fill="#fff"  font-size="11.491"><text transform="translate(-934.639 517.622)">Use from</text><text transform="translate(-936.964 531.411)">Backpack</text><text transform="matrix(.583 0 0 .583 -884.391 527.585)">1</text></g><circle cx="-1147.648" cy="521.104" r="46.511" fill="#03B0D5"/><text transform="translate(-1169.619 525.667)" fill="#fff"  font-size="11.491">Validate</text><circle cx="-1029.479" cy="521.219" r="46.511" fill="#03B0D5"/><g fill="#fff"  font-size="11.491"><text transform="translate(-1047.512 517.552)">Add to</text><text transform="translate(-1058.866 531.341)">Backpack</text><text transform="matrix(.583 0 0 .583 -1006.293 527.514)">4</text></g><circle cx="-1263.683" cy="521.219" r="46.511" fill="#03B0D5"/><g fill="#fff"  font-size="11.491"><text transform="translate(-1288.12 517.667)">Design &amp;</text><text transform="translate(-1299.01 531.456)">peer review</text><text transform="matrix(.583 0 0 .583 -1232.556 527.63)">3</text></g><path d="M-1146.818 575.219v9c0 11.046-8.954 20-20 20h-78.995c-11.046 0-20-8.954-20-20v-1.824" stroke="#B6B1BD" stroke-width="2" stroke-linecap="round" stroke-miterlimit="10" stroke-dasharray="2,4" fill="none"/><path fill="#B6B1BD" d="M-1260.827 583.854l-4.985-8.635-4.986 8.635z"/><path stroke="#03B0D5" stroke-width="2" stroke-miterlimit="10" fill="none" d="M-1213.267 520.886h6"/><path fill="#03B0D5" d="M-1208.267 525.208l6.908-3.988-6.908-3.99z"/><path stroke="#03B0D5" stroke-width="2" stroke-miterlimit="10" fill="none" d="M-1094.267 520.886h6"/><path fill="#03B0D5" d="M-1089.267 525.208l6.908-3.988-6.908-3.99z"/><path stroke="#03B0D5" stroke-width="2" stroke-miterlimit="10" fill="none" d="M-974.267 520.886h6"/><path fill="#03B0D5" d="M-969.267 525.208l6.908-3.988-6.908-3.99z"/><text transform="translate(-1366.874 242.303)" font-family="SourceSansPro-Bold" font-size="11.491">YES</text><path stroke="#03B0D5" stroke-width="2" stroke-miterlimit="10" fill="none" d="M-1344.267 373.886h19"/><path fill="#03B0D5" d="M-1327.267 379.15l8.634-4.986-8.634-4.986z"/><text transform="translate(-1366.874 378.303)" font-family="SourceSansPro-Bold" font-size="11.491">YES</text><text transform="translate(-1437.282 432.303)" font-family="SourceSansPro-Bold" font-size="11.491">NO</text><text transform="translate(-1437.282 299.97)" font-family="SourceSansPro-Bold" font-size="11.491">NO</text><path stroke="#03B0D5" stroke-width="2" stroke-miterlimit="10" fill="none" d="M-1429.267 169.886v13"/><path fill="#03B0D5" d="M-1434.508 181.886l4.985 8.635 4.987-8.635z"/><path stroke="#03B0D5" stroke-width="2" stroke-miterlimit="10" fill="none" d="M-1266.267 427.886v33"/><path fill="#03B0D5" d="M-1270.797 458.886l4.985 8.635 4.986-8.635z"/><path d="M-1429.672 442.334v58.885c0 11.046 8.954 20 20 20h84.824" stroke="#03B0D5" stroke-width="2" stroke-miterlimit="10" fill="none"/><path fill="#03B0D5" d="M-1326.306 526.205l8.634-4.985-8.634-4.987z"/><path d="M-907.424 573.928v31c0 11.046-8.954 20-20 20l-318.389 1.292c-11.046 0-20-8.954-20-20v-22" stroke="#B6B1BD" stroke-width="2" stroke-linecap="round" stroke-miterlimit="10" stroke-dasharray="2,4" fill="none"/><path d="M-1343.807 239.455l416.145-1.292c11.046 0 20 8.954 20 20v198.641" stroke="#03B0D5" stroke-width="2" stroke-miterlimit="10" fill="none"/><path fill="#03B0D5" d="M-912.648 455.346l4.986 8.635 4.986-8.635z"/><circle cx="-1429.672" cy="148.552" r="14" fill="#03B0D5"/><path fill="#fff" d="M-1429.479 141l1.587 4.886h5.137l-4.156 3.445 1.588 5.099-4.156-2.913-4.156 3.073 1.587-5.285-4.156-3.419h5.137z"/><text transform="translate(-1249.601 597.573)" fill="#6F667D"  font-size="10">iterate as required</text><text transform="translate(-1178.04 619.24)" fill="#6F667D"  font-size="10">build upon or challenge current design?</text><path stroke="#03B0D5" stroke-width="2" stroke-miterlimit="10" fill="none" d="M-1429.267 305.886v13"/><path fill="#03B0D5" d="M-1434.508 317.886l4.985 8.635 4.987-8.635z"/><path d="M-456.377 283.753l-45.261-31.702c-7.011-4.911-7.011-15.295 0-20.206l45.261-31.702c4.248-2.976 9.904-2.976 14.153 0l45.261 31.702c7.011 4.911 7.011 15.295 0 20.206l-45.261 31.702c-4.248 2.976-9.904 2.976-14.153 0z" fill="#FDD345"/><g fill="#61596E"  font-size="12"><text transform="translate(-476.836 240.51)">Is it being</text><text transform="translate(-485.769 254.299)">worked on?</text><text transform="matrix(.583 0 0 .583 -417.057 250.303)">2</text></g><circle cx="-449.238" cy="375.808" r="46.511" fill="#03B0D5"/><text transform="translate(-476.736 376.141)"><tspan x="0" y="0" fill="#fff"  font-size="12">Sync with</tspan><tspan x="2.897" y="13.789" fill="#fff"  font-size="12">designer</tspan></text><path d="M-652.066 283.753l-45.261-31.702c-7.011-4.911-7.011-15.295 0-20.206l45.261-31.702c4.248-2.976 9.904-2.976 14.153 0l45.261 31.702c7.011 4.911 7.011 15.295 0 20.206l-45.261 31.702c-4.248 2.976-9.904 2.976-14.153 0z" fill="#FDD345"/><text transform="translate(-661.756 238.51)" fill="#61596E"  font-size="12">Is it in</text><text transform="translate(-678.841 252.299)" fill="#61596E"  font-size="12">Backpack?</text><text transform="matrix(.583 0 0 .583 -614.4 248.303)" fill="#61596E"  font-size="12">1</text><circle cx="-293.973" cy="733.45" r="46.511" fill="#0CD573"/><g fill="#fff"  font-size="12"><text transform="translate(-321.615 732.118)">Use from</text><text transform="translate(-324.043 745.907)">Backpack</text><text transform="matrix(.583 0 0 .583 -269.14 741.911)">1</text></g><circle cx="-296.123" cy="493.972" r="46.511" fill="#03B0D5"/><text transform="translate(-319.068 498.535)" fill="#fff"  font-size="12">Validate</text><circle cx="-296.238" cy="612.141" r="46.511" fill="#03B0D5"/><g fill="#fff"  font-size="12"><text transform="translate(-315.07 608.473)">Add to</text><text transform="translate(-326.927 622.262)">Backpack</text><text transform="matrix(.583 0 0 .583 -272.025 618.266)">4</text></g><circle cx="-296.238" cy="377.936" r="46.511" fill="#03B0D5"/><g fill="#fff"  font-size="12"><text transform="translate(-321.758 374.384)">Design &amp;</text><text transform="translate(-333.13 388.173)">peer review</text><text transform="matrix(.583 0 0 .583 -263.732 384.177)">3</text></g><path stroke="#03B0D5" stroke-width="2" stroke-miterlimit="10" fill="none" d="M-296.267 428.886v6"/><path fill="#03B0D5" d="M-300.227 433.886l3.989 6.908 3.989-6.908z"/><path stroke="#03B0D5" stroke-width="2" stroke-miterlimit="10" fill="none" d="M-296.267 547.886v6"/><path fill="#03B0D5" d="M-300.227 552.886l3.989 6.908 3.989-6.908z"/><path stroke="#03B0D5" stroke-width="2" stroke-miterlimit="10" fill="none" d="M-296.267 667.886v6"/><path fill="#03B0D5" d="M-300.227 672.886l3.989 6.908 3.989-6.908z"/><text transform="translate(-656.657 303.076)" fill="#61596E"  font-size="12">YES</text><text transform="translate(-460.636 303.076)" fill="#61596E"  font-size="12">YES</text><text transform="translate(-582.734 244.615)" fill="#61596E"  font-size="12">NO</text><path stroke="#B6B1BD" stroke-width="2" stroke-linecap="round" stroke-miterlimit="10" stroke-dasharray="2,4" fill="none" d="M-392.267 375.886h32"/><path fill="#B6B1BD" d="M-361.267 380.794l8.634-4.986-8.634-4.986z"/><path stroke="#03B0D5" stroke-width="2" stroke-miterlimit="10" fill="none" d="M-449.267 310.886v6"/><path fill="#03B0D5" d="M-453.703 315.886l3.989 6.908 3.989-6.908z"/><path d="M-644.708 309.813l-1.292 403.145c0 11.046 8.954 20 20 20h269.224" stroke="#03B0D5" stroke-width="2" stroke-miterlimit="10" fill="none"/><path fill="#03B0D5" d="M-358.235 737.943l8.634-4.985-8.634-4.986z"/><path stroke="#03B0D5" stroke-width="2" stroke-miterlimit="10" fill="none" d="M-644.267 167.886v14"/><path fill="#03B0D5" d="M-649.655 179.886l4.986 8.635 4.986-8.635z"/><circle cx="-644.519" cy="147" r="14" fill="#03B0D5"/><path fill="#fff" d="M-644.712 139l-1.587 4.886h-5.137l4.156 3.669-1.588 5.211 4.156-2.857 4.156 3.1-1.587-5.495 4.156-3.628h-5.137z"/><path d="M-242.176 494.802h9c11.046 0 20-8.954 20-20v-78.995c0-11.046-8.954-20-20-20h-1.824" stroke="#B6B1BD" stroke-width="2" stroke-linecap="round" stroke-miterlimit="10" stroke-dasharray="2,4" fill="none"/><path fill="#B6B1BD" d="M-233.541 370.821l-8.635 4.985 8.635 4.987z"/><text transform="matrix(0 -1 1 0 -222.822 458.305)" fill="#6F667D"  font-size="12">Iterate</text><g stroke="#B6B1BD" stroke-width="2" stroke-linecap="round" stroke-miterlimit="10" fill="none"><path d="M-238.467 734.196h1"/><path d="M-233.492 734.196h27.025c11.046 0 20-8.954 20-20l1.292-318.389c0-11.046-8.954-20-20-20h-25.013" stroke-dasharray="1.9874,3.9747"/><path d="M-232.176 375.807h-1"/></g><text transform="matrix(0 -1 1 0 -194.154 651.947)" fill="#6F667D"  font-size="12">Build upon or challenge current</text><path stroke="#03B0D5" stroke-width="2" stroke-miterlimit="10" fill="none" d="M-557.267 240.886h32"/><path fill="#03B0D5" d="M-526.267 245.794l8.634-4.986-8.634-4.986z"/><text transform="translate(-382.734 244.615)" fill="#61596E"  font-size="12">NO</text><path d="M-357.157 241.615h38.629c12.311 0 22.29 8.954 22.29 20v54.824" stroke="#03B0D5" stroke-width="2" stroke-miterlimit="10" fill="none"/><path fill="#03B0D5" d="M-301.224 314.98l4.985 8.635 4.987-8.635z"/><path d="M110.623 275.753l-45.261-31.702c-7.011-4.911-7.011-15.295 0-20.206l45.261-31.702c4.248-2.976 9.904-2.976 14.153 0l45.261 31.702c7.011 4.911 7.011 15.295 0 20.206l-45.261 31.702c-4.248 2.976-9.904 2.976-14.153 0z" fill="#FDD345"/><g fill="#61596E"  font-size="12"><text transform="translate(90.164 232.51)">Is it being</text><text transform="translate(81.231 246.299)">worked on?</text><text transform="matrix(.583 0 0 .583 149.943 242.303)">2</text></g><circle cx="117.762" cy="367.808" r="46.511" fill="#03B0D5"/><text transform="translate(90.264 368.141)"><tspan x="0" y="0" fill="#fff"  font-size="12">Sync with</tspan><tspan x="2.897" y="13.789" fill="#fff"  font-size="12">designer</tspan></text><path d="M110.686 148.691l-45.261-31.702c-7.011-4.911-7.011-15.295 0-20.206l45.261-31.702c4.248-2.976 9.904-2.976 14.153 0l45.261 31.702c7.011 4.911 7.011 15.295 0 20.206l-45.261 31.702c-4.249 2.976-9.905 2.976-14.153 0z" fill="#FDD345"/><text transform="translate(100.996 103.448)" fill="#61596E"  font-size="12">Is it in</text><text transform="translate(83.91 117.237)" fill="#61596E"  font-size="12">Backpack?</text><text transform="matrix(.583 0 0 .583 148.352 113.24)" fill="#61596E"  font-size="12">1</text><circle cx="273.027" cy="725.45" r="46.511" fill="#0CD573"/><g fill="#fff"  font-size="12"><text transform="translate(245.385 724.118)">Use from</text><text transform="translate(242.957 737.907)">Backpack</text><text transform="matrix(.583 0 0 .583 297.86 733.911)">1</text></g><circle cx="270.877" cy="485.972" r="46.511" fill="#03B0D5"/><text transform="translate(247.932 490.535)" fill="#fff"  font-size="12">Validate</text><circle cx="270.762" cy="604.141" r="46.511" fill="#03B0D5"/><g fill="#fff"  font-size="12"><text transform="translate(251.93 600.473)">Add to</text><text transform="translate(240.073 614.262)">Backpack</text><text transform="matrix(.583 0 0 .583 294.975 610.266)">4</text></g><circle cx="270.762" cy="369.936" r="46.511" fill="#03B0D5"/><g fill="#fff"  font-size="12"><text transform="translate(245.242 366.384)">Design &amp;</text><text transform="translate(233.87 380.173)">peer review</text><text transform="matrix(.583 0 0 .583 303.268 376.177)">3</text></g><path stroke="#03B0D5" stroke-width="2" stroke-miterlimit="10" fill="none" d="M270.733 420.886v6"/><path fill="#03B0D5" d="M266.773 425.886l3.989 6.908 3.989-6.908z"/><path stroke="#03B0D5" stroke-width="2" stroke-miterlimit="10" fill="none" d="M270.733 539.886v6"/><path fill="#03B0D5" d="M266.773 544.886l3.989 6.908 3.989-6.908z"/><path stroke="#03B0D5" stroke-width="2" stroke-miterlimit="10" fill="none" d="M270.733 659.886v6"/><path fill="#03B0D5" d="M266.773 664.886l3.989 6.908 3.989-6.908z"/><text transform="translate(28.343 111.743)" fill="#61596E"  font-size="12">YES</text><text transform="translate(106.364 295.076)" fill="#61596E"  font-size="12">YES</text><path stroke="#B6B1BD" stroke-width="2" stroke-linecap="round" stroke-miterlimit="10" stroke-dasharray="2,4" fill="none" d="M174.733 367.886h32"/><path fill="#B6B1BD" d="M205.733 372.794l8.634-4.986-8.634-4.986z"/><path stroke="#03B0D5" stroke-width="2" stroke-miterlimit="10" fill="none" d="M117.733 302.886v6"/><path fill="#03B0D5" d="M113.297 307.886l3.989 6.908 3.989-6.908z"/><text transform="translate(108.62 166.076)" fill="#61596E"  font-size="12">NO</text><path stroke="#03B0D5" stroke-width="2" stroke-miterlimit="10" fill="none" d="M117.733 173.886v6"/><path fill="#03B0D5" d="M113.297 178.886l3.989 6.908 3.989-6.908z"/><path d="M210.224 724.958h-190.224c-11.046 0-20-8.954-20-20l1.245-575.298c.026-11.665 9.489-21.108 21.154-21.108" stroke="#03B0D5" stroke-width="2" stroke-miterlimit="10" fill="none"/><path fill="#03B0D5" d="M208.765 719.972l8.634 4.985-8.634 4.986z"/><path stroke="#03B0D5" stroke-width="2" stroke-miterlimit="10" fill="none" d="M117.733 34.886v14"/><path fill="#03B0D5" d="M112.345 46.886l4.986 8.635 4.986-8.635z"/><circle cx="117.481" cy="14" r="14" fill="#03B0D5"/><path fill="#fff" d="M117.288 6l-1.587 4.886h-5.137l4.156 3.669-1.588 5.211 4.156-2.857 4.156 3.1-1.587-5.495 4.156-3.628h-5.137z"/><path d="M324.824 486.802h9c11.046 0 20-8.954 20-20v-78.995c0-11.046-8.954-20-20-20h-1.824" stroke="#B6B1BD" stroke-width="2" stroke-linecap="round" stroke-miterlimit="10" stroke-dasharray="2,4" fill="none"/><path fill="#B6B1BD" d="M333.459 362.821l-8.635 4.985 8.635 4.987z"/><text transform="matrix(0 -1 1 0 344.178 450.305)" fill="#6F667D"  font-size="12">Iterate</text><g stroke="#B6B1BD" stroke-width="2" stroke-linecap="round" stroke-miterlimit="10" fill="none"><path d="M328.533 726.196h1"/><path d="M333.517 726.196h28.016c11.046 0 20-8.954 20-20l.292-318.389c0-11.046-8.954-20-20-20h-25.008" stroke-dasharray="1.9919,3.9838"/><path d="M334.825 367.807h-1"/></g><text transform="matrix(0 -1 1 0 372.846 643.947)" fill="#6F667D"  font-size="12">Build upon or challenge current</text><text transform="translate(184.266 236.615)" fill="#61596E"  font-size="12">NO</text><path d="M209.843 233.615h38.629c12.311 0 22.29 8.954 22.29 20v54.824" stroke="#03B0D5" stroke-width="2" stroke-miterlimit="10" fill="none"/><path fill="#03B0D5" d="M265.776 306.98l4.985 8.635 4.987-8.635z"/></svg>