<svg xmlns="http://www.w3.org/2000/svg" viewBox="0 0 384 792" enable-background="new 0 0 384 792"><style type="text/css">.st0{fill:#FDD345;} .st1{fill:#61596E;} .st2{font-family:&apos;SFUIText-Regular&apos;;} .st3{font-size:12px;} .st4{fill:#03B0D5;} .st5{fill:#FFFFFF;} .st6{fill:#0CD573;} .st7{fill:none;stroke:#03B0D5;stroke-width:2;stroke-miterlimit:10;} .st8{fill:none;stroke:#B6B1BD;stroke-width:2;stroke-linecap:round;stroke-miterlimit:10;stroke-dasharray:2,4;} .st9{fill:#B6B1BD;} .st10{fill:#6F667D;} .st11{fill:none;stroke:#B6B1BD;stroke-width:2;stroke-linecap:round;stroke-miterlimit:10;} .st12{fill:none;stroke:#B6B1BD;stroke-width:2;stroke-linecap:round;stroke-miterlimit:10;stroke-dasharray:1.9919,3.9838;}</style><path class="st0" d="M111 277.3l-45.3-31.7c-7-4.9-7-15.3 0-20.2l45.3-31.7c4.2-3 9.9-3 14.2 0l45.3 31.7c7 4.9 7 15.3 0 20.2l-45.3 31.7c-4.3 3-9.9 3-14.2 0z"/><text transform="translate(88.545 234.067)" class="st1 st2 st3">Is it being</text><text transform="translate(83.418 247.856)" class="st1 st2 st3">worked on?</text><circle class="st4" cx="118.1" cy="369.4" r="46.5"/><text transform="translate(90.598 369.698)" class="st5 st2 st3">Sync with</text><text transform="translate(93.495 383.487)" class="st5 st2 st3">designer</text><path class="st0" d="M111.1 150.2l-45.3-31.7c-7-4.9-7-15.3 0-20.2l45.3-31.7c4.2-3 9.9-3 14.2 0l45.3 31.7c7 4.9 7 15.3 0 20.2l-45.3 31.7c-4.3 3-10 3-14.2 0z"/><text transform="translate(99.07 105.005)" class="st1 st2 st3">Is it in</text><text transform="translate(85.309 118.794)" class="st1 st2 st3">Backpack?</text><circle class="st6" cx="273.4" cy="727" r="46.5"/><text transform="translate(246.606 725.675)" class="st5 st2 st3">Use from</text><text transform="translate(245.103 739.464)" class="st5 st2 st3">Backpack</text><circle class="st4" cx="271.3" cy="487.5" r="46.5"/><text transform="translate(248.37 492.092)" class="st5 st2 st3">Validate</text><circle class="st4" cx="271.1" cy="605.7" r="46.5"/><text transform="translate(251.553 602.03)" class="st5 st2 st3">Add to</text><text transform="translate(242.934 615.819)" class="st5 st2 st3">Backpack</text><circle class="st4" cx="271.1" cy="371.5" r="46.5"/><text transform="translate(244.419 367.941)" class="st5 st2 st3">Design &amp;</text><text transform="translate(236.934 381.73)" class="st5 st2 st3">peer review</text><path class="st7" d="M271.1 422.4v6"/><path class="st4" d="M267.2 427.4l4 6.9 4-6.9h-8z"/><path class="st7" d="M271.1 541.4v6"/><path class="st4" d="M267.2 546.4l4 6.9 4-6.9h-8z"/><path class="st7" d="M271.1 661.4v6"/><path class="st4" d="M267.2 666.4l4 6.9 4-6.9h-8z"/><text transform="translate(30.392 113.3)" class="st1 st2 st3">YES</text><text transform="translate(105.413 296.633)" class="st1 st2 st3">YES</text><path class="st8" d="M175.1 369.4h32"/><path class="st9" d="M206.1 374.4l8.6-5-8.6-5v10z"/><path class="st7" d="M118.1 304.4v6"/><path class="st4" d="M113.7 309.4l4 6.9 4-6.9h-8z"/><text transform="translate(109.924 167.633)" class="st1 st2 st3">NO</text><path class="st7" d="M118.1 175.4v6"/><path class="st4" d="M113.7 180.4l4 6.9 4-6.9h-8z"/><path class="st7" d="M210.6 726.5h-188.2c-11 0-20-9-20-20l.2-575.3c0-11.7 9.5-21.1 21.2-21.1"/><path class="st4" d="M209.1 721.5l8.6 5-8.6 5v-10z"/><path class="st7" d="M118.1 36.4v14"/><path class="st4" d="M112.7 48.4l5 8.6 5-8.6h-10z"/><circle class="st4" cx="117.9" cy="15.6" r="14"/><path class="st5" d="M117.7 7.6l-1.6 4.9h-5.1l4.2 3.7-1.6 5.2 4.2-2.9 4.2 3.1-1.6-5.5 4.2-3.6h-5.1l-1.8-4.9z"/><path class="st8" d="M325.2 488.4h9c11 0 20-9 20-20v-79c0-11-9-20-20-20h-1.8"/><path class="st9" d="M333.8 364.4l-8.6 5 8.6 5v-10z"/><text transform="matrix(0 -1 1 0 344.562 449.278)" class="st10 st2 st3">Iterate</text><path class="st11" d="M328.9 727.8h1"/><path class="st12" d="M333.9 727.8h28c11 0 20-9 20-20l.3-318.4c0-11-9-20-20-20h-25"/><path class="st11" d="M335.2 369.4h-1"/><text transform="matrix(0 -1 1 0 373.229 644.242)" class="st10 st2 st3">Build upon or challenge current</text><text transform="translate(183.57 238.172)" class="st1 st2 st3">NO</text><path class="st7" d="M210.2 235.2h38.6c12.3 0 22.3 9 22.3 20v54.8"/><path class="st4" d="M266.2 308.5l5 8.6 5-8.6h-10z"/></svg>