<svg xmlns="http://www.w3.org/2000/svg" viewBox="0 0 383.233 788.886" enable-background="new 0 0 383.233 788.886"><path d="M110.623 275.753l-45.261-31.702c-7.011-4.911-7.011-15.295 0-20.206l45.261-31.702c4.248-2.976 9.904-2.976 14.153 0l45.261 31.702c7.011 4.911 7.011 15.295 0 20.206l-45.261 31.702c-4.248 2.976-9.904 2.976-14.153 0z" fill="#FDD345"/><g fill="#61596E" font-family="SFUIText-Regular" font-size="12"><text transform="translate(90.164 232.51)">Is it being</text><text transform="translate(81.231 246.299)">worked on?</text><text transform="matrix(.583 0 0 .583 149.943 242.303)">2</text></g><circle cx="117.762" cy="367.808" r="46.511" fill="#03B0D5"/><text transform="translate(90.264 368.141)"><tspan x="0" y="0" fill="#fff" font-family="SFUIText-Regular" font-size="12">Sync with</tspan><tspan x="2.897" y="13.789" fill="#fff" font-family="SFUIText-Regular" font-size="12">designer</tspan></text><path d="M110.686 148.691l-45.261-31.702c-7.011-4.911-7.011-15.295 0-20.206l45.261-31.702c4.248-2.976 9.904-2.976 14.153 0l45.261 31.702c7.011 4.911 7.011 15.295 0 20.206l-45.261 31.702c-4.249 2.976-9.905 2.976-14.153 0z" fill="#FDD345"/><text transform="translate(100.996 103.448)" fill="#61596E" font-family="SFUIText-Regular" font-size="12">Is it in</text><text transform="translate(83.91 117.237)" fill="#61596E" font-family="SFUIText-Regular" font-size="12">Backpack?</text><text transform="matrix(.583 0 0 .583 148.352 113.24)" fill="#61596E" font-family="SFUIText-Regular" font-size="12">1</text><circle cx="273.027" cy="725.45" r="46.511" fill="#0CD573"/><g fill="#fff" font-family="SFUIText-Regular" font-size="12"><text transform="translate(245.385 724.118)">Use from</text><text transform="translate(242.957 737.907)">Backpack</text><text transform="matrix(.583 0 0 .583 297.86 733.911)">1</text></g><circle cx="270.877" cy="485.972" r="46.511" fill="#03B0D5"/><text transform="translate(247.932 490.535)" fill="#fff" font-family="SFUIText-Regular" font-size="12">Validate</text><circle cx="270.762" cy="604.141" r="46.511" fill="#03B0D5"/><g fill="#fff" font-family="SFUIText-Regular" font-size="12"><text transform="translate(251.93 600.473)">Add to</text><text transform="translate(240.073 614.262)">Backpack</text><text transform="matrix(.583 0 0 .583 294.975 610.266)">4</text></g><circle cx="270.762" cy="369.936" r="46.511" fill="#03B0D5"/><g fill="#fff" font-family="SFUIText-Regular" font-size="12"><text transform="translate(245.242 366.384)">Design &amp;</text><text transform="translate(233.87 380.173)">peer review</text><text transform="matrix(.583 0 0 .583 303.268 376.177)">3</text></g><path stroke="#03B0D5" stroke-width="2" stroke-miterlimit="10" fill="none" d="M270.733 420.886v6"/><path fill="#03B0D5" d="M266.773 425.886l3.989 6.908 3.989-6.908z"/><path stroke="#03B0D5" stroke-width="2" stroke-miterlimit="10" fill="none" d="M270.733 539.886v6"/><path fill="#03B0D5" d="M266.773 544.886l3.989 6.908 3.989-6.908z"/><path stroke="#03B0D5" stroke-width="2" stroke-miterlimit="10" fill="none" d="M270.733 659.886v6"/><path fill="#03B0D5" d="M266.773 664.886l3.989 6.908 3.989-6.908z"/><text transform="translate(28.343 111.743)" fill="#61596E" font-family="SFUIText-Regular" font-size="12">YES</text><text transform="translate(106.364 295.076)" fill="#61596E" font-family="SFUIText-Regular" font-size="12">YES</text><path stroke="#B6B1BD" stroke-width="2" stroke-linecap="round" stroke-miterlimit="10" stroke-dasharray="2,4" fill="none" d="M174.733 367.886h32"/><path fill="#B6B1BD" d="M205.733 372.794l8.634-4.986-8.634-4.986z"/><path stroke="#03B0D5" stroke-width="2" stroke-miterlimit="10" fill="none" d="M117.733 302.886v6"/><path fill="#03B0D5" d="M113.297 307.886l3.989 6.908 3.989-6.908z"/><text transform="translate(108.62 166.076)" fill="#61596E" font-family="SFUIText-Regular" font-size="12">NO</text><path stroke="#03B0D5" stroke-width="2" stroke-miterlimit="10" fill="none" d="M117.733 173.886v6"/><path fill="#03B0D5" d="M113.297 178.886l3.989 6.908 3.989-6.908z"/><path d="M210.224 724.958h-188.224c-11.046 0-20-8.954-20-20l.245-575.298c.026-11.665 9.489-21.108 21.154-21.108" stroke="#03B0D5" stroke-width="2" stroke-miterlimit="10" fill="none"/><path fill="#03B0D5" d="M208.765 719.972l8.634 4.985-8.634 4.986z"/><path stroke="#03B0D5" stroke-width="2" stroke-miterlimit="10" fill="none" d="M117.733 34.886v14"/><path fill="#03B0D5" d="M112.345 46.886l4.986 8.635 4.986-8.635z"/><circle cx="117.481" cy="14" r="14" fill="#03B0D5"/><path fill="#fff" d="M117.288 6l-1.587 4.886h-5.137l4.156 3.669-1.588 5.211 4.156-2.857 4.156 3.1-1.587-5.495 4.156-3.628h-5.137z"/><path d="M324.824 486.802h9c11.046 0 20-8.954 20-20v-78.995c0-11.046-8.954-20-20-20h-1.824" stroke="#B6B1BD" stroke-width="2" stroke-linecap="round" stroke-miterlimit="10" stroke-dasharray="2,4" fill="none"/><path fill="#B6B1BD" d="M333.459 362.821l-8.635 4.985 8.635 4.987z"/><text transform="matrix(0 -1 1 0 344.178 450.305)" fill="#6F667D" font-family="SFUIText-Regular" font-size="12">Iterate</text><g stroke="#B6B1BD" stroke-width="2" stroke-linecap="round" stroke-miterlimit="10" fill="none"><path d="M328.533 726.196h1"/><path d="M333.517 726.196h28.016c11.046 0 20-8.954 20-20l.292-318.389c0-11.046-8.954-20-20-20h-25.008" stroke-dasharray="1.9919,3.9838"/><path d="M334.825 367.807h-1"/></g><text transform="matrix(0 -1 1 0 372.846 643.947)" fill="#6F667D" font-family="SFUIText-Regular" font-size="12">Build upon or challenge current</text><text transform="translate(184.266 236.615)" fill="#61596E" font-family="SFUIText-Regular" font-size="12">NO</text><path d="M209.843 233.615h38.629c12.311 0 22.29 8.954 22.29 20v54.824" stroke="#03B0D5" stroke-width="2" stroke-miterlimit="10" fill="none"/><path fill="#03B0D5" d="M265.776 306.98l4.985 8.635 4.987-8.635z"/></svg>