<svg viewBox="0 0 895 450" xmlns="http://www.w3.org/2000/svg"><g fill="none" fill-rule="evenodd"><g transform="translate(680 54)" stroke="#7E89A3"><path d="M202.986 317H12.097C5.462 317 .083 311.623.083 304.99V12.093C.083 5.46 5.461.083 12.097.083h190.889C209.622.083 215 5.46 215 12.093V304.99c0 6.633-5.378 12.01-12.014 12.01z" stroke-width="2" fill="#FDFDFD"/><path d="M202.986 317H12.097C5.462 317 .083 311.623.083 304.99V12.093C.083 5.46 5.461.083 12.097.083h190.889C209.622.083 215 5.46 215 12.093V304.99c0 6.633-5.378 12.01-12.014 12.01z" stroke-width="2" fill="#FDFDFD"/><path fill="#FFF" d="M17 32h181.999v252.917H17z"/><circle cx="108.021" cy="300.021" r="8.021"/><circle cx="106.99" cy="16.99" r="2.99"/></g><g stroke="#8492A5"><path d="M594 0H98C84.504 0 73 11.074 73 24.79v326.238h546V24.79C619 11.073 607.537 0 594 0z" stroke-width="2" fill="#FEFEFE"/><circle stroke-width="2" cx="347" cy="19" r="4"/><path d="M640.812 382.01H51.288C20.641 382.01 0 371.494 0 367.022v-13.594C0 352.084 1.335 351 2.995 351h686.109c1.662 0 2.999 1.084 2.999 2.428v14.129c-.007 3.535-15.991 14.453-51.291 14.453z" stroke-width="2" fill="#FDFDFD"/><path d="M.5 365.5h689.743"/><path fill="#FFF" d="M95 39h501.074v292.009H95zm326 313v3.087c0 2.201-4.333 2.866-7.613 2.866H278.815c-3.45 0-7.815-.664-7.815-2.866V352"/></g><path fill="#D8D8D8" d="M711.94 87h2.716v252.411h-2.716zm149.403 0h2.716v252.411h-2.716zm-14.94 0h2.716v252.411h-2.716zm-14.94 0h2.716v252.411h-2.716zm-14.941 0h2.716v252.411h-2.716zm-14.94 0h2.716v252.411h-2.716zm-14.94 0h2.716v252.411h-2.716zm-14.941 0h2.716v252.411h-2.716zm-14.94 0h2.716v252.411h-2.716zm-14.94 0h2.716v252.411h-2.716zm-14.94 0h2.716v252.411h-2.716z"/><path fill="#00B2D6" d="M697 87h2.716v252.254H697zm179.284 0H879v252.254h-2.716z"/><path fill="#D8D8D8" d="M140.705 39h5.274v290.464h-5.274zm40.432.859h5.274v290.464h-5.274zm40.431 0h5.274v290.464h-5.274zm40.432 0h5.274v290.464H262zm40.432 0h5.274v290.464h-5.274zm40.431 0h5.274v290.464h-5.274zm80.863 0H429v290.464h-5.274zm40.432 0h5.274v290.464h-5.274zm40.431 0h5.274v290.464h-5.274zm-121.294 0h5.274v290.464h-5.274zm161.726 0h5.274v290.464h-5.274z"/><path fill="#00B2D6" d="M95 39.859h10.547v290.282H95zm490.453 0H596v290.282h-10.547z"/><g transform="translate(575 176)" stroke="#7E89A3"><path d="M130 257.964c0 8.833-7.191 15.992-16.062 15.992H16.063c-8.871 0-16.062-7.159-16.062-15.992V16.073C.001 7.24 7.192.081 16.063.081h97.875C122.809.081 130 7.24 130 16.073v241.891z" stroke-width="2" fill="#FDFDFD"/><path fill="#FFF" d="M9 36h111.93v199.084H9z"/><path d="M77 25.746c0 .635-.439 1.147-.98 1.147H55.918c-.542 0-.98-.513-.98-1.147v-2.58c0-.635.439-1.147.98-1.147H76.02c.541 0 .98.513.98 1.147v2.58z"/><circle cx="66" cy="12" r="3"/><ellipse cx="65.04" cy="254.001" rx="10.04" ry="10.001"/></g><g><path fill="#00B2D6" d="M584 212h4.2v198.413H584z"/><path fill="#D8D8D8" d="M592.983 212h4.2v198.537h-4.2zm8.984 0h4.2v198.537h-4.2zm8.983 0h4.2v198.537h-4.2zm8.983 0h4.2v198.537h-4.2zm8.984 0h4.2v198.537h-4.2zm8.983 0h4.2v198.537h-4.2zm8.983 0h4.2v198.537h-4.2zm8.984 0h4.2v198.537h-4.2zm8.983 0h4.2v198.537h-4.2zm8.983 0h4.2v198.537h-4.2zm8.984 0h4.2v198.537h-4.2z"/><path fill="#00B2D6" d="M691.8 212h4.2v198.413h-4.2z"/></g></g></svg>
