<svg xmlns="http://www.w3.org/2000/svg" xmlns:xlink="http://www.w3.org/1999/xlink" viewBox="0 0 212.5 46.4"><defs><style>.cls-1{fill:none;}.cls-2{isolation:isolate;}.cls-3{clip-path:url(#clip-path);}.cls-4{fill:#69377c;}.cls-5{fill:#1d377d;}.cls-6{fill:#0b8f46;}.cls-7{fill:#ebcc35;}.cls-8{fill:#e8632d;}.cls-9{fill:#e8212e;}.cls-10{fill:#005466;opacity:0.2;}.cls-11{fill:#e89e9d;mix-blend-mode:multiply;}.cls-12{fill:#990300;}.cls-13,.cls-14{fill:#fff;}.cls-14{opacity:0.3;mix-blend-mode:screen;}.cls-15{fill:#18173c;}</style><clipPath id="clip-path"><path class="cls-1" d="M41.11,26.76l-4.68.49h0l4.9-.52a.42.42,0,0,0,.34-.59l-1.58-3.51a.45.45,0,0,0-.3-.24l-3.45-.74a.39.39,0,0,0-.4.14l-.17-1.85L37.2,9.76a4.61,4.61,0,0,0-4.56-5.25H25s0-.1,0-.15a3.76,3.76,0,0,0-7.52,0s0,.1,0,.15H9.84A4.61,4.61,0,0,0,5.28,9.76L6.71,19.94l-.17,1.85a.39.39,0,0,0-.4-.14l-3.45.74a.42.42,0,0,0-.29.24L.81,26.14a.42.42,0,0,0,.34.59l4.9.52h0l-4.68-.49L.61,37.31A1.45,1.45,0,0,0,1.9,38.87L5,39.11,4.73,41.7a3.08,3.08,0,0,0,3.08,3.36H34.68a3.08,3.08,0,0,0,3.07-3.36l-.24-2.59,3.07-.24a1.47,1.47,0,0,0,1.3-1.56ZM19.24,4.36a2,2,0,1,1,4,0s0,.1,0,.15h-4A.77.77,0,0,1,19.24,4.36Z"/></clipPath></defs><title>Artboard 2 copy</title><g class="cls-2"><g id="Layer_1" data-name="Layer 1"><g class="cls-3"><rect class="cls-4" x="-9.22" y="37.79" width="72.22" height="7.56"/><rect class="cls-5" x="-9.22" y="30.23" width="72.22" height="7.56"/><rect class="cls-6" x="-9.22" y="22.67" width="72.22" height="7.56"/><rect class="cls-7" x="-9.22" y="15.12" width="72.22" height="7.56"/><rect class="cls-8" x="-9.22" y="7.56" width="72.22" height="7.56"/><rect class="cls-9" x="-9.22" width="72.22" height="7.56"/></g><rect class="cls-10" x="2.99" y="45.14" width="36.5" height="1.26" rx="0.45" ry="0.45"/><polygon class="cls-1" points="21.03 42.16 21.45 42.16 34.57 42.16 36.8 37.95 34.71 14.89 7.78 14.89 5.68 37.95 7.92 42.16 21.03 42.16"/><path class="cls-11" d="M5.71,43.31a2.49,2.49,0,0,0,2.1,1.15H34.68a2.49,2.49,0,0,0,2.09-1.15,2.59,2.59,0,0,0,.37-1.64L36.8,38l-1.39,2.62a3,3,0,0,1-2.64,1.59H9.72a3,3,0,0,1-2.65-1.59L5.68,38l-.34,3.72A2.61,2.61,0,0,0,5.71,43.31Z"/><path class="cls-12" d="M34.91,45.06h0Z"/><path class="cls-12" d="M7.57,45.06h0Z"/><polygon class="cls-11" points="29.21 35.78 29.02 37.09 13.45 37.09 13.25 35.78 29.21 35.78"/><path class="cls-13" d="M74.71,13.93a6.4,6.4,0,0,1,1.16,3.84,5.59,5.59,0,0,1-1.17,3.71,6.17,6.17,0,0,1-1.92,1.44,5.69,5.69,0,0,1,2.91,2.22,6.68,6.68,0,0,1,1,3.69,7.38,7.38,0,0,1-1.12,4,7.07,7.07,0,0,1-1.79,2,6.87,6.87,0,0,1-2.84,1.26,17.33,17.33,0,0,1-3.56.35H56V11.25H68.18C71.25,11.29,73.43,12.19,74.71,13.93ZM61,15.62v5.55h6.12a5,5,0,0,0,2.67-.62,2.37,2.37,0,0,0,1-2.21A2.26,2.26,0,0,0,69.49,16a9.57,9.57,0,0,0-3-.39Zm0,9.72v6.72h6.12a6.05,6.05,0,0,0,2.55-.44,3.18,3.18,0,0,0,1.65-3.15,2.7,2.7,0,0,0-1.6-2.7,6.62,6.62,0,0,0-2.52-.43Z"/><path class="cls-13" d="M87.48,25.11a8,8,0,0,0,2-.43,1.47,1.47,0,0,0,1-1.39,1.64,1.64,0,0,0-.81-1.58,5.06,5.06,0,0,0-2.36-.43,3.11,3.11,0,0,0-2.48.85,3.43,3.43,0,0,0-.69,1.71h-4.7a7.14,7.14,0,0,1,1.37-4q1.93-2.46,6.66-2.46a11.86,11.86,0,0,1,5.46,1.22c1.59.81,2.38,2.33,2.38,4.58V31.7c0,.59,0,1.31,0,2.16a2.61,2.61,0,0,0,.29,1.29,1.76,1.76,0,0,0,.72.57v.72h-5.3a5.62,5.62,0,0,1-.31-1.06,10.73,10.73,0,0,1-.13-1.13,10.09,10.09,0,0,1-2.34,1.86A7,7,0,0,1,84.7,37a6.13,6.13,0,0,1-4.2-1.45,5.11,5.11,0,0,1-1.66-4.09,5.29,5.29,0,0,1,2.67-5,11.85,11.85,0,0,1,4.3-1.2Zm3,2.27a5.89,5.89,0,0,1-.94.47,8,8,0,0,1-1.31.33l-1.11.21a7.29,7.29,0,0,0-2.24.66,2.25,2.25,0,0,0-1.15,2.07,2.18,2.18,0,0,0,.7,1.8,2.68,2.68,0,0,0,1.71.56,5.09,5.09,0,0,0,2.94-.92,3.9,3.9,0,0,0,1.4-3.37Z"/><path class="cls-13" d="M110,24.49a4.29,4.29,0,0,0-.7-1.88,3,3,0,0,0-2.55-1.13,3.37,3.37,0,0,0-3.38,2.45,10.11,10.11,0,0,0-.48,3.44,9.34,9.34,0,0,0,.48,3.29A3.26,3.26,0,0,0,106.67,33a2.87,2.87,0,0,0,2.43-.92,4.54,4.54,0,0,0,.88-2.39h5a8.08,8.08,0,0,1-1.61,4.2,7.82,7.82,0,0,1-6.79,3.2c-3,0-5.2-.89-6.62-2.67a10.77,10.77,0,0,1-2.12-6.91c0-3.2.78-5.68,2.34-7.46a8.17,8.17,0,0,1,6.47-2.67,9.73,9.73,0,0,1,5.74,1.58c1.49,1,2.37,2.9,2.64,5.55Z"/><path class="cls-13" d="M117.58,11.33h4.79V24.92l6.14-7h6.06l-6.68,6.94,6.94,11.61H128.9l-4.51-8-2,2.09v5.87h-4.79Z"/><path class="cls-13" d="M152.77,19.81q2.28,2.4,2.28,7.07c0,3.28-.75,5.79-2.23,7.51A7.24,7.24,0,0,1,147.08,37a5.93,5.93,0,0,1-3.71-1.12,7.15,7.15,0,0,1-1.59-1.79v9.71H137v-26h4.66v2.75a7.65,7.65,0,0,1,1.69-1.91,6.14,6.14,0,0,1,3.88-1.25A7.37,7.37,0,0,1,152.77,19.81ZM149,23.31a3.48,3.48,0,0,0-3.22-1.66,3.66,3.66,0,0,0-3.68,2.52,9.49,9.49,0,0,0-.52,3.38q0,3.24,1.75,4.56a3.93,3.93,0,0,0,2.45.77,3.55,3.55,0,0,0,3.13-1.57A7.27,7.27,0,0,0,150,27.12,7.31,7.31,0,0,0,149,23.31Z"/><path class="cls-13" d="M165.16,25.11a8,8,0,0,0,1.94-.43,1.47,1.47,0,0,0,1.05-1.39,1.63,1.63,0,0,0-.8-1.58,5.14,5.14,0,0,0-2.37-.43,3.09,3.09,0,0,0-2.47.85,3.53,3.53,0,0,0-.7,1.71h-4.7a7.14,7.14,0,0,1,1.38-4q1.94-2.46,6.66-2.46a11.85,11.85,0,0,1,5.45,1.22c1.59.81,2.39,2.33,2.39,4.58V31.7q0,.89,0,2.16a2.73,2.73,0,0,0,.29,1.29,1.76,1.76,0,0,0,.72.57v.72h-5.3a5.54,5.54,0,0,1-.3-1.06,10.56,10.56,0,0,1-.14-1.13A10.09,10.09,0,0,1,166,36.11a7,7,0,0,1-3.57.91,6.16,6.16,0,0,1-4.21-1.45,5.14,5.14,0,0,1-1.66-4.09,5.29,5.29,0,0,1,2.67-5,11.91,11.91,0,0,1,4.31-1.2Zm3,2.27a6,6,0,0,1-.95.47,7.69,7.69,0,0,1-1.31.33l-1.1.21a7.29,7.29,0,0,0-2.24.66,2.23,2.23,0,0,0-1.15,2.07,2.15,2.15,0,0,0,.7,1.8,2.68,2.68,0,0,0,1.71.56,5.14,5.14,0,0,0,2.94-.92,3.93,3.93,0,0,0,1.4-3.37Z"/><path class="cls-13" d="M187.69,24.49a4.42,4.42,0,0,0-.7-1.88,3,3,0,0,0-2.56-1.13,3.36,3.36,0,0,0-3.37,2.45,10.11,10.11,0,0,0-.48,3.44,9.34,9.34,0,0,0,.48,3.29A3.25,3.25,0,0,0,184.35,33a2.89,2.89,0,0,0,2.43-.92,4.53,4.53,0,0,0,.87-2.39h5a8.17,8.17,0,0,1-1.61,4.2,7.82,7.82,0,0,1-6.79,3.2q-4.5,0-6.62-2.67a10.71,10.71,0,0,1-2.12-6.91c0-3.2.78-5.68,2.34-7.46a8.16,8.16,0,0,1,6.47-2.67A9.76,9.76,0,0,1,190,18.94c1.48,1,2.36,2.9,2.64,5.55Z"/><path class="cls-13" d="M195.26,11.33h4.79V24.92l6.14-7h6.06l-6.68,6.94,6.93,11.61h-5.92l-4.52-8-2,2.09v5.87h-4.79Z"/><path class="cls-14" d="M6.66,20.94l1.12,2.39a2.7,2.7,0,0,0,2.41,1.59h2.53a1.72,1.72,0,0,0,.92.28,1.75,1.75,0,0,0,.93-.28H27.89a1.65,1.65,0,0,0,1.84,0h2.56a2.68,2.68,0,0,0,2.41-1.59l1.13-2.39Z"/><rect class="cls-14" x="9.9" y="6.36" width="22.67" height="3.52" rx="1.26" ry="1.26"/><rect class="cls-14" x="2.99" y="23.25" width="2.25" height="1.2" rx="0.43" ry="0.43"/><rect class="cls-14" x="37.25" y="23.25" width="2.25" height="1.2" rx="0.43" ry="0.43"/><path class="cls-14" d="M6.68,41.36h0A.3.3,0,0,1,6.38,41l0-.6a.31.31,0,0,1,.32-.28.29.29,0,0,1,.28.32l0,.6A.3.3,0,0,1,6.68,41.36Zm.13-1.8h0a.3.3,0,0,1-.28-.32l0-.6a.3.3,0,1,1,.6,0l0,.6A.3.3,0,0,1,6.81,39.56Zm.13-1.8h0a.3.3,0,0,1-.28-.32l0-.6A.3.3,0,0,1,7,36.56a.3.3,0,0,1,.28.32l0,.6A.3.3,0,0,1,6.94,37.76ZM7.07,36h0a.29.29,0,0,1-.28-.32l0-.6a.3.3,0,0,1,.32-.28.3.3,0,0,1,.28.32l0,.6A.3.3,0,0,1,7.07,36Zm.13-1.8h0a.29.29,0,0,1-.27-.32l0-.6A.3.3,0,0,1,7.26,33a.3.3,0,0,1,.28.32l0,.6A.31.31,0,0,1,7.2,34.16Zm.12-1.8h0A.32.32,0,0,1,7,32l.05-.6a.29.29,0,0,1,.32-.27.3.3,0,0,1,.28.32l0,.6A.3.3,0,0,1,7.32,32.36Zm.13-1.8h0a.32.32,0,0,1-.28-.33l0-.6a.31.31,0,0,1,.32-.28.32.32,0,0,1,.28.33l0,.6A.3.3,0,0,1,7.45,30.56Zm.13-1.8h0a.3.3,0,0,1-.28-.32l0-.6a.33.33,0,0,1,.33-.28.3.3,0,0,1,.27.33l0,.6A.3.3,0,0,1,7.58,28.76ZM7.71,27h0a.3.3,0,0,1-.28-.32l0-.6a.3.3,0,1,1,.6,0l0,.61A.3.3,0,0,1,7.71,27Z"/><path class="cls-14" d="M35.67,41.36a.31.31,0,0,1-.3-.28l0-.6a.3.3,0,0,1,.6,0l0,.6a.29.29,0,0,1-.27.32Zm-.12-1.8a.3.3,0,0,1-.3-.28l0-.6a.31.31,0,0,1,.28-.32.3.3,0,0,1,.32.28l.05.6a.31.31,0,0,1-.28.32Zm-.13-1.8a.3.3,0,0,1-.3-.28l0-.6a.3.3,0,0,1,.28-.32.3.3,0,0,1,.32.28l0,.6a.31.31,0,0,1-.28.32ZM35.29,36a.3.3,0,0,1-.3-.28l0-.6a.29.29,0,0,1,.27-.32.31.31,0,0,1,.33.28l0,.6a.3.3,0,0,1-.28.32Zm-.13-1.8a.3.3,0,0,1-.3-.28l0-.6A.29.29,0,0,1,35.1,33a.31.31,0,0,1,.32.28l0,.6a.3.3,0,0,1-.28.32ZM35,32.36a.3.3,0,0,1-.3-.28l0-.6a.3.3,0,0,1,.28-.32.3.3,0,0,1,.32.27l0,.6a.31.31,0,0,1-.28.33Zm-.13-1.8a.3.3,0,0,1-.3-.28l0-.6a.31.31,0,0,1,.28-.33.32.32,0,0,1,.32.28l0,.6a.31.31,0,0,1-.28.33Zm-.13-1.8a.32.32,0,0,1-.3-.28l0-.6a.31.31,0,0,1,.28-.33.32.32,0,0,1,.32.28l0,.6a.29.29,0,0,1-.27.32ZM34.65,27a.3.3,0,0,1-.3-.27l-.05-.61a.32.32,0,0,1,.28-.32.3.3,0,0,1,.32.28l.05.6a.3.3,0,0,1-.28.32Z"/><path class="cls-15" d="M41.75,27.22a1,1,0,0,0,.47-1.33l-1.58-3.51a1.08,1.08,0,0,0-.72-.58l-3.44-.74-.1-1.13L37.8,9.85a5.21,5.21,0,0,0-5.16-5.94H25.56a4.34,4.34,0,0,0-8.64,0H9.84A5.21,5.21,0,0,0,4.68,9.85L6.11,20,6,21.06l-3.44.74a1,1,0,0,0-.72.58L.26,25.89a1,1,0,0,0,0,.93,1,1,0,0,0,.42.4L0,37.27a2.05,2.05,0,0,0,1.83,2.2l2.46.26-.17,1.91a3.74,3.74,0,0,0,1.21,3.08,3.69,3.69,0,0,0,2.47.94H34.68a3.67,3.67,0,0,0,2.46-.94,3.74,3.74,0,0,0,1.21-3.08l-.17-1.91,2.46-.26a2.06,2.06,0,0,0,1.84-2.2ZM39.58,23,41,26.16l-4,.43-.38-4.27ZM35.66,6.49a4,4,0,0,1,1,3.19l-.71,5-.73,5.21L35,21.3a4,4,0,0,1-4,3.45h-.62V19.38h.05a1.15,1.15,0,0,0,1.16-1.15V15a1.16,1.16,0,0,0-1.16-1.16h-.05V5.12h2.26A4,4,0,0,1,35.66,6.49ZM15.19,24.75V19.38h.05a1.15,1.15,0,0,0,1.16-1.15V15a1.16,1.16,0,0,0-1.16-1.16h-.05V5.12H27.3v8.76h-.06A1.16,1.16,0,0,0,26.08,15v3.19a1.15,1.15,0,0,0,1.16,1.15h.06v5.37Zm-1-4.51a.53.53,0,0,1-.53.53.52.52,0,0,1-.52-.53.52.52,0,0,1,.52-.52A.52.52,0,0,1,14.17,20.24Zm-.53,2a.52.52,0,0,1,.53.52.53.53,0,0,1-.53.53.52.52,0,0,1-.52-.53A.52.52,0,0,1,13.64,22.2Zm-.25,2.55a.53.53,0,0,1,.25-.08.57.57,0,0,1,.26.08Zm.25-7.51a.53.53,0,1,1,0,1.05.53.53,0,0,1,0-1.05ZM12.1,18.78h0a.55.55,0,0,1-.55-.55V15a.55.55,0,0,1,.55-.56h0Zm3.09-4.3h.05a.55.55,0,0,1,.55.56v3.19a.55.55,0,0,1-.55.55h-.05ZM19.93,3.91a1.38,1.38,0,0,1,2.62,0Zm8.91,13.33a.53.53,0,1,1-.53.52A.52.52,0,0,1,28.84,17.24ZM27.3,18.78h-.06a.55.55,0,0,1-.55-.55V15a.55.55,0,0,1,.55-.56h.06Zm3.08-4.3h.05A.56.56,0,0,1,31,15v3.19a.56.56,0,0,1-.56.55h-.05Zm-1.54,6.29a.53.53,0,0,1-.53-.53.53.53,0,0,1,1.06,0A.53.53,0,0,1,28.84,20.77Zm.53,1.95a.53.53,0,0,1-1.06,0,.53.53,0,0,1,1.06,0Zm-.79,2a.57.57,0,0,1,.26-.08.53.53,0,0,1,.25.08ZM21.24,1.2a3.14,3.14,0,0,1,3.11,2.71H23.8a2.6,2.6,0,0,0-5.12,0h-.55A3.14,3.14,0,0,1,21.24,1.2ZM5.88,9.68a4,4,0,0,1,4-4.56H12.1v8.76h0A1.16,1.16,0,0,0,10.89,15v3.19a1.15,1.15,0,0,0,1.16,1.15h0v5.37h-.62a4,4,0,0,1-4-3.45l-.19-1.36-.73-5.22ZM2.91,23l3-.64L5.5,26.59l-4-.43Zm1.4,15.56L2,38.27a.85.85,0,0,1-.76-.91l.72-9.94,1.59.17,1.88.2-.32,3.45Zm32,5.3a2.5,2.5,0,0,1-1.66.64H7.81a2.46,2.46,0,0,1-1.66-.64,2.49,2.49,0,0,1-.82-2.07l.93-10.27.38-3.56h0l.47-4.37A5.21,5.21,0,0,0,11.48,26h.82a1.55,1.55,0,0,0,1.34.79A1.53,1.53,0,0,0,15,26H27.5a1.53,1.53,0,0,0,2.68,0H31a5.23,5.23,0,0,0,4.38-2.41l.46,4.38h0l.37,3.45.94,10.38A2.48,2.48,0,0,1,36.34,43.82Zm4.17-5.55-2.34.25-.74-7-.34-3.7,1.62-.17,1.85-.2.72,9.94A.86.86,0,0,1,40.51,38.27Z"/><path class="cls-15" d="M30.41,29.54a1.21,1.21,0,0,0-1.17-.84h-16a1.21,1.21,0,0,0-1.17.84l-1.44,4.75a1.1,1.1,0,0,0,.17,1,1.25,1.25,0,0,0,1,.5H12l1,6.57c.12.78.56,1.28,1.13,1.28H28.36c.57,0,1-.5,1.13-1.28l1-6.57h.23a1.25,1.25,0,0,0,1-.5,1.1,1.1,0,0,0,.17-1ZM28.3,42.17a1.28,1.28,0,0,1-.07.26h-14a.63.63,0,0,1-.07-.26l-.92-6.39h16Zm2.31-7.6H11.81l0-.12.92-3,.48-1.57h16l.48,1.58.9,3,0,.13Z"/></g></g></svg>