<?xml version="1.0" encoding="UTF-8"?>
<svg width="32px" height="18px" viewBox="0 0 32 18" version="1.1" xmlns="http://www.w3.org/2000/svg" xmlns:xlink="http://www.w3.org/1999/xlink">
    <!-- Generator: Sketch 50.2 (55047) - http://www.bohemiancoding.com/sketch -->
    <title>Fill 1</title>
    <desc>Created with Sketch.</desc>
    <defs></defs>
    <g id="Page-1" stroke="none" stroke-width="1" fill="none" fill-rule="evenodd">
        <g id="Web:-Sub-page-Copy-3" transform="translate(-60.000000, -267.000000)" fill="#FFFFFF">
            <path d="M75.9997815,277.616564 C75.1023117,277.616564 74.3721889,276.891583 74.3721889,275.999566 C74.3721889,275.108851 75.1023117,274.383436 75.9997815,274.383436 C76.8972514,274.383436 77.6278111,275.108851 77.6278111,275.999566 C77.6278111,276.891583 76.8972514,277.616564 75.9997815,277.616564 Z M75.9997815,271.948178 C73.7495528,271.948178 71.9192212,273.765619 71.9192212,275.999566 C71.9192212,278.234381 73.7495528,280.051822 75.9997815,280.051822 C78.2500102,280.051822 80.0807788,278.234815 80.0807788,275.999566 C80.0807788,273.766053 78.2500102,271.948178 75.9997815,271.948178 Z M81.9683493,282.235008 C83.6313339,280.664433 84.6751778,278.453481 84.6751778,275.999566 C84.6751778,273.546953 83.6317708,271.335133 81.9687863,269.764992 C86.0593962,271.639269 89.1821893,274.848101 90.2203531,275.999566 C89.1817524,277.151899 86.0589593,280.361165 81.9683493,282.235008 Z M61.7800838,275.999566 C62.8182476,274.848101 65.9406038,271.639269 70.0316507,269.764992 C68.3686661,271.335133 67.3252591,273.546953 67.3252591,275.999566 C67.3252591,278.453047 68.3686661,280.663999 70.0316507,282.235008 C65.9406038,280.361165 62.8182476,277.151899 61.7800838,275.999566 Z M75.9997815,283.145247 C72.0319511,283.145247 68.8042929,279.939452 68.8042929,275.999566 C68.8042929,272.060114 72.0319511,268.855187 75.9997815,268.855187 C79.967612,268.855187 83.1952702,272.060114 83.1952702,275.999566 C83.1957071,279.939452 79.967612,283.145247 75.9997815,283.145247 Z M92,275.999566 L91.6535085,275.573949 C91.3686251,275.22339 84.5790516,267 75.9997815,267 C67.4205115,267 60.6313749,275.22339 60.3464915,275.573949 L60,275.999566 L60.3464915,276.426051 C60.6313749,276.776176 67.4205115,285 75.9997815,285 C84.5790516,285 91.3686251,276.776176 91.6535085,276.426051 L92,275.999566 Z" id="Fill-1"></path>
        </g>
    </g>
</svg>
