<?xml version="1.0" encoding="utf-8"?>
<!-- Generator: Adobe Illustrator 21.0.1, SVG Export Plug-In . SVG Version: 6.00 Build 0)  -->
<svg version="1.1" id="Layer_1" xmlns="http://www.w3.org/2000/svg" xmlns:xlink="http://www.w3.org/1999/xlink" x="0px" y="0px"
	 viewBox="0 0 105 58.8" style="enable-background:new 0 0 105 58.8;" xml:space="preserve">
<style type="text/css">
	.st0{fill:#FFFFFF;}
</style>
<g>
	<path class="st0" d="M52.6,57.9c-27.3,0-48.9-26.4-49.8-27.5L2,29.3l0.9-1.1C3.7,27.1,25.3,0.8,52.6,0.8
		c27.3,0,48.9,26.4,49.8,27.5l0.9,1.1l-0.9,1.1C101.5,31.5,79.9,57.9,52.6,57.9z M52.6,5.8C39.6,5.8,29,16.3,29,29.3
		c0,13,10.6,23.6,23.6,23.6c6.3,0,12.2-2.5,16.7-6.9c4.5-4.5,6.9-10.4,6.9-16.7C76.2,16.3,65.6,5.8,52.6,5.8z M68.8,7.1
		c4.1,3.6,11.2,11.3,11,22.3c-0.2,12.8-8.6,20-13,23c11.3-3.4,28.6-19.2,31.6-22.6l0.3-0.3L98.4,29C95.4,25.7,81.3,12.7,68.8,7.1z
		 M6.6,29.7c3.6,4,17.2,15.3,29.2,21.3c-4.5-3.8-11.2-11.3-10.5-21.7c0.8-12.8,8.8-20,13-22.8C27,9.8,9.7,25.6,6.6,29l-0.3,0.3
		L6.6,29.7z"/>
	<path class="st0" d="M52.6,39.3c-5.5,0-10-4.5-10-10s4.5-10,10-10c5.5,0,10,4.5,10,10S58.1,39.3,52.6,39.3z"/>
</g>
</svg>
