<svg xmlns="http://www.w3.org/2000/svg" viewBox="0 0 368 104" enable-background="new 0 0 368 104"><g fill="#34363D"><path d="M130.858 46.085c-.145.492-.688.74-1.165.556-1.475-.569-3.144-.976-4.703-.976-2.687 0-5.218.809-5.218 3.497 0 1.452.809 2.205 3.391 3.013l1.882.59c3.765 1.181 5.379 2.904 5.379 6.237 0 5.752-4.035 9.68-11.345 9.68-2.874 0-5.331-.452-7.415-1.178-.507-.176-.75-.74-.6-1.256l.86-2.984c.144-.494.695-.729 1.173-.537 1.883.761 3.97 1.277 5.819 1.277 3.282 0 5.592-1.13 5.592-3.766 0-1.559-1.076-2.149-3.496-2.904l-2.044-.644c-3.605-1.183-5.218-3.335-5.218-6.776 0-5.862 4.896-9.032 11.349-9.032 1.94 0 4.159.434 6.008 1.069.511.173.757.74.601 1.255l-.85 2.879zM143.566 30.735c.501 0 .876.457.782.949l-3.957 20.455c3.73-2.72 6.988-5.917 9.864-9.627.366-.476.933-.753 1.533-.753h4.306c.414 0 .644.468.407.806-2.83 3.992-6.069 7.675-9.496 10.648l5.453 13.728c.17.434-.149.902-.612.902h-4.574c-.578 0-1.098-.365-1.3-.907l-3.753-10.226c-1.129.753-2.205 1.399-3.12 1.883l-1.593 8.3c-.106.548-.59.95-1.146.95h-3.931c-.5 0-.876-.458-.78-.95l6.836-35.21c.105-.551.588-.949 1.152-.949h3.929zM163.682 41.759c.504 0 .878.458.783.952l-2.665 13.731c-.215 1.021-.431 2.311-.431 3.55 0 1.612.915 2.689 3.066 2.689 2.098 0 4.569-.915 6.399-2.635l3.417-17.337c.109-.551.593-.95 1.152-.95h3.931c.5 0 .875.458.778.952l-3.523 18.087c-.431 2.096-.915 4.463-1.344 6.346-2.044 8.497-5.916 12.26-13.66 12.26-1.705 0-3.404-.213-4.88-.609-.542-.149-.886-.694-.753-1.245l.673-2.747c.12-.503.621-.822 1.124-.702 1.116.266 2.392.463 3.568.463 4.574 0 7.259-1.936 8.227-7.204l.379-1.992c-1.989 1.721-4.949 2.851-7.744 2.851-4.518 0-6.938-2.258-6.938-5.862 0-2.151.431-4.519.915-6.989l2.449-12.656c.109-.553.592-.952 1.151-.952h3.926zM199.165 46.105c-.146.492-.686.74-1.165.556-1.473-.569-3.145-.976-4.704-.976-2.686 0-5.213.809-5.213 3.497 0 1.452.803 2.205 3.385 3.013l1.883.59c3.763 1.181 5.378 2.904 5.378 6.237 0 5.752-4.034 9.68-11.345 9.68-2.869 0-5.331-.452-7.412-1.178-.508-.176-.751-.74-.604-1.256l.863-2.984c.142-.494.696-.729 1.174-.537 1.88.761 3.968 1.277 5.815 1.277 3.28 0 5.593-1.13 5.593-3.766 0-1.559-1.073-2.149-3.493-2.904l-2.048-.644c-3.601-1.183-5.213-3.335-5.213-6.776 0-5.862 4.893-9.032 11.348-9.032 1.941 0 4.157.434 6.008 1.069.505.173.752.74.598 1.255l-.848 2.879zM222.116 46.693c-.133.476-.667.7-1.119.492-1.415-.646-3.018-1.016-4.843-1.016-5.699 0-9.145 4.896-9.145 11.133.055 3.713 1.401 6.186 5.596 6.239 1.858.045 3.796-.33 5.549-.933.428-.146.897.154.846.603l-.37 3.133c-.069.607-.479 1.122-1.053 1.322-1.949.678-4.074 1.037-6.478 1.037-6.992 0-10.272-3.978-10.272-10.542 0-9.3 5.271-17.258 15.379-17.258 2.452 0 4.521.458 6.204 1.181.524.226.787.811.632 1.359l-.926 3.25zM226.401 43.696c.013-.585.387-1.106.941-1.295 2.575-.859 5.827-1.497 8.654-1.497 5.377 0 8.872 1.612 8.872 6.29 0 .968-.161 2.152-.428 3.441l-2.096 11.024c-.325 1.654-.164 2.58.551 2.942.439.221.806.643.707 1.125l-.316 1.548c-.122.598-.574 1.09-1.17 1.218-.609.127-1.287.213-1.925.213-2.423 0-3.603-1.13-3.763-3.12h-.162c-1.774 1.936-4.462 3.12-7.638 3.12-4.569 0-7.526-2.311-7.526-6.936 0-6.239 4.948-10.702 16.026-10.702h1.454c.158-.809.265-1.614.265-2.205 0-2.151-1.077-3.12-4.462-3.12-2.154 0-4.737.513-7.175 1.343-.433.152-.88-.183-.87-.641l.061-2.748zm10.295 11.563c-5.431 0-9.412 1.774-9.412 5.699 0 1.723 1.024 2.798 3.336 2.798 2.203 0 4.517-1.13 5.967-2.636l1.181-5.862h-1.072zM254.98 41.759c.52 0 .926.447.875.966l-.176 1.832h.052c2.635-2.205 6.025-3.654 9.304-3.654 4.088 0 6.774 2.364 6.774 6.13 0 1.827-.266 3.332-.588 5.053l-2.83 14.808c-.109.548-.591.95-1.149.95h-3.931c-.5 0-.88-.458-.779-.95l2.609-13.518c.271-1.343.487-2.851.487-3.763 0-1.989-1.077-3.011-3.336-3.011-2.472 0-5.27 1.287-7.259 3.17l-3.261 17.122c-.104.548-.588.95-1.145.95h-3.929c-.505 0-.883-.458-.785-.95l4.635-24.183c.106-.553.588-.952 1.146-.952h3.286zM281.601 41.759c.52 0 .92.447.875.966l-.178 1.832h.053c2.636-2.205 6.022-3.654 9.301-3.654 4.089 0 6.778 2.364 6.778 6.13 0 1.827-.271 3.332-.591 5.053l-2.83 14.808c-.106.548-.59.95-1.149.95h-3.931c-.503 0-.876-.458-.784-.95l2.617-13.518c.269-1.343.484-2.851.484-3.763 0-1.989-1.077-3.011-3.336-3.011-2.472 0-5.267 1.287-7.259 3.17l-3.258 17.122c-.104.548-.591.95-1.149.95h-3.931c-.502 0-.88-.458-.786-.95l4.639-24.183c.104-.553.588-.952 1.149-.952h3.286zM306.768 57.301c-.109.809-.056 1.721.053 2.367.484 2.635 2.526 3.925 5.968 3.925 2.402 0 4.923-.37 7.138-1.074.427-.136.867.191.811.636l-.359 2.976c-.069.582-.439 1.098-.995 1.292-2.436.851-5.191 1.279-7.779 1.279-7.42 0-11.024-3.173-11.024-10.377 0-6.24 2.042-11.992 6.454-15.058 2.205-1.561 4.947-2.364 8.388-2.364 6.239 0 8.981 3.545 8.981 8.819 0 1.816-.216 4.234-.718 6.681-.11.54-.612.899-1.162.899h-15.756zm11.29-4.247c.22-.809.431-1.989.431-3.12 0-2.42-1.074-4.141-3.816-4.141-3.979 0-6.401 2.904-7.26 7.26h10.645zM334.036 41.759c.52 0 .933.444.896.966l-.149 2.101h.106c1.992-2.42 4.897-3.657 7.638-3.657.303 0 .561.008.782.024.513.032.803.572.649 1.061l-1.088 3.479c-.173.556-.713.909-1.293.933-2.718.117-5.343.894-7.117 2.141l-3.473 18.087c-.108.548-.589.95-1.149.95h-3.93c-.5 0-.88-.458-.783-.95l4.637-24.183c.109-.553.588-.952 1.146-.952h3.128z"/></g><path d="M67.005 46.995c7.277-7.279 16.823-10.898 26.367-10.889l.075.002c.849 1.987 1.368 4.148 1.49 6.415-.506-.025-1.014-.037-1.524-.037l-.041.002-.04-.002c-8.238 0-15.981 3.21-21.805 9.032-5.824 5.825-9.034 13.569-9.034 21.806l.004.109h-6.387c-.025-9.565 3.595-19.14 10.895-26.438zm37.823 12.211c.046-.501.07-1.008.07-1.521 0-2.442-.561-4.75-1.557-6.81-3.165-1.395-6.566-2.095-9.969-2.088-6.3-.012-12.599 2.374-17.403 7.179-4.819 4.818-7.209 11.148-7.179 17.467h6.408c-.026-4.688 1.725-9.382 5.292-12.948 3.469-3.469 8.005-5.221 12.559-5.289v-.004l.323.003.323-.003v.004c3.954.059 7.892 1.39 11.133 4.01zm-63.972-7.486l-.004-.026.004.026zm61.24 12.927c-2.329-2.329-5.353-3.517-8.401-3.582v.002l-.323-.002-.323.002v-.002c-3.046.066-6.072 1.253-8.4 3.582-2.423 2.425-3.609 5.608-3.578 8.787h6.152c.403-2.055.775-3.094 1.947-4.267 1.159-1.158 2.683-1.701 4.202-1.689 1.518-.013 3.046.53 4.202 1.689.401.402.721.85.978 1.323 1.782-1.31 3.259-3.003 4.341-4.961-.248-.303-.514-.598-.797-.882zm-52.023 8.677c0-22.599 17.33-41.146 39.425-43.087-3.437-3.481-8.207-5.642-13.485-5.642-9.716 0-17.722 7.309-18.829 16.725-1.649-1.034-3.599-1.636-5.69-1.636-5.921 0-11.314 5.926-10.638 12.035-1.597-.838-3.415-1.314-5.344-1.314-6.358 0-11.512 5.155-11.512 11.514 0 5.794 4.278 10.587 9.848 11.393.437.078.885.121 1.344.121h14.882l-.001-.109zm-9.234-21.752l.013.121-.013-.121zm0 0z" fill="#34363D"/></svg>