<svg viewBox="0 0 300 159" xmlns="http://www.w3.org/2000/svg"><g fill="#34363D"><path d="M104.916 52.369l-.007-.05.007.05M163.544 51.985c11.129-11.127 25.932-17.264 41.679-17.264l.079.003.077-.003c.976 0 1.946.024 2.913.072a36.037 36.037 0 0 0-2.848-12.265l-.142-.003c-18.241-.017-36.49 6.902-50.403 20.814-13.953 13.952-20.874 32.253-20.824 50.536h12.205l-.005-.208c0-15.747 6.136-30.549 17.269-41.682zm34.351-40.678C191.326 4.654 182.207.523 172.119.523c-18.572 0-33.877 13.969-35.992 31.969a20.414 20.414 0 0 0-10.876-3.127c-11.318 0-21.628 11.326-20.336 23.005a21.933 21.933 0 0 0-10.213-2.509c-12.156 0-22.007 9.85-22.007 22.007 0 11.073 8.179 20.236 18.826 21.777.835.151 1.688.23 2.566.23h28.449l-.005-.208c.001-43.197 33.13-78.652 75.364-82.36zm26.463 39.45a47.058 47.058 0 0 0-19.056-3.994c-12.044-.021-24.083 4.54-33.267 13.724-9.211 9.211-13.78 21.309-13.72 33.388h12.248c-.05-8.959 3.297-17.932 10.114-24.748 6.633-6.633 15.302-9.98 24.007-10.11v-.007l.618.004.616-.004v.005c7.561.113 15.088 2.654 21.283 7.662.087-.957.134-1.927.134-2.908a29.832 29.832 0 0 0-2.977-13.012zm-18.44 19.476v.003l-.616-.003-.618.003v-.003c-5.823.125-11.605 2.394-16.057 6.846-4.634 4.636-6.898 10.721-6.838 16.794h12.258c-.057-2.944.981-5.912 3.222-8.154 2.215-2.214 5.13-3.253 8.033-3.229 2.901-.024 5.82 1.016 8.033 3.229a10.998 10.998 0 0 1 1.87 2.529 29.432 29.432 0 0 0 8.299-9.482 23.403 23.403 0 0 0-1.527-1.688c-4.453-4.451-10.233-6.72-16.059-6.845zM104.909 52.319l-.027-.232.027.232zm-79.023 58.403c-2.383-.817-5.242-1.38-7.743-1.38-8.316 0-14.623 4.088-14.623 11.641 0 4.435 2.079 7.207 6.722 8.731l2.634.832c3.118.97 4.505 1.732 4.505 3.742 0 3.395-2.98 4.851-7.207 4.851-2.383 0-5.071-.665-7.496-1.644-.616-.249-1.328.053-1.512.691l-1.11 3.846c-.192.665.121 1.39.774 1.617 2.684.935 5.852 1.519 9.551 1.519 9.424 0 14.621-5.059 14.621-12.473 0-4.297-2.079-6.515-6.93-8.039l-2.425-.761c-3.326-1.04-4.365-2.01-4.365-3.881 0-3.465 3.256-4.505 6.722-4.505 2.008 0 4.16.523 6.06 1.254.616.237 1.312-.082 1.5-.715l1.097-3.71c.196-.665-.119-1.39-.775-1.616zm20.461 14.488c4.417-3.833 8.59-8.579 12.237-13.725.306-.433.006-1.035-.523-1.035h-5.55c-.771 0-1.506.356-1.979.966-3.703 4.783-7.902 8.901-12.709 12.409l5.099-26.357a1.027 1.027 0 0 0-1.008-1.223H36.85c-.722 0-1.344.514-1.482 1.223l-8.81 45.37a1.026 1.026 0 0 0 1.007 1.223h5.064c.721 0 1.343-.514 1.479-1.223l2.052-10.696a47.652 47.652 0 0 0 4.02-2.426l4.838 13.176c.257.7.928 1.168 1.674 1.168h5.895a.845.845 0 0 0 .785-1.157l-7.025-17.693zm41.303-14.76h-5.064a1.514 1.514 0 0 0-1.485 1.222l-4.402 22.34c-2.357 2.217-5.544 3.395-8.247 3.395-2.771 0-3.95-1.387-3.95-3.465 0-1.594.277-3.257.554-4.574l3.435-17.695a1.026 1.026 0 0 0-1.007-1.223H62.42a1.51 1.51 0 0 0-1.481 1.223l-3.159 16.31c-.623 3.188-1.178 6.237-1.178 9.008 0 4.643 3.118 7.553 8.939 7.553 3.603 0 7.415-1.455 9.978-3.672l-.485 2.564c-1.247 6.792-4.712 9.286-10.602 9.286-1.516 0-3.159-.254-4.599-.597a1.212 1.212 0 0 0-1.449.905l-.865 3.541c-.173.706.266 1.412.967 1.601 1.9.512 4.096.786 6.291.786 9.979 0 14.968-4.851 17.602-15.799.554-2.425 1.178-5.474 1.732-8.177l4.543-23.309a1.023 1.023 0 0 0-1.004-1.223zm26.381.272c-2.382-.817-5.242-1.38-7.743-1.38-8.316 0-14.622 4.088-14.622 11.641 0 4.435 2.079 7.207 6.722 8.731l2.634.832c3.117.97 4.504 1.732 4.504 3.742 0 3.395-2.98 4.851-7.207 4.851-2.382 0-5.07-.665-7.495-1.644-.616-.249-1.328.053-1.512.691l-1.111 3.846c-.192.665.121 1.39.776 1.617 2.683.935 5.852 1.519 9.551 1.519 9.424 0 14.621-5.059 14.621-12.473 0-4.297-2.079-6.515-6.93-8.039l-2.426-.761c-3.326-1.04-4.365-2.01-4.365-3.881 0-3.465 3.257-4.505 6.722-4.505 2.007 0 4.159.523 6.059 1.254.616.237 1.312-.082 1.5-.715l1.097-3.71c.196-.665-.12-1.39-.775-1.616zm21.569 5.411c2.353 0 4.421.475 6.242 1.307.58.265 1.27-.021 1.444-.634l1.19-4.188a1.464 1.464 0 0 0-.815-1.75c-2.17-.934-4.834-1.526-7.992-1.526-13.028 0-19.819 10.255-19.819 22.244 0 8.455 4.227 13.583 13.236 13.583 3.097 0 5.835-.462 8.348-1.338a2.055 2.055 0 0 0 1.359-1.701l.473-4.04c.067-.576-.537-.965-1.086-.777-2.261.777-4.758 1.261-7.154 1.203-5.406-.069-7.138-3.256-7.207-8.038.001-8.04 4.436-14.345 11.781-14.345zm25.571-6.791c-3.641 0-7.832.825-11.153 1.935a1.798 1.798 0 0 0-1.21 1.666l-.081 3.539a.85.85 0 0 0 1.119.83c3.142-1.074 6.469-1.734 9.247-1.734 4.366 0 5.752 1.247 5.752 4.019 0 .762-.139 1.802-.347 2.841h-1.871c-14.275 0-20.651 5.751-20.651 13.79 0 5.96 3.811 8.94 9.701 8.94 4.088 0 7.554-1.525 9.84-4.02h.208c.208 2.564 1.732 4.02 4.85 4.02.823 0 1.7-.109 2.479-.275.772-.164 1.355-.797 1.512-1.57l.405-1.996c.127-.622-.346-1.162-.912-1.448-.919-.465-1.127-1.66-.711-3.791l2.702-14.206c.346-1.663.554-3.188.554-4.435 0-6.026-4.503-8.105-11.433-8.105zm.762 26.055c-1.871 1.94-4.851 3.396-7.692 3.396-2.979 0-4.296-1.386-4.296-3.603 0-5.059 5.128-7.346 12.127-7.346h1.385l-1.524 7.553zm36.311-26.055c-4.226 0-8.593 1.871-11.988 4.712h-.069l.227-2.364a1.131 1.131 0 0 0-1.125-1.24h-4.233a1.507 1.507 0 0 0-1.479 1.223l-5.976 31.164a1.028 1.028 0 0 0 1.01 1.222h5.064c.721 0 1.342-.515 1.478-1.223l4.202-22.061c2.564-2.425 6.167-4.088 9.355-4.088 2.911 0 4.297 1.317 4.297 3.881 0 1.177-.277 3.118-.624 4.851l-3.367 17.418a1.025 1.025 0 0 0 1.008 1.222h5.064a1.508 1.508 0 0 0 1.479-1.223l3.647-19.081c.416-2.217.763-4.158.763-6.513-.001-4.851-3.466-7.9-8.733-7.9zm34.302 0c-4.227 0-8.593 1.871-11.988 4.712h-.07l.228-2.364a1.13 1.13 0 0 0-1.125-1.24h-4.233c-.721 0-1.343.514-1.479 1.223l-5.976 31.164a1.028 1.028 0 0 0 1.01 1.222h5.064c.721 0 1.343-.515 1.477-1.223l4.203-22.061c2.564-2.425 6.167-4.088 9.355-4.088 2.911 0 4.297 1.317 4.297 3.881 0 1.177-.277 3.118-.624 4.851l-3.368 17.418a1.027 1.027 0 0 0 1.009 1.222h5.064c.721 0 1.343-.515 1.478-1.223l3.648-19.081c.416-2.217.763-4.158.763-6.513-.001-4.851-3.466-7.9-8.733-7.9zm30.63 0c-4.435 0-7.969 1.039-10.81 3.049-5.682 3.95-8.316 11.365-8.316 19.403 0 9.285 4.643 13.375 14.206 13.375 3.334 0 6.886-.55 10.021-1.65.715-.249 1.194-.914 1.285-1.666l.464-3.834c.069-.572-.498-.995-1.047-.821-2.853.909-6.105 1.386-9.198 1.386-4.435 0-7.068-1.662-7.692-5.059-.139-.831-.208-2.009-.07-3.049h20.307c.711 0 1.357-.464 1.5-1.161.648-3.15.922-6.265.922-8.61 0-6.79-3.533-11.363-11.572-11.363zm3.395 15.661h-13.72c1.108-5.613 4.227-9.355 9.355-9.355 3.534 0 4.92 2.218 4.92 5.336 0 1.455-.277 2.979-.555 4.019zm32.543-15.285a15.596 15.596 0 0 0-1.012-.029c-3.534 0-7.276 1.593-9.84 4.712h-.139l.19-2.708a1.16 1.16 0 0 0-1.157-1.242h-4.025a1.507 1.507 0 0 0-1.479 1.223l-5.977 31.164a1.028 1.028 0 0 0 1.011 1.222h5.065a1.51 1.51 0 0 0 1.48-1.222l4.477-23.309c2.284-1.604 5.666-2.604 9.169-2.755.751-.032 1.442-.486 1.667-1.204l1.403-4.484c.197-.631-.174-1.325-.833-1.368z"/></g></svg>