<svg viewBox="0 0 118 158" xmlns="http://www.w3.org/2000/svg"><g fill="#34363D"><path d="M62.717 32.667c10.613-10.615 24.535-15.894 38.453-15.88l.109.003c1.238 2.898 1.995 6.049 2.173 9.356-.739-.037-1.479-.054-2.222-.054l-.06.002-.059-.002c-12.014 0-23.307 4.681-31.799 13.172-8.494 8.496-13.175 19.788-13.175 31.801l.005.16h-9.313c-.038-13.95 5.241-27.915 15.888-38.558zm55.161 17.809c.066-.731.102-1.471.102-2.219 0-3.561-.818-6.928-2.271-9.931-4.616-2.035-9.576-3.055-14.539-3.045-9.188-.017-18.373 3.462-25.379 10.47-7.028 7.027-10.514 16.258-10.469 25.474h9.345c-.038-6.836 2.515-13.683 7.717-18.883 5.06-5.059 11.675-7.614 18.316-7.713v-.005l.471.004.47-.004v.005c5.766.085 11.509 2.025 16.237 5.847zm-93.296-10.919l-.007-.039.007.039zm89.311 18.853c-3.397-3.397-7.807-5.129-12.253-5.224v.003l-.47-.003-.471.003v-.003c-4.442.096-8.855 1.828-12.251 5.224-3.534 3.536-5.264 8.179-5.218 12.815h8.972c.587-2.996 1.13-4.512 2.84-6.223 1.69-1.689 3.913-2.481 6.128-2.463 2.214-.019 4.442.774 6.129 2.463.584.586 1.051 1.239 1.426 1.929 2.599-1.91 4.754-4.379 6.331-7.235-.363-.442-.75-.872-1.163-1.286zm-75.87 12.655c0-32.957 25.273-60.007 57.497-62.836-5.013-5.077-11.969-8.229-19.667-8.229-14.17 0-25.845 10.659-27.459 24.391-2.404-1.507-5.249-2.385-8.298-2.385-8.635 0-16.5 8.642-15.514 17.552-2.33-1.222-4.981-1.916-7.793-1.916-9.274 0-16.79 7.518-16.79 16.792 0 8.45 6.238 15.44 14.362 16.615.638.114 1.29.177 1.959.177h21.703v-.161zm-13.467-31.723l.02.177-.02-.177zM3.733 148.705h-1.534l.356-1.779 1.668-.111.867-2.936h2.001l-.578 2.936h2.624l-.378 1.89h-2.668l-1.112 5.426c-.044.267-.066.511-.066.779 0 .801.355 1.201 1.267 1.201.378 0 .712-.134 1.023-.289l.445 1.69c-.534.222-1.312.489-2.313.489-2.046 0-2.846-1.156-2.846-2.668 0-.445.067-.845.134-1.29l1.11-5.338zm7.673-1.89h2.379l-2.179 10.918h-2.402l2.202-10.918zm.4-3.18c0-.845.711-1.557 1.601-1.557.689 0 1.356.445 1.356 1.245 0 .89-.712 1.557-1.601 1.557-.689 0-1.356-.445-1.356-1.245zm9.139 2.913c1.067 0 2.024.601 2.513 1.535h.044l.467-1.268h1.912l-2.179 10.918h-1.957l.111-1.512h-.066c-1.023 1.067-2.357 1.779-3.602 1.779-1.913 0-3.114-1.423-3.114-3.98.001-4.181 2.847-7.472 5.871-7.472zm1.09 7.649l.889-4.358c-.489-.934-1.178-1.334-1.845-1.334-1.846 0-3.536 2.379-3.536 5.181 0 1.601.623 2.357 1.623 2.357.934 0 1.98-.533 2.869-1.846zm7.027-7.382h1.935l-.111 1.534h.089c1.156-.979 2.379-1.802 3.758-1.802 1.823 0 2.579 1.001 2.579 2.758 0 .511-.044.956-.178 1.534l-1.378 6.894h-2.38l1.334-6.582c.089-.511.178-.823.178-1.156 0-.934-.445-1.401-1.379-1.401-.756 0-1.601.511-2.758 1.69l-1.468 7.449h-2.402l2.181-10.918zm13.143 5.092l-1.979-5.092h2.424l.801 2.135c.2.645.378 1.223.578 1.846h.089c.423-.601.867-1.223 1.268-1.846l1.512-2.135h2.557l-4.381 5.626 2.113 5.292h-2.446l-.823-2.224c-.222-.645-.467-1.334-.712-1.957h-.089c-.423.623-.89 1.268-1.379 1.935l-1.712 2.246h-2.58l4.759-5.826zm15.632 5.826h-1.935l.089-1.557h-.089c-1.09.979-2.335 1.823-3.647 1.823-1.823 0-2.602-1.023-2.602-2.757 0-.511.066-.979.178-1.534l1.378-6.894h2.38l-1.312 6.582c-.112.511-.178.823-.178 1.156 0 .934.445 1.401 1.356 1.401.734 0 1.601-.533 2.691-1.69l1.468-7.449h2.379l-2.156 10.919zm5.382-10.918h1.935l-.111 1.534h.089c1.156-.979 2.379-1.802 3.758-1.802 1.823 0 2.579 1.001 2.579 2.758 0 .511-.044.956-.178 1.534l-1.378 6.894h-2.38l1.334-6.582c.089-.511.178-.823.178-1.156 0-.934-.445-1.401-1.379-1.401-.756 0-1.601.511-2.758 1.69l-1.468 7.449h-2.402l2.181-10.918zm9.829 9.807c0-.934.778-1.913 1.846-1.913.801 0 1.29.601 1.29 1.401 0 .956-.734 1.89-1.823 1.89-.802 0-1.313-.578-1.313-1.378zm12.208-10.074c1.334 0 2.268.623 2.869 1.334l-1.334 1.446c-.511-.578-.956-.845-1.69-.845-1.957 0-3.669 2.269-3.669 4.981 0 1.646.734 2.602 2.201 2.602.845 0 1.512-.4 2.068-.845l1.023 1.512c-.823.6-1.935 1.267-3.58 1.267-2.402 0-4.158-1.623-4.158-4.448-.001-3.913 2.868-7.004 6.27-7.004zm3.18 7.004c0-4.18 3.024-7.005 6.004-7.005 2.469 0 4.092 1.712 4.092 4.448 0 4.158-3.024 7.005-6.026 7.005-2.447 0-4.07-1.734-4.07-4.448zm2.402-.088c0 1.646.667 2.602 1.935 2.602 1.734 0 3.335-2.201 3.335-5.003 0-1.646-.667-2.58-1.912-2.58-1.735-.001-3.358 2.201-3.358 4.981zm11.163-6.649h1.935l-.111 1.534h.089c1.112-.979 2.379-1.802 3.558-1.802 1.69 0 2.313.845 2.535 2.024 1.29-1.223 2.602-2.024 3.781-2.024 1.801 0 2.58 1.001 2.58 2.758 0 .511-.067.956-.178 1.534l-1.379 6.894h-2.402l1.334-6.582c.111-.511.178-.823.178-1.156 0-.934-.445-1.401-1.334-1.401-.556 0-1.49.511-2.602 1.69l-1.49 7.449h-2.379l1.312-6.582c.111-.511.178-.823.178-1.156 0-.934-.445-1.401-1.312-1.401-.578 0-1.512.511-2.602 1.69l-1.468 7.449h-2.402l2.179-10.918zM51.598 108.174h-18.496c3.712 9.448 10.307 16.116 21.201 19.39 1.376.413 1.931 2.072 1.07 3.222-.813 1.086-1.611 2.287-2.256 3.371-.501.84-1.51 1.216-2.443.922-10.94-3.453-17.736-9.864-22.301-19.288-3.241 7.662-9.877 14.759-23.27 19.282-.939.317-1.98-.051-2.477-.909-.536-.927-1.221-1.95-1.916-2.887-.828-1.117-.342-2.733.971-3.187 13.649-4.723 18.895-12.373 20.795-19.915h-18.005c-1.149 0-2.08-.931-2.08-2.08v-3.395c0-1.149.931-2.08 2.08-2.08h18.988v-11.363h-14.702c-1.149 0-2.08-.931-2.08-2.08v-3.456c0-1.149.931-2.08 2.08-2.08h38.708c1.149 0 2.08.931 2.08 2.08v3.456c0 1.149-.931 2.08-2.08 2.08h-16.144v11.363h20.278c1.149 0 2.08.931 2.08 2.08v3.394c0 1.149-.932 2.08-2.081 2.08zm11.035 25.756l-2.19-4.678c-.431-.92-.138-2.013.698-2.589 2.022-1.392 4.204-2.99 6.227-4.668v-13.842h-4.86c-1.149 0-2.08-.931-2.08-2.08v-3.278c0-1.149.931-2.08 2.08-2.08h9.678c1.24 0 2.246 1.005 2.246 2.246v18.482c3.686 6.265 10.442 6.265 21.744 6.265 6.055 0 13.121-.126 18.72-.449 1.465-.084 2.556 1.343 2.083 2.733-.311.914-.6 1.874-.823 2.752-.225.883-.99 1.511-1.9 1.551-4.54.196-10.516.294-16.053.294-14.189 0-20.515-1.233-26.842-8.268l-6.98 7.865c-.504.565-1.426.432-1.748-.256zm3.213-53.697c2.557 2.145 6.023 5.738 7.956 8.056.836 1.001.678 2.492-.362 3.28l-2.405 1.822c-1.094.829-2.665.51-3.343-.683-1.395-2.455-3.879-6.476-5.717-8.905-.765-1.011-.565-2.446.454-3.2l.608-.45c.846-.625 2.005-.594 2.809.08zm16.104 20.448c3.39 6.458 7.658 14 9.82 19.57.474 1.221-.152 2.595-1.375 3.065l-2.517.968c-1.316.506-2.777-.229-3.15-1.589-1.62-5.899-4.65-13.627-8.113-20.813-.369-.767-.399-1.645-.081-2.434 2.523-6.243 5.104-13.696 6.605-19.135.26-.941 1.21-1.506 2.161-1.286l4.137.957c1.216.281 1.854 1.621 1.305 2.742l-8.792 17.955zm11.302 0c3.663 6.41 8.252 13.906 10.568 19.506.506 1.222-.109 2.62-1.339 3.107-.847.336-1.663.655-2.468.967-1.282.496-2.714-.19-3.123-1.503-1.832-5.876-5.166-13.573-8.984-20.776-.437-.824-.471-1.795-.091-2.646 2.78-6.233 5.644-13.648 7.318-19.058.286-.924 1.237-1.463 2.176-1.23l4.082 1.013c1.222.303 1.835 1.672 1.249 2.786l-9.388 17.834zm11.916-.061c3.912 6.377 8.741 13.83 11.296 19.421.569 1.244-.002 2.71-1.272 3.22l-2.567 1.031c-1.266.509-2.699-.142-3.139-1.434-1.998-5.868-5.574-13.588-9.681-20.787-.498-.873-.533-1.928-.094-2.831 3.034-6.23 6.138-13.619 7.975-19.005.308-.904 1.257-1.416 2.181-1.174l4.133 1.08c1.233.322 1.826 1.727 1.196 2.835l-10.028 17.644z"/></g></svg>