<svg viewBox="0 0 210 66" xmlns="http://www.w3.org/2000/svg"><path d="M57.814 30.11c9.783-9.785 22.616-14.651 35.446-14.638l.101.003a25.388 25.388 0 0 1 2.003 8.624 41.057 41.057 0 0 0-2.049-.05l-.055.002-.054-.002c-11.075 0-21.485 4.315-29.313 12.142-7.83 7.831-12.145 18.241-12.145 29.315l.005.147h-8.585c-.035-12.859 4.831-25.732 14.646-35.543zm50.847 16.416a22.68 22.68 0 0 0 .094-2.045c0-3.283-.754-6.386-2.093-9.155a33.053 33.053 0 0 0-13.402-2.807c-8.47-.016-16.937 3.192-23.395 9.652-6.479 6.477-9.691 14.987-9.651 23.482h8.614c-.035-6.302 2.319-12.613 7.114-17.407 4.664-4.664 10.762-7.019 16.884-7.11v-.005l.434.004.434-.004v.005c5.315.079 10.609 1.867 14.967 5.39zm-86-10.065l-.006-.036.006.036zm82.327 17.379a16.402 16.402 0 0 0-11.294-4.816v.003l-.434-.003-.434.003v-.003a16.404 16.404 0 0 0-11.293 4.816c-3.257 3.26-4.852 7.539-4.81 11.813h8.27c.541-2.762 1.042-4.159 2.617-5.736 1.558-1.557 3.607-2.287 5.649-2.27 2.041-.017 4.095.713 5.649 2.27.539.54.969 1.142 1.315 1.778a20.642 20.642 0 0 0 5.836-6.669 16.517 16.517 0 0 0-1.071-1.186zM35.05 65.505c0-30.38 23.297-55.314 53.001-57.923-4.62-4.679-11.033-7.585-18.128-7.585-13.062 0-23.824 9.825-25.312 22.484a14.353 14.353 0 0 0-7.649-2.199c-7.96 0-15.21 7.966-14.301 16.179a15.412 15.412 0 0 0-7.184-1.766C6.928 34.695 0 41.625 0 50.174c0 7.789 5.751 14.232 13.239 15.316.588.105 1.189.163 1.806.163h20.006l-.001-.148zM22.637 36.263l.018.163-.018-.163zm96.14 20.671h-1.243l.288-1.441 1.351-.09.702-2.378h1.621l-.468 2.378h2.125l-.306 1.531h-2.161l-.901 4.394a3.725 3.725 0 0 0-.054.631c0 .648.288.973 1.026.973.306 0 .577-.108.828-.234l.361 1.369a4.772 4.772 0 0 1-1.873.396c-1.657 0-2.305-.936-2.305-2.161 0-.36.054-.684.108-1.044l.901-4.324zm6.214-1.531h1.927l-1.765 8.843h-1.945l1.783-8.843zm.324-2.575c0-.685.576-1.261 1.297-1.261.558 0 1.099.36 1.099 1.009 0 .721-.577 1.261-1.297 1.261-.559-.001-1.099-.361-1.099-1.009zm7.402 2.359c.864 0 1.639.487 2.035 1.243h.036l.378-1.027h1.549l-1.765 8.843h-1.585l.09-1.225h-.054c-.828.864-1.909 1.441-2.917 1.441-1.549 0-2.522-1.153-2.522-3.224 0-3.385 2.305-6.051 4.755-6.051zm.883 6.195l.72-3.53c-.396-.757-.954-1.081-1.495-1.081-1.495 0-2.864 1.927-2.864 4.196 0 1.297.504 1.909 1.315 1.909.757.002 1.603-.431 2.324-1.494zm5.691-5.979h1.567l-.09 1.243h.072c.936-.793 1.927-1.459 3.044-1.459 1.476 0 2.089.811 2.089 2.233 0 .414-.036.774-.144 1.243l-1.116 5.583h-1.927l1.081-5.331c.072-.414.144-.667.144-.937 0-.757-.36-1.135-1.117-1.135-.612 0-1.297.414-2.233 1.369l-1.189 6.033h-1.945l1.764-8.842zm10.644 4.124l-1.603-4.124h1.963l.648 1.729c.162.522.306.991.468 1.495h.072c.342-.486.703-.991 1.027-1.495l1.225-1.729h2.071l-3.548 4.557 1.711 4.286h-1.981l-.666-1.801a39.501 39.501 0 0 0-.577-1.585h-.072a53.468 53.468 0 0 1-1.117 1.567l-1.387 1.819h-2.089l3.855-4.719zm12.661 4.719h-1.567l.072-1.261h-.072c-.883.793-1.891 1.477-2.954 1.477-1.477 0-2.107-.828-2.107-2.233 0-.414.054-.793.144-1.243l1.116-5.583h1.927l-1.063 5.331c-.09.414-.144.667-.144.937 0 .756.36 1.135 1.099 1.135.594 0 1.297-.432 2.179-1.369l1.189-6.033h1.927l-1.746 8.842zm4.359-8.843h1.567l-.09 1.243h.072c.936-.793 1.927-1.459 3.044-1.459 1.476 0 2.089.811 2.089 2.233 0 .414-.036.774-.144 1.243l-1.116 5.583h-1.927l1.081-5.331c.072-.414.144-.667.144-.937 0-.757-.36-1.135-1.117-1.135-.612 0-1.297.414-2.233 1.369l-1.189 6.033h-1.945l1.764-8.842zm7.961 7.943c0-.757.63-1.549 1.495-1.549.648 0 1.044.486 1.044 1.135 0 .774-.594 1.531-1.477 1.531-.648-.001-1.062-.469-1.062-1.117zm9.888-8.159c1.081 0 1.837.505 2.324 1.081l-1.081 1.171c-.414-.468-.774-.685-1.369-.685-1.585 0-2.972 1.837-2.972 4.035 0 1.333.594 2.107 1.783 2.107.685 0 1.225-.324 1.675-.684l.828 1.225c-.666.486-1.567 1.026-2.9 1.026-1.945 0-3.368-1.315-3.368-3.602.001-3.171 2.324-5.674 5.08-5.674zm2.575 5.673c0-3.386 2.449-5.673 4.863-5.673 1.999 0 3.314 1.387 3.314 3.602 0 3.368-2.449 5.673-4.881 5.673-1.981 0-3.296-1.404-3.296-3.602zm1.945-.072c0 1.333.54 2.107 1.567 2.107 1.405 0 2.701-1.783 2.701-4.052 0-1.333-.54-2.089-1.549-2.089-1.404 0-2.719 1.783-2.719 4.034zm9.041-5.385h1.567l-.09 1.243h.072c.9-.793 1.927-1.459 2.881-1.459 1.369 0 1.873.685 2.053 1.639 1.045-.991 2.108-1.639 3.062-1.639 1.459 0 2.089.811 2.089 2.233 0 .414-.054.774-.144 1.243l-1.117 5.583h-1.945l1.081-5.331c.09-.414.144-.667.144-.937 0-.757-.36-1.135-1.081-1.135-.45 0-1.207.414-2.107 1.369l-1.207 6.033h-1.927l1.063-5.331c.09-.414.144-.667.144-.937 0-.757-.361-1.135-1.063-1.135-.468 0-1.225.414-2.108 1.369l-1.189 6.033H196.6l1.765-8.841zM157.992 23.96h-14.451c2.9 7.382 8.053 12.591 16.564 15.149 1.075.323 1.509 1.619.836 2.517a31.317 31.317 0 0 0-1.763 2.633c-.391.657-1.18.95-1.908.72-8.547-2.698-13.857-7.707-17.424-15.07-2.533 5.987-7.717 11.531-18.181 15.065a1.626 1.626 0 0 1-1.935-.71 24.715 24.715 0 0 0-1.497-2.256c-.647-.873-.268-2.135.759-2.49 10.664-3.69 14.763-9.667 16.247-15.56h-14.067a1.625 1.625 0 0 1-1.625-1.625v-2.652c0-.898.728-1.625 1.625-1.625h14.835V9.18H124.52a1.625 1.625 0 0 1-1.625-1.625v-2.7c0-.898.728-1.625 1.625-1.625h30.242c.898 0 1.625.728 1.625 1.625v2.7c0 .898-.728 1.625-1.625 1.625h-12.613v8.878h15.843c.898 0 1.625.728 1.625 1.625v2.652a1.624 1.624 0 0 1-1.625 1.625zm8.622 20.123l-1.711-3.655a1.618 1.618 0 0 1 .546-2.023c1.58-1.087 3.284-2.336 4.865-3.647V23.943h-3.797a1.625 1.625 0 0 1-1.625-1.625v-2.561c0-.898.728-1.625 1.625-1.625h7.562c.969 0 1.755.786 1.755 1.755v14.44c2.88 4.895 8.158 4.895 16.989 4.895 4.731 0 10.252-.099 14.626-.351a1.62 1.62 0 0 1 1.628 2.135 29.389 29.389 0 0 0-.643 2.15 1.6 1.6 0 0 1-1.485 1.211c-3.547.153-8.216.229-12.542.229-11.086 0-16.028-.964-20.972-6.46l-5.454 6.145a.827.827 0 0 1-1.367-.198zm2.51-41.953c1.998 1.676 4.706 4.483 6.216 6.294.653.782.53 1.947-.283 2.563l-1.879 1.423a1.772 1.772 0 0 1-2.612-.534c-1.09-1.918-3.03-5.06-4.467-6.957a1.772 1.772 0 0 1 .355-2.5l.475-.351a1.772 1.772 0 0 1 2.195.062zm12.582 15.976c2.649 5.045 5.983 10.938 7.672 15.29a1.857 1.857 0 0 1-1.074 2.395l-1.966.756a1.857 1.857 0 0 1-2.461-1.242c-1.266-4.609-3.633-10.647-6.339-16.262a2.344 2.344 0 0 1-.063-1.902c1.971-4.878 3.988-10.7 5.161-14.95a1.417 1.417 0 0 1 1.689-1.004l3.232.748a1.515 1.515 0 0 1 1.019 2.143l-6.87 14.028zm8.83 0c2.862 5.008 6.447 10.865 8.257 15.24.395.955-.085 2.047-1.046 2.428-.661.262-1.299.512-1.928.755a1.852 1.852 0 0 1-2.44-1.174c-1.431-4.591-4.036-10.605-7.019-16.232a2.353 2.353 0 0 1-.071-2.067c2.172-4.87 4.41-10.663 5.717-14.89a1.42 1.42 0 0 1 1.7-.961l3.189.791a1.515 1.515 0 0 1 .976 2.177l-7.335 13.933zm9.31-.048c3.057 4.983 6.83 10.806 8.826 15.174a1.867 1.867 0 0 1-.994 2.516l-2.006.806a1.857 1.857 0 0 1-2.453-1.12c-1.561-4.584-4.355-10.616-7.564-16.241a2.364 2.364 0 0 1-.073-2.212c2.37-4.867 4.796-10.641 6.231-14.849a1.419 1.419 0 0 1 1.704-.917l3.23.844a1.515 1.515 0 0 1 .934 2.215l-7.835 13.784z" fill="#34363D"/></svg>