<svg xmlns="http://www.w3.org/2000/svg" viewBox="0 0 16 16" enable-background="new 0 0 16 16">
    <path d="M11.803 9.236l3.806 1.237c.253-.78.391-1.61.391-2.473h-4c0 .431-.071.846-.197 1.236z" opacity=".25" fill="#34363D"/>
    <path d="M5.652 11.231l-2.354 3.24c.672.489 1.422.876 2.229 1.138l1.237-3.806c-.403-.132-.776-.327-1.112-.572z" opacity=".6" fill="#34363D"/>
    <path d="M4.197 9.236l-3.806 1.237c.262.807.649 1.558 1.138 2.229l3.24-2.354c-.245-.336-.44-.709-.572-1.112z" opacity=".7" fill="#34363D"/>
    <path d="M6.764 11.803l-1.237 3.806c.78.253 1.61.391 2.473.391v-4c-.431 0-.846-.071-1.236-.197z" opacity=".55" fill="#34363D"/>
    <path d="M9.236 11.803l1.237 3.806c.807-.262 1.558-.649 2.229-1.138l-2.354-3.24c-.336.245-.709.44-1.112.572z" opacity=".45" fill="#34363D"/>
    <path d="M11.803 9.236c-.131.403-.326.776-.571 1.112l3.24 2.354c.489-.672.876-1.422 1.138-2.229l-3.807-1.237z" opacity=".3" fill="#34363D"/>
    <path d="M8 12v4c.863 0 1.693-.138 2.472-.391l-1.237-3.806c-.389.126-.804.197-1.235.197z" opacity=".5" fill="#34363D"/>
    <path d="M10.348 11.231l2.354 3.24c.678-.494 1.276-1.091 1.77-1.77l-3.24-2.354c-.247.34-.545.638-.884.884z" opacity=".35" fill="#34363D"/>
    <path d="M4 8h-4c0 .863.138 1.693.391 2.472l3.806-1.237c-.126-.389-.197-.804-.197-1.235z" opacity=".75" fill="#34363D"/>
    <path d="M4.769 10.348l-3.24 2.354c.494.678 1.091 1.276 1.77 1.77l2.354-3.24c-.34-.247-.638-.545-.884-.884z" opacity=".65" fill="#34363D"/>
    <path d="M4.197 6.764l-3.806-1.236c-.253.779-.391 1.609-.391 2.472h4c0-.431.071-.846.197-1.236z" opacity=".8" fill="#34363D"/>
    <path d="M10.348 4.769l2.354-3.24c-.672-.489-1.422-.876-2.229-1.138l-1.237 3.806c.403.132.776.327 1.112.572z" opacity=".05" fill="#34363D"/>
    <path d="M11.803 6.764l3.806-1.237c-.262-.807-.649-1.558-1.138-2.229l-3.24 2.354c.245.336.44.709.572 1.112z" opacity=".15" fill="#34363D"/>
    <path d="M12 8h4c0-.863-.138-1.693-.391-2.472l-3.806 1.237c.126.389.197.804.197 1.235z" opacity=".2" fill="#34363D"/>
    <path d="M11.231 5.652l3.24-2.354c-.494-.678-1.091-1.276-1.77-1.77l-2.354 3.24c.34.247.638.545.884.884z" opacity=".1" fill="#34363D"/>
    <path d="M4.769 5.652l-3.24-2.354c-.489.672-.876 1.423-1.138 2.23l3.806 1.237c.132-.404.327-.777.572-1.113z" opacity=".85" fill="#34363D"/>
    <path d="M5.652 4.769l-2.354-3.24c-.678.494-1.275 1.091-1.769 1.769l3.24 2.354c.246-.339.544-.637.883-.883z" opacity=".9" fill="#34363D"/>
    <path d="M8 4v-4c-.863 0-1.693.138-2.472.391l1.237 3.806c.389-.126.804-.197 1.235-.197z" fill="#34363D"/>
    <path d="M6.764 4.197l-1.236-3.806c-.807.262-1.558.649-2.23 1.138l2.354 3.24c.336-.245.709-.44 1.112-.572z" opacity=".95" fill="#34363D"/>
</svg>