<svg xmlns="http://www.w3.org/2000/svg" xmlns:xlink="http://www.w3.org/1999/xlink" viewBox="0 0 24 24"><symbol viewBox="0 -48 48 48"><path d="M0-48h48V0H0z"/></symbol><symbol viewBox="0 -48 48 48"><defs><path d="M0-48h48V0H0z"/></defs><clipPath><use overflow="visible" xlink:href="#SVGID_1_"/></clipPath><g><path d="M2-48V0M4-48V0M6-48V0M8-48V0M10-48V0M12-48V0M14-48V0M16-48V0M18-48V0M20-48V0M22-48V0M24-48V0M26-48V0M28-48V0M30-48V0M32-48V0M34-48V0M36-48V0M38-48V0M40-48V0M42-48V0M44-48V0M46-48V0"/><g><path d="M0-2h48M0-4h48M0-6h48M0-8h48M0-10h48M0-12h48M0-14h48M0-16h48M0-18h48M0-20h48M0-22h48M0-24h48M0-26h48M0-28h48M0-30h48M0-32h48M0-34h48M0-36h48M0-38h48M0-40h48M0-42h48M0-44h48M0-46h48"/></g><g><path d="M47.7-.2v-47.5H.2V-.2h47.5m.3.2H0v-48h48V0z"/></g></g></symbol><symbol viewBox="0 -48 48 48"><g><defs><path d="M0-48h48V0H0z"/></defs><clipPath><use overflow="visible" xlink:href="#SVGID_3_"/></clipPath><path d="M24 0v-48M48-24H0M48-16H0M48-32H0M32-48V0M16-48V0M47.7-.3L.2-47.8M.2-.3l47.5-47.5M24-14c-5.5 0-10-4.5-10-10s4.5-10 10-10 10 4.5 10 10-4.5 10-10 10z"/><path d="M24-4C12.9-4 4-12.9 4-24s8.9-20 20-20 20 8.9 20 20S35.1-4 24-4z"/><path d="M38-6H10c-2.2 0-4-1.8-4-4v-28c0-2.2 1.8-4 4-4h28c2.2 0 4 1.8 4 4v28c0 2.2-1.8 4-4 4z"/><path d="M40-8H8c-2.2 0-4-1.8-4-4v-24c0-2.2 1.8-4 4-4h32c2.2 0 4 1.8 4 4v24c0 2.2-1.8 4-4 4z"/><path d="M40-40v32c0 2.2-1.8 4-4 4H12C9.8-4 8-5.8 8-8v-32c0-2.2 1.8-4 4-4h24c2.2 0 4 1.8 4 4z"/><path d="M47.7-.3v-47.5H.2V-.3h47.5m.3.3H0v-48h48V0z"/></g></symbol><path d="M12 20c4.4 0 8-3.6 8-8s-3.6-8-8-8-8 3.6-8 8 3.6 8 8 8zm0-13c.6 0 1 .4 1 1s-.4 1-1 1-1-.4-1-1 .4-1 1-1zm-1 5c0-.6.4-1 1-1s1 .4 1 1v4c0 .6-.4 1-1 1s-1-.4-1-1v-4z"/><g><use width="48" height="48" y="-48" overflow="visible" transform="matrix(.5 0 0 -.5 0 0)" xlink:href="#material_x5F_system_x5F_icon_x5F_border"/></g><g><use width="48" height="48" y="-48" opacity=".15" overflow="visible" transform="matrix(.5 0 0 -.5 0 0)" xlink:href="#material_x5F_system_x5F_icon_x5F_grid"/></g><g><use width="48" height="48" y="-48" overflow="visible" transform="matrix(.5 0 0 -.5 0 0)" xlink:href="#material_x5F_system_x5F_icon_x5F_keylines"/></g><g><path d="M11-1.2h2v26.4h-2z" transform="rotate(45.001 12 12)"/><path d="M11.1-1.6h1v26.4h-1z" transform="rotate(45.001 11.646 11.646)"/></g></svg>