<svg xmlns="http://www.w3.org/2000/svg" xmlns:xlink="http://www.w3.org/1999/xlink" viewBox="0 0 24 24"><defs><symbol id="material_system_icon_border" data-name="material_system_icon_border" viewBox="0 0 48 48"><rect width="48" height="48" fill="none"/></symbol></defs><title>information--warning</title><g id="icon"><path d="M21.85,19.24,13.06,2.64a1.2,1.2,0,0,0-2.12,0L2.15,19.24A1.2,1.2,0,0,0,3.21,21H20.79A1.2,1.2,0,0,0,21.85,19.24ZM12,19a1,1,0,1,1,1-1A1,1,0,0,1,12,19Zm1-5a1,1,0,0,1-2,0V8a1,1,0,1,1,2,0Z" fill="#231f20"/></g><g id="border"><use id="material_system_icon_border-3" data-name="material_system_icon_border" width="48" height="48" transform="translate(0) scale(0.5)" xlink:href="#material_system_icon_border"/></g></svg>