<svg xmlns="http://www.w3.org/2000/svg" viewBox="0 0 18 18"><g fill="none" fill-rule="evenodd"><path fill="#FFF" d="M3.995 0h10.01A3.997 3.997 0 0118 3.995v10.01A3.997 3.997 0 0114.005 18H3.995A3.997 3.997 0 010 14.005V3.995A3.997 3.997 0 013.995 0z"/><path fill="#68697F" d="M1 14.005A2.997 2.997 0 003.995 17h10.01A2.997 2.997 0 0017 14.005V3.995A2.997 2.997 0 0014.005 1H3.995A2.997 2.997 0 001 3.995v10.01zM3.995 0h10.01A3.997 3.997 0 0118 3.995v10.01A3.997 3.997 0 0114.005 18H3.995A3.997 3.997 0 010 14.005V3.995A3.997 3.997 0 013.995 0z"/></g></svg>