<svg xmlns="http://www.w3.org/2000/svg" viewBox="0 0 16 16"><g fill="none"><rect fill="#fff" rx="2"/><path fill="#e6e4eb" d="M1 1.994v12.012c0 .548.446.994.994.994h12.012a.995.995 0 0 0 .994-.994V1.994A.995.995 0 0 0 14.006 1H1.994A.995.995 0 0 0 1 1.994zm-1 0C0 .893.895 0 1.994 0h12.012C15.107 0 16 .895 16 1.994v12.012A1.996 1.996 0 0 1 14.006 16H1.994A1.996 1.996 0 0 1 0 14.006V1.994z"/><path fill="#00b2d6" d="M6.471 12c-.284 0-.498-.068-.711-.274L3.2 9.603c-.213-.205-.284-.548-.071-.753l.782-.822c.142-.205.498-.205.782-.068l1.564 1.233c.071.068.213.068.356 0l4.551-5c.213-.205.569-.274.782-.068l.853.753c.213.205.284.548.071.753l-5.476 5.958c-.284.342-.569.411-.924.411h.001z"/></g></svg>