<?xml version="1.0" encoding="utf-8"?>
<!-- Generator: Adobe Illustrator 19.2.1, SVG Export Plug-In . SVG Version: 6.00 Build 0)  -->
<svg version="1.1" xmlns="http://www.w3.org/2000/svg" xmlns:xlink="http://www.w3.org/1999/xlink" x="0px" y="0px"
	 viewBox="0 0 16 16" enable-background="new 0 0 16 16" xml:space="preserve">
<g id="aw">
	<path fill="#34363D" d="M8,0C3.582,0,0,3.582,0,8s3.582,8,8,8s8-3.582,8-8S12.418,0,8,0z M7.995,3c1.105,0,2,0.895,2,2
		c0,1.105-0.895,2-2,2c-1.105,0-2-0.895-2-2C5.995,3.895,6.891,3,7.995,3z M7.8,8h0.388c0.696,0,1.38,0.185,1.982,0.535l0.003,0.002
		c0.256,0.149,0.502,0.32,0.715,0.526c0.779,0.757,1.379,1.667,1.758,2.728C11.545,13.138,9.872,14,8,14
		c-1.875,0-3.551-0.866-4.652-2.217c0.379-1.058,0.978-1.967,1.756-2.722c0.212-0.206,0.457-0.376,0.713-0.525l0,0
		C6.419,8.185,7.103,8,7.8,8z"/>
</g>
<g id="guides">
</g>
</svg>
