<svg xmlns="http://www.w3.org/2000/svg" viewBox="0 0 16 16" enable-background="new 0 0 16 16"><path fill="#34363D" d="M8 0c-4.418 0-8 3.582-8 8s3.582 8 8 8 8-3.582 8-8-3.582-8-8-8zm-.005 3c1.105 0 2 .895 2 2s-.895 2-2 2-2-.895-2-2 .896-2 2-2zm-.195 5h.388c.696 0 1.38.185 1.982.535l.003.002c.256.149.502.32.715.526.779.757 1.379 1.667 1.758 2.728-1.101 1.347-2.774 2.209-4.646 2.209-1.875 0-3.551-.866-4.652-2.217.379-1.058.978-1.967 1.756-2.722.212-.206.457-.376.713-.525.602-.351 1.286-.536 1.983-.536z"/></svg>