<svg xmlns="http://www.w3.org/2000/svg" viewBox="0 0 16 16"><path d="M15.166 9.003a.999.999 0 0 0-1.225-.707l-2.342.628L10 8l1.579-.912 2.374.636.26.035a1 1 0 0 0 .258-1.967l-.442-.118.534-.308c.476-.275.641-.89.366-1.366a1.003 1.003 0 0 0-1.366-.366l-.514.297.11-.41a1 1 0 0 0-1.932-.518L10.6 5.345 9 6.268V4.444l1.737-1.737a.999.999 0 1 0-1.414-1.414L9 1.616V1c0-.55-.45-1-1-1S7 .45 7 1v.593l-.3-.3a.999.999 0 1 0-1.414 1.414L7 4.421v1.847l-1.58-.912-.636-2.373a.999.999 0 1 0-1.931.517l.118.441-.533-.307A1.003 1.003 0 0 0 1.072 4a1.003 1.003 0 0 0 .366 1.366l.514.297-.41.11A1 1 0 0 0 1.8 7.74l.26-.035 2.342-.628L6 8l-1.579.912-2.374-.636a1 1 0 1 0-.518 1.932l.442.118-.534.308c-.476.275-.64.89-.365 1.366.275.476.89.641 1.366.366l.514-.297-.11.41a1 1 0 0 0 .707 1.225l.26.034a1 1 0 0 0 .965-.741l.627-2.342L7 9.732v1.824l-1.737 1.737a.999.999 0 1 0 1.414 1.414L7 14.384V15c0 .55.45 1 1 1s1-.45 1-1v-.593l.3.3a.997.997 0 0 0 1.414 0 .999.999 0 0 0 0-1.414L9 11.579V9.732l1.58.912.636 2.373a1 1 0 0 0 .965.741l.26-.034a1 1 0 0 0 .707-1.225l-.118-.441.533.308c.476.275 1.091.11 1.366-.366a1.003 1.003 0 0 0-.366-1.366l-.514-.297.41-.11a1 1 0 0 0 .707-1.224z" fill="#34363D"/></svg>