<?xml version="1.0" encoding="utf-8"?>
<!-- Generator: Adobe Illustrator 18.1.1, SVG Export Plug-In . SVG Version: 6.00 Build 0)  -->
<!DOCTYPE svg PUBLIC "-//W3C//DTD SVG 1.1//EN" "http://www.w3.org/Graphics/SVG/1.1/DTD/svg11.dtd">
<svg version="1.1" xmlns="http://www.w3.org/2000/svg" xmlns:xlink="http://www.w3.org/1999/xlink" x="0px" y="0px"
	 viewBox="0 0 16 16" enable-background="new 0 0 16 16" xml:space="preserve">
<g id="aw">
	<path fill="#34363D" d="M15,12H6V6.8l2.8-3.3C9,3.4,9,3.2,9,3c0-0.5-0.4-1-1-1H6H4H3H1C0.2,2-0.3,2.9,0.2,3.5L3,6.8V12H1
		c-0.5,0-1,0.4-1,1v0c0,0.5,0.4,1,1,1h14c0.5,0,1-0.4,1-1v0C16,12.4,15.6,12,15,12z"/>
	<path fill="#34363D" d="M16,7.9c-0.1-0.4-0.5-0.6-0.9-0.5l-1.6,0.3l-2.1-2c-0.1-0.1-0.3-0.2-0.4-0.1l-0.9,0.2L11.6,8l-0.8,0.2
		l-0.3,0.1l-0.1,0L9.1,7.4C9,7.3,8.9,7.3,8.8,7.3L8,7.5L9.1,9l0,0c0,0.1,0.1,0.1,0.2,0.2l0.3,0.1c0.8,0.2,1.7,0.3,2.6,0.1l3.2-0.6
		C15.8,8.6,16.1,8.2,16,7.9z"/>
</g>
<g id="guides">
</g>
</svg>
