<?xml version="1.0" encoding="utf-8"?>
<!-- Generator: Adobe Illustrator 19.2.1, SVG Export Plug-In . SVG Version: 6.00 Build 0)  -->
<svg version="1.1" xmlns="http://www.w3.org/2000/svg" xmlns:xlink="http://www.w3.org/1999/xlink" x="0px" y="0px"
	 viewBox="0 0 16 16" enable-background="new 0 0 16 16" xml:space="preserve">
<g id="aw">
	<path fill="#34363D" d="M15.975,5.863c-0.179-0.668-1.239-0.971-1.578-1.556c-0.343-0.593-0.079-1.662-0.561-2.144
		c-0.482-0.482-1.55-0.217-2.144-0.56c-0.585-0.338-0.888-1.399-1.556-1.577C9.491-0.147,8.7,0.615,8,0.615S6.509-0.147,5.863,0.025
		C5.195,0.204,4.892,1.265,4.307,1.603C3.714,1.946,2.645,1.682,2.163,2.164c-0.481,0.482-0.217,1.55-0.56,2.144
		C1.265,4.892,0.204,5.195,0.025,5.863C-0.147,6.509,0.615,7.3,0.615,8s-0.762,1.491-0.589,2.137
		c0.179,0.668,1.239,0.971,1.578,1.556c0.343,0.593,0.079,1.662,0.561,2.144c0.482,0.481,1.55,0.217,2.144,0.56
		c0.585,0.338,0.888,1.399,1.556,1.577C6.509,16.147,7.3,15.385,8,15.385c0.7,0,1.491,0.762,2.137,0.589
		c0.668-0.179,0.971-1.239,1.556-1.578c0.593-0.343,1.662-0.079,2.144-0.561s0.217-1.55,0.56-2.144
		c0.338-0.585,1.399-0.888,1.577-1.556C16.147,9.491,15.385,8.7,15.385,8C15.385,7.3,16.147,6.509,15.975,5.863z M8,13.6
		c-3.093,0-5.6-2.507-5.6-5.6c0-3.093,2.507-5.6,5.6-5.6s5.6,2.507,5.6,5.6C13.6,11.093,11.093,13.6,8,13.6z M8.371,4.025L9.395,6.1
		l2.29,0.333c0.321,0.047,0.449,0.441,0.217,0.667l-1.657,1.615l0.391,2.281c0.055,0.32-0.281,0.563-0.568,0.412L8.02,10.331
		l-2.048,1.077c-0.287,0.151-0.622-0.093-0.568-0.412l0.391-2.281L4.139,7.1C3.907,6.873,4.035,6.479,4.356,6.432L6.645,6.1
		l1.024-2.075C7.813,3.734,8.228,3.734,8.371,4.025z"/>
</g>
<g id="guides">
</g>
<g id="Layer_3">
</g>
</svg>
