<svg xmlns="http://www.w3.org/2000/svg" viewBox="0 0 16 16"><path fill="#34363D" d="M15.975 5.863c-.179-.668-1.239-.971-1.578-1.556-.343-.593-.079-1.662-.561-2.144-.482-.482-1.55-.217-2.144-.56-.585-.338-.888-1.399-1.556-1.577C9.491-.147 8.7.615 8 .615S6.509-.147 5.863.025c-.668.179-.971 1.24-1.556 1.578-.593.343-1.662.079-2.144.561-.481.482-.217 1.55-.56 2.144-.338.584-1.399.887-1.578 1.555C-.147 6.509.615 7.3.615 8s-.762 1.491-.589 2.137c.179.668 1.239.971 1.578 1.556.343.593.079 1.662.561 2.144.482.481 1.55.217 2.144.56.585.338.888 1.399 1.556 1.577.644.173 1.435-.589 2.135-.589.7 0 1.491.762 2.137.589.668-.179.971-1.239 1.556-1.578.593-.343 1.662-.079 2.144-.561s.217-1.55.56-2.144c.338-.585 1.399-.888 1.577-1.556.173-.644-.589-1.435-.589-2.135 0-.7.762-1.491.59-2.137zM8 13.6A5.6 5.6 0 1 1 8 2.4a5.6 5.6 0 0 1 0 11.2zm.371-9.575L9.395 6.1l2.29.333a.391.391 0 0 1 .217.667l-1.657 1.615.391 2.281a.391.391 0 0 1-.568.412L8.02 10.331l-2.048 1.077a.392.392 0 0 1-.568-.412l.391-2.281L4.139 7.1a.392.392 0 0 1 .217-.668L6.645 6.1l1.024-2.075a.391.391 0 0 1 .702 0z"/></svg>