<?xml version="1.0" encoding="utf-8"?>
<!-- Generator: Adobe Illustrator 19.2.1, SVG Export Plug-In . SVG Version: 6.00 Build 0)  -->
<svg version="1.1" xmlns="http://www.w3.org/2000/svg" xmlns:xlink="http://www.w3.org/1999/xlink" x="0px" y="0px"
	 viewBox="0 0 16 16" enable-background="new 0 0 16 16" xml:space="preserve">
<g id="aw">
	<path fill="#34363D" d="M14.5,5H11V4c0-1.1-0.9-2-2-2H7C5.9,2,5,2.9,5,4v1H1.5C0.675,5,0,5.675,0,6.5v6C0,13.325,0.675,14,1.5,14
		h13c0.825,0,1.5-0.675,1.5-1.5v-6C16,5.675,15.325,5,14.5,5z M7,4h2v1H7V4z M11.401,7.891l-3.832,4.494
		c-0.158,0.186-0.38,0.281-0.603,0.281c-0.186,0-0.373-0.066-0.525-0.202l-1.803-1.586c-0.167-0.149-0.185-0.409-0.039-0.581
		l0.525-0.621c0.145-0.171,0.398-0.19,0.565-0.04l1.08,0.939c0.067,0.06,0.168,0.053,0.226-0.016l3.201-3.753
		c0.146-0.171,0.398-0.188,0.565-0.039l0.603,0.542C11.53,7.46,11.547,7.72,11.401,7.891z"/>
</g>
<g id="guides">
</g>
</svg>
