<?xml version="1.0" encoding="utf-8"?>
<!-- Generator: Adobe Illustrator 19.2.1, SVG Export Plug-In . SVG Version: 6.00 Build 0)  -->
<svg version="1.1" xmlns="http://www.w3.org/2000/svg" xmlns:xlink="http://www.w3.org/1999/xlink" x="0px" y="0px"
	 viewBox="0 0 16 16" enable-background="new 0 0 16 16" xml:space="preserve">
<g id="aw">
	<g>
		<path fill="#34363D" d="M11,4c0-1.1-0.9-2-2-2H7C5.9,2,5,2.9,5,4v1H4v9h8V5h-1V4z M7,4h2v1H7V4z"/>
		<path fill="#34363D" d="M0,6.5v6C0,13.325,0.675,14,1.5,14H3V5H1.5C0.675,5,0,5.675,0,6.5z"/>
		<path fill="#34363D" d="M14.5,5H13v9h1.5c0.825,0,1.5-0.675,1.5-1.5v-6C16,5.675,15.325,5,14.5,5z"/>
	</g>
</g>
<g id="guides">
</g>
</svg>
