<?xml version="1.0" encoding="utf-8"?>
<!-- Generator: Adobe Illustrator 19.2.1, SVG Export Plug-In . SVG Version: 6.00 Build 0)  -->
<svg version="1.1" xmlns="http://www.w3.org/2000/svg" xmlns:xlink="http://www.w3.org/1999/xlink" x="0px" y="0px"
	 viewBox="0 0 16 16" enable-background="new 0 0 16 16" xml:space="preserve">
<g id="aw">
	<path fill="#34363D" d="M14.5,5H11V4c0-1.1-0.9-2-2-2H7C5.9,2,5,2.9,5,4v1H1.5C0.675,5,0,5.675,0,6.5v6C0,13.325,0.675,14,1.5,14
		h13c0.825,0,1.5-0.675,1.5-1.5v-6C16,5.675,15.325,5,14.5,5z M7,4h2v1H7V4z M10.891,11.297c0.145,0.145,0.145,0.381,0,0.526
		l-0.526,0.526c-0.145,0.145-0.381,0.145-0.526,0L8,10.511l-1.838,1.838c-0.145,0.145-0.381,0.145-0.526,0l-0.526-0.526
		c-0.145-0.145-0.145-0.381,0-0.526l1.838-1.838L5.109,7.62c-0.145-0.145-0.145-0.381,0-0.526l0.526-0.526
		c0.145-0.145,0.381-0.145,0.526,0L8,8.406l1.838-1.838c0.145-0.145,0.381-0.145,0.526,0l0.526,0.526
		c0.145,0.145,0.145,0.381,0,0.526L9.053,9.458L10.891,11.297z"/>
</g>
<g id="guides">
</g>
</svg>
