<?xml version="1.0" encoding="utf-8"?>
<!-- Generator: Adobe Illustrator 19.2.1, SVG Export Plug-In . SVG Version: 6.00 Build 0)  -->
<svg version="1.1" xmlns="http://www.w3.org/2000/svg" xmlns:xlink="http://www.w3.org/1999/xlink" x="0px" y="0px"
	 viewBox="0 0 16 16" enable-background="new 0 0 16 16" xml:space="preserve">
<g id="aw">
	<path fill="#34363D" d="M1,13h14v0.4c0,0.884-0.627,1.6-1.4,1.6H2.4C1.627,15,1,14.284,1,13.4V13z M16,4.362V6.66
		c0,1.731-1.322,3.138-3.01,3.306C12.939,11.095,11.729,12,10.47,12H5.53C4.243,12,3,11.057,3,9.894V2h10h0v1h1.438
		C15.301,3,16,3.499,16,4.362z M9.053,7l1.838-1.838c0.145-0.145,0.145-0.381,0-0.526l-0.526-0.526
		c-0.145-0.145-0.381-0.145-0.526,0L8,5.947L6.162,4.109c-0.145-0.145-0.381-0.145-0.526,0L5.109,4.635
		c-0.145,0.145-0.145,0.381,0,0.526L6.947,7L5.109,8.838c-0.145,0.145-0.145,0.381,0,0.526l0.526,0.526
		c0.145,0.145,0.381,0.145,0.526,0L8,8.053l1.838,1.838c0.145,0.145,0.381,0.145,0.526,0l0.526-0.526
		c0.145-0.145,0.145-0.381,0-0.526L9.053,7z M15,4.362C15,4.047,14.648,4,14.438,4H13v4.966c1.128-0.166,2-1.132,2-2.305V4.362z"/>
</g>
<g id="guides">
</g>
</svg>
