<?xml version="1.0" encoding="utf-8"?>
<!-- Generator: Adobe Illustrator 19.2.1, SVG Export Plug-In . SVG Version: 6.00 Build 0)  -->
<svg version="1.1" xmlns="http://www.w3.org/2000/svg" xmlns:xlink="http://www.w3.org/1999/xlink" x="0px" y="0px"
	 viewBox="0 0 16 16" enable-background="new 0 0 16 16" xml:space="preserve">
<g id="aw">
	<path fill="#34363D" d="M1,13h14v0.4c0,0.884-0.627,1.6-1.4,1.6H2.4C1.627,15,1,14.284,1,13.4V13z M16,4.362V6.66
		c0,1.731-1.322,3.138-3.01,3.306C12.939,11.095,11.729,12,10.47,12H5.53C4.243,12,3,11.057,3,9.894V2h10h0v1h1.438
		C15.301,3,16,3.499,16,4.362z M11.363,4.644l-0.603-0.542c-0.166-0.15-0.419-0.132-0.565,0.039L6.994,7.894
		C6.936,7.962,6.835,7.969,6.768,7.909L5.688,6.97c-0.167-0.149-0.42-0.131-0.565,0.04L4.598,7.632
		C4.453,7.803,4.471,8.063,4.638,8.212L6.44,9.798C6.592,9.934,6.779,10,6.965,10c0.223,0,0.445-0.095,0.603-0.281l3.832-4.494
		C11.547,5.054,11.53,4.794,11.363,4.644z M15,4.362C15,4.047,14.648,4,14.438,4H13v4.966c1.128-0.166,2-1.132,2-2.305V4.362z"/>
</g>
<g id="guides">
</g>
</svg>
