<svg xmlns="http://www.w3.org/2000/svg" viewBox="0 0 16 16"><path fill="#34363D" d="M1 13h14v.4c0 .884-.627 1.6-1.4 1.6H2.4c-.773 0-1.4-.716-1.4-1.6V13zm15-8.638V6.66a3.328 3.328 0 0 1-3.01 3.306C12.939 11.095 11.729 12 10.47 12H5.53C4.243 12 3 11.057 3 9.894V2h10v1h1.438C15.301 3 16 3.499 16 4.362zm-4.637.282l-.603-.542a.393.393 0 0 0-.565.039L6.994 7.894a.157.157 0 0 1-.226.015l-1.08-.939a.394.394 0 0 0-.565.04l-.525.622a.419.419 0 0 0 .04.58L6.44 9.798a.784.784 0 0 0 1.128-.079L11.4 5.225a.418.418 0 0 0-.037-.581zM15 4.362c0-.315-.352-.362-.562-.362H13v4.966a2.337 2.337 0 0 0 2-2.305V4.362z"/></svg>