<svg xmlns="http://www.w3.org/2000/svg" viewBox="0 0 16 16"><path fill="#34363D" d="M4 16h-1c-.6 0-1-.4-1-1v-1h3v1c0 .6-.4 1-1 1zm9 0h-1c-.6 0-1-.4-1-1v-1h3v1c0 .6-.4 1-1 1z"/><path d="M6.5 2h3c.3 0 .5-.2.5-.5s-.2-.5-.5-.5h-3c-.3 0-.5.2-.5.5s.2.5.5.5zm5.5 1h-8c-.4 0-1 .6-1 1v4h10v-4c0-.4-.6-1-1-1z" fill="none"/><path fill="#34363D" d="M11.2 0h-6.4c-1.8 0-2.8 1.2-2.8 3v10h12v-10c0-1.8-1-3-2.8-3zm-4.7 1h3c.3 0 .5.2.5.5s-.2.5-.5.5h-3c-.3 0-.5-.2-.5-.5s.2-.5.5-.5zm-1.5 10c-.6 0-1-.4-1-1s.4-1 1-1 1 .4 1 1-.4 1-1 1zm6 0c-.6 0-1-.4-1-1s.4-1 1-1 1 .4 1 1-.4 1-1 1zm2-3h-10v-4c0-.4.6-1 1-1h8c.4 0 1 .6 1 1v4z"/></svg>