<?xml version="1.0" encoding="utf-8"?>
<!-- Generator: Adobe Illustrator 19.2.1, SVG Export Plug-In . SVG Version: 6.00 Build 0)  -->
<svg version="1.1" xmlns="http://www.w3.org/2000/svg" xmlns:xlink="http://www.w3.org/1999/xlink" x="0px" y="0px"
	 viewBox="0 0 16 16" enable-background="new 0 0 16 16" xml:space="preserve">
<g id="aw">
	<path fill="#34363D" d="M13,10.025V9.374C13,8.618,12.382,8,11.626,8h-0.251C10.618,8,10,8.618,10,9.374v0.651
		c-0.558,0.065-1,0.524-1,1.098v3.753C9,15.495,9.505,16,10.123,16h2.753C13.495,16,14,15.495,14,14.877v-3.753
		C14,10.549,13.558,10.09,13,10.025z M11.374,9.035h0.251c0.184,0,0.34,0.156,0.34,0.34V10h-0.93V9.374
		C11.035,9.19,11.19,9.035,11.374,9.035z M3.473,1.5C3.47,0.673,4.142,0.003,4.968,0c0.833,0.003,1.506,0.673,1.504,1.5
		C6.474,2.327,5.802,2.998,4.968,3C4.142,2.998,3.47,2.327,3.473,1.5z M6.345,4H5.973L5.215,7.03c-0.063,0.253-0.422,0.253-0.485,0
		L3.973,4H3.6C2.633,4,1.886,4.852,2.014,5.812L2.573,10c0,0.221,0.179,0.4,0.4,0.4h0.4l0.6,5.6h2l0.6-5.6h0.4
		c0.221,0,0.4-0.179,0.4-0.4l0.559-4.188C8.059,4.852,7.313,4,6.345,4z"/>
</g>
<g id="guides">
</g>
</svg>
