<?xml version="1.0" encoding="utf-8"?>
<!-- Generator: Adobe Illustrator 19.2.1, SVG Export Plug-In . SVG Version: 6.00 Build 0)  -->
<svg version="1.1" xmlns="http://www.w3.org/2000/svg" xmlns:xlink="http://www.w3.org/1999/xlink" x="0px" y="0px"
	 viewBox="0 0 16 16" enable-background="new 0 0 16 16" xml:space="preserve">
<g id="aw">
	<path fill="#34363D" d="M12.566,2.076C11.357,0.693,9.679,0.002,8,0C6.321,0.002,4.643,0.693,3.434,2.076
		C1.331,4.482,1.59,7.954,3.891,10.501l3.58,4.281C7.618,14.926,7.809,14.999,8,15c0.191-0.001,0.382-0.074,0.528-0.219l3.58-4.281
		C14.41,7.954,14.669,4.482,12.566,2.076z M8,10c-2.209,0-4-1.791-4-4c0-2.209,1.791-4,4-4s4,1.791,4,4C12,8.209,10.209,10,8,10z
		 M8,3C6.346,3,5,4.346,5,6c0,1.654,1.346,3,3,3s3-1.346,3-3C11,4.346,9.654,3,8,3z M8,7.5C7.172,7.5,6.5,6.829,6.5,6
		S7.172,4.5,8,4.5S9.5,5.172,9.5,6S8.828,7.5,8,7.5z"/>
</g>
<g id="guides">
</g>
</svg>
