<?xml version="1.0" encoding="utf-8"?>
<!-- Generator: Adobe Illustrator 19.2.1, SVG Export Plug-In . SVG Version: 6.00 Build 0)  -->
<svg version="1.1" xmlns="http://www.w3.org/2000/svg" xmlns:xlink="http://www.w3.org/1999/xlink" x="0px" y="0px"
	 viewBox="0 0 16 16" enable-background="new 0 0 16 16" xml:space="preserve">
<g id="aw">
	<path fill="#34363D" d="M1,10.078l0.087,3.467c0.018,0.75,0.62,1.35,1.367,1.367L5.922,15c0.52,0.013,0.954-0.399,0.966-0.919
		c0.013-0.52-0.399-0.953-0.919-0.967l-1.706-0.043l3.055-3.055c0.368-0.368,0.368-0.966,0-1.334c-0.368-0.368-0.966-0.368-1.334,0
		l-3.055,3.055l-0.043-1.706C2.88,9.779,2.775,9.553,2.61,9.388C2.434,9.211,2.189,9.105,1.92,9.112
		C1.399,9.125,0.987,9.558,1,10.078z"/>
	<path fill="#34363D" d="M15,5.922l-0.087-3.467c-0.018-0.75-0.62-1.35-1.367-1.367L10.078,1C9.558,0.987,9.125,1.399,9.112,1.92
		C9.099,2.44,9.51,2.872,10.031,2.887l1.706,0.043L8.682,5.984c-0.368,0.368-0.368,0.966,0,1.334c0.368,0.368,0.966,0.368,1.334,0
		l3.055-3.055l0.043,1.706c0.007,0.252,0.111,0.479,0.276,0.644c0.176,0.176,0.422,0.283,0.691,0.276
		C14.601,6.875,15.013,6.442,15,5.922z"/>
</g>
<g id="guides">
</g>
</svg>
