<svg xmlns="http://www.w3.org/2000/svg" viewBox="0 0 16 16" enable-background="new 0 0 16 16"><g><path d="M8.5 15c.419 0 .835-.152 1.131-.449l4.525-4.539c1.125-1.128 1.125-2.895.001-4.024l-4.526-4.538c-.543-.546-1.491-.604-2.116-.127-.624.477-.689 1.306-.144 1.853l4.525 4.538c.139.139.139.433 0 .572l-4.525 4.539c-.545.546-.48 1.376.144 1.852.284.216.635.323.985.323zM3.408 2.408l3.653 3.609c1.109 1.096 1.109 2.869 0 3.965l-3.653 3.61c-.499.493-1.292.546-1.854.123-.677-.509-.744-1.49-.143-2.084l3.39-3.349c.157-.155.157-.409 0-.564l-3.39-3.349c-.601-.594-.534-1.574.143-2.084.562-.423 1.354-.37 1.854.123z" fill="#34363D"/></g></svg>