<svg xmlns="http://www.w3.org/2000/svg" viewBox="0 0 16 16"><path d="M8.5 15c.419 0 .835-.152 1.131-.449l4.525-4.539a2.822 2.822 0 0 0 .001-4.024L9.631 1.45C9.088.904 8.14.846 7.515 1.323c-.624.477-.689 1.306-.144 1.853l4.525 4.538c.139.139.139.433 0 .572l-4.525 4.539c-.545.546-.48 1.376.144 1.852.284.216.635.323.985.323zM3.408 2.408l3.653 3.609a2.779 2.779 0 0 1 0 3.965l-3.653 3.61a1.426 1.426 0 0 1-1.854.123 1.376 1.376 0 0 1-.143-2.084l3.39-3.349a.397.397 0 0 0 0-.564l-3.39-3.349a1.376 1.376 0 0 1 .143-2.084 1.426 1.426 0 0 1 1.854.123z" fill="#34363D"/></svg>