<?xml version="1.0" encoding="utf-8"?>
<!-- Generator: Adobe Illustrator 19.2.1, SVG Export Plug-In . SVG Version: 6.00 Build 0)  -->
<svg version="1.1" xmlns="http://www.w3.org/2000/svg" xmlns:xlink="http://www.w3.org/1999/xlink" x="0px" y="0px"
	 viewBox="0 0 16 16" enable-background="new 0 0 16 16" xml:space="preserve">
<g id="aw">
	<path fill="#34363D" d="M8.062,0c-4.418,0-8,3.582-8,8c0,4.418,3.582,8,8,8s8-3.582,8-8C16.062,3.582,12.481,0,8.062,0z
		 M9.027,12.253c0,0.221-0.179,0.4-0.4,0.4H7.558c-0.221,0-0.4-0.179-0.4-0.4v-1.006c0-0.221,0.179-0.4,0.4-0.4h1.069
		c0.221,0,0.4,0.179,0.4,0.4V12.253z M10.809,7.391c-0.158,0.225-0.461,0.512-0.91,0.863L9.456,8.597
		c-0.241,0.188-0.401,0.406-0.48,0.656c-0.05,0.159-0.077,0.404-0.081,0.738H7.624c-0.235,0-0.416-0.203-0.399-0.437
		C7.258,9.081,7.317,8.74,7.401,8.531c0.108-0.269,0.387-0.578,0.835-0.928l0.455-0.356c0.15-0.112,0.27-0.235,0.361-0.369
		c0.166-0.229,0.249-0.481,0.249-0.756c0-0.316-0.093-0.605-0.277-0.866c-0.185-0.26-0.523-0.391-1.013-0.391
		c-0.482,0-0.824,0.161-1.026,0.481C6.845,5.57,6.754,5.799,6.711,6.034c-0.033,0.184-0.2,0.313-0.387,0.313h-1.01
		c-0.235,0-0.431-0.205-0.401-0.438C5.039,4.95,5.441,4.255,6.121,3.822c0.491-0.316,1.096-0.475,1.812-0.475
		c0.941,0,1.724,0.225,2.347,0.675c0.623,0.45,0.934,1.117,0.934,2C11.214,6.564,11.079,7.02,10.809,7.391z"/>
</g>
<g id="guides">
</g>
</svg>
