<svg xmlns="http://www.w3.org/2000/svg" viewBox="0 0 16 16"><path fill="#34363D" d="M8.062 0a8 8 0 1 0 0 16 8 8 0 0 0 0-16zm.965 12.253a.4.4 0 0 1-.4.4H7.558a.4.4 0 0 1-.4-.4v-1.006a.4.4 0 0 1 .4-.4h1.069a.4.4 0 0 1 .4.4v1.006zm1.782-4.862c-.158.225-.461.512-.91.863l-.443.343a1.345 1.345 0 0 0-.48.656c-.05.159-.077.404-.081.738H7.624a.404.404 0 0 1-.399-.437c.033-.473.092-.814.176-1.023.108-.269.387-.578.835-.928l.455-.356c.15-.112.27-.235.361-.369a1.26 1.26 0 0 0 .249-.756c0-.316-.093-.605-.277-.866-.185-.26-.523-.391-1.013-.391-.482 0-.824.161-1.026.481-.14.224-.231.453-.274.688a.39.39 0 0 1-.387.313h-1.01c-.235 0-.431-.205-.401-.438.126-.959.528-1.654 1.208-2.087.491-.316 1.096-.475 1.812-.475.941 0 1.724.225 2.347.675.623.45.934 1.117.934 2 0 .542-.135.998-.405 1.369z"/></svg>