<?xml version="1.0" encoding="utf-8"?>
<!-- Generator: Adobe Illustrator 19.2.1, SVG Export Plug-In . SVG Version: 6.00 Build 0)  -->
<svg version="1.1" xmlns="http://www.w3.org/2000/svg" xmlns:xlink="http://www.w3.org/1999/xlink" x="0px" y="0px"
	 viewBox="0 0 16 16" enable-background="new 0 0 16 16" xml:space="preserve">
<g id="aw">
	<path fill="#34363D" d="M1.5,5L1.5,5C0.672,5,0,4.328,0,3.5v0C0,2.672,0.672,2,1.5,2h0C2.328,2,3,2.672,3,3.5v0
		C3,4.328,2.328,5,1.5,5z M3,8L3,8c0-0.828-0.672-1.5-1.5-1.5h0C0.672,6.5,0,7.172,0,8v0c0,0.828,0.672,1.5,1.5,1.5h0
		C2.328,9.5,3,8.828,3,8z M3,12.5L3,12.5C3,11.672,2.328,11,1.5,11h0C0.672,11,0,11.672,0,12.5v0C0,13.328,0.672,14,1.5,14h0
		C2.328,14,3,13.328,3,12.5z M7,5h8c0.552,0,1-0.448,1-1V3c0-0.552-0.448-1-1-1H7C6.448,2,6,2.448,6,3v1C6,4.552,6.448,5,7,5z
		 M7,9.5h8c0.552,0,1-0.448,1-1v-1c0-0.552-0.448-1-1-1H7c-0.552,0-1,0.448-1,1v1C6,9.052,6.448,9.5,7,9.5z M7,14h8
		c0.552,0,1-0.448,1-1v-1c0-0.552-0.448-1-1-1H7c-0.552,0-1,0.448-1,1v1C6,13.552,6.448,14,7,14z"/>
</g>
<g id="guides">
</g>
</svg>
