<svg xmlns="http://www.w3.org/2000/svg" viewBox="0 0 16 16" enable-background="new 0 0 16 16"><g fill="#34363D"><path d="M4 6.537v1.463h8v-1.463c0-1.178.86-2.163 2-2.39v-.171c0-.537-.45-.976-1-.976h-10c-.55 0-1 .439-1 .976v.171c1.14.226 2 1.212 2 2.39zM14.5 5.125c-.338 0-.647.117-.898.308l-.007.005c-.117.089-.221.193-.307.312l-.007.009c-.08.112-.142.236-.189.368l-.025.079c-.039.134-.067.273-.067.419v2.5h-10v-2.5c0-.649-.42-1.2-1-1.407-.157-.057-.324-.093-.5-.093-.825 0-1.5.675-1.5 1.5v3.5c0 .55.45 1 1 1h1v1.875c0 .55.45 1 1 1s1-.45 1-1v-1.875h8v1.875c0 .55.45 1 1 1s1-.45 1-1v-1.875h1c.55 0 1-.45 1-1v-3.5c0-.825-.675-1.5-1.5-1.5z"/></g></svg>