<?xml version="1.0" encoding="utf-8"?>
<!-- Generator: Adobe Illustrator 19.2.1, SVG Export Plug-In . SVG Version: 6.00 Build 0)  -->
<svg version="1.1" xmlns="http://www.w3.org/2000/svg" xmlns:xlink="http://www.w3.org/1999/xlink" x="0px" y="0px"
	 viewBox="0 0 16 16" enable-background="new 0 0 16 16" xml:space="preserve">
<g id="aw">
	<path fill="#34363D" d="M14.8,5h-3.983l1.994-1.929c0.253-0.245,0.253-0.642,0-0.887v0c-0.253-0.245-0.663-0.245-0.916,0L8.984,5
		H7.016l-2.91-2.816c-0.253-0.245-0.663-0.245-0.916,0v0c-0.253,0.245-0.253,0.642,0,0.887L5.183,5H1.2C0.54,5,0,5.562,0,6.25v6.5
		C0,13.438,0.54,14,1.2,14h13.6c0.66,0,1.2-0.562,1.2-1.25v-6.5C16,5.562,15.46,5,14.8,5z M13,13H1V6h5.216h1.546h0.475h1.546H13V13
		z M14.8,10.833H14c-0.22,0-0.4-0.188-0.4-0.417S13.78,10,14,10h0.8c0.22,0,0.4,0.187,0.4,0.417S15.02,10.833,14.8,10.833z
		 M14.4,8.333c-0.44,0-0.8-0.375-0.8-0.833s0.36-0.833,0.8-0.833c0.44,0,0.8,0.375,0.8,0.833S14.84,8.333,14.4,8.333z"/>
</g>
<g id="guides">
</g>
</svg>
