<svg xmlns="http://www.w3.org/2000/svg" viewBox="0 0 16 16"><path fill="#34363D" d="M14.8 5h-3.983l1.994-1.929a.613.613 0 0 0 0-.887.663.663 0 0 0-.916 0L8.984 5H7.016l-2.91-2.816a.663.663 0 0 0-.916 0 .613.613 0 0 0 0 .887L5.183 5H1.2C.54 5 0 5.562 0 6.25v6.5C0 13.438.54 14 1.2 14h13.6c.66 0 1.2-.562 1.2-1.25v-6.5C16 5.562 15.46 5 14.8 5zM13 13H1V6h12v7zm1.8-2.167H14c-.22 0-.4-.188-.4-.417S13.78 10 14 10h.8c.22 0 .4.187.4.417s-.18.416-.4.416zm-.4-2.5c-.44 0-.8-.375-.8-.833s.36-.833.8-.833c.44 0 .8.375.8.833s-.36.833-.8.833z"/></svg>