<svg xmlns="http://www.w3.org/2000/svg" viewBox="0 0 16 16"><path fill="#34363D" d="M8.707 7.293c.189.189.293.44.293.707a.993.993 0 0 1-.293.707C8.518 8.896 8.267 9 8 9s-.518-.104-.707-.293A.993.993 0 0 1 7 8c0-.267.104-.518.293-.707C7.482 7.104 7.733 7 8 7s.518.104.707.293zM16 8A8 8 0 1 1 0 8a8 8 0 0 1 16 0zm-3.342-5.003L7.411 6.098a1.97 1.97 0 0 0-.825.488 1.97 1.97 0 0 0-.488.825l-3.1 5.246c-.119.201.145.464.345.345l5.246-3.1a1.99 1.99 0 0 0 .826-.488c.238-.238.394-.524.487-.825l3.1-5.246c.119-.201-.144-.464-.344-.346z"/></svg>