<svg xmlns="http://www.w3.org/2000/svg" viewBox="0 0 16 16"><path fill="#34363D" d="M3 15h8.6c1.9 0 3.4-1.5 3.4-3.4V6c0-.3-.2-.5-.5-.5s-.5.2-.5.5v5.5c0 .8-.8 1.5-1.6 1.5s-1.5-.7-1.5-1.5V4c0-.6-.4-1-1-1H2c-.6 0-1 .4-1 1v9c0 1.1.9 2 2 2zm2-3h3.5c.3 0 .5.2.5.5s-.2.5-.5.5H5c-.3 0-.5-.2-.5-.5s.2-.5.5-.5zM3.5 8h5c.3 0 .5.2.5.5s-.2.5-.5.5h-5c-.3 0-.5-.2-.5-.5s.2-.5.5-.5zm0 2h5c.3 0 .5.2.5.5s-.2.5-.5.5h-5c-.3 0-.5-.2-.5-.5s.2-.5.5-.5zM4 5h4c.6 0 1 .4 1 1s-.4 1-1 1H4c-.6 0-1-.4-1-1s.4-1 1-1zm7-4c1.1 0 2 .9 2 2v8.5c0 .3-.2.5-.5.5s-.5-.2-.5-.5v-8c0-.8-.7-1.5-1.5-1.5h-7c-.3 0-.5-.2-.5-.5s.2-.5.5-.5H11z"/></svg>