<?xml version="1.0" encoding="utf-8"?>
<!-- Generator: Adobe Illustrator 19.2.1, SVG Export Plug-In . SVG Version: 6.00 Build 0)  -->
<svg version="1.1" xmlns="http://www.w3.org/2000/svg" xmlns:xlink="http://www.w3.org/1999/xlink" x="0px" y="0px"
	 viewBox="0 0 16 16" enable-background="new 0 0 16 16" xml:space="preserve">
<g id="aw">
	<path fill="#34363D" d="M13.841,2.492c-1.548-1.548-4.057-1.548-5.605,0L1.831,8.898c-1.105,1.105-1.106,2.898,0,4.003
		s2.898,1.105,4.003,0l6.405-6.405c0.663-0.663,0.663-1.739,0-2.402c-0.663-0.663-1.739-0.663-2.402,0l-6.405,6.405
		c-0.221,0.221-0.221,0.58,0,0.801c0.221,0.221,0.58,0.221,0.801,0l6.405-6.405c0.221-0.221,0.58-0.221,0.801,0s0.221,0.58,0,0.801
		l-6.405,6.405c-0.663,0.663-1.739,0.663-2.402,0s-0.663-1.739,0-2.402l6.405-6.405c1.106-1.106,2.898-1.106,4.003,0
		s1.106,2.898,0,4.003l-6.405,6.405c-0.221,0.221-0.221,0.58,0,0.801c0.221,0.221,0.58,0.221,0.801,0l6.405-6.405
		C15.388,6.549,15.388,4.04,13.841,2.492z"/>
</g>
<g id="guides">
</g>
</svg>
