<?xml version="1.0" encoding="utf-8"?>
<!-- Generator: Adobe Illustrator 19.2.1, SVG Export Plug-In . SVG Version: 6.00 Build 0)  -->
<svg version="1.1" xmlns="http://www.w3.org/2000/svg" xmlns:xlink="http://www.w3.org/1999/xlink" x="0px" y="0px"
	 viewBox="0 0 16 16" enable-background="new 0 0 16 16" xml:space="preserve">
<g id="aw">
	<path fill="#34363D" d="M10,0H2.857C2.384,0,2,0.358,2,0.8v14.4C2,15.642,2.384,16,2.857,16h10.286C13.616,16,14,15.642,14,15.2V4
		L10,0z M11,10.499C11,13.159,8,14,8,14s-3-0.841-3-3.501V7.322h0.098c0.199,0.438,0.74,0.76,1.402,0.76
		c0.817,0,1.478-0.481,1.497-1.08c0,0,0.001-0.001,0.001-0.001C7.999,7,8.001,7,8.002,7.001c0,0,0.001,0.001,0.001,0.001
		C8.022,7.6,8.683,8.082,9.5,8.082c0.661,0,1.203-0.322,1.402-0.76H11V10.499z M9.512,5C9.229,5,9,4.771,9,4.488V1l4,4H9.512z"/>
</g>
<g id="guides">
</g>
</svg>
