<svg xmlns="http://www.w3.org/2000/svg" viewBox="0 0 16 16" enable-background="new 0 0 16 16"><path fill="#34363D" d="M10 7.566c0 .414.108.825.335 1.171.463.705 1.259 1.171 2.165 1.171.906 0 1.702-.466 2.165-1.17.227-.347.335-.758.335-1.172 0-.305-.063-.607-.185-.886l-1.991-4.55.66-.14c.269-.057.442-.324.385-.593s-.324-.442-.593-.385l-4.276.908v-.041c0-.483-.396-.879-.879-.879h-.242c-.483 0-.879.396-.879.879v.466l-4.484.953c-.269.057-.442.324-.385.593.057.269.324.442.593.385l.472-.1-2.011 4.596c-.122.28-.185.581-.185.886 0 .414.108.825.335 1.171.462.705 1.259 1.171 2.165 1.171.906 0 1.702-.466 2.165-1.17.227-.347.335-.758.335-1.172 0-.305-.063-.607-.185-.886l-2.063-4.714 2.806-.596c-.035.072-.058.15-.058.236v1.891c0 .286.222.515.5.544v7.867h-4.186c-.671 0-1.314.301-1.792.838-.067.074.029.162.177.162h13.602c.148 0 .244-.088.178-.162-.479-.537-1.122-.838-1.793-.838h-4.186v-7.868c.278-.029.5-.258.5-.544v-1.89c0-.286-.222-.515-.5-.544v-.212l3.11-.661-1.925 4.399c-.122.279-.185.581-.185.886zm-7.96 1.101l1.277-2.918c.07-.16.296-.16.366 0l1.277 2.918h-2.92zm10.277-5.011c.07-.16.296-.16.366 0l1.277 2.918h-2.92l1.277-2.918z"/></svg>