<svg xmlns="http://www.w3.org/2000/svg" viewBox="0 0 16 16" enable-background="new 0 0 16 16"><g fill="#34363D"><circle cx="7.998" cy="1.5" r="1.5"/><path d="M5.334 8h5.333l.292-2.188c.127-.96-.619-1.812-1.587-1.812h-.372l-.757 3.03c-.063.253-.422.253-.485 0l-.758-3.03h-.372c-.968 0-1.714.852-1.586 1.812l.292 2.188zM13.567 10h-11.134c-.239 0-.433-.194-.433-.433v-.134c0-.239.194-.433.433-.433h11.134c.239 0 .433.194.433.433v.134c0 .239-.194.433-.433.433zM9.591 16h-3.182c-.378 0-.699-.371-.753-.87l-.656-6.13h6l-.657 6.13c-.053.499-.374.87-.752.87z"/></g></svg>