<svg xmlns="http://www.w3.org/2000/svg" viewBox="0 0 16 16"><path fill="#34363D" d="M1.6 5.8l1.2 1.7v1.2l-1.2 1.7c-.1.1-.1.3 0 .5l.9 1.5c.1.1.3.2.4.2l2.1-.2c.3.2.6.4 1 .6l.8 1.9c.1.2.2.3.4.3h1.7c.2 0 .3-.1.4-.3l.8-1.9c.3-.2.7-.3 1-.6l2.1.2c.2 0 .3-.1.4-.2l.9-1.5c.1-.1.1-.3 0-.5l-1.2-1.7V7.5l1.2-1.7c.1-.1.1-.3 0-.5l-.9-1.5c-.1-.1-.3-.2-.4-.2l-2.1.2c-.3-.2-.6-.4-1-.6l-.8-1.9c-.1-.1-.3-.2-.4-.2H7.1c-.1 0-.3.1-.4.2l-.8 1.9c-.3.2-.7.3-1 .6l-2-.2c-.2 0-.3.1-.4.2l-.9 1.5c-.1.1-.1.3 0 .5zM8 11c-1.7 0-3-1.3-3-3s1.3-3 3-3 3 1.3 3 3-1.3 3-3 3z"/></svg>