<svg xmlns="http://www.w3.org/2000/svg" viewBox="0 0 16 16" enable-background="new 0 0 16 16"><path d="M11.17 8.169c.195-.195.512-.195.707 0l.693.693 2.005-2.005c.567-.567.567-1.495 0-2.062l-3.371-3.371c-.567-.567-1.495-.567-2.062 0l-2.004 2.006.694.694c.195.195.195.512 0 .707-.099.097-.227.146-.354.146s-.256-.049-.354-.146l-.694-.694-5.005 5.005c-.567.567-.567 1.495 0 2.061l3.371 3.371c.567.567 1.495.567 2.062 0l5.005-5.005-.693-.693c-.195-.195-.195-.512 0-.707zm-3.467 3.353l-1.272-.016-.735 1.039c-.149.211-.475.159-.551-.087l-.378-1.215-1.215-.378c-.246-.077-.298-.402-.087-.551l1.039-.735-.016-1.273c-.004-.257.29-.407.497-.253l1.02.761 1.205-.409c.244-.082.477.151.394.395l-.409 1.205.761 1.02c.154.206.005.5-.253.497zm2.503-4.316c-.098.097-.226.146-.353.146s-.256-.049-.354-.146l-.704-.704c-.195-.195-.195-.512 0-.707s.512-.195.707 0l.704.704c.195.194.195.511 0 .707z" fill="#34363D"/></svg>