<svg xmlns="http://www.w3.org/2000/svg" viewBox="0 0 16 16" enable-background="new 0 0 16 16"><path d="M9.3 12.9c.2-.2.2-.6-.1-.7-.4-.2-.8-.4-1.2-.4-.4 0-.9.1-1.2.4-.2.2-.3.5-.1.7l.9 1c.2.2.5.2.7 0l1-1zm-1.3-3.6c1.1 0 2.1.4 2.9 1.1.2.2.5.1.7 0l1-1c.2-.2.2-.5 0-.7-1.2-1.1-2.8-1.8-4.6-1.8s-3.4.7-4.6 1.8c-.2.2-.2.5 0 .7l1 1c.2.2.5.2.7 0 .8-.6 1.8-1.1 2.9-1.1zm0-4.9c2.4 0 4.6 1 6.2 2.5.2.2.5.2.7 0l1-1c.2-.2.2-.5 0-.7-2.1-2-4.9-3.2-7.9-3.2s-5.8 1.2-7.9 3.2c-.1.2-.1.5 0 .7l1 1c.2.2.5.2.7 0 1.6-1.5 3.8-2.5 6.2-2.5z" fill="#34363D"/></svg>