<svg width="16" height="16" viewBox="0 0 16 16" xmlns="http://www.w3.org/2000/svg"><g fill="none"><rect fill="#fff" width="16" height="16" rx="2"/><path d="M1 1.994v12.012c0 .548.446.994.994.994h12.012c.548 0 .994-.446.994-.994v-12.012c0-.548-.446-.994-.994-.994h-12.012c-.548 0-.994.446-.994.994zm-1 0c0-1.101.895-1.994 1.994-1.994h12.012c1.101 0 1.994.895 1.994 1.994v12.012c0 1.101-.895 1.994-1.994 1.994h-12.012c-1.101 0-1.994-.895-1.994-1.994v-12.012z" fill="#C4C7CC"/><path d="M6.471 12c-.284 0-.498-.068-.711-.274l-2.56-2.123c-.213-.205-.284-.548-.071-.753l.782-.822c.142-.205.498-.205.782-.068l1.564 1.233c.071.068.213.068.356 0l4.551-5c.213-.205.569-.274.782-.068l.853.753c.213.205.284.548.071.753l-5.476 5.958c-.284.342-.569.411-.924.411h.001z" fill="#10ACC9"/></g></svg>