<svg xmlns="http://www.w3.org/2000/svg" viewBox="0 0 24 24"><path fill-rule="evenodd" d="M12 22c5.523 0 10-4.477 10-10S17.523 2 12 2 2 6.477 2 12s4.477 10 10 10zm0-2a8 8 0 1 0 0-16 8 8 0 0 0 0 16z" clip-rule="evenodd"/><path d="M11.19 6.142c-.128.052-.19.175-.19.303v1.152c0 .448.5.676 1 .676s1-.228 1-.676V6.455a.33.33 0 0 0-.203-.314A2.152 2.152 0 0 0 12 6c-.351 0-.631.07-.81.142zM7 9.525c0-.29.235-.525.525-.525h8.95a.525.525 0 0 1 .052 1.047l-2.35.235a1 1 0 0 0-.895.896l-.093.936a.971.971 0 0 0 .005.241l.72 5.047a.524.524 0 0 1-1.023.218l-.795-2.784c-.027-.096-.165-.096-.192 0l-.795 2.784a.524.524 0 0 1-1.024-.218l.721-5.047a.919.919 0 0 0 .005-.24l-.093-.937a1 1 0 0 0-.896-.896l-2.35-.235A.525.525 0 0 1 7 9.525z"/></svg>