<svg xmlns="http://www.w3.org/2000/svg" viewBox="0 0 24 24"><path fill-rule="evenodd" d="M9 4.568c0-.453.184-.886.572-1.069C10.107 3.25 10.946 3 12 3c1.053 0 1.858.247 2.392.498.4.188.608.635.608 1.102v5.022C15 11.2 13.5 12 12 12s-3-.8-3-2.378V4.568zm2 4.46c0 .537.448.972 1 .972s1-.435 1-.972V9h-2v.028z" clip-rule="evenodd"/><path d="M4.99 15.598C6.325 14.972 8.896 14 11.972 14c3.04 0 5.652.974 7.016 1.6.641.294 1.012.946 1.012 1.65v.977C20 19.783 18.833 21 17.227 21H7.045C5.44 21 4 19.783 4 18.227v-.995c0-.695.36-1.339.99-1.634z"/></svg>