<svg xmlns="http://www.w3.org/2000/svg" viewBox="0 0 24 24"><path d="M19.032 7.5H18.5A.5.5 0 0 1 18 7v-.985a1.886 1.886 0 0 0-.555-1.356A7.794 7.794 0 0 0 12 2.5a7.717 7.717 0 0 0-5.543 2.227A1.803 1.803 0 0 0 6 5.955V7a.5.5 0 0 1-.5.5h-.532A2.028 2.028 0 0 0 3 9.583V18.5a3.226 3.226 0 0 0 3 3h12a3.226 3.226 0 0 0 3-3V9.583A2.027 2.027 0 0 0 19.032 7.5zm-3.325 5.858L11.064 18.5l-2.701-2.329a1.154 1.154 0 0 1-.134-1.532.946.946 0 0 1 1.408-.146l1.299 1.068 3.357-3.743a.944.944 0 0 1 1.414 0 1.16 1.16 0 0 1 0 1.54zM16 7a.5.5 0 0 1-.5.5h-7A.5.5 0 0 1 8 7v-.583a.86.86 0 0 1 .306-.684A5.999 5.999 0 0 1 12 4.5a5.858 5.858 0 0 1 3.677 1.262.899.899 0 0 1 .323.71z"/></svg>