<svg xmlns="http://www.w3.org/2000/svg" viewBox="0 0 24 24"><path d="M6.09 14.835a.893.893 0 0 0 .397.578l2.7 1.715a1.596 1.596 0 0 1 .813 1.32v2.747a1.912 1.912 0 0 1-1.803 1.683l-1.27.115a1.667 1.667 0 0 1-1.519-.692A17.714 17.714 0 0 1 2 12 17.706 17.706 0 0 1 5.41 1.698a1.666 1.666 0 0 1 1.515-.691l1.272.113A1.914 1.914 0 0 1 10 2.805V5.55a1.6 1.6 0 0 1-.813 1.322l-2.7 1.714a.892.892 0 0 0-.397.577 14.248 14.248 0 0 0 0 5.67z"/><path d="M14.164 8.32a1.037 1.037 0 0 1-.05 1.413L12.817 11h8.233a1.001 1.001 0 0 1 0 2h-8.233l1.297 1.267a1.038 1.038 0 0 1 .05 1.414.918.918 0 0 1-1.295.097q-.025-.022-.048-.045L9 12l3.82-3.733a.918.918 0 0 1 1.298.003q.024.024.046.05z"/></svg>