<svg xmlns="http://www.w3.org/2000/svg" viewBox="0 0 24 24"><path d="M1.922 5A1.962 1.962 0 0 0-.001 7v6a4.275 4.275 0 0 0 2.39 3.775.48.48 0 0 0 .65-.425Q3.343 14 5.999 14q2.739 0 2.977 2.5a.54.54 0 0 0 .523.5h6a.54.54 0 0 0 .523-.5q.238-2.5 2.977-2.5 2.454 0 2.9 2.007a1.19 1.19 0 0 0 1.1.993h.268c.732 0 .764-1.5.723-2.515.039-.985-.491-2.985-1.491-3.485a7.242 7.242 0 0 0-2.865-.965 1.04 1.04 0 0 1-.68-.345l-2.566-2.944A3.773 3.773 0 0 0 13.014 5H11.46a.973.973 0 0 0-.888 1 .973.973 0 0 0 .888 1h1.56c1.11 0 1.622 0 2.072.603l.767 1.01a1.455 1.455 0 0 1-.51 2.387h-3.4a2 2 0 0 1-1.868-1.286L8.919 6.671A1.948 1.948 0 0 0 7.022 5z"/><path d="M7.999 17a2 2 0 1 1-2-2.001 2 2 0 0 1 2 2.001zm13 0a2 2 0 1 1-2-2.001 2 2 0 0 1 2 2.001z"/></svg>