<svg xmlns="http://www.w3.org/2000/svg" viewBox="0 0 24 24"><path d="M24 13.61v1c0 1 0 2.5-1 2.5h-.501c-.277 0-.496-.226-.534-.5-.23-1.648-1.6-2.5-2.97-2.5s-2.74.833-2.969 2.5c-.037.274-.257.39-.533.39H8.72c-.405 0-.723-.222-.807-.618-.32-1.498-1.624-2.272-2.929-2.272-1.358 0-2.717.819-2.963 2.457-.043.29-.29.54-.584.541h-.03c-.03.001-.06.002-.09-.002-.985.003-1.244-1.625-1.312-2.482-.027-.338.061-.67.225-.966l1.658-2.997C2.058 10.323 2.5 10 3 10h11c1 0 .88-.79.194-1.288-.563-.407-1.03-.71-1.596-.924-.881-.334-1.912-.504-3.061-.504-1 0-2.084.128-3.226.386-1.39.31-3.239.884-4.401 1.284-.286.098-.588-.069-.69-.377l-.003-.012c-.104-.318.044-.668.334-.781a31.454 31.454 0 0 1 4.52-1.406A15.161 15.161 0 0 1 9.492 6c1.34 0 2.537.179 3.499.543 1.37.521 3.327 2.241 4.05 2.904.184.168.42.266.668.287.843.072 2.924.347 4.79 1.376 1 .5 1.501 1.5 1.501 2.5z"/><path d="M6.986 17a2 2 0 0 1-2.002 2 2 2 0 1 1 0-4 2 2 0 0 1 2.002 2zm14.011 0a2 2 0 0 1-2.001 2 2 2 0 1 1 0-4 2 2 0 0 1 2.002 2z"/></svg>