<svg xmlns="http://www.w3.org/2000/svg" viewBox="0 0 24 24"><path d="M12 4a2.467 2.467 0 0 0-.96.182.433.433 0 0 0-.24.418v1.508c0 .592.6.892 1.2.892s1.2-.3 1.2-.892V4.6a.436.436 0 0 0-.243-.413A2.377 2.377 0 0 0 12 4zm3 5.302v3.921a1.493 1.493 0 0 1-.254.85c-.066.092-.14.184-.214.277a1.797 1.797 0 0 0-.477.88l-.408 3.875a1 1 0 0 1-.994.895h-1.235a1 1 0 0 1-.995-.895l-.408-3.875a1.785 1.785 0 0 0-.563-.943q-.08-.086-.157-.175A1.232 1.232 0 0 1 9 13.3V9.378a.92.92 0 0 1 .536-.856 6.28 6.28 0 0 1 2.5-.523 6.198 6.198 0 0 1 2.428.45.906.906 0 0 1 .536.852z"/></svg>