<svg xmlns="http://www.w3.org/2000/svg" viewBox="0 0 24 24"><path d="M12 7c-.415 0-.746.09-.96.182-.163.07-.24.24-.24.418v1.508c0 .592.6.892 1.2.892s1.2-.3 1.2-.892V7.6c0-.175-.083-.343-.243-.413A2.377 2.377 0 0 0 12 7zm3 5.302v3.921c0 .316-.092.619-.254.85-.066.092-.14.184-.214.277-.218.271-.442.549-.477.88l-.408 3.875a1 1 0 0 1-.994.895h-1.235a1 1 0 0 1-.995-.895l-.408-3.875c-.039-.367-.306-.661-.563-.943a9.193 9.193 0 0 1-.157-.175A1.232 1.232 0 0 1 9 16.3v-3.922a.92.92 0 0 1 .536-.856 6.28 6.28 0 0 1 2.5-.523c.879 0 1.672.136 2.428.45.338.14.536.485.536.852z"/></svg>