<svg xmlns="http://www.w3.org/2000/svg" viewBox="0 0 24 24"><path fill-rule="evenodd" d="M4 4a3 3 0 0 0-3 3v2.5c0 .276.227.494.495.562a2 2 0 0 1 0 3.876c-.268.068-.495.286-.495.562V17a3 3 0 0 0 3 3h16a3 3 0 0 0 3-3v-2.5c0-.276-.227-.494-.495-.562a2 2 0 0 1 0-3.876c.268-.068.495-.286.495-.562V7a3 3 0 0 0-3-3H4zm9.5 6l-1.173-2.771a.348.348 0 0 0-.654 0L10.5 10l-3.171.537c-.315.024-.445.434-.206.65L9.5 13.5l-.716 3.041c-.072.32.258.575.527.405L12 15.5l2.689 1.446c.27.17.6-.084.526-.405L14.5 13.5l2.378-2.313c.237-.216.107-.626-.206-.65L13.5 10z" clip-rule="evenodd"/></svg>