<svg xmlns="http://www.w3.org/2000/svg" viewBox="0 0 24 24"><path d="M12 10c4.97 0 9-1.79 9-4s-4.03-4-9-4-9 1.79-9 4 4.03 4 9 4zm-8.954 1.2a1 1 0 0 1 1.253-.654c.278.087.553.178.833.27C6.854 11.386 8.714 12 12 12c3.286 0 5.145-.614 6.868-1.184.28-.092.555-.183.833-.27a1 1 0 0 1 .598 1.908c-.258.081-.522.168-.794.259C17.752 13.293 15.619 14 12 14c-3.619 0-5.752-.707-7.505-1.287-.272-.09-.536-.178-.794-.259a1 1 0 0 1-.655-1.253zm0 4a1 1 0 0 1 1.253-.654c.278.087.553.178.833.27C6.854 15.386 8.714 16 12 16c3.286 0 5.145-.614 6.868-1.184.28-.092.555-.183.833-.27a1 1 0 0 1 .598 1.908c-.258.081-.522.168-.794.259C17.752 17.293 15.619 18 12 18c-3.619 0-5.752-.707-7.505-1.287-.272-.09-.536-.178-.794-.259a1 1 0 0 1-.655-1.253zm0 4a1 1 0 0 1 1.253-.654c.278.087.553.178.833.27C6.854 19.386 8.714 20 12 20c3.286 0 5.145-.614 6.868-1.184.28-.092.555-.183.833-.27a1 1 0 0 1 .598 1.908c-.258.081-.522.168-.794.259C17.752 21.293 15.619 22 12 22c-3.619 0-5.752-.707-7.505-1.287-.272-.09-.536-.178-.794-.259a1 1 0 0 1-.655-1.253z"/></svg>