<svg xmlns="http://www.w3.org/2000/svg" viewBox="0 0 24 24"><path d="M18 2h-7.94a2.885 2.885 0 0 0-1.992.786l-4.242 4.04A2.622 2.622 0 0 0 3 8.724v10.419A2.932 2.932 0 0 0 6 22h12a2.932 2.932 0 0 0 3-2.857V5a3.226 3.226 0 0 0-3-3zM5.77 7.042l2.344-2.315a.3.3 0 0 1 .51.213v2.316a.3.3 0 0 1-.3.3H5.98a.3.3 0 0 1-.21-.514zm1.395 8.404H6.021v2.468c0 .06-.024.086-.08.086H5.08c-.057 0-.081-.026-.081-.086v-5.828c0-.06.024-.086.081-.086h2.085a1.733 1.733 0 1 1 0 3.446zM11.67 18H9.942c-.056 0-.08-.026-.08-.086v-5.828c0-.06.024-.086.081-.086h1.727c1.451 0 2.675.969 2.675 3s-1.224 3-2.675 3zM19 12.909c0 .06-.024.085-.081.085h-2.66v1.483h2.4c.057 0 .082.026.082.086v.823c0 .06-.025.085-.081.085h-2.4v2.443c0 .06-.025.086-.082.086h-.86c-.056 0-.08-.026-.08-.086v-5.828c0-.06.024-.086.08-.086h3.6c.058 0 .082.026.082.086zm-10.951.814c0 .48-.349.728-.844.728H6.022v-1.457h1.183c.495 0 .844.249.844.729zM13.291 15c0 1.371-.697 2.006-1.67 2.006h-.738v-4.012h.738c.973 0 1.67.635 1.67 2.006z"/></svg>