<svg xmlns="http://www.w3.org/2000/svg" viewBox="0 0 24 24"><path d="M6.022 14.451v-1.457h1.183c.495 0 .844.249.844.729s-.349.728-.844.728H6.022zm4.861 2.555v-4.012h.738c.973 0 1.67.635 1.67 2.006 0 1.371-.697 2.006-1.67 2.006h-.738z"/><path fill-rule="evenodd" d="M8.068 2.786A2.885 2.885 0 0 1 10.06 2H18c1.5 0 3 1.5 3 3v14.143C21 20.72 19.656 22 18 22H6c-1.656 0-3-1.28-3-2.857V8.724c0-.711.297-1.394.826-1.898l4.242-4.04zM5.98 7.556a.3.3 0 0 1-.21-.514l2.344-2.315a.3.3 0 0 1 .51.213v2.316a.3.3 0 0 1-.3.3H5.98zM5.081 18h.86c.056 0 .08-.026.08-.086v-2.468h1.144c1.232 0 1.921-.677 1.921-1.723S8.397 12 7.165 12H5.08c-.057 0-.081.026-.081.086v5.828c0 .06.024.086.081.086zm4.862 0h1.727c1.451 0 2.675-.969 2.675-3s-1.224-3-2.675-3H9.943c-.057 0-.081.026-.081.086v5.828c0 .06.024.086.08.086zm6.235 0h-.859c-.057 0-.081-.026-.081-.086v-5.828c0-.06.024-.086.081-.086h3.6c.057 0 .081.026.081.086v.823c0 .06-.024.085-.081.085h-2.66v1.483h2.4c.057 0 .082.026.082.086v.823c0 .06-.025.085-.081.085h-2.4v2.443c0 .06-.025.086-.082.086z" clip-rule="evenodd"/></svg>