<svg xmlns="http://www.w3.org/2000/svg" viewBox="0 0 24 24"><path d="M15.833 3.543s3.507-.241 5.2-1.448c.362-.242.967 0 .967.482V9.7s-.12 8.328-4.837 10.5c-1.21.723-2.713.8-4.163.8-2.14 0-3.872-.495-5.29-1.867-1.675 1.053-3.411 1.952-5.278 2.78-.517.23-1.12-.01-1.346-.536a1.045 1.045 0 0 1 .528-1.368 39.483 39.483 0 0 0 4.752-2.477c3.04-1.95 5.876-4.428 8.847-7.744a1.026 1.026 0 0 0-.066-1.433.988.988 0 0 0-1.412.067c-2.323 2.592-4.539 4.633-6.829 6.296-1.172.851-2.839.614-3.367-.736a7.511 7.511 0 0 1-.525-2.714c0-4.225 3.507-7.725 7.74-7.725h5.079z"/></svg>