<svg xmlns="http://www.w3.org/2000/svg" viewBox="0 0 24 24"><path d="M8.5 2a7.798 7.798 0 0 0-5.276 1.892A.813.813 0 0 0 3 4.48v15.913A1.667 1.667 0 0 0 4.72 22h7.561A1.666 1.666 0 0 0 14 20.392V4.542a.896.896 0 0 0-.287-.675A7.867 7.867 0 0 0 8.5 2zm3.329 9.299l-3.455 6.048a.2.2 0 0 1-.374-.1V14a1 1 0 0 0-1-1H5.345a.2.2 0 0 1-.174-.299l3.455-6.048a.2.2 0 0 1 .374.1v3.246a1 1 0 0 0 1 1h1.655a.2.2 0 0 1 .174.3zM21 9.5v5.764a3 3 0 1 1-6 0V12a1 1 0 0 1 2 0v3.264a1 1 0 1 0 2 0V9.5l-2.8-2.1a1 1 0 1 1 1.2-1.6l2.8 2.1a2 2 0 0 1 .8 1.6z"/></svg>