<svg xmlns="http://www.w3.org/2000/svg" viewBox="0 0 24 24"><path fill-rule="evenodd" d="M6.341 4.095c.566-.178.986-.124 1.215.002.169.093.421.328.421 1.053 0 .547.447.99.997.99s.997-.443.997-.99c0-1.256-.495-2.26-1.447-2.785-.887-.49-1.948-.436-2.855-.136l-.044.015-.043.018c-1.371.6-2.563 1.47-3.385 2.933-.723 1.288-1.113 2.954-1.185 5.138L1 10.34l.003.341c-.002.136-.003.274-.003.413 0 .082.01.162.029.238C1.271 15.498 3.086 21 8.829 21c5.752 0 9.556-3.415 11.075-5.887.2-.268.391-.546.571-.83.818-1.29 1.47-2.772 1.905-4.198.431-1.415.67-2.838.611-4.002-.03-.58-.135-1.159-.379-1.653-.252-.512-.678-.971-1.322-1.16-1.017-.297-1.974.04-2.744.546-.768.505-1.475 1.253-2.093 2.043-.919 1.176-1.732 2.565-2.338 3.71L7.7 7.536a3 3 0 0 0-2.434.278L3.097 9.1c.148-1.296.447-2.236.841-2.939.55-.978 1.337-1.592 2.403-2.065zm9.696 6.102c-.1 3.029.491 4.314 1.324 4.802.496-.464.98-1.066 1.428-1.773.711-1.121 1.293-2.439 1.683-3.716.393-1.287.572-2.47.528-3.327-.022-.431-.097-.717-.177-.88a.422.422 0 0 0-.082-.123c-.009-.008-.011-.008-.014-.009-.235-.069-.574-.035-1.082.298-.508.334-1.059.891-1.617 1.606-.752.961-1.441 2.108-1.99 3.122z" clip-rule="evenodd"/></svg>