<svg xmlns="http://www.w3.org/2000/svg" viewBox="0 0 24 24"><path d="M4 6a2 2 0 0 1 2-2h2a1 1 0 0 0 0-2H6a4 4 0 0 0-4 4v2a1 1 0 0 0 2 0zm12-4a1 1 0 0 0 0 2h2a2 2 0 0 1 2 2v2a1 1 0 0 0 2 0V6a4 4 0 0 0-4-4zM4 16a1 1 0 0 0-2 0v2a4 4 0 0 0 4 4h2a1 1 0 0 0 0-2H6a2 2 0 0 1-2-2zm18 0a1 1 0 0 0-2 0v2a2 2 0 0 1-2 2h-2a1 1 0 0 0 0 2h2a4 4 0 0 0 4-4zM7 8a1 1 0 0 1 2 0v2a1 1 0 0 1-2 0zm8 0a1 1 0 0 1 2 0v2a1 1 0 0 1-2 0zm.555 8.866a1.07 1.07 0 0 0 .326-1.366.838.838 0 0 0-1.214-.366 4.521 4.521 0 0 1-5.294.027.833.833 0 0 0-1.23.294 1.077 1.077 0 0 0 .262 1.383 6.13 6.13 0 0 0 7.15.028zM12 8.5a1 1 0 0 1 1 1v2.172a3 3 0 0 1-.879 2.12l-.414.415a1 1 0 0 1-1.414-1.414l.414-.414a1 1 0 0 0 .293-.707V9.5a1 1 0 0 1 1-1z"/></svg>