<svg xmlns="http://www.w3.org/2000/svg" viewBox="0 0 24 24"><path d="M22.612 4.93a2.148 2.148 0 0 0-1.322-1.16 3.277 3.277 0 0 0-2.744.546 9.288 9.288 0 0 0-2.093 2.043 25.839 25.839 0 0 0-2.338 3.71L7.7 8.036a3 3 0 0 0-2.434.278L3.097 9.6a7.754 7.754 0 0 1 .841-2.939 4.786 4.786 0 0 1 2.403-2.065v-.001a1.608 1.608 0 0 1 1.215.002c.169.093.421.328.421 1.053a.997.997 0 0 0 1.994 0 2.994 2.994 0 0 0-1.447-2.785 3.595 3.595 0 0 0-2.855-.136l-.044.015-.043.018a6.795 6.795 0 0 0-3.385 2.933 11.13 11.13 0 0 0-1.185 5.138L1 10.84l.003.34c-.002.137-.003.275-.003.414a.983.983 0 0 0 .029.238c.242 4.166 2.057 9.668 7.8 9.668a13.095 13.095 0 0 0 11.075-5.887c.2-.268.391-.546.571-.83a17.567 17.567 0 0 0 1.905-4.198 12.277 12.277 0 0 0 .611-4.002 4.25 4.25 0 0 0-.379-1.653zm-2.14 5.08a15.613 15.613 0 0 1-1.683 3.716 9.114 9.114 0 0 1-1.428 1.773c-.833-.488-1.424-1.773-1.324-4.802h.001a22.907 22.907 0 0 1 1.99-3.122 7.336 7.336 0 0 1 1.617-1.606 1.317 1.317 0 0 1 1.082-.298c.003.001.005.001.014.009a.423.423 0 0 1 .082.123 2.361 2.361 0 0 1 .177.88 10.33 10.33 0 0 1-.528 3.327z"/></svg>