<svg xmlns="http://www.w3.org/2000/svg" viewBox="0 0 24 24"><path d="M19.5 18.517v-.056a1.826 1.826 0 0 0-.793-1.505.913.913 0 0 1-.059-1.462l1.85-1.502a3.05 3.05 0 0 0 1.002-2.415 2.35 2.35 0 0 0-.908-1.84L16.497 7a9.84 9.84 0 0 0-4.882-2H3.5a1 1 0 0 0-1 1v2a1 1 0 0 0 1 1h8.997a2.27 2.27 0 0 1 1.693 1.063c.302.463-.14.937-.693.937H3.5a1 1 0 0 0-1 1v3a1 1 0 0 0 1 1h6.998a2.141 2.141 0 0 1 2 1.989v.51a.5.5 0 0 0 .499.501h6.02a.483.483 0 0 0 .483-.483z"/><path d="M3.5 17a1 1 0 0 0 0 2h7a1 1 0 0 0 0-2z"/></svg>