<svg xmlns="http://www.w3.org/2000/svg" viewBox="0 0 24 24"><path d="M19 18.517v-.056c0-.601-.297-1.165-.793-1.505a.913.913 0 0 1-.059-1.462l1.85-1.502C20.699 13.547 21 12.38 21 11.577a2.35 2.35 0 0 0-.908-1.84L15.997 7c-1.133-.897-3.405-2-4.882-2H3a1 1 0 0 0-1 1v2a1 1 0 0 0 1 1h8.997c.591 0 1.298.458 1.693 1.063.302.463-.14.937-.693.937H3a1 1 0 0 0-1 1v3a1 1 0 0 0 1 1h6.998c1 0 2 .99 2 1.989v.51a.5.5 0 0 0 .5.501h6.019a.483.483 0 0 0 .483-.483z"/><path d="M3 17a1 1 0 1 0 0 2h7a1 1 0 1 0 0-2H3z"/></svg>