<svg xmlns="http://www.w3.org/2000/svg" viewBox="0 0 24 24"><path fill-rule="evenodd" d="M12 22c5.523 0 10-4.477 10-10S17.523 2 12 2 2 6.477 2 12s4.477 10 10 10zM11 8.5a1.5 1.5 0 0 1-.684 1.259c-.177.115-.316.297-.316.51V11.5a.5.5 0 0 0 .5.5h4a.5.5 0 0 0 .5-.5v-1.232c0-.212-.139-.394-.316-.51A1.499 1.499 0 0 1 15.5 7a1.5 1.5 0 0 1 .816 2.759c-.177.115-.316.297-.316.51V12a1 1 0 0 1-1 1h-4.5a.5.5 0 0 0-.5.5v.232c0 .212.139.394.316.51A1.499 1.499 0 0 1 9.5 17a1.5 1.5 0 0 1-.816-2.759c.177-.115.316-.297.316-.51v-3.463c0-.212-.139-.394-.316-.51A1.499 1.499 0 0 1 9.5 7 1.5 1.5 0 0 1 11 8.5z" clip-rule="evenodd"/></svg>