<svg xmlns="http://www.w3.org/2000/svg" viewBox="0 0 24 24"><path d="M9.863 8a.49.49 0 0 1-.488-.572 17.01 17.01 0 0 1 .736-2.864c.34-.932.719-1.616 1.09-2.048C11.575 2.081 11.85 2 12 2c.151 0 .425.081.799.516.371.432.75 1.116 1.09 2.048.297.817.548 1.785.736 2.864a.49.49 0 0 1-.488.572H9.863zm-2.537-.432a.507.507 0 0 1-.5.432h-3.23c-.36 0-.6-.37-.431-.688A10.043 10.043 0 0 1 7.679 2.98c.405-.194.803.245.641.665-.03.078-.06.157-.088.236-.387 1.064-.695 2.314-.906 3.688zm8.995-4.588c-.405-.195-.803.244-.641.664.03.078.06.157.088.236.387 1.064.695 2.314.906 3.688a.507.507 0 0 0 .5.432h3.23c.36 0 .6-.37.431-.688a10.043 10.043 0 0 0-4.514-4.333zm-1.361 7.486a.493.493 0 0 0-.495-.466h-4.93a.493.493 0 0 0-.495.466 29.267 29.267 0 0 0 0 3.068.493.493 0 0 0 .495.466h4.93a.493.493 0 0 0 .495-.466 29.321 29.321 0 0 0 0-3.068zM17.47 14a.507.507 0 0 1-.504-.533 31.317 31.317 0 0 0 0-2.934.507.507 0 0 1 .503-.533h3.922c.238 0 .444.167.482.402a10.067 10.067 0 0 1 0 3.196.483.483 0 0 1-.482.402H17.47zm-2.845 2.572a.49.49 0 0 0-.488-.572H9.863a.49.49 0 0 0-.488.572c.188 1.08.44 2.047.736 2.864.34.932.719 1.616 1.09 2.048.374.435.648.516.799.516.151 0 .425-.081.799-.516.371-.432.75-1.116 1.09-2.048.297-.817.548-1.785.736-2.864zm1.696 4.448c-.405.195-.803-.244-.641-.664.03-.078.06-.157.088-.236.387-1.064.695-2.314.906-3.688a.507.507 0 0 1 .5-.432h3.23c.36 0 .6.37.431.688a10.043 10.043 0 0 1-4.514 4.333zm-8.642 0c.405.195.803-.244.641-.664a9.512 9.512 0 0 1-.088-.236c-.387-1.064-.695-2.314-.906-3.688a.507.507 0 0 0-.5-.432h-3.23c-.36 0-.6.37-.431.688a10.043 10.043 0 0 0 4.514 4.333zm-.645-7.553A.507.507 0 0 1 6.53 14H2.61a.483.483 0 0 1-.482-.402 10.072 10.072 0 0 1 0-3.196A.483.483 0 0 1 2.61 10h3.92c.29 0 .518.244.504.533a31.345 31.345 0 0 0 0 2.934z"/></svg>