<svg xmlns="http://www.w3.org/2000/svg" viewBox="0 0 24 24"><path fill-rule="evenodd" d="M4.972 16.405a.525.525 0 0 1 .1.799l-1.987 2.05a1.046 1.046 0 0 0 0 1.447.97.97 0 0 0 1.4 0l2.969-3.064c-.038-.022.02.008 0 0l1.92-1.98c.016.01-.018-.012 0 0l2.16-2.23c-.067-.017.023.005 0 0l2.332-2.407c.006.023-.004-.024 0 0l2.162-2.23c-.033-.053.01.017 0 0l2.448-2.527c.018.01-.018-.01 0 0l2.44-2.518c.386-.4.386-1.046 0-1.446a.969.969 0 0 0-1.401 0l-2.538 2.62a.977.977 0 0 1-.865.28.726.726 0 0 1-.267-.116C14.867 4.459 13.327 4 12 4 7.741 4 3.967 6.58 1.6 9.708a2.983 2.983 0 0 0 0 3.587 13.008 13.008 0 0 0 3.372 3.11zM7.68 13.68c.134.283.495.321.711.099l1.55-1.6a.593.593 0 0 0 .146-.475 2.056 2.056 0 0 1-.01-.204c0-1.095.861-1.985 1.923-1.985.067 0 .133.004.198.01a.552.552 0 0 0 .46-.15l1.55-1.6c.216-.222.178-.595-.096-.733A4.666 4.666 0 0 0 12 6.538c-2.656 0-4.808 2.223-4.808 4.963 0 .781.175 1.521.488 2.18z" clip-rule="evenodd"/><path d="M12 19c-.135 0-.269-.002-.403-.006-.781-.024-1.088-1.532-.536-2.102l.28-.29a.5.5 0 0 1 .39-.148c.089.005.179.008.269.008 2.655 0 4.808-2.223 4.808-4.961v-.05a1.12 1.12 0 0 1 .297-.797L19.61 8.07c.344-.355.893-.392 1.256-.057a13.06 13.06 0 0 1 1.536 1.695 2.983 2.983 0 0 1 0 3.587C20.032 16.42 16.258 19 12 19z"/></svg>