<svg xmlns="http://www.w3.org/2000/svg" viewBox="0 0 24 24"><path fill-rule="evenodd" d="M10.89 4.393C10.89 3.072 9.893 2 8.666 2c-1.23 0-2.222 1.072-2.222 2.393v1.153c.029 1.3 1.015 2.336 2.222 2.336s2.194-1.037 2.222-2.336V4.393zm-6.668 3.49c1.228 0 2.222 1.06 2.222 2.37v1.141c0 1.31-.994 2.37-2.222 2.37-1.227 0-2.222-1.06-2.222-2.37v-1.141c0-1.31.995-2.37 2.222-2.37zm9.89 4.527l3.843 4.558c.746.885.934 2.156.48 3.244C17.983 21.3 16.972 22 15.856 22l-1.322-.344a10 10 0 0 0-5.038 0L8.172 22c-1.116 0-2.127-.7-2.581-1.788-.454-1.088-.265-2.36.482-3.245l3.842-4.557a2.747 2.747 0 0 1 2.099-.998c.8 0 1.563.363 2.099.998zM15.335 2c1.227 0 2.22 1.051 2.22 2.348v1.13c.02.853-.4 1.649-1.095 2.08a2.12 2.12 0 0 1-2.252 0c-.696-.431-1.115-1.228-1.096-2.08v-1.13c0-1.297.995-2.348 2.223-2.348zM22 10.253c0-1.31-.995-2.37-2.222-2.37-1.228 0-2.222 1.06-2.222 2.37v1.141c0 1.31.994 2.37 2.222 2.37 1.227 0 2.222-1.06 2.222-2.37v-1.141z" clip-rule="evenodd"/></svg>