<svg xmlns="http://www.w3.org/2000/svg" viewBox="0 0 24 24"><path d="M11.786 11.934c-.862-.903-1.423-1.961-1.659-2.934h3.747c-.234.978-.787 2.043-1.614 2.952a7.43 7.43 0 0 1-.222.234 7.121 7.121 0 0 1-.252-.252z"/><path fill-rule="evenodd" d="M2.76 3.93A1.14 1.14 0 0 0 2 5.013V15.61c0 1.892 1.493 3.425 3.336 3.425h2.491a2 2 0 0 1 1.433.605l2.03 2.085a1 1 0 0 0 1.433 0l2.03-2.085a2 2 0 0 1 1.433-.605h2.491c1.843 0 3.336-1.533 3.336-3.425V5.013a1.14 1.14 0 0 0-.76-1.083l-2.215-.758a21.686 21.686 0 0 0-14.063 0L2.76 3.93zM13 6a1 1 0 1 0-2 0v1H8a1 1 0 0 0 0 2h.086c.255 1.513 1.064 3.07 2.253 4.316l.075.077A5.224 5.224 0 0 1 8 14a1 1 0 1 0 0 2c1.53 0 2.913-.498 4.076-1.269A8.302 8.302 0 0 0 16.5 16a1 1 0 1 0 0-2 6.293 6.293 0 0 1-2.805-.653l.045-.05c1.127-1.24 1.922-2.789 2.174-4.297H16a1 1 0 1 0 0-2h-3V6z" clip-rule="evenodd"/></svg>