<svg xmlns="http://www.w3.org/2000/svg" viewBox="0 0 24 24"><path d="M12.372 1.51a1 1 0 0 0-1.744.98l.71 1.262a1 1 0 0 1-.207 1.238l-.42.373a3 3 0 0 0-.407 4.043L11.2 10.6a1 1 0 0 0 1.6-1.2l-.896-1.194a1 1 0 0 1 .136-1.348l.42-.373a3 3 0 0 0 .621-3.713l-.71-1.262zM5.894 3.553a1 1 0 1 0-1.788.894l.425.852c.15.3.092.664-.146.902a2.781 2.781 0 0 0-.258 3.635l.573.764a1 1 0 0 0 1.6-1.2l-.573-.764a.781.781 0 0 1 .072-1.021 2.781 2.781 0 0 0 .521-3.21l-.426-.852zm-2.136 9.879c-.363-.07-.758.18-.758.55V18a4 4 0 0 0 4 4h10a4 4 0 0 0 4-4v-4.018c0-.37-.395-.62-.758-.55a3.891 3.891 0 0 1-.742.068c-.66 0-1.18-.142-1.605-.373a3.457 3.457 0 0 1-.959-.798c-.08-.091-.159-.187-.23-.273v-.001l-.085-.101a3.122 3.122 0 0 0-.252-.276c-.144-.135-.246-.178-.369-.178-.186 0-.328.062-.496.2-.09.073-.182.164-.29.278l-.098.103c-.081.086-.171.181-.262.273-.271.27-.61.564-1.077.785-.47.223-1.045.361-1.777.361s-1.306-.138-1.777-.36a3.81 3.81 0 0 1-1.077-.786c-.09-.091-.18-.187-.261-.272l-.098-.104a3.366 3.366 0 0 0-.291-.278c-.168-.138-.31-.2-.496-.2-.123 0-.225.043-.37.178a3.13 3.13 0 0 0-.251.275l-.086.103c-.07.086-.15.182-.23.273-.236.27-.537.57-.958.798-.425.23-.946.373-1.605.373a3.89 3.89 0 0 1-.742-.068zM17.553 3.106a1 1 0 0 1 1.341.447l.426.852a2.781 2.781 0 0 1-.52 3.21.781.781 0 0 0-.073 1.02l.573.765a1 1 0 0 1-1.6 1.2l-.573-.764a2.781 2.781 0 0 1 .258-3.635.781.781 0 0 0 .146-.902l-.425-.852a1 1 0 0 1 .447-1.341z"/></svg>