<svg xmlns="http://www.w3.org/2000/svg" viewBox="0 0 24 24"><path d="M12 2a10 10 0 1 0 10 10v-.04A9.98 9.98 0 0 0 12 2zm.927 13.667v.569a.764.764 0 0 1-1.527 0v-.348a5.03 5.03 0 0 1-1.702-.55.748.748 0 0 1-.205-1.118 1.015 1.015 0 0 1 1.211-.269 3.744 3.744 0 0 0 1.132.271q.982 0 .983-.666c0-.356-.56-.604-1.23-.904-1.005-.448-2.262-1.008-2.262-2.208A2.182 2.182 0 0 1 11.4 8.222v-.513a.764.764 0 0 1 1.527.055v.458a3.335 3.335 0 0 1 1.39.46.705.705 0 0 1 .042 1.134 1.148 1.148 0 0 1-1.207.122 2.267 2.267 0 0 0-.77-.16c-.546 0-.873.111-.873.555 0 .35.541.562 1.196.82 1.011.396 2.295.9 2.295 2.18a2.345 2.345 0 0 1-2.073 2.334z"/></svg>