<svg xmlns="http://www.w3.org/2000/svg" viewBox="0 0 24 24"><path fill-rule="evenodd" d="M2 12C2 6.477 6.477 2 12 2a9.98 9.98 0 0 1 10 10c0 5.523-4.477 10-10 10S2 17.523 2 12zm10.927 3.667C14.345 15.333 15 14.444 15 13.333c0-1.28-1.284-1.784-2.295-2.18-.655-.258-1.196-.47-1.196-.82 0-.444.327-.555.873-.555.266.008.526.063.77.16.403.162.889.172 1.207-.122.351-.326.368-.888-.042-1.134a3.335 3.335 0 0 0-1.39-.46v-.458a.764.764 0 1 0-1.527 0v.458c-1.31.222-2.073 1-2.073 2.222 0 1.2 1.257 1.76 2.262 2.208.67.3 1.23.548 1.23.904 0 .444-.328.666-.983.666a3.745 3.745 0 0 1-1.132-.271c-.424-.175-.94-.1-1.211.269-.274.371-.202.9.205 1.118.53.283 1.105.47 1.702.55v.348a.764.764 0 0 0 1.527 0v-.57z" clip-rule="evenodd"/></svg>