<svg xmlns="http://www.w3.org/2000/svg" viewBox="0 0 24 24"><path d="M18 2h-7.94a2.885 2.885 0 0 0-1.992.786l-4.242 4.04A2.622 2.622 0 0 0 3 8.724v10.419A2.932 2.932 0 0 0 6 22h12a2.932 2.932 0 0 0 3-2.857V5a3.226 3.226 0 0 0-3-3zM8.624 7.256a.3.3 0 0 1-.3.3H5.98a.3.3 0 0 1-.21-.514l2.344-2.315a.3.3 0 0 1 .51.213zM17 13.412c0 2.634-2.47 4.579-3.528 5.291a.839.839 0 0 1-.944 0C11.47 17.991 9 16.046 9 13.412V9.898a.574.574 0 0 1 .372-.538 10.33 10.33 0 0 1 7.256 0 .574.574 0 0 1 .372.538z"/></svg>