<svg xmlns="http://www.w3.org/2000/svg" viewBox="0 0 24 24"><path d="M3.382 1.312A.695.695 0 0 0 3 1.98v2.534C3 5.5 4 6 5 6s2-.5 2-1.486V2a.73.73 0 0 0-.405-.69A3.96 3.96 0 0 0 5 1a4.077 4.077 0 0 0-1.618.312zm5.204 7.274c.228-.228.44-.545.258-.81a.76.76 0 0 0-.391-.298A12.594 12.594 0 0 0 5.036 7a12.666 12.666 0 0 0-3.488.55.853.853 0 0 0-.548.83v5.92c0 .402.62.749 1.191.964a1.195 1.195 0 0 1 .805.989l.45 5.823a1 1 0 0 0 .997.923h1.184a1 1 0 0 0 .997-.923L7.1 16.43a1 1 0 0 0-.29-.79l-1.225-1.226a2 2 0 0 1 0-2.828l3-3zm9.828 5.828L17.24 15.59a1 1 0 0 0-.29.793l.496 5.695a1 1 0 0 0 .997.923h1.184a1 1 0 0 0 .997-.923l.45-5.823a1.267 1.267 0 0 1 .797-1.014C22.418 15 23 14.623 23 14.223V8.3a.84.84 0 0 0-.548-.823A12.59 12.59 0 0 0 19.035 7a12.671 12.671 0 0 0-3.488.55.768.768 0 0 0-.35.248c-.198.244-.005.565.217.788l3 3a2 2 0 0 1 0 2.828zM17 1.98a.697.697 0 0 1 .382-.668A4.083 4.083 0 0 1 19 1a3.974 3.974 0 0 1 1.595.31A.728.728 0 0 1 21 2v2.514C21 5.5 20 6 19 6s-2-.5-2-1.486z"/><path d="M10.707 16.707a1 1 0 0 1-1.414 0l-3-3a1 1 0 0 1 0-1.414l3-3a1 1 0 0 1 1.414 1.414L9.414 12h5.172l-1.293-1.293a1 1 0 0 1 1.414-1.414l3 3a1 1 0 0 1 0 1.414l-3 3a1 1 0 0 1-1.414-1.414L14.586 14H9.414l1.293 1.293a1 1 0 0 1 0 1.414z"/></svg>