<svg xmlns="http://www.w3.org/2000/svg" viewBox="0 0 24 24"><path d="M13.6 2.354c.93-.797 2.4-.16 2.4 1.038v17.216c0 1.199-1.47 1.835-2.4 1.038L8.416 17.21a.884.884 0 0 0-.575-.21H3.596C2.162 17 1 15.88 1 14.5v-5C1 8.12 2.162 7 3.596 7h4.246a.885.885 0 0 0 .575-.21l5.182-4.437zm7.44 3.7a.75.75 0 0 0-1.205.892A8.458 8.458 0 0 1 21.5 12a8.458 8.458 0 0 1-1.665 5.054.75.75 0 0 0 1.206.892A9.958 9.958 0 0 0 23 12a9.958 9.958 0 0 0-1.96-5.946z"/><path d="M19.16 8.672a.75.75 0 0 0-1.32.714c.421.777.66 1.666.66 2.614s-.239 1.837-.66 2.614a.75.75 0 1 0 1.32.714c.536-.99.84-2.125.84-3.328a6.973 6.973 0 0 0-.84-3.328z"/></svg>