<svg xmlns="http://www.w3.org/2000/svg" viewBox="0 0 24 24"><path fill-rule="evenodd" d="M8.12 8.218a1 1 0 0 0 .755-.563l2.453-5.217A.737.737 0 0 1 12 2c.267 0 .535.146.672.438l2.454 5.217a1 1 0 0 0 .755.563l5.476.83c.615.092.86.884.416 1.338l-3.989 4.07a1 1 0 0 0-.272.862l.943 5.763c.105.641-.538 1.13-1.087.827l-4.885-2.695a1 1 0 0 0-.966 0l-4.885 2.695c-.55.303-1.193-.186-1.087-.828l.948-5.761a1 1 0 0 0-.273-.863l-3.993-4.07c-.445-.454-.2-1.246.416-1.339l5.476-.829zm3.88 8.87a3 3 0 0 1 1.45.374l2.623 1.447-.535-3.268a3 3 0 0 1 .818-2.584l2.341-2.39-3.115-.471a3 3 0 0 1-2.266-1.69L12 5.71v11.38z" clip-rule="evenodd"/></svg>