<svg xmlns="http://www.w3.org/2000/svg" viewBox="0 0 24 24"><path d="M15 1.98c0-.283.123-.554.382-.668A4.083 4.083 0 0 1 17 1c.702 0 1.239.155 1.595.311.267.118.405.397.405.689v2.514C19 5.5 18 6 17 6s-2-.5-2-1.486V1.98zm6 12.243V8.301c0-.366-.2-.708-.548-.823C19.443 7.144 17.94 7 17.035 7c-.907 0-2.463.198-3.488.55-.347.12-.547.462-.547.829V14.3c0 .402.62.749 1.191.964.428.16.77.533.805.989l.45 5.823a1 1 0 0 0 .997.923h1.184a1 1 0 0 0 .997-.923l.45-5.823c.036-.456.378-.832.797-1.014C20.418 15 21 14.623 21 14.223zM11 8.301v4.922c0 .4-.582.778-1.13 1.017-.046.02-.09.042-.135.067l1.13 6.085a.5.5 0 0 1-.488.608h-1.67l-.083 1.077a1 1 0 0 1-.997.923H6.443a1 1 0 0 1-.997-.923L5.363 21h-1.74a.5.5 0 0 1-.488-.608l1.133-6.096a1.377 1.377 0 0 0-.077-.031C3.621 14.05 3 13.703 3 13.3V8.379c0-.367.2-.71.547-.828C4.573 7.198 6.128 7 7.035 7c.905 0 2.408.144 3.417.478.348.115.548.457.548.823zM5.198 2.163C5.703.665 7.18.833 7.721 1.45c.54-.17 1.009-.064 1.261.811.116.403.083.684.044 1.005-.021.176-.044.365-.044.593 0 .625.11 1.197.413 1.46.11.096.156.275.026.34-.46.232-1.212.341-1.79.341H6.369c-.578 0-1.33-.11-1.79-.34-.13-.066-.084-.245.026-.34.303-.264.413-.836.413-1.461 0-.643.027-1.24.18-1.696z"/></svg>