<svg xmlns="http://www.w3.org/2000/svg" viewBox="0 0 24 24"><path d="M14.049 6.023c.278.023.463-.295.262-.489A5.502 5.502 0 0 0 5.18 8.1c-.132.501-.56.887-1.064 1.003C2.338 9.513 1 11.103 1 13c0 1.319.638 2.488 1.622 3.217.162.12.378-.016.378-.217a5.002 5.002 0 0 1 3.829-4.862.562.562 0 0 0 .41-.393 6.503 6.503 0 0 1 6.81-4.722z"/><path d="M18.5 20a4.5 4.5 0 0 0 .996-8.89 1.337 1.337 0 0 1-.935-.768A5.501 5.501 0 0 0 8.18 11.1c-.132.501-.56.887-1.064 1.003C5.338 12.513 4 14.103 4 16a4 4 0 0 0 4 4h.45c.3 0 .523-.272.622-.554.02-.056.043-.111.072-.165l3.517-6.634c.29-.548.886-.74 1.385-.605.493.133.899.584.899 1.182v2.495c0 .11.09.2.2.2h1.641c.99 0 1.468 1.05 1.07 1.8l-.82 1.547a.5.5 0 0 0 .442.734H18.5z"/><path fill-rule="evenodd" d="M13.455 23.885c-.107.201-.4.122-.4-.109v-3.471a.219.219 0 0 0-.213-.224h-2.628c-.163 0-.266-.182-.187-.331l3.518-6.635c.107-.201.4-.122.4.109v3.471c0 .124.096.224.213.224h2.628c.163 0 .266.182.187.331l-3.518 6.635z" clip-rule="evenodd"/></svg>