<svg xmlns="http://www.w3.org/2000/svg" viewBox="0 0 24 24"><path fill-rule="evenodd" d="M1.246 8.85c-.356-.377-.325-.962.089-1.278C4.301 5.305 8.005 4 12 4c3.995 0 7.699 1.305 10.665 3.572.414.316.445.901.09 1.278L21.74 9.92c-.346.366-.93.398-1.34.101A14.356 14.356 0 0 0 12 7.29c-3.188 0-6.098.981-8.395 2.703-.413.31-1.01.284-1.363-.089L1.246 8.85zm4.805 3.37c-.487.294-.525.944-.113 1.33l.928.873c.331.312.845.343 1.245.118A7.956 7.956 0 0 1 12 13.5a7.95 7.95 0 0 1 3.889 1.04c.4.225.914.194 1.245-.118l.928-.872c.412-.387.374-1.037-.113-1.332A11.527 11.527 0 0 0 12 10.578c-2.214 0-4.266.625-5.949 1.641zm4.395 5.297c-.448.229-.458.8-.117 1.16l.968 1.024a.976.976 0 0 0 1.406 0l.968-1.024c.34-.36.331-.931-.117-1.16A3.403 3.403 0 0 0 12 17.156c-.572 0-1.1.13-1.554.361z" clip-rule="evenodd"/></svg>