<svg xmlns="http://www.w3.org/2000/svg" viewBox="0 0 24 24"><path d="M10.53 6.61c-.477.148-.946.324-1.404.527l-.271-.315a.168.168 0 0 1-.056-.12.173.173 0 0 1 .067-.098c.101-.092.219-.3.343-.52.185-.326.383-.677.56-.703.273-.04.498.577.636.952.06.166.103.284.125.277z"/><path fill-rule="evenodd" d="M2.762 8.173a10 10 0 1 1 18.477 7.654A10 10 0 0 1 2.762 8.173zm12.162 2.824c.212-.038.423-.076.63-.11.394-.31.062-1.002-.417-1.153a4.407 4.407 0 0 0-1.496.032c-.501.02-1.108-.208-1.173-.706a1.615 1.615 0 0 1-.01-.155c-.005-.15-.01-.3-.124-.385a.423.423 0 0 0-.391-.001 10.48 10.48 0 0 0-1.473.871 1.696 1.696 0 0 1-1.63.166l.053-.968c.142-.18.405-.21.656-.24.29-.033.566-.065.62-.324a1.664 1.664 0 0 0-.021-.36c-.005-.39.38-.592.763-.793.384-.201.768-.403.766-.792a1.962 1.962 0 0 0-.189-.583 1.521 1.521 0 0 1 .497-1.495 8 8 0 0 0 .016 16c.056 0 .112-.005.168-.009l.117-.006a11.206 11.206 0 0 1-.157-1.75c0-.23-.138-.251-.293-.275-.146-.023-.306-.048-.377-.253a8.014 8.014 0 0 1-.05-.15c-.111-.34-.185-.566-.575-.6a.99.99 0 0 1-.454-.132c-.121-.067-.196-.109-.52.017a1.99 1.99 0 0 1-2.16-.706 4.283 4.283 0 0 1-.805-2.258c.006-.261.086-.516.23-.733.07-.14.286-.264.482-.377.114-.065.22-.127.29-.186l.13-.11c.493-.418.854-.723.973-1.39L11 11c1.198.49 2.608.235 3.924-.003zm1.08 1.731a.407.407 0 0 1-.022-.267.43.43 0 0 1 .267-.207l1.264-.513c.19.76.477 1.492.852 2.18.052.12.138.222.246.295a.72.72 0 0 0 .48.016l.618-.124c-.128.47-.3.928-.514 1.367a4.928 4.928 0 0 1-3.19-2.747z" clip-rule="evenodd"/></svg>