<svg width="375" height="667" viewBox="0 0 375 667" xmlns="http://www.w3.org/2000/svg" xmlns:xlink="http://www.w3.org/1999/xlink" style="background:#fff"><defs><path id="a" d="M0 240.883h251.951V0H0z"/></defs><g fill="none" fill-rule="evenodd"><g transform="translate(62 165)"><path d="M58.162 109.83c12.381-10.742 15.953 3.246 15.953 3.246s-6.796 16.46-7.952 18.766c-1.155 2.308 1.842 9.498 1.971 10.553.128 1.056-6.356 7.628-6.356 7.628s-6.98-2.793-7.767-3.983c-.787-1.189 1.525-2.434 2.555-3.253 1.031-.82-6.274-8.825-5.603-12.12.67-3.295 7.199-20.837 7.199-20.837z" fill="#A6A3AF"/><path d="M58.162 109.83s-6.529 17.542-7.199 20.837c-.671 3.295 6.634 11.3 5.603 12.12-1.03.82-3.342 2.064-2.555 3.253.787 1.19 7.767 3.983 7.767 3.983s6.484-6.572 6.356-7.628c-.129-1.055-3.126-8.245-1.971-10.553 1.156-2.307 7.952-18.766 7.952-18.766s-3.572-13.988-15.953-3.246z" stroke="#524A5F" stroke-width="2" stroke-linecap="round" stroke-linejoin="round"/><path d="M85.79 102.484s-2.89-53.97-2.476-55.263c.414-1.293 2.922-24.488 28.656-26.303 21.812-1.54 31.823 11.395 34.6 25.608.692 3.542 5.463 49.331 5.463 49.331s-29.051 21.77-66.243 6.627" fill="#E9E6ED"/><path d="M176.823 144.332l-2.265-31.957a21.789 21.789 0 0 0-7.775-15.191l-8.842-7.377s-8.717 15.067-41.094 17.36c-32.377 2.295-38.942-11.69-38.942-11.69l-9.547 11.004a21.79 21.79 0 0 0-5.278 15.82l1.528 21.563s-.085 48.363 58.32 44.224c58.405-4.138 53.895-43.756 53.895-43.756" fill="#E9E6ED"/><path d="M176.823 144.332l-2.265-31.957a21.789 21.789 0 0 0-7.775-15.191l-8.842-7.377s-8.717 15.067-41.094 17.36c-32.377 2.295-38.942-11.69-38.942-11.69l-9.547 11.004a21.79 21.79 0 0 0-5.278 15.82l1.528 21.563s-.085 48.363 58.32 44.224c58.405-4.138 53.895-43.756 53.895-43.756z" stroke="#524A5F" stroke-width="2" stroke-linecap="round" stroke-linejoin="round"/><path d="M77.905 95.478l-2.852-40.245c-1.54-21.726 14.826-40.587 36.552-42.127 21.726-1.54 40.587 14.826 42.127 36.552l2.217 31.3" stroke="#524A5F" stroke-width="2" stroke-linecap="round" stroke-linejoin="round"/><path d="M148.669 234.173c0 3.706-16.593 6.71-37.062 6.71-20.468 0-37.061-3.005-37.061-6.71 0-3.708 16.593-6.712 37.06-6.712 20.47 0 37.063 3.004 37.063 6.712" fill="#E6E4EB"/><path d="M99.446 131.72c-.155 5.82-3.892 10.443-8.348 10.324-4.456-.118-7.942-4.933-7.787-10.754.155-5.82 3.892-10.444 8.348-10.325 4.455.118 7.942 4.933 7.787 10.754" fill="#FFD445"/><path d="M99.446 131.72c-.155 5.82-3.892 10.443-8.348 10.324-4.456-.118-7.942-4.933-7.787-10.754.155-5.82 3.892-10.444 8.348-10.325 4.455.118 7.942 4.933 7.787 10.754z" stroke="#524A5F" stroke-width="2" stroke-linecap="round" stroke-linejoin="round"/><path d="M158.618 115.751S152 98.89 146.702 96.188c-5.297-2.7-19.902 4.753-20.434 3.07-.533-1.684-2.146-5.894-3.957-6.81-1.81-.919-6.152-.517-6.77 1.435-.618 1.952 2.056 14.005 5.24 16.134 3.186 2.13 16.547-.117 17.98 1.746 1.434 1.863 5.598 7.76 5.598 7.76s10.439 7.713 14.259-3.772" fill="#A6A3AF"/><path d="M158.618 115.751S152 98.89 146.702 96.188c-5.297-2.7-19.902 4.753-20.434 3.07-.533-1.684-2.146-5.894-3.957-6.81-1.81-.919-6.152-.517-6.77 1.435-.618 1.952 2.056 14.005 5.24 16.134 3.186 2.13 16.547-.117 17.98 1.746 1.434 1.863 5.598 7.76 5.598 7.76s10.439 7.713 14.259-3.772z" stroke="#524A5F" stroke-width="2" stroke-linecap="round" stroke-linejoin="round"/><path d="M101.07 73.612c-1.839-.341-3.59 1.009-3.658 2.877a20.41 20.41 0 0 0 .018 1.846c.336 6.1 3.3 10.899 6.62 10.715 3.321-.182 5.74-5.276 5.404-11.376a14.889 14.889 0 0 0-.013-.218c-.092-1.38-1.155-2.502-2.516-2.755l-5.856-1.09zM134.31 71.879c1.838-.342 3.589 1.008 3.657 2.876a20.41 20.41 0 0 1-.018 1.848c-.336 6.1-3.3 10.898-6.62 10.714-3.321-.182-5.74-5.276-5.404-11.376l.013-.218c.092-1.38 1.155-2.502 2.516-2.755l5.856-1.09z" fill="#524A5F"/><path stroke="#E9E6ED" stroke-width="2" stroke-linecap="round" stroke-linejoin="round" d="M178.857 29.048v40.033h56.82"/><path d="M178.857 59.178l14.136-23.544a2.018 2.018 0 0 1 3.156-.39l16.174 16.175a2.017 2.017 0 0 0 2.853 0l7.684-7.683a2.016 2.016 0 0 1 2.852 0l6.64 6.638M1 59.178l6.725 7.862 13.448-20.124h37.656" stroke="#E9E6ED" stroke-width="2" stroke-linecap="round" stroke-linejoin="round"/><mask id="b" fill="#fff"><use xlink:href="#a"/></mask><path stroke="#E9E6ED" stroke-width="2" stroke-linecap="round" stroke-linejoin="round" mask="url(#b)" d="M195.98 155.551h35.639v-35.975H195.98z"/><path stroke="#E9E6ED" stroke-width="2" stroke-linecap="round" stroke-linejoin="round" stroke-dasharray="6.052,0,0" mask="url(#b)" d="M231.619 119.577l19.333-19.333v36.312l-18.156 18.155M250.951 100.244H215.48l-18.292 18.292"/><path d="M26.889 59.178h30.259M4.362 98.644H35.63M13.104 98.644s2.017 17.912-7.397 23.414M24.535 100.244v21.813" stroke="#E9E6ED" stroke-width="2" stroke-linecap="round" stroke-linejoin="round" mask="url(#b)"/><path d="M55.537 23l8.319 2.012M66.175 4.155l4.73 7.748M80.926 10.705L83.274 1" stroke="#FDD345" stroke-width="2" stroke-linecap="round" stroke-linejoin="round" mask="url(#b)"/></g><path d="M68.467 502.428h.164L73.17 518h2.324l5.373-19.729h-2.57l-3.924 16.038h-.164l-4.416-16.038h-2.488l-4.416 16.038h-.164L58.8 498.27h-2.57L61.603 518h2.324l4.539-15.572zm21.724 2.652c-2.351 0-3.992 1.723-4.17 4.334h8.122c-.055-2.611-1.614-4.334-3.952-4.334zm3.883 9.106h2.352c-.711 2.529-2.98 4.074-6.207 4.074-4.088 0-6.645-2.953-6.645-7.615 0-4.635 2.598-7.643 6.645-7.643 3.978 0 6.398 2.83 6.398 7.41v.902H86.021v.11c.124 2.912 1.75 4.758 4.252 4.758 1.9 0 3.186-.698 3.801-1.996zm7.97-8.545l2.42-7.37h-2.597l-1.873 7.37h2.05zM108.58 518h2.352v-9.133c0-2.078 1.627-3.582 3.869-3.582.465 0 1.312.082 1.504.137v-2.352c-.301-.04-.793-.068-1.176-.068-1.955 0-3.65 1.012-4.088 2.447h-.219v-2.187h-2.242V518zm16.543-12.92c-2.352 0-3.992 1.723-4.17 4.334h8.121c-.054-2.611-1.613-4.334-3.951-4.334zm3.883 9.106h2.351c-.71 2.529-2.98 4.074-6.207 4.074-4.088 0-6.644-2.953-6.644-7.615 0-4.635 2.598-7.643 6.644-7.643 3.979 0 6.399 2.83 6.399 7.41v.902h-10.596v.11c.123 2.912 1.75 4.758 4.252 4.758 1.9 0 3.186-.698 3.8-1.996zm32.676-10.924h-2.366l-2.898 11.785h-.219l-3.295-11.785h-2.256l-3.294 11.785h-.22l-2.898-11.785h-2.379l4.13 14.738h2.378l3.281-11.402h.22L155.16 518h2.393l4.129-14.738zm9.2 12.879c2.79 0 4.362-2.024 4.362-5.51 0-3.5-1.572-5.51-4.361-5.51-2.79 0-4.362 2.01-4.362 5.51 0 3.486 1.573 5.51 4.362 5.51zm0 2.119c-4.196 0-6.794-2.899-6.794-7.63 0-4.743 2.598-7.628 6.795-7.628s6.795 2.885 6.795 7.629c0 4.73-2.598 7.629-6.795 7.629zm10.487-.26h2.352v-9.133c0-2.078 1.627-3.582 3.869-3.582.465 0 1.312.082 1.504.137v-2.352c-.301-.04-.793-.068-1.176-.068-1.955 0-3.65 1.012-4.088 2.447h-.219v-2.187h-2.242V518zm13.371-8.299h-.219v-12.29h-2.351V518h2.351v-5.592l1.409-1.312 5.523 6.904h2.994l-6.767-8.422 6.343-6.316h-2.884l-6.399 6.44zM207.291 518h2.352v-14.738h-2.352V518zm1.176-17.732c.902 0 1.64-.739 1.64-1.641s-.738-1.64-1.64-1.64c-.903 0-1.64.738-1.64 1.64 0 .902.737 1.64 1.64 1.64zm5.66 17.732h2.352v-8.723c0-2.584 1.517-4.156 3.869-4.156 2.351 0 3.472 1.258 3.472 3.91V518h2.352v-9.543c0-3.5-1.846-5.455-5.154-5.455-2.256 0-3.692.957-4.43 2.584h-.219v-2.324h-2.242V518zm26.674-7.588c0-3.213-1.655-5.29-4.375-5.29-2.735 0-4.266 2.077-4.266 5.29s1.531 5.291 4.266 5.291c2.734 0 4.375-2.078 4.375-5.29zm-4.266 13.248c-3.555 0-5.824-1.6-6.18-4.033h2.489c.26 1.203 1.572 1.982 3.691 1.982 2.639 0 4.211-1.298 4.211-3.472v-2.899h-.219c-.93 1.627-2.597 2.543-4.62 2.543-3.815 0-6.18-2.953-6.18-7.369s2.392-7.41 6.18-7.41c2.064 0 3.882 1.012 4.73 2.598h.218v-2.338h2.243v14.998c0 3.295-2.543 5.4-6.563 5.4zm24.951-7.52c2.79 0 4.362-2.023 4.362-5.51 0-3.5-1.573-5.509-4.362-5.509s-4.361 2.01-4.361 5.51c0 3.486 1.572 5.51 4.361 5.51zm0 2.12c-4.197 0-6.795-2.899-6.795-7.63 0-4.743 2.598-7.628 6.795-7.628 4.198 0 6.795 2.885 6.795 7.629 0 4.73-2.597 7.629-6.795 7.629zm10.487-.26h2.351v-8.723c0-2.584 1.518-4.156 3.87-4.156 2.35 0 3.472 1.258 3.472 3.91V518h2.352v-9.543c0-3.5-1.846-5.455-5.155-5.455-2.256 0-3.691.957-4.43 2.584h-.218v-2.324h-2.242V518zm24.295 0h2.351v-14.738h-2.351V518zm1.175-17.732c.903 0 1.641-.739 1.641-1.641s-.738-1.64-1.64-1.64c-.903 0-1.641.738-1.641 1.64 0 .902.738 1.64 1.64 1.64zm6.645-.82v3.814h-2.379v1.968h2.379v8.942c0 2.816 1.217 3.937 4.252 3.937.465 0 .916-.054 1.38-.136v-1.983a9.93 9.93 0 0 1-1.093.055c-1.531 0-2.188-.738-2.188-2.475v-8.34h3.282v-1.968h-3.282v-3.815h-2.351zm11.129 18.689c.984 0 1.777-.807 1.777-1.778 0-.984-.793-1.777-1.777-1.777-.97 0-1.778.793-1.778 1.777 0 .971.807 1.778 1.778 1.778zM59.033 479.91h-9.05v-16.639h-3.528V483h12.578v-3.09zm9.899.547c2.365 0 3.705-1.805 3.705-4.936 0-3.117-1.354-4.935-3.705-4.935-2.366 0-3.72 1.818-3.72 4.935 0 3.131 1.354 4.936 3.72 4.936zm0 2.844c-4.485 0-7.192-2.926-7.192-7.78 0-4.826 2.748-7.779 7.192-7.779 4.457 0 7.191 2.94 7.191 7.78 0 4.853-2.72 7.779-7.191 7.779zm17.062-2.844c2.365 0 3.705-1.805 3.705-4.936 0-3.117-1.353-4.935-3.705-4.935-2.365 0-3.719 1.818-3.719 4.935 0 3.131 1.354 4.936 3.72 4.936zm0 2.844c-4.484 0-7.191-2.926-7.191-7.78 0-4.826 2.748-7.779 7.191-7.779 4.457 0 7.192 2.94 7.192 7.78 0 4.853-2.721 7.779-7.192 7.779zm14.37-9.16h-.233V462.26h-3.39V483h3.39v-5.209l1.203-1.203 4.799 6.412h4.101l-6.37-8.545 5.96-6.412h-3.937l-5.524 6.098zM112.886 483h3.377v-14.957h-3.377V483zm1.681-17.39c1.245 0 2.092-.794 2.092-1.874s-.847-1.873-2.092-1.873c-1.23 0-2.091.793-2.091 1.873s.86 1.873 2.091 1.873zm5.893 17.39h3.39v-8.709c0-2.201 1.272-3.596 3.295-3.596 2.065 0 3.022 1.149 3.022 3.432V483h3.39v-9.68c0-3.568-1.818-5.578-5.154-5.578-2.228 0-3.732 1.026-4.443 2.694h-.232v-2.393h-3.268V483zm27.33-7.643c0-2.857-1.436-4.675-3.787-4.675-2.365 0-3.705 1.818-3.705 4.675 0 2.858 1.34 4.663 3.705 4.663s3.787-1.805 3.787-4.663zm-3.787 13.33c-3.842 0-6.358-1.695-6.631-4.265h3.404c.22 1.025 1.422 1.682 3.282 1.682 2.324 0 3.677-1.094 3.677-2.967v-2.83h-.232c-.861 1.6-2.488 2.474-4.566 2.474-3.774 0-6.125-2.926-6.125-7.424 0-4.58 2.365-7.56 6.18-7.56 2.036 0 3.814 1.012 4.634 2.639h.232v-2.393h3.268v15.012c0 3.459-2.762 5.632-7.123 5.632zM163.842 483h3.377v-12.154h3.213v-2.707h-3.254v-1.203c0-1.381.683-1.983 2.092-1.983a7.67 7.67 0 0 1 1.298.11v-2.53a9.579 9.579 0 0 0-1.709-.15c-3.295 0-5.017 1.258-5.017 4.293v1.463h-2.447v2.707h2.447V483zm16.31-2.543c2.366 0 3.705-1.805 3.705-4.936 0-3.117-1.353-4.935-3.705-4.935-2.365 0-3.718 1.818-3.718 4.935 0 3.131 1.353 4.936 3.718 4.936zm0 2.844c-4.484 0-7.191-2.926-7.191-7.78 0-4.826 2.748-7.779 7.191-7.779 4.457 0 7.192 2.94 7.192 7.78 0 4.853-2.721 7.779-7.192 7.779zm10.61-.301h3.39v-8.64c0-2.092 1.532-3.46 3.733-3.46.574 0 1.476.096 1.736.192v-3.145c-.314-.095-.916-.15-1.408-.15-1.928 0-3.541 1.094-3.951 2.57h-.233v-2.324h-3.267V483zm32.183 0l-1.668-5.045h-7.26L212.323 483h-3.568l7-19.729h3.965L226.732 483h-3.787zm-5.4-15.969l-2.707 8.135h5.619l-2.68-8.135h-.232zM229.768 483h3.39v-8.709c0-2.201 1.272-3.596 3.295-3.596 2.065 0 3.022 1.149 3.022 3.432V483h3.39v-9.68c0-3.568-1.818-5.578-5.154-5.578-2.229 0-3.732 1.026-4.443 2.694h-.233v-2.393h-3.267V483zm22.53.246c-3.786 0-6.152-2.98-6.152-7.738 0-4.73 2.38-7.711 6.153-7.711 2.05 0 3.746.984 4.539 2.625h.232v-8.162h3.39V483h-3.28v-2.365h-.233c-.847 1.64-2.57 2.611-4.648 2.611zm1.054-12.564c-2.311 0-3.733 1.832-3.733 4.84 0 3.021 1.408 4.84 3.733 4.84 2.337 0 3.76-1.833 3.76-4.84 0-2.981-1.436-4.84-3.76-4.84zM264.74 483h3.39v-8.64c0-2.092 1.532-3.46 3.733-3.46.575 0 1.477.096 1.737.192v-3.145c-.315-.095-.916-.15-1.409-.15-1.927 0-3.54 1.094-3.95 2.57h-.233v-2.324h-3.268V483zm18.088-2.543c2.365 0 3.705-1.805 3.705-4.936 0-3.117-1.353-4.935-3.705-4.935-2.365 0-3.719 1.818-3.719 4.935 0 3.131 1.354 4.936 3.72 4.936zm0 2.844c-4.484 0-7.191-2.926-7.191-7.78 0-4.826 2.748-7.779 7.191-7.779 4.457 0 7.192 2.94 7.192 7.78 0 4.853-2.721 7.779-7.192 7.779zm10.65-.301h3.377v-14.957h-3.376V483zm1.682-17.39c1.244 0 2.092-.794 2.092-1.874s-.848-1.873-2.092-1.873c-1.23 0-2.092.793-2.092 1.873s.862 1.873 2.092 1.873zm11.307 17.636c-3.787 0-6.153-2.98-6.153-7.738 0-4.73 2.38-7.711 6.153-7.711 2.05 0 3.746.984 4.539 2.625h.232v-8.162h3.39V483h-3.28v-2.365h-.233c-.847 1.64-2.57 2.611-4.648 2.611zm1.053-12.564c-2.311 0-3.733 1.832-3.733 4.84 0 3.021 1.408 4.84 3.733 4.84 2.337 0 3.76-1.833 3.76-4.84 0-2.981-1.436-4.84-3.76-4.84zm10.376-1.983h3.213c.11-1.668 1.245-2.734 3.008-2.734 1.723 0 2.871 1.025 2.871 2.447 0 1.354-.574 2.078-2.27 3.104-1.886 1.107-2.679 2.338-2.556 4.388l.014.93h3.172v-.78c0-1.353.506-2.05 2.297-3.103 1.859-1.107 2.898-2.57 2.898-4.662 0-3.021-2.502-5.182-6.248-5.182-4.06 0-6.29 2.352-6.399 5.592zm6.016 14.656c1.395 0 2.27-.86 2.27-2.173 0-1.327-.875-2.188-2.27-2.188-1.367 0-2.27.861-2.27 2.188 0 1.312.903 2.173 2.27 2.173z" fill="#544C63"/></g></svg>
