<svg xmlns="http://www.w3.org/2000/svg" xmlns:xlink="http://www.w3.org/1999/xlink" viewBox="0 0 24 24"><defs><symbol id="material_system_icon_border" data-name="material_system_icon_border" viewBox="0 0 48 48"><rect width="48" height="48" fill="none"/></symbol></defs><title>calendar</title><g id="icon"><path d="M19,4h0V6H15V4H9V6H5V4A2,2,0,0,0,3,6V19a2,2,0,0,0,2,2H19a2,2,0,0,0,2-2V6A2,2,0,0,0,19,4Zm0,14.5a.5.5,0,0,1-.5.5H5.5a.5.5,0,0,1-.5-.5V10H19ZM9,14H7V12H9Zm4,0H11V12h2Zm4,0H15V12h2ZM8,5H6V3H8ZM18,5H16V3h2Z"/></g><g id="border"><use id="material_system_icon_border-3" data-name="material_system_icon_border" width="48" height="48" transform="translate(0) scale(0.5)" xlink:href="#material_system_icon_border"/></g></svg>