<svg xmlns="http://www.w3.org/2000/svg" viewBox="0 0 24 24" enable-background="new 0 0 24 24"><path d="M12 8c2.2 0 4 1.8 4 4s-1.8 4-4 4-4-1.8-4-4 1.8-4 4-4zm0-2c-.6 0-1-.4-1-1v-2c0-.6.4-1 1-1s1 .4 1 1v2c0 .6-.4 1-1 1zm-4.2 1.8c-.4.4-1 .4-1.4 0l-1.5-1.5c-.4-.4-.4-1 0-1.4s1-.4 1.4 0l1.4 1.4c.4.4.4 1.1.1 1.5zm-1.8 4.2c0 .6-.4 1-1 1h-2c-.6 0-1-.4-1-1s.4-1 1-1h2c.5 0 1 .4 1 1zm1.7 4.2c.4.4.4 1 0 1.4l-1.4 1.4c-.4.4-1 .4-1.4 0s-.4-1 0-1.4l1.4-1.4c.4-.3 1.1-.3 1.4 0zm4.3 1.8c.6 0 1 .4 1 1v2c0 .6-.4 1-1 1s-1-.4-1-1v-2c0-.5.4-1 1-1zm4.2-1.7c.4-.4 1-.4 1.4 0l1.4 1.4c.4.4.4 1 0 1.4s-1 .4-1.4 0l-1.4-1.4c-.4-.4-.4-1.1 0-1.4zm1.8-4.3c0-.6.4-1 1-1h2c.6 0 1 .4 1 1s-.4 1-1 1h-2c-.6 0-1-.4-1-1zm-1.8-4.2c-.4-.4-.4-1 0-1.4l1.4-1.4c.4-.4 1-.4 1.4 0s.4 1 0 1.4l-1.4 1.4c-.3.4-1 .4-1.4 0z"/></svg>