<svg xmlns="http://www.w3.org/2000/svg" xmlns:xlink="http://www.w3.org/1999/xlink" viewBox="0 0 24 24"><defs><symbol id="material_system_icon_border" data-name="material_system_icon_border" viewBox="0 0 48 48"><rect width="48" height="48" fill="none"/></symbol></defs><title>ticket</title><g id="icon"><path d="M22,9V6a2,2,0,0,0-2-2H4A2,2,0,0,0,2,6V9a3,3,0,0,1,0,6v3a2,2,0,0,0,2,2H20a2,2,0,0,0,2-2V15a3,3,0,0,1,0-6Zm-5.21-.78L14.5,10.57l1.23,5.2a.44.44,0,0,1-.11.45l-.34.34a.51.51,0,0,1-.78-.11l-1.79-4-2.07,2.07.45,1.29a.46.46,0,0,1-.11.45l-.73.84-.9-2.35L7,13.81l.84-.73A.44.44,0,0,1,8.29,13l1.29.45,2.07-2.07-4-1.79a.51.51,0,0,1-.11-.78l.34-.34a.44.44,0,0,1,.45-.11l5.09,1.12,2.35-2.29a.75.75,0,1,1,1.06,1.06Z" fill="#231f20"/></g><g id="border"><use id="material_system_icon_border-3" data-name="material_system_icon_border" width="48" height="48" transform="translate(0) scale(0.5)" xlink:href="#material_system_icon_border"/></g></svg>