<?xml version="1.0" encoding="utf-8"?>
<!-- Generator: Adobe Illustrator 21.0.0, SVG Export Plug-In . SVG Version: 6.00 Build 0)  -->
<svg version="1.1" id="Layer_1" xmlns="http://www.w3.org/2000/svg" xmlns:xlink="http://www.w3.org/1999/xlink" x="0px" y="0px"
	 viewBox="0 0 24 24" style="enable-background:new 0 0 24 24;" xml:space="preserve">
<path d="M11.8,18H10c-1.7,0-3-1.3-3-3V8H5v7c0,2.8,2.2,5,5,5h5v-2H11.8z M11,3c1.1,0,2,0.9,2,2s-0.9,2-2,2S9,6.1,9,5S9.9,3,11,3z
	 M19.9,19l-2-6H13V8H9v6.6c0,0.8,0.7,1.5,1.5,1.5h5.3l1.3,4c0.2,0.6,0.8,1,1.4,1c0.2,0,0.3,0,0.5-0.1C19.8,20.7,20.2,19.8,19.9,19z"
	/>
</svg>
