<svg id="icon" xmlns="http://www.w3.org/2000/svg" viewBox="0 0 24 24"><title>flight--deals</title><path d="M19,7H16.82A3,3,0,0,0,17,6a3,3,0,0,0-5-2.22A3,3,0,0,0,7.18,7H5A2,2,0,0,0,3,9V19a2,2,0,0,0,2,2H19a2,2,0,0,0,2-2V9A2,2,0,0,0,19,7ZM14,5a1,1,0,1,1-1,1h0A1,1,0,0,1,14,5ZM9,6a1,1,0,0,1,2,0h0A1,1,0,0,1,9,6ZM19,19a0,0,0,0,1,0,0H5a0,0,0,0,1,0,0V9A0,0,0,0,1,5,9H19a0,0,0,0,1,0,0Zm-3-3.88-1.07.62v1.24H13.69L13.07,18,12,17.38,10.93,18l-.62-1.07H9.07V15.69L8,15.07,8.62,14,8,12.93l1.07-.62V11.07h1.24L10.93,10l1.07.62L13.07,10l.62,1.07h1.24v1.24l1.07.62L15.38,14Z" fill="#231f20"/></svg>