<svg xmlns="http://www.w3.org/2000/svg" xmlns:xlink="http://www.w3.org/1999/xlink" viewBox="0 0 24 24"><defs><symbol id="material_system_icon_border" data-name="material_system_icon_border" viewBox="0 0 48 48"><rect width="48" height="48" fill="none"/></symbol></defs><title>petrol</title><g id="icon"><path d="M16.74,3.32A1,1,0,0,0,15,4h0a1,1,0,0,0,.13.5l0,.06L17,8l1.62,0,.38.38V14a1,1,0,0,1-2,0V11a3,3,0,0,0-3-3h0V5a2,2,0,0,0-2-2H6A2,2,0,0,0,4,5V21H14V10h0a1,1,0,0,1,1,1v3a3,3,0,0,0,6,0V7.59ZM12,11H6V5h6Z" fill="#231f20"/></g><g id="border"><use id="material_system_icon_border-3" data-name="material_system_icon_border" width="48" height="48" transform="translate(0) scale(0.5)" xlink:href="#material_system_icon_border"/></g></svg>