<svg xmlns="http://www.w3.org/2000/svg" viewBox="0 0 24 24" enable-background="new 0 0 24 24">
    <path d="M17.704 13.853l5.709 1.855c.38-1.168.587-2.413.587-3.708h-6c0 .647-.106 1.269-.296 1.853z" opacity=".25" fill="#34363D"/>
    <path d="M8.478 16.847l-3.531 4.859c1.008.733 2.133 1.313 3.344 1.707l1.855-5.709c-.604-.197-1.164-.49-1.668-.857z" opacity=".6" fill="#34363D"/>
    <path d="M6.296 13.853l-5.709 1.855c.393 1.211.973 2.336 1.707 3.344l4.859-3.531c-.367-.503-.66-1.063-.857-1.668z" opacity=".7" fill="#34363D"/>
    <path d="M10.147 17.704l-1.855 5.709c1.168.38 2.413.587 3.708.587v-6c-.647 0-1.269-.106-1.853-.296z" opacity=".55" fill="#34363D"/>
    <path d="M13.853 17.704l1.855 5.709c1.211-.393 2.336-.973 3.344-1.707l-3.531-4.859c-.503.367-1.063.66-1.668.857z" opacity=".45" fill="#34363D"/>
    <path d="M17.704 13.853c-.197.605-.49 1.165-.857 1.668l4.859 3.531c.733-1.008 1.313-2.133 1.707-3.344l-5.709-1.855z" opacity=".3" fill="#34363D"/>
    <path d="M12 18v6c1.295 0 2.54-.207 3.708-.587l-1.855-5.709c-.584.19-1.206.296-1.853.296z" opacity=".5" fill="#34363D"/>
    <path d="M15.522 16.847l3.531 4.859c1.018-.741 1.914-1.637 2.654-2.654l-4.859-3.531c-.371.509-.818.956-1.326 1.326z" opacity=".35" fill="#34363D"/>
    <path d="M6 12h-6c0 1.295.207 2.54.587 3.708l5.709-1.855c-.19-.584-.296-1.206-.296-1.853z" opacity=".75" fill="#34363D"/>
    <path d="M7.153 15.522l-4.859 3.531c.741 1.018 1.637 1.914 2.654 2.654l3.531-4.859c-.509-.371-.956-.818-1.326-1.326z" opacity=".65" fill="#34363D"/>
    <path d="M6.296 10.147l-5.709-1.855c-.38 1.168-.587 2.413-.587 3.708h6c0-.647.106-1.269.296-1.853z" opacity=".8" fill="#34363D"/>
    <path d="M15.522 7.153l3.531-4.859c-1.008-.733-2.133-1.313-3.344-1.707l-1.855 5.709c.604.197 1.164.49 1.668.857z" opacity=".05" fill="#34363D"/>
    <path d="M17.704 10.147l5.709-1.855c-.393-1.211-.973-2.336-1.707-3.344l-4.859 3.531c.367.503.66 1.063.857 1.668z" opacity=".15" fill="#34363D"/>
    <path d="M18 12h6c0-1.295-.207-2.54-.587-3.708l-5.709 1.855c.19.584.296 1.206.296 1.853z" opacity=".2" fill="#34363D"/>
    <path d="M16.847 8.478l4.859-3.531c-.741-1.018-1.637-1.914-2.654-2.654l-3.531 4.859c.509.371.956.818 1.326 1.326z" opacity=".1" fill="#34363D"/>
    <path d="M7.153 8.478l-4.86-3.53c-.733 1.007-1.313 2.133-1.706 3.344l5.709 1.855c.197-.605.49-1.165.857-1.669z" opacity=".85" fill="#34363D"/>
    <path d="M8.478 7.153l-3.53-4.86c-1.018.741-1.914 1.637-2.655 2.655l4.859 3.531c.371-.509.818-.956 1.326-1.326z" opacity=".9" fill="#34363D"/>
    <path d="M12 6v-6c-1.295 0-2.54.207-3.708.587l1.855 5.709c.584-.19 1.206-.296 1.853-.296z" fill="#34363D"/>
    <path d="M10.147 6.296l-1.855-5.709c-1.211.393-2.337.973-3.344 1.706l3.531 4.859c.503-.366 1.063-.659 1.668-.856z" opacity=".95" fill="#34363D"/>
</svg>