<?xml version="1.0" encoding="UTF-8"?>
<svg width="286px" height="199px" viewBox="0 0 286 199" version="1.1" xmlns="http://www.w3.org/2000/svg" xmlns:xlink="http://www.w3.org/1999/xlink">
    <!-- Generator: Sketch 44.1 (41455) - http://www.bohemiancoding.com/sketch -->
    <title>Artboard</title>
    <desc>Created with Sketch.</desc>
    <defs></defs>
    <g id="Page-1" stroke="none" stroke-width="1" fill="none" fill-rule="evenodd">
        <g id="Artboard" fill-rule="nonzero">
            <path d="M131.6,162.7 C131.6,162.7 144.3,165.5 147.7,161.1 L148.6,159 C148.6,159 134.1,159.2 133,152.7" id="Shape" fill="#80D5E6" opacity="0.5"></path>
            <path d="M83.3,173.4 C83.3,173.4 91.5,164 100.2,165.7 C108.9,167.4 111.6,160 111.6,160 L109.2,154.4 C109.2,154.4 93.7,153.3 83.3,173.4 Z" id="Shape" fill="#80D5E6" opacity="0.5"></path>
            <path d="M110.5,161 L110.5,158.9 C110.5,158.9 109.1,144 109.7,141.7 C110.3,139.4 109.3,133.8 110.8,129.7 C111.842067,126.756646 113.851493,124.253677 116.5,122.6 C116.5,122.6 114.7,82 116.5,77.6 C118.173294,73.0443307 119.608565,68.4047334 120.8,63.7 C120.8,63.7 107.4,66.9 105.3,76.1 C103.2,85.3 104.2,111.4 104.2,111.4 C104.2,111.4 93.1,106 94.5,116.5 C97.4,137.9 107.4,130 107.4,130 C107.4,130 103.1,148 104.7,150.1 C106.3,152.2 110.5,161 110.5,161 Z" id="Shape" fill="#80D5E6" opacity="0.4"></path>
            <path d="M148.1,159.7 C142.549076,159.714302 137.119158,158.078365 132.5,155 C132.058172,154.668629 131.968629,154.041828 132.3,153.6 C132.631371,153.158172 133.258172,153.068629 133.7,153.4 C138.677867,156.627573 144.588907,158.105333 150.5,157.6 C159.9,156.7 161.8,151.9 161.8,151.7 C161.998453,151.220745 162.530412,150.972798 163.025053,151.129 C163.519693,151.285202 163.812778,151.79369 163.7,152.3 C163.6,152.6 161.5,158.6 150.7,159.5 L148.1,159.7 Z" id="Shape" fill="#03B0D5"></path>
            <path d="M80.3,97.1 C79.8403541,97.0840646 79.450847,96.7566675 79.3560982,96.3066109 C79.2613495,95.8565543 79.485794,95.3999042 79.9,95.2 C80.2,95.1 87.8,92 84.5,79.6 L72.6,78.8 C73.5,80.2 74.4,82.1 74,83.9 C73.6994303,85.0654071 72.8363635,86.0035232 71.7,86.4 C71.3689139,86.6227887 70.9370646,86.6274014 70.6012953,86.4117356 C70.265526,86.1960698 70.0901254,85.8014184 70.1550436,85.4076693 C70.2199619,85.0139202 70.5127693,84.6964632 70.9,84.6 C71.4322356,84.4482573 71.8482573,84.0322356 72,83.5 C72.4,81.9 70.5,79.2 69.7,78.4 C69.4727368,78.0969824 69.4361808,77.6915704 69.6055728,77.3527864 C69.7749648,77.0140024 70.1212279,76.8 70.5,76.8 L85.2,77.7 C85.6166656,77.7227018 85.9754329,78.0017431 86.1,78.4 C87.3,82.6 88.1,88.6 85,93.3 C83.9077863,95.0070181 82.3449265,96.3614966 80.5,97.2 L80.3,97.1 Z" id="Shape" fill="#FDE493"></path>
            <path d="M105.3,109 C104.784522,109.002583 104.351542,108.612901 104.3,108.1 C104.2,107 102.7,82.3 104.3,75.9 C105.9,69.5 117.8,63.3 123,63 C123.357266,62.9821367 123.696923,63.1562293 123.891025,63.4566987 C124.085128,63.7571682 124.104188,64.138366 123.941025,64.4566987 C123.777863,64.7750315 123.457266,64.9821367 123.1,65 C118.4,65.3 107.6,70.8 106.2,76.4 C104.8,82 106.2,107.7 106.2,108 C106.22789,108.265489 106.148473,108.531108 105.97943,108.737716 C105.810388,108.944323 105.565754,109.074766 105.3,109.1 L105.3,109 Z" id="Shape" fill="#03B0D5"></path>
            <path d="M129.6,65.3 C129.156444,65.2461547 128.802433,64.9045947 128.732747,64.4632505 C128.663061,64.0219063 128.894613,63.5878889 129.3,63.4 C129.4,63.4 137.3,60.9 139.7,59.4 C140.003676,59.2035039 140.389113,59.1839431 140.711122,59.348686 C141.03313,59.5134289 141.242789,59.8374471 141.261122,60.198686 C141.279454,60.559925 141.103676,60.9035039 140.8,61.1 C138.2,62.7 130.3,65.2 129.9,65.3 L129.6,65.3 Z" id="Shape" fill="#03B0D5"></path>
            <path d="M141.8,67.4 C141.340354,67.3840646 140.950847,67.0566675 140.856098,66.6066109 C140.761349,66.1565543 140.985794,65.6999042 141.4,65.5 C144.919972,64.0128063 148.32872,62.2750128 151.6,60.3 C151.903676,60.1035039 152.289113,60.0839431 152.611122,60.248686 C152.93313,60.4134289 153.142789,60.7374471 153.161122,61.098686 C153.179454,61.459925 153.003676,61.8035039 152.7,62 C149.337256,64.0552273 145.827772,65.8601051 142.2,67.4 L141.8,67.4 Z" id="Shape" fill="#03B0D5"></path>
            <path d="M148.7,71.8 C148.240354,71.7840646 147.850847,71.4566675 147.756098,71.0066109 C147.661349,70.5565543 147.885794,70.0999042 148.3,69.9 C151.7,68.4 157.5,65.5 158.6,64.2 C158.815551,63.8789777 159.196861,63.7109939 159.57922,63.7686113 C159.961578,63.8262287 160.276453,64.0991205 160.387831,64.4694076 C160.499209,64.8396947 160.387127,65.2410098 160.1,65.5 C158.4,67.5 150.1,71.3 149.1,71.7 L148.7,71.8 Z" id="Shape" fill="#03B0D5"></path>
            <path d="M102.7,131.8 L101.7,131.8 C99.7,131.4 98.1,130 96.9,127.6 C93.8,121.8 92.7,115.5 94.2,112 C94.7683927,110.537634 95.9902411,109.426863 97.5,109 C102.6,107.6 107.9,112.1 108.1,112.3 C108.438191,112.674931 108.443826,113.243154 108.113136,113.624718 C107.782447,114.006283 107.219193,114.081468 106.8,113.8 C106.7,113.7 102.1,109.8 98,110.9 C97.0644116,111.171086 96.3186771,111.879534 96,112.8 C94.7,115.8 95.8,121.5 98.6,126.7 L98.6,126.7 C99.5,128.5 100.6,129.6 101.9,129.8 C103.2,130 107,128.2 107.9,127.3 C108.29812,127.00141 108.855215,127.041001 109.207107,127.392893 C109.558999,127.744785 109.59859,128.30188 109.3,128.7 C109.2,128.9 106.1,131.8 102.7,131.8 Z" id="Shape" fill="#03B0D5"></path>
            <path d="M169,119.3 L168.9,119.3 C168.634246,119.274766 168.389612,119.144323 168.22057,118.937716 C168.051527,118.731108 167.97211,118.465489 168,118.2 L168.3,115.7 C168.3,114.6 169.2,93.3 167.1,82.5 C165,71.7 161,69.2 161,69.2 C160.530558,68.8962434 160.396243,68.269442 160.7,67.8 C161.003757,67.330558 161.630558,67.1962434 162.1,67.5 C162.3,67.6 166.9,70.7 169.1,82.2 C171.3,93.7 170.4,115 170.4,115.9 L170.4,115.9 L170.1,118.4 C170.074766,118.665754 169.944323,118.910388 169.737716,119.07943 C169.531108,119.248473 169.265489,119.32789 169,119.3 L169,119.3 Z" id="Shape" fill="#03B0D5"></path>
            <path d="M127.1,186.2 L126.9,186.2 C126.632115,186.151975 126.395376,185.99684 126.244411,185.770393 C126.093446,185.543945 126.041298,185.26575 126.1,185 C126.6,182.6 127,178.8 127.4,175.1 C128.2,168 128.6,165.1 129.4,164.2 L129.5,164.2 C130.4,163.5 131.2,160.8 131.6,159 C132,157.2 132.1,151.2 132.8,145.5 C133.5,139.8 134.7,131.2 134,130 C133.3,128.8 132.7,128.5 132.4,128.6 C132.1,128.7 131.7,128.8 130.3,131.4 C127.9,135.6 126.7,147.8 126.7,147.9 C126.644772,148.452285 126.152285,148.855228 125.6,148.8 C125.047715,148.744772 124.644772,148.252285 124.7,147.7 C124.8,147.2 126,134.9 128.6,130.4 C130,127.8 131,126.7 132.2,126.5 C133.4,126.3 134.5,127.5 135.5,128.6 C136.5,129.7 136.2,134.9 134.8,145.7 C134.1,151.1 133.3,156.8 133.6,158.8 C133.615085,158.899431 133.615085,159.000569 133.6,159.1 C133.4,159.9 132.5,164.1 130.8,165.5 C129.1,166.9 129.7,171.5 129.3,175.2 C128.9,178.9 128.5,182.8 127.9,185.3 C127.864088,185.744926 127.537647,186.112172 127.1,186.2 Z" id="Shape" fill="#03B0D5"></path>
            <path d="M119.6,148.1 L119.5,148.1 C118.986638,147.999066 118.637853,147.519486 118.7,147 C118.7,146.9 120.6,134.4 121.5,129.5 C122.4,124.6 126,121.2 128.7,121.2 C131.4,121.2 131.2,122.4 132,124.7 C132.347638,125.676633 132.615188,126.679947 132.8,127.7 C132.85359,128.057266 132.71251,128.415982 132.429904,128.641025 C132.147298,128.866068 131.7661,128.923248 131.429904,128.791025 C131.093708,128.658803 130.85359,128.357266 130.8,128 C130.4,125.5 129.3,123.2 128.7,123.2 C128.1,123.2 124.3,125.3 123.4,129.9 C122.5,134.5 120.6,147.2 120.6,147.4 C120.464253,147.833309 120.0536,148.120766 119.6,148.1 Z" id="Shape" fill="#03B0D5"></path>
            <path d="M114.9,146.5 L114.8,146.5 C114.534246,146.474766 114.289612,146.344323 114.12057,146.137716 C113.951527,145.931108 113.87211,145.665489 113.9,145.4 C113.9,145.4 114.2,140.6 114.8,134.1 C115.136532,130.639511 116.049105,127.25961 117.5,124.1 C118.7,121.7 120.5,118.8 122.9,118.8 C125.3,118.8 127,121.4 127.3,122.7 C127.410457,123.252285 127.052285,123.789543 126.5,123.9 C125.947715,124.010457 125.410457,123.652285 125.3,123.1 C125.3,123 124.8,120.8 122.8,120.8 C120.8,120.8 117.3,127.5 116.6,134.3 C115.9,141.1 115.7,145.5 115.7,145.5 C115.709736,145.982761 115.373123,146.403526 114.9,146.5 Z" id="Shape" fill="#03B0D5"></path>
            <path d="M109.6,142.8 C109.047715,142.8 108.6,142.352285 108.6,141.8 C108.2,125.6 113.3,122.6 114.9,122.1 C118.2,121 119.8,122.5 120,122.7 L118.6,124 L118.6,124 C118.6,124 117.7,123.2 115.5,123.9 C113.3,124.6 113,125.9 112.1,128.3 C111.2,130.7 110.4,136.1 110.5,141.6 C110.5,142.152285 110.052285,142.6 109.5,142.6 L109.6,142.8 Z" id="Shape" fill="#03B0D5"></path>
            <path d="M109.6,179.9 L109.3,179.9 C108.781552,179.753817 108.472053,179.223247 108.6,178.7 C110.4,172.8 111.9,165.8 111.3,164.7 C110.324796,163.403877 109.580545,161.949205 109.1,160.4 C108.089178,157.714811 106.816369,155.135698 105.3,152.7 C101.6,147 104.4,138.7 104.6,138.4 C104.7933,137.875329 105.375329,137.6067 105.9,137.8 C106.424671,137.9933 106.6933,138.575329 106.5,139.1 L106.5,139.1 C106.5,139.2 103.9,146.8 107,151.7 C108.593404,154.228506 109.933238,156.908173 111,159.7 C111.413124,161.0158 112.019769,162.262792 112.8,163.4 C113.5,164.1 114,165.7 112.4,172.4 C111.6,175.9 110.6,179.3 110.5,179.4 C110.315434,179.720161 109.969342,179.912435 109.6,179.9 Z" id="Shape" fill="#03B0D5"></path>
            <path d="M126.5,97.1 C126.099925,97.0943799 125.741712,96.8508257 125.589368,96.4808485 C125.437024,96.1108712 125.51988,95.6857003 125.8,95.4 C129.400937,92.4122988 134.337364,91.6086944 138.7,93.3 C139.224671,93.4932997 139.4933,94.0753295 139.3,94.6 C139.1067,95.1246705 138.524671,95.3932997 138,95.2 C134.324583,93.7721137 130.166038,94.4206941 127.1,96.9 C126.926904,97.0298221 126.71637,97.1 126.5,97.1 Z" id="Shape" fill="#03B0D5"></path>
            <path d="M131.5,114.3 L131.2,114.3 C130.681552,114.153817 130.372053,113.623247 130.5,113.1 C130.815465,111.280237 130.815465,109.419763 130.5,107.6 C130.417157,107.047715 130.797715,106.532843 131.35,106.45 C131.902285,106.367157 132.417157,106.747715 132.5,107.3 C132.5,107.5 133.2,111.3 132.5,113.7 C132.329859,114.093782 131.927521,114.335185 131.5,114.3 Z" id="Shape" fill="#03B0D5"></path>
            <path d="M150.5,124.9 L147.6,124.6 C147.047715,124.489543 146.689543,123.952285 146.8,123.4 C146.910457,122.847715 147.447715,122.489543 148,122.6 C150.8,123.1 152.8,122.9 153.9,121.8 C155,120.7 155,120.1 154.8,118 C149.9,118.2 149.3,117.6 149,117.4 C148.7,117.2 147.7,114.4 146.9,110 C146.828547,109.642734 146.95312,109.274488 147.226795,109.033975 C147.500469,108.793462 147.881667,108.717222 148.226795,108.833975 C148.571923,108.950727 148.828547,109.242734 148.9,109.6 C149.28793,111.734272 149.822531,113.839262 150.5,115.9 C152.225817,116.104407 153.9676,116.137903 155.7,116 C155.965489,115.97211 156.231108,116.051527 156.437716,116.22057 C156.644323,116.389612 156.774766,116.634246 156.8,116.9 L156.8,116.9 C157.4,120.3 156.4,122.2 155.4,123.1 C154.089933,124.35832 152.313095,125.011036 150.5,124.9 Z" id="Shape" fill="#03B0D5"></path>
            <path d="M173.7,184.3 C173.330658,184.312435 172.984566,184.120161 172.8,183.8 C172.4,183.1 164,167.7 162.7,163 L162.7,163 C162.2,160.4 162.2,150 162.5,141.5 C163.1,123.2 164.2,122.4 164.6,122 C165.519293,121.088882 166.876163,120.778741 168.1,121.2 C169.6,121.9 170.4,123.9 170.6,127.4 C170.881032,131.06023 170.914441,134.735266 170.7,138.4 C170.553271,140.66358 170.519896,142.933084 170.6,145.2 C170.617863,145.557266 170.443771,145.896923 170.143301,146.091025 C169.842832,146.285128 169.461634,146.304188 169.143301,146.141025 C168.824969,145.977863 168.617863,145.657266 168.6,145.3 C168.515209,142.966474 168.548585,140.630152 168.7,138.3 C168.910604,134.701873 168.877194,131.093611 168.6,127.5 L168.6,127.5 C168.5,124.6 167.8,123.2 167.3,123 C166.8,122.8 166.5,123 165.9,123.5 C165.3,124 164.8,131.3 164.4,142.2 C164,153.1 164.2,160.5 164.6,162.6 C165.8,167.2 174.4,182.8 174.5,183 C174.641031,183.236821 174.678059,183.521353 174.602336,183.786382 C174.526614,184.051411 174.344857,184.273432 174.1,184.4 L173.7,184.3 Z" id="Shape" fill="#03B0D5"></path>
            <path d="M174,144.6 L173.9,144.6 C173.634246,144.574766 173.389612,144.444323 173.22057,144.237716 C173.051527,144.031108 172.97211,143.765489 173,143.5 C173.321428,139.241399 173.421563,134.968983 173.3,130.7 C173,120.3 171.5,119.6 171.5,119.6 C170.927453,119.343315 170.272547,119.343315 169.7,119.6 C168.867954,120.108079 168.233256,120.88382 167.9,121.8 C167.7067,122.32467 167.124671,122.5933 166.6,122.4 C166.07533,122.2067 165.8067,121.62467 166,121.1 C166.514372,119.703874 167.50627,118.534852 168.8,117.8 C169.840231,117.317597 171.032468,117.281468 172.1,117.7 C173.4,118.2 175,120.1 175.3,130.6 C175.42764,134.968913 175.327504,139.34151 175,143.7 C174.948458,144.212901 174.515478,144.602583 174,144.6 Z" id="Shape" fill="#03B0D5"></path>
            <path d="M174,122.4 L173.8,122.4 C173.532115,122.351975 173.295376,122.19684 173.144411,121.970393 C172.993446,121.743945 172.941298,121.46575 173,121.2 C173.5,118.6 173.2,116.7 172.3,115.6 C171.609038,114.824392 170.637211,114.356475 169.6,114.3 C169.047715,114.3 168.6,113.852285 168.6,113.3 C168.6,112.747715 169.047715,112.3 169.6,112.3 C171.217734,112.351436 172.740387,113.076509 173.8,114.3 C175.2,116 175.6,118.4 174.9,121.6 C174.812172,122.037647 174.444926,122.364088 174,122.4 Z" id="Shape" fill="#03B0D5"></path>
            <path d="M193.4,179.9 C193.136231,179.896243 192.88463,179.788414 192.7,179.6 C189.2,175.8 186.2,171.9 185.8,171.5 C185.4,171.1 176.8,161.8 177.8,153.3 C178.8,144.8 178.4,144.1 178.4,144 L178.4,143.8 C178.4,143.7 181.2,129.8 177.4,124.3 C176.689028,123.168393 175.521076,122.401924 174.2,122.2 C173.647715,122.117157 173.267157,121.602285 173.35,121.05 C173.432843,120.497715 173.947715,120.117157 174.5,120.2 C176.342306,120.487601 177.976996,121.541068 179,123.1 C183.2,129.2 180.6,142.7 180.3,144.1 C180,145.5 180.2,146.4 179.7,153.4 L179.7,153.4 C178.8,161.3 187.2,170 187.2,170.1 L187.3,170.1 C187.3,170.1 190.4,174.2 194.1,178.2 C194.38012,178.4857 194.462976,178.910871 194.310632,179.280848 C194.158288,179.650826 193.800075,179.89438 193.4,179.9 L193.4,179.9 Z" id="Shape" fill="#03B0D5"></path>
            <path d="M161.2,113.7 L161.1,113.7 C160.834246,113.674766 160.589612,113.544323 160.42057,113.337716 C160.251527,113.131108 160.17211,112.865489 160.2,112.6 C160.4,110.6 160.5,109.9 160.6,109.7 C160.7,109.5 160.5,108.9 160.5,107.1 C160.5,106.547715 160.947715,106.1 161.5,106.1 C162.052285,106.1 162.5,106.547715 162.5,107.1 C162.488582,107.901238 162.521968,108.702489 162.6,109.5 C162.635107,109.664818 162.635107,109.835182 162.6,110 C162.5,110.5 162.4,111.5 162.2,112.9 C162.103526,113.373123 161.682761,113.709736 161.2,113.7 L161.2,113.7 Z" id="Shape" fill="#03B0D5"></path>
            <path d="M160.3,96.5 C159.899925,96.4943799 159.541712,96.2508257 159.389368,95.8808485 C159.237024,95.5108712 159.31988,95.0857003 159.6,94.8 C159.7,94.7 163.3,91.2 169.2,94 C169.602767,94.271023 169.7527,94.7921711 169.555535,95.2357932 C169.358369,95.6794154 168.871067,95.9173478 168.4,95.8 C163.8,93.7 161.2,96.1 161.1,96.2 C160.891626,96.4146207 160.598115,96.5246874 160.3,96.5 L160.3,96.5 Z" id="Shape" fill="#03B0D5"></path>
            <path d="M147.8,144 C144.1,144 141.5,143 140,141.1 C138.5,139.2 138.9,134.8 138.9,134.6 C139.001026,134.320855 139.220855,134.101026 139.5,134 L140.2,134 C141.4,134.2 152.5,133.9 159.3,133.6 C159.563769,133.603757 159.81537,133.711586 160,133.9 C160.188414,134.08463 160.296243,134.336231 160.3,134.6 C160.3,137.7 157.8,143.8 148.4,144 L147.8,144 Z M140.8,135.9 C140.562478,137.299803 140.88581,138.736833 141.7,139.9 C142.9,141.4 145.1,142.1 148.4,142 C156,141.8 157.8,137.6 158.2,135.6 C146.9,136 142.5,136 140.8,135.9 Z" id="Shape" fill="#03B0D5"></path>
            <path d="M105.3,101.8 C104.821003,101.833167 104.386042,101.521217 104.263849,101.056882 C104.141655,100.592547 104.366724,100.106905 104.8,99.9 C106.134475,99.2271402 107.377813,98.3870469 108.5,97.4 C108.696496,97.0963242 109.040075,96.9205457 109.401314,96.9388784 C109.762553,96.9572111 110.086571,97.1668699 110.251314,97.4888784 C110.416057,97.8108869 110.396496,98.1963242 110.2,98.5 C109.5,99.6 106.6,101.2 105.8,101.6 L105.3,101.8 Z" id="Shape" fill="#03B0D5"></path>
            <path d="M104.6,86.2 C104.187319,86.1610167 103.84147,85.8714719 103.730527,85.4720759 C103.619583,85.0726799 103.766548,84.6462425 104.1,84.4 L108.2,81.9 C108.504265,81.6445913 108.930859,81.5935023 109.28683,81.769841 C109.642801,81.9461797 109.860638,82.3165032 109.841812,82.7133108 C109.822986,83.1101183 109.571067,83.4581548 109.2,83.6 L105.2,86 L104.6,86.2 Z" id="Shape" fill="#03B0D5"></path>
            <path d="M143.4,168.7 L143.3,168.7 C143.034246,168.674766 142.789612,168.544323 142.62057,168.337716 C142.451527,168.131108 142.37211,167.865489 142.4,167.6 C142.912614,163.056293 145.983347,159.208161 150.3,157.7 C150.80631,157.587222 151.314798,157.880307 151.471,158.374947 C151.627202,158.869588 151.379255,159.401547 150.9,159.6 C147.347841,160.87147 144.827164,164.0514 144.4,167.8 C144.348458,168.312901 143.915478,168.702583 143.4,168.7 Z" id="Shape" fill="#03B0D5"></path>
            <path d="M81.2,177.4 L80.8,177.4 C80.3093398,177.173054 80.0878759,176.597248 80.3,176.1 C81.9486433,172.662104 83.9600709,169.410296 86.3,166.4 C91.4,159.8 97,156.1 102.7,155.6 C103.252285,155.544772 103.744771,155.947715 103.8,156.5 C103.855228,157.052285 103.452285,157.544771 102.9,157.6 C90.5,158.8 82.2,176.8 82.2,177 C81.9730731,177.316783 81.5827971,177.472893 81.2,177.4 L81.2,177.4 Z" id="Shape" fill="#03B0D5"></path>
            <path d="M91.8,57.8 L91.5,57.8 C86,56.1 80.7,51.8 76.2,45.3 C74.2015515,42.3547432 72.5252685,39.2033313 71.2,35.9 C71.0484667,35.4314518 71.2606021,34.9223269 71.7,34.7 L85.1,27.8 C85.3625878,27.6696225 85.6691616,27.6610424 85.9386304,27.776529 C86.2080993,27.8920157 86.4133162,28.1199347 86.5,28.4 C89.5,38.3 103.2,48.1 103.3,48.2 C103.551806,48.3888544 103.7,48.6852427 103.7,49 C103.7,49.3147573 103.551806,49.6111456 103.3,49.8 L92.4,57.6 L91.8,57.8 Z M73.4,36 C74.6430908,38.8666615 76.149551,41.6117667 77.9,44.2 C80.7,48.4 85.4,53.7 91.6,55.7 L101,49 C97.8,46.4 88.2,38.5 85,30 L73.4,36 Z" id="Shape" fill="#7EE6B7"></path>
            <path d="M206.8,155.9 L206.3,155.7 L190,145.4 C189.715627,145.20092 189.554841,144.868605 189.575225,144.522072 C189.595609,144.175539 189.794248,143.864367 190.1,143.7 C198.7,139.6 203.9,120.8 203.9,120.6 C203.968506,120.327616 204.148403,120.096598 204.395698,119.963439 C204.642993,119.83028 204.934887,119.807257 205.2,119.9 L220.5,126.1 C220.893782,126.270141 221.135185,126.672479 221.1,127.1 C219.8,141.6 207.9,154.9 207.4,155.5 C207.256707,155.703314 207.042787,155.845927 206.8,155.9 Z M192.5,144.6 L206.6,153.6 C208.9,150.9 217.8,139.6 219.2,127.7 L205.6,122.1 C204.630652,125.270717 203.46165,128.376923 202.1,131.4 C199.1,137.9 195.9,142.3 192.5,144.6 Z" id="Shape" fill="#7EE6B7"></path>
            <path d="M81.2,148.1 L80.8,148.1 C77,146.5 73.6,143.1 70.8,138 C69.5305703,135.743585 68.49198,133.364879 67.7,130.9 C67.5484667,130.431452 67.7606021,129.922327 68.2,129.7 L80.4,123.1 C80.6993426,122.926204 81.067275,122.919567 81.3726905,123.082455 C81.678106,123.245344 81.8775674,123.55459 81.9,123.9 C82.2,132.1 91.7,139 91.8,139.1 C92.0518058,139.288854 92.2,139.585243 92.2,139.9 C92.2,140.214757 92.0518058,140.511146 91.8,140.7 L81.8,147.9 L81.2,148.1 Z M69.9,131 C70.8,133.7 74.4,142.7 81.1,145.9 L89.6,139.8 C87.1,137.8 81.1,132.2 80.1,125.5 L69.9,131 Z" id="Shape" fill="#FDD345"></path>
            <path d="M80.6,97.1 L80.5,97.1 C80.1,97.1 70.3,96.1 65.8,94.2 L65.7,94.2 C60.8,91.7 61.1,85.7 61.1,85.4 C61.125234,85.1342458 61.2556769,84.8896125 61.4622845,84.7205699 C61.668892,84.5515274 61.9345114,84.4721097 62.2,84.5 L76.6,85.7 C76.8657542,85.725234 77.1103875,85.8556769 77.2794301,86.0622845 C77.4484726,86.268892 77.5278903,86.5345114 77.5,86.8 C76.9,91.8 81.2,95.3 81.2,95.3 C81.5443443,95.5582582 81.6847973,96.0078856 81.5486833,96.4162278 C81.4125693,96.8245699 81.0304304,97.1 80.6,97.1 L80.6,97.1 Z M66.6,92.4 C69.4,93.6 74.8,94.4 78,94.8 C76.3794982,92.7500866 75.498592,90.2130766 75.5,87.6 L63.2,86.5 C63.3,88.2 64,91.1 66.6,92.4 L66.6,92.4 Z" id="Shape" fill="#FDD345"></path>
            <path d="M182.4,90.3 C182.085243,90.3 181.788854,90.1518058 181.6,89.9 C179.944732,87.5811203 178.974509,84.8437056 178.8,82 C178.2,74 183.2,67.1 187.6,62.6 C187.891671,62.3154426 188.326831,62.2363225 188.7,62.4 L208.1,71.5 C208.393051,71.6360146 208.602336,71.9052299 208.661875,72.2227734 C208.721414,72.540317 208.623872,72.8670623 208.4,73.1 C208.2,73.3 202.4,79.1 206.2,84 C206.531371,84.4418278 206.441828,85.0686291 206,85.4 C205.558172,85.7313708 204.931371,85.6418278 204.6,85.2 C201.2,80.8 203.7,75.6 206,72.7 L188.5,64.5 C183.1,70.2 180.4,76.2 180.8,81.7 C180.92099,84.1671019 181.716531,86.5537243 183.1,88.6 C183.25913,88.8121732 183.327457,89.0788704 183.289949,89.3414214 C183.252442,89.6039723 183.112173,89.8408701 182.9,90 L182.4,90.3 Z" id="Shape" fill="#FDE493"></path>
            <path d="M173.4,31.7 L173.3,31.7 C158.8,30.4 145.5,18.5 144.9,18 C144.517638,17.6776434 144.432213,17.1223794 144.7,16.7 L155,0.5 C155.19908,0.215627091 155.531395,0.0548408086 155.877928,0.0752251246 C156.224461,0.0956094406 156.535633,0.29424784 156.7,0.6 C161.1,9.2 180,14.4 180.1,14.5 C180.398184,14.5630194 180.651353,14.7585794 180.787651,15.0311746 C180.923948,15.3037698 180.928495,15.6236411 180.8,15.9 L174.2,31.2 C174.033646,31.4898844 173.733467,31.677496 173.4,31.7 Z M146.9,17.1 C149.6,19.4 160.9,28.3 172.8,29.7 L178.6,16 C175.430718,15.0264422 172.324773,13.8575381 169.3,12.5 C162.8,9.5 158.3,6.3 155.9,2.9 L146.9,17.1 Z" id="Shape" fill="#7EE6B7"></path>
            <path d="M203.5,96.9 L202.6,96.9 C195.6,96.3 182.5,90.2 182,89.9 C181.59715,89.7272155 181.353786,89.3122135 181.399673,88.8762814 C181.445561,88.4403493 181.770003,88.0851164 182.2,88 C182.3,88 190.2,86.4 193.4,79.5 C193.626946,79.0093398 194.202752,78.7878759 194.7,79 L213.8,88.1 C214.29066,88.3269461 214.512124,88.9027522 214.3,89.4 C213.527474,90.83369 212.550588,92.1474334 211.4,93.3 C209.371608,95.5323575 206.51553,96.8338618 203.5,96.9 L203.5,96.9 Z M185.3,89.2 C189.5,91 198,94.5 202.8,94.9 C207.6,95.3 210.7,91.3 211.9,89.4 L194.7,81.2 C192.602864,84.8649098 189.271169,87.664952 185.3,89.1 L185.3,89.2 Z" id="Shape" fill="#FDD345"></path>
            <path d="M243.9,67.9 L243.4,67.9 C239.5,65.9 234.6,62.4 233.3,56.9 C232.833284,54.945152 232.937406,52.8974254 233.6,51 C233.871023,50.5972329 234.392171,50.4472999 234.835793,50.6444653 C235.279415,50.8416307 235.517348,51.3289328 235.4,51.8 C235.3,52.1 232.4,59.8 243.6,65.8 L252.3,57.7 C250.7,57.4 248.6,56.7 247.7,55.2 C247.034947,54.1891086 246.922237,52.9117281 247.4,51.8 C247.5933,51.2753295 248.175329,51.0067004 248.7,51.2 C249.22467,51.3932997 249.4933,51.9753295 249.3,52.5 C249.044473,53.0127724 249.082614,53.6230346 249.4,54.1 C250.3,55.5 253.6,55.9 254.7,55.9 C255.082213,55.941649 255.406702,56.1987384 255.534664,56.5612952 C255.662625,56.9238521 255.571395,57.3276656 255.3,57.6 L244.6,67.6 C244.41537,67.7884143 244.163769,67.896243 243.9,67.9 Z" id="Shape" fill="#FDE493"></path>
            <path d="M280.1,102.4 L279.7,102.4 C270.5,97.8 253.9,101.1 253.8,101.1 C253.48395,101.167019 253.154994,101.077217 252.916836,100.858906 C252.678678,100.640595 252.560665,100.320674 252.6,100 L254.4,86.7 C254.452662,86.4032404 254.636361,86.1460616 254.9,86 C259.9,83 266.7,82.1 274.4,83.3 C277.923893,83.860879 281.377136,84.7996247 284.7,86.1 C285.178465,86.2865894 285.437808,86.8052743 285.3,87.3 L281.1,101.8 C280.998974,102.079145 280.779145,102.298974 280.5,102.4 L280.1,102.4 Z M266.1,97.8 C270.6,97.8 275.5,98.3 279.4,100 L283,87.5 C280.044815,86.4519336 276.998274,85.6819287 273.9,85.2 C268.9,84.4 261.9,84.2 256.1,87.4 L254.6,98.9 C258.431007,98.2235586 262.31013,97.8557108 266.2,97.8 L266.1,97.8 Z" id="Shape" fill="#ABF4D2"></path>
            <path d="M213.9,33.7 L213.2,33.5 C207,28.1 195.5,30.3 195.4,30.3 C195.08395,30.367019 194.754994,30.2772175 194.516836,30.0589063 C194.278678,29.8405951 194.160665,29.5206736 194.2,29.2 L195.8,17 C195.842734,16.6452995 196.071453,16.3403412 196.4,16.2 C200.2,14.5 205,14.4 210.6,15.8 C213.080415,16.4253227 215.492335,17.2962936 217.8,18.4 C218.19439,18.613141 218.39874,19.062709 218.3,19.5 L214.8,33 C214.706629,33.3405617 214.440562,33.6066289 214.1,33.7 L213.9,33.7 Z M201,27.8 L202.1,27.8 C206.059636,27.7946372 209.940878,28.9035637 213.3,31 L216.3,19.9 C213.7,18.7 204.7,15.2 197.8,17.8 L196.4,28.1 C197.925481,27.9031769 199.461877,27.8029771 201,27.8 Z" id="Shape" fill="#ABF4D2"></path>
            <path d="M244,56 L243.9,56 C243.636231,55.996243 243.38463,55.8884143 243.2,55.7 C239.9,51.9 234.5,52.6 234.5,52.6 C234.081598,52.6377435 233.684215,52.4099564 233.505338,52.0298412 C233.32646,51.649726 233.40423,51.1983373 233.7,50.9 C234,50.6 241.4,44.1 245.9,42.2 L246,42.2 C251.1,40.3 255.4,44.6 255.5,44.8 C255.85477,45.2156081 255.81024,45.8390355 255.4,46.2 L244.6,55.8 L244,56 Z M237.1,50.6 C239.716912,50.8114006 242.184713,51.9042838 244.1,53.7 L253.3,45.5 C252.1,44.5 249.5,43 246.7,44 C243.9,45 239.6,48.4 237.1,50.5 L237.1,50.6 Z" id="Shape" fill="#FDE493"></path>
            <path d="M45.7,73.1 L45.7,73.1 C45.366533,73.077496 45.0663543,72.8898844 44.9,72.6 L38.2,62.3 C37.9894247,62.008842 37.9512496,61.6270906 38.1,61.3 C39.9,57.5 43.5,54.4 48.7,51.8 C51.0038825,50.6619787 53.4159101,49.7574683 55.9,49.1 C56.337291,49.0012604 56.786859,49.2056095 57,49.6 L63,62.1 C63.1487504,62.4270906 63.1105753,62.808842 62.9,63.1 C62.7154337,63.4201614 62.3693419,63.6124346 62,63.6 L62,63.6 C53.9,63.6 46.6,72.7 46.5,72.7 C46.3111456,72.9518058 46.0147573,73.1 45.7,73.1 Z M40.2,61.7 L45.9,70.4 C48.1,68 53.9,62.3 60.7,61.6 L55.7,51.2 C52.9,52.1 43.7,55.2 40.2,61.7 Z" id="Shape" fill="#ABF4D2"></path>
            <path d="M247.3,169.9 L247.1,169.9 C246.78289,169.825908 246.521719,169.602047 246.4,169.3 C243.5,161.7 232.3,158.2 232.1,158.1 C231.808141,157.997642 231.58007,157.765995 231.482264,157.472579 C231.384459,157.179163 231.427928,156.857002 231.6,156.6 L238.7,146.6 C238.908993,146.317936 239.250586,146.166117 239.6,146.2 C243.8,146.5 248,148.7 252.3,152.6 C254.219825,154.321085 255.961904,156.230671 257.5,158.3 C257.792583,158.698481 257.750085,159.250955 257.4,159.6 L248,169.5 C247.833134,169.725653 247.579125,169.870801 247.3,169.9 L247.3,169.9 Z M234,156.6 C237,157.7 244.4,161 247.6,167.1 L255.4,158.7 C253.7,156.5 247.4,149.1 240,148.2 L234,156.6 Z" id="Shape" fill="#ABF4D2"></path>
            <path d="M55.6,128.8 L54.9,128.5 C50.9,124.8 43.1,126.1 43,126.1 C42.699612,126.131896 42.4009034,126.026298 42.1873029,125.812697 C41.9737025,125.599097 41.8681036,125.300388 41.9,125 L43.2,116.7 C43.2427344,116.345299 43.4714531,116.040341 43.8,115.9 C50.2,113.3 58.4,117.7 58.7,117.9 C59.1393979,118.122327 59.3515333,118.631452 59.2,119.1 L56.5,128 C56.4066289,128.340562 56.1405617,128.606629 55.8,128.7 L55.6,128.8 Z M46.2,123.9 C49.3154844,123.772353 52.4027971,124.535509 55.1,126.1 L57.1,119.2 C55.1,118.3 49.6,116 45.1,117.5 L44.1,123.9 L46.2,123.9 Z" id="Shape" fill="#ABF4D2"></path>
            <path d="M267.689716,146.024638 L267.689716,146.024638 C267.356249,146.002134 267.05607,145.814522 266.889716,145.524638 L260.189716,135.224638 C259.97914,134.93348 259.940965,134.551728 260.089716,134.224638 C261.889716,130.424638 265.489716,127.324638 270.689716,124.724638 C272.993598,123.586616 275.405626,122.682106 277.889716,122.024638 C278.327007,121.925898 278.776575,122.130247 278.989716,122.524638 L284.989716,135.024638 C285.123532,135.331125 285.095282,135.684218 284.914438,135.965531 C284.733594,136.246843 284.424097,136.419134 284.089716,136.424638 L283.989716,136.424638 C275.889716,136.424638 268.589716,145.524638 268.489716,145.524638 C268.323361,145.814522 268.023183,146.002134 267.689716,146.024638 Z M262.189716,134.624638 L267.889716,143.324638 C270.089716,140.924638 275.889716,135.224638 282.689716,134.524638 L277.689716,124.124638 C274.889716,125.024638 265.689716,128.124638 262.189716,134.624638 Z" id="Shape" fill="#FDD345"></path>
            <path d="M217.85273,198.169058 L217.15273,197.869058 L210.35273,191.669058 C210.081973,191.439133 209.953507,191.082835 210.015238,190.73303 C210.076968,190.383224 210.319629,190.092419 210.65273,189.969058 C215.55273,188.069058 217.75273,180.769058 217.75273,180.669058 C217.855088,180.377199 218.086735,180.149127 218.380151,180.051322 C218.673567,179.953516 218.995728,179.996985 219.25273,180.169058 L225.95273,184.869058 C226.234794,185.078051 226.386613,185.419643 226.35273,185.769058 C225.85273,192.469058 218.55273,197.769058 218.25273,197.969058 L217.85273,198.169058 Z M212.75273,191.169058 L217.85273,195.869058 C219.45273,194.569058 223.75273,190.669058 224.45273,186.169058 L219.35273,182.569058 C218.45273,184.769058 216.35273,189.069058 212.75273,191.269058 L212.75273,191.169058 Z" id="Shape" fill="#FDE493"></path>
            <path d="M127.7,54.8 L127.1,54.6 L123.4,51.5 C123.061809,51.1250685 123.056174,50.5568461 123.386864,50.1752817 C123.717553,49.7937174 124.280807,49.7185323 124.7,50 L128.4,53.1 C128.744344,53.3582582 128.884797,53.8078856 128.748683,54.2162278 C128.612569,54.6245699 128.23043,54.9 127.8,54.9 L127.7,54.8 Z" id="Shape" fill="#FDD345"></path>
            <path d="M134.8,48.7 C134.317239,48.7097357 133.896474,48.3731232 133.8,47.9 L133.2,43.9 C133.14641,43.5427344 133.28749,43.1840176 133.570096,42.9589746 C133.852702,42.7339316 134.2339,42.676752 134.570096,42.8089746 C134.906292,42.9411972 135.14641,43.2427344 135.2,43.6 L135.8,47.6 C135.862147,48.1194864 135.513362,48.5990661 135,48.7 L134.8,48.7 Z" id="Shape" fill="#FDD345"></path>
            <path d="M142.8,54.2 L142.3,54.2 C142.07188,54.0564065 141.91139,53.8268012 141.854911,53.5632334 C141.798432,53.2996656 141.850748,53.0244589 142,52.8 L146,46.1 C146.141845,45.7289332 146.489882,45.477014 146.886689,45.4581879 C147.283497,45.4393619 147.65382,45.6571992 147.830159,46.0131702 C148.006498,46.3691411 147.955409,46.7957352 147.7,47.1 L143.7,53.8 C143.491007,54.0820644 143.149414,54.2338835 142.8,54.2 L142.8,54.2 Z" id="Shape" fill="#FDD345"></path>
            <path d="M44.0866156,186.599434 L43.7866156,186.599434 L30.9866156,182.499434 C30.7074709,182.398408 30.4876421,182.178579 30.3866156,181.899434 C28.2866156,176.499434 28.5866156,169.599434 31.1866156,162.199434 C32.3341338,158.813966 33.8428285,155.561891 35.6866156,152.499434 C35.9485895,152.046557 36.5153655,151.872164 36.9866156,152.099434 L50.5866156,158.699434 C50.8614285,158.822674 51.0660595,159.06321 51.1436626,159.354222 C51.2212658,159.645234 51.1635746,159.955722 50.9866156,160.199434 C44.8866156,168.499434 45.1866156,185.299434 45.1866156,185.499434 C45.1866156,185.814192 45.0384215,186.11058 44.7866156,186.299434 L44.0866156,186.599434 Z M32.0866156,180.699434 L43.0866156,184.199434 C43.0866156,179.999434 43.6866156,167.599434 48.5866156,159.999434 L36.8866156,154.299434 C35.3264994,157.006037 34.0209025,159.851569 32.9866156,162.799434 C31.3866156,167.599434 29.8866156,174.499434 32.0866156,180.699434 Z" id="Shape" fill="#ABF4D2"></path>
            <path d="M9.61485128,151.587722 C9.35108202,151.583965 9.09948174,151.476136 8.91485128,151.287722 L0.314851283,142.487722 C0.0698567861,142.257265 -0.0428706039,141.919083 0.0148512826,141.587722 C1.01485128,137.587722 3.91485128,133.687722 8.51485128,130.187722 C10.5393525,128.607688 12.7168646,127.234181 15.0148513,126.087722 C15.4361401,125.89867 15.9320912,126.022658 16.2148513,126.387722 L24.6148513,137.387722 C24.8304578,137.662324 24.8872378,138.029494 24.7646495,138.356396 C24.6420612,138.683298 24.3578553,138.922598 24.0148513,138.987722 C16.0148513,140.487722 10.6148513,150.987722 10.5148513,151.087722 C10.3687896,151.351361 10.1116109,151.53506 9.81485128,151.587722 L9.61485128,151.587722 Z M2.11485128,141.487722 L9.41485128,148.887722 C11.0148513,146.087722 15.6148513,139.387722 22.1148513,137.287722 L15.2148513,128.087722 C12.6148513,129.487722 4.21485128,134.387722 2.11485128,141.587722 L2.11485128,141.487722 Z" id="Shape" fill="#ABF4D2"></path>
            <path d="M15.6625433,109.561806 C13.8448573,109.594976 12.0507745,109.146456 10.4625433,108.261806 C9.99310129,107.95805 9.85878672,107.331248 10.1625433,106.861806 C10.4662999,106.392364 11.0931013,106.25805 11.5625433,106.561806 C11.8625433,106.761806 18.8625433,110.961806 26.8625433,100.861806 L20.3625433,90.9618062 C19.7625433,92.4618062 18.7625433,94.3618062 17.1625433,95.0618062 C16.0508152,95.539569 14.7734348,95.4268589 13.7625433,94.7618062 C13.3885521,94.4478671 13.2959718,93.9097398 13.5435447,93.4888659 C13.7911176,93.0679919 14.3064414,92.8874552 14.7625433,93.0618062 C15.2208442,93.4119856 15.832146,93.4883983 16.3625433,93.2618062 C17.8625433,92.5618062 18.8625433,89.4618062 19.0625433,88.3618062 C19.1624872,87.9807485 19.4768412,87.6938758 19.8654275,87.6291114 C20.2540138,87.564347 20.6444156,87.7337604 20.8625433,88.0618062 L28.9625433,100.361806 C29.1823238,100.695539 29.1823238,101.128074 28.9625433,101.461806 C26.3625433,104.961806 21.9625433,109.161806 16.3625433,109.461806 L15.6625433,109.561806 Z" id="Shape" fill="#FDE493"></path>
            <path d="M10.4320816,108.682762 C10.0986145,108.660258 9.79843583,108.472646 9.63208155,108.182762 C9.43208155,107.782762 4.33208155,99.3827621 3.13208155,94.6827621 L3.13208155,94.6827621 C2.13208155,89.2827621 7.13208155,85.8827621 7.33208155,85.7827621 C7.55654042,85.6335104 7.83174712,85.5811942 8.09531491,85.637673 C8.3588827,85.6941518 8.58848803,85.854642 8.73208155,86.0827621 L16.3320816,98.3827621 C16.4813332,98.6072209 16.5336494,98.8824276 16.4771706,99.1459954 C16.4206918,99.4095632 16.2602016,99.6391685 16.0320816,99.7827621 C11.6320816,102.382762 11.4320816,107.782762 11.4320816,107.782762 C11.4093798,108.199428 11.1303385,108.558195 10.7320816,108.682762 L10.4320816,108.682762 Z M5.03208155,94.2827621 C5.73208155,97.2827621 8.33208155,101.982762 9.93208155,104.882762 C10.5880157,102.372102 12.066832,100.153878 14.1320816,98.5827621 L7.63208155,88.0827621 C6.43208155,89.0827621 4.53208155,91.3827621 5.03208155,94.2827621 L5.03208155,94.2827621 Z" id="Shape" fill="#FDE493"></path>
        </g>
    </g>
</svg>