<svg id="Layer_1" data-name="Layer 1" xmlns="http://www.w3.org/2000/svg" xmlns:xlink="http://www.w3.org/1999/xlink" viewBox="0 0 302.4 145"><defs><style>.cls-1{fill:none;}.cls-2{fill:#e6e4eb;}.cls-3{clip-path:url(#clip-path);}.cls-4{fill:#0dd673;}.cls-5{fill:#ccc9d4;}.cls-6{fill:#7de5b8;}.cls-7{fill:#d9f7e8;}.cls-8{fill:#ccf5e3;}.cls-9{fill:#adf0d1;}.cls-10{fill:#e5faf2;}.cls-11{fill:#fcd445;}.cls-12{fill:#abedf7;}.cls-13{clip-path:url(#clip-path-2);}.cls-14{fill:#ccf5fa;}.cls-15{fill:#474052;}</style><clipPath id="clip-path"><path class="cls-1" d="M4.5,44.6a39,39,0,1,0,39-39,39,39,0,0,0-39,39"/></clipPath><clipPath id="clip-path-2"><path class="cls-1" d="M215.8,29.8a4.9,4.9,0,0,0-1.7.3l-.7.3a.5.5,0,0,0,.3,1h.3l.7-.3,1.2-.2h0l1,.2a2.2,2.2,0,0,1,.9.9.5.5,0,0,0,.5.3h.2a.5.5,0,0,0,.2-.7,3.2,3.2,0,0,0-1.3-1.3,3.1,3.1,0,0,0-1.5-.4Z"/></clipPath></defs><title>illustration-guidelines</title><path class="cls-2" d="M95.6,81h-.3L75.6,67.7a.5.5,0,0,1,.6-.9L95.9,80a.5.5,0,0,1,.1.7Z"/><g class="cls-3"><path class="cls-4" d="M102,0h-13a5.1,5.1,0,0,0-.6,1.1,1.6,1.6,0,0,0,.9,2.1h.6a1.6,1.6,0,0,0,1.5-1c.4-1,1.5-1.3,2.9-1.3A18.8,18.8,0,0,1,100,2.2a1.6,1.6,0,0,0,2-.9A1.6,1.6,0,0,0,102,0Zm-65,17a39.9,39.9,0,0,0-3.4-6.6c-1.9-3.2-4.2-7.3-3.1-8.8A11.7,11.7,0,0,1,32.2,0H27.8c-2.1,3.2.5,7.7,3,12a38.1,38.1,0,0,1,3.1,6,10,10,0,0,1,.5,3.2c0,4.8-2.4,10.5-2.4,10.6a1.6,1.6,0,0,0,.8,2.1h.6a1.6,1.6,0,0,0,1.5-1C35.1,32.7,39.1,23.2,36.9,17Zm68.6,78.4c-2.2-1.5-6-6-8.1-8.7,14.4-9.8,20-26.3,18.3-53-.8-13-5.3-25.1-9.3-33.7H103c4.4,9.1,8.9,21.1,9.7,33.9s-.2,24.4-3.4,32.8A35.6,35.6,0,0,1,94.5,84.9h-.2l-1.6,1c-15.8,8.8-34.1-.6-34.3-.7A1.6,1.6,0,1,0,56.9,88a47.4,47.4,0,0,0,12.1,4c9.4,1.8,18.1.7,25.3-3.3l.6-.4c1.8,2.4,6.1,7.7,9,9.7a12.6,12.6,0,0,1,4.3,10.4c-.5,5.5-5.3,10.3-13.9,13.9s-18.8,4.7-25.5,1.3a19.1,19.1,0,0,1-9.9-12.9A46.8,46.8,0,0,0,54,98.3c-1.5-2.8-2.6-4.8-2.2-6.8a1.6,1.6,0,0,0-3.1-.5c-.5,3,.8,5.6,2.6,8.8a43.8,43.8,0,0,1,4.6,11.7,22.2,22.2,0,0,0,11.5,15,24.7,24.7,0,0,0,11.4,2.6,42.8,42.8,0,0,0,16.7-3.8c6.8-2.9,15-8.1,15.8-16.6A15.7,15.7,0,0,0,105.6,95.4ZM62.2,4.7A17.6,17.6,0,0,0,57,4.6c-3.8.5-6.6,2.3-8.2,5.2a1.6,1.6,0,0,0,.6,2.2l.8.2a1.6,1.6,0,0,0,1.4-.8c2.7-4.8,9.9-3.5,10-3.5a1.6,1.6,0,1,0,.6-3.1Zm6.2,28.2-1.9-5.4a1.6,1.6,0,1,0-3,1l1.9,5.4A1.6,1.6,0,0,0,66.8,35h.5A1.6,1.6,0,0,0,68.3,32.9ZM89,24a1.6,1.6,0,1,0-2.7,1.6c2.4,4,8.4,15.5,6.5,20.3-.8,2.2-2.1,2.2-6.2.9-2.5-.8-5.1-1.6-7.2-.1a1.6,1.6,0,0,0,1.8,2.6c.8-.6,2.7,0,4.4.6a17,17,0,0,0,4.8,1c2.1,0,4.1-.8,5.2-3.8C98.6,40,90,25.6,89,24Zm3.2,44.6L90,58a1.6,1.6,0,0,0-1.8-1.2L76.5,59c-7.6,1.4-7.6,1.4-9.9,1.6h-.3A2.1,2.1,0,0,0,64.5,62c-.6,1.7.5,4.3,2.8,6.5s5.4,4.4,12,4.4a33.2,33.2,0,0,0,11.9-2.5A1.6,1.6,0,0,0,92.3,68.6ZM70.7,67.3a8.5,8.5,0,0,1-2.9-3.6c1.7-.1,2.6-.3,9.3-1.6l10.2-1.9L88.9,68C84,69.7,76.2,71.3,70.7,67.3ZM49.4,53.6a19.4,19.4,0,0,0-8.6-16.8,1.6,1.6,0,0,0-1.6,2.7,16.3,16.3,0,0,1,7.1,14c-.2,4-1.9,7.3-3.5,10.4s-4.6,8.7-1,13.7a1.6,1.6,0,0,0,1.3.7,1.6,1.6,0,0,0,1.3-2.5c-2.3-3.3-1.2-5.8,1.3-10.4S49.2,58.4,49.4,53.6ZM91.9,95.7a1.6,1.6,0,0,0-2.2-.2c-3.3,2.7-9.7,2.9-11,2.9h-.3a1.6,1.6,0,1,0-.1,3.2h.5c1.9,0,8.9-.2,13-3.6A1.6,1.6,0,0,0,91.9,95.7Zm-55-36a1.6,1.6,0,0,0-2.1-.8c-5.3,2.3-10.4,1-13.6-3.4s-3-9.6-.2-12.7a5.2,5.2,0,0,1,4.3-2,10.1,10.1,0,0,1,5.4,2.7,21.8,21.8,0,0,1,3.5,3.8,1.6,1.6,0,0,0,2.6-1.8c-.2-.3-5.2-7.3-11.2-7.7a8.2,8.2,0,0,0-6.8,2.9,10.3,10.3,0,0,0-1.2,1.5,41.5,41.5,0,0,1-5.8-8.7C6.2,22.9,5.3,11.7,5.5,4.1A32.6,32.6,0,0,1,5.9,0H0V8.5L2.3,7.2A62,62,0,0,0,9,35.1a40.5,40.5,0,0,0,7.2,10.2,14.7,14.7,0,0,0,2.5,12c3.1,4.5,9.4,8,17.4,4.5A1.6,1.6,0,0,0,36.9,59.7Z"/><path class="cls-5" d="M34.5,75.3h-.1a1.6,1.6,0,0,1-1.5-1.7c.2-3.3,1-4.6,3.3-8.7l2.3-4.1a15.3,15.3,0,0,0,.1-14.8c-1.8-3.2-9.7-9.5-12.6-11.6a1.6,1.6,0,1,1,1.9-2.5c1.1.8,11,8.2,13.5,12.6a18.5,18.5,0,0,1-.1,17.8L39,66.5c-2.2,3.9-2.8,4.8-2.9,7.3A1.6,1.6,0,0,1,34.5,75.3Z"/></g><path class="cls-2" d="M43.9,84.1A39.6,39.6,0,1,1,83.5,44.6,39.6,39.6,0,0,1,43.9,84.1Zm0-78.1A38.5,38.5,0,1,0,82.5,44.6,38.6,38.6,0,0,0,43.9,6.1Z"/><path class="cls-6" d="M98.3,45.3s3.1-5.5-1-6.1-9.3,9.3-7.7,12.9,4.1,3,6.2,2.8Z"/><path class="cls-6" d="M124.1,48.2h0"/><path class="cls-6" d="M128.7,41.7s-5.8-7.8-23.7-1.1-5,29.5-5,29.5.6-.8,3.1-1.8,4.6,1.9,4.6,1.9V64.8l-.3,1.1.8-5.8c.3-2-2.8-6.3-2.9-7s3.5-3.7,7.2-4.9,5.8-.5,8-.3l2.5.3c1.7-3.8-4.3-6-4.3-6,7.2-.8,8,4.6,8.1,5.8a3.7,3.7,0,0,0,2.4-1.2c1.1-1.7-.5-5-.5-5"/><path class="cls-7" d="M151.5,77.7h-.3l-10.3,3.6s3.9-.4,7.4-.4a17.4,17.4,0,0,1,4.2.4c2.7.8,8.2,9.6,8.2,9.6l2.4-1.7s-3.1-10-6.4-10.8a22.4,22.4,0,0,0-5.2-.7"/><path class="cls-8" d="M248.9,110.6a1.3,1.3,0,0,0-1.3,1.1c-.2,1.9-.7,4.4-1.7,5.7s-2.2,2.1-2.4,3.2-1.1.3-.7,2.8,4,5.4,6.1,5.4,6.3-7.6,3.8-13.1a20.4,20.4,0,0,0-2.9-4.6,1.2,1.2,0,0,0-1-.5"/><path class="cls-8" d="M239.1,129.2a75.1,75.1,0,0,0,17,12.5,22.4,22.4,0,0,0,10.3,2.9,10.3,10.3,0,0,0,4.8-1c-10.1-2.4-23.8-13.7-23.8-13.7a5.1,5.1,0,0,1-1.7.2,40.3,40.3,0,0,1-6.6-.8"/><path class="cls-7" d="M126.3,39.8a9.7,9.7,0,0,1,2,1.5l-.2-.3a4.9,4.9,0,0,0-1.8-1.2m-6,2.3h-1.4s6,2.3,4.3,6h0l-2.4-.3-4-.3a13.9,13.9,0,0,0-4.1.5c-3.7,1.2-7.2,4.2-7.2,4.9s3.2,5,2.9,7l-.8,5.8.3-1.1v5.5s-1.5-2.1-3.6-2.1l-1,.2a9.5,9.5,0,0,0-2.7,1.4l.4.7,2.5-1.8s-1.2,3.1.5,5.6a5.9,5.9,0,0,0,4.5,2.5s1.1.7,1.3,3.1,2.2,5.7,2.7,6.2-16.8,11.2-18,31.1a19.7,19.7,0,0,1,6-1.2,6.1,6.1,0,0,1,3.6.9c3.1,2.2,7.3,8.1,20.1,8.7,0,0-6.8-4.9-4.9-9.2s21.1-8,17.1-15.8c0,0-5.4-7.4-5.4-8.1s3.3-3,3.3-3l-1.5-1.9s5.3-5.2,4.6-19.9S129.3,47,129.3,47a5.5,5.5,0,0,0,.3-1.4,2.5,2.5,0,0,1-.4,1.1,3.7,3.7,0,0,1-2.4,1.2c-.1-1.1-.7-5.9-6.7-5.9m3.9,6.2Zm2.3,33.2c-4.9,0-5.6-3.4-5.6-3.4l8.9-1.6.9,4.3a15.6,15.6,0,0,1-4.2.7M129.2,43a8.8,8.8,0,0,1,.3,1.2,6.5,6.5,0,0,0-.3-1.2M95.6,55h-.1a21.2,21.2,0,0,0,1,7.8l1.3,2.3A32.6,32.6,0,0,1,95.6,55"/><path class="cls-6" d="M95.6,54q-.1.5-.1,1h.1c0-.3,0-.7,0-1"/><path class="cls-6" d="M124.1,48.2h0"/><path class="cls-6" d="M117.4,38.3c-5.3,0-11.6,1.3-16.2,5.2A15.6,15.6,0,0,0,95.6,54c0,.3,0,.7,0,1a32.6,32.6,0,0,0,2.2,10.1l2.6,4.7a9.5,9.5,0,0,1,2.7-1.4l1-.2c2,0,3.6,2.1,3.6,2.1V64.8l-.3,1.1.8-5.8c.3-2-2.8-6.3-2.9-7s3.5-3.7,7.2-4.9a13.9,13.9,0,0,1,4.1-.5l4,.3,2.4.3h0c1.7-3.8-4.3-6-4.3-6h1.4c5.9,0,6.6,4.7,6.7,5.9a3.7,3.7,0,0,0,2.4-1.2,2.5,2.5,0,0,0,.4-1.1,6.6,6.6,0,0,0-.1-1.4,8.8,8.8,0,0,0-.3-1.2,6.8,6.8,0,0,0-.9-1.7,9.7,9.7,0,0,0-2-1.5,23.7,23.7,0,0,0-8.9-1.5"/><path class="cls-8" d="M236.5,25.8c-.7,0-2.9.3-1.9,4.1s5.8,6.3,5.8,6.3l-3,2.2c.8,5,6.8,7.7,10.9,8.2s11.3,6,11.4,17.5-14.4,22.7-15.9,23.9l1.7-.2c9.3-1.9,16.7-8.9,16.7-8.9a7,7,0,0,0,4,1.6,4,4,0,0,0,3.5-2.1c2.9-4.4-2.1-6.1-2.1-6.1s5.4-5.9,6.2-17.6-9.5-20.6-17.9-23.5-19-5.5-19-5.5h-.2"/><path class="cls-8" d="M238.5,59.5a59.6,59.6,0,0,0-4.9,6.7c-.9,1.7,1.7,3.4,3.9,3.4a2.7,2.7,0,0,0,2.3-1c1.7-2.4-1.3-9.1-1.3-9.1"/><path class="cls-8" d="M268.9,87.7h-1.4c-4.5.7-8.9,7.3-10,7.9s-.2,1.9,1.5,1.9a4.3,4.3,0,0,0,1.8-.5,7.8,7.8,0,0,1,3.3-.8c1.3,0,2,.5,1.8,1.1s-8.7,9.8-7.7,12a4,4,0,0,0,2.7,2.5l1.5-.7s-.7,7.1,2.3,7.1h0c3,0,2.2-7.4,5.6-9.8,0,0-2.9,6.7.4,7.5l1.5.2c1.7,0,1.4-1.2,1.4-1.2s.8-5.4,2-6.2,6.3-2.4,4.5-10.9-6.9-10.4-11.2-10.4"/><path class="cls-8" d="M225.1,74c-4.4,2.4-7.2,16.8,4.8,19.3a28.1,28.1,0,0,0,5.7.6,23.4,23.4,0,0,0,13.9-4.3l4.5-4.7a23.9,23.9,0,0,1-8.6,3l-1.8.3h-2.2a25.8,25.8,0,0,1-3.9-.3C227.9,86.4,225.1,74,225.1,74"/><path class="cls-9" d="M245.4,87.9l-1.7.2h-.1l1.8-.3"/><path class="cls-10" d="M182.5,25.3c-.9,0,2.6,2.9-14.6,6.7a48,48,0,0,1-9.8,1.2,14.4,14.4,0,0,1-3.9-.4c-.2,1.9-.3,3.6-.5,4.9-.8,4.9,8,34.6,26.1,34.6h1.7C200.7,70.3,199,49.9,199,49.9c2.4-1.5,3.2-2.2,3.2-6.9s-2.4-3.9-3.7-3.9h-.1c-1.5.2-3.1,2.9-4,2.9h-.4c-6.4,0-4.1-13.8-9.6-16.3l-1.8-.5m-10,32.2c1.2-1.7-2.9-8.2-.9-8.2h.1c2.2.2,5.7,5.5,5.7,5.5Zm8.5,9L179,61.6l9.3-4.1c.9,6.4-7.3,9-7.3,9"/><path class="cls-6" d="M152.1,32.1l-.8-.2.8.2"/><path class="cls-6" d="M151.2,32h0"/><path class="cls-6" d="M154.3,32.6h0m-1.9,2.3c.1,2.9,1.3,2.4,1.3,2.4l.8-4.6h0c8.4,1.8,24.7-3.8,25.8-5.5s5.2-2.8,6.8,2,3.2,13.6,7.3,12.9,3.8-5.1,3.8-5.1l-6.8-14.6c-1.4-2-4.9-5.2-6.6-5.9l-2.3-.9.7-2.2a.6.6,0,0,0-.9-.8l-4,1.8a28.6,28.6,0,0,0-14.4.9c-9.7,3-11.7,11.6-11.5,17.1.1,0-.4,1.3-.2,1.3s.4,1.2.2,1.2"/><path class="cls-6" d="M152.1,32.1l1,.2-1-.2"/><path class="cls-6" d="M150.8,31.9"/><path class="cls-6" d="M191.9,68.4s.6,8.8-.6,9.9-6.1-6.8-6.1-6.8"/><path class="cls-11" d="M149.6,25.4a3.7,3.7,0,0,0-.8,1.2,8.5,8.5,0,0,0-.7,3.7,16.5,16.5,0,0,0,.4,3.3.5.5,0,1,0,1-.2,15.4,15.4,0,0,1-.4-3.1,7.4,7.4,0,0,1,.6-3.2l.4-.7h.1l-.2-.2.2.2h0l-.2-.2.2.2a.5.5,0,0,0-.7-.8Z"/><path class="cls-11" d="M145.8,22.1a11.6,11.6,0,0,0-1,2.1,15.3,15.3,0,0,0,0,10.8.5.5,0,0,0,1-.4,14.2,14.2,0,0,1,0-10.1l.6-1.4.2-.4h.1a.5.5,0,1,0-.9-.6Z"/><path class="cls-12" d="M266.4,37.9l7.7-20.9-.5-.2v.5h1.6a18.5,18.5,0,0,1,4.3.5,7.5,7.5,0,0,1,2,.8,3.2,3.2,0,0,1,1.2,1.2,4.5,4.5,0,0,0,1.1,1.3,9.4,9.4,0,0,0,2.7,1.5,23.4,23.4,0,0,0,4.4,1.1l2.2.3v-.5l-.4-.3.2.2-.2-.2h0l.2.2-.2-.2h0a5.8,5.8,0,0,1-1.7,1.1,11.1,11.1,0,0,1-4.8,1h-2a16.9,16.9,0,0,1-5.8-1.7l-1.9-.9a5.1,5.1,0,0,0-1.9-.4l-1.2.2a.5.5,0,0,0,.3,1h1a4,4,0,0,1,1.5.3l3,1.4a17.9,17.9,0,0,0,5,1.3h2.1a11.9,11.9,0,0,0,5.5-1.2,6.2,6.2,0,0,0,1.8-1.3.5.5,0,0,0-.4-.9h0a28.2,28.2,0,0,1-4.4-.8,14.7,14.7,0,0,1-3.1-1.1l-1.2-.8a3.4,3.4,0,0,1-.8-.9,4.3,4.3,0,0,0-1.6-1.6,10,10,0,0,0-3.5-1.1,21.7,21.7,0,0,0-3.3-.2h-1.7a.5.5,0,0,0-.4.3l-7.7,20.9a.5.5,0,0,0,1,.4Z"/><path class="cls-12" d="M213.7,39.4s0-.1,0-.3a16.6,16.6,0,0,0-.7-4.9,8.6,8.6,0,0,0-1.6-2.9,5.6,5.6,0,0,0-3.1-1.8h-.9a3.3,3.3,0,0,0-1.7.4,3.9,3.9,0,0,0-1.1.9,7.4,7.4,0,0,0-1.2,2.3,18,18,0,0,0-.8,3.9c-.1,1.2-.1,2.1-.1,2.4s0,.1,0,.1a.5.5,0,1,0,1.1,0h0a22.6,22.6,0,0,1,.6-5,8,8,0,0,1,1.2-2.8,3,3,0,0,1,.9-.8,2.2,2.2,0,0,1,1.1-.3h.7a4.5,4.5,0,0,1,2.5,1.5,8.9,8.9,0,0,1,1.8,4,16.6,16.6,0,0,1,.3,3.2v.2h0a.5.5,0,0,0,1.1,0Z"/><path class="cls-12" d="M204,34.4a4.6,4.6,0,0,0-.8-1.2,3.8,3.8,0,0,0-1-.9,3.1,3.1,0,0,0-1.6-.4,5.2,5.2,0,0,0-2.9,1.1.5.5,0,1,0,.6.9,4.1,4.1,0,0,1,2.3-.9,2.1,2.1,0,0,1,1,.3,3,3,0,0,1,1,1l.2.4h.1a.5.5,0,1,0,1-.4Z"/><path class="cls-12" d="M227.5,39.7l-.2-.2.2.2h0l-.2-.2.2.2h0l.5-.3a2.5,2.5,0,0,1,1.2-.3l1.2.2a5.9,5.9,0,0,1,1.5.9.5.5,0,1,0,.7-.8,7,7,0,0,0-1.8-1.1,4.3,4.3,0,0,0-1.6-.3,3.5,3.5,0,0,0-1.8.5l-.7.5a.5.5,0,1,0,.8.7Z"/><path class="cls-12" d="M277,46.7a9.8,9.8,0,0,0-.4-2.4,8.7,8.7,0,0,0-.9-2.1,6.6,6.6,0,0,0-1.8-1.9,6.2,6.2,0,0,0-3.6-1.3,4.3,4.3,0,0,0-2,.4.5.5,0,1,0,.5.9l-.2-.3.2.3h0l-.2-.3.2.3h0a3.3,3.3,0,0,1,1.4-.3,5.2,5.2,0,0,1,3,1.1,5.5,5.5,0,0,1,1.5,1.6,8.2,8.2,0,0,1,1,2.7,9.2,9.2,0,0,1,.1.9v.3h0a.5.5,0,1,0,1.1,0Z"/><path class="cls-12" d="M153.7,38h-.2a9,9,0,0,0-3,.5,5.8,5.8,0,0,0-1.9,1.1,4.6,4.6,0,0,0-1.3,2.1.5.5,0,1,0,1,.3,3.5,3.5,0,0,1,1-1.6,5.3,5.3,0,0,1,2.4-1.1l1.8-.2h.1a.5.5,0,0,0,0-1.1Z"/><path class="cls-12" d="M143.8,42l-1.6-.8a11,11,0,0,0-3.8-.8,6.7,6.7,0,0,0-3.3.8.5.5,0,0,0,.5.9,5.7,5.7,0,0,1,2.8-.7,9.9,9.9,0,0,1,3.4.7l1.1.5.3.2h.1a.5.5,0,1,0,.5-.9Z"/><path class="cls-12" d="M274.1,51.2h0a25.9,25.9,0,0,1,4.1-5.5,19.3,19.3,0,0,1,4.7-3.6,13.2,13.2,0,0,1,6.3-1.6h.5a11,11,0,0,1,4.7,1.2,11.9,11.9,0,0,1,5,5.1,17.6,17.6,0,0,1,1.9,8.3,27.9,27.9,0,0,1-3.1,12.3,19.5,19.5,0,0,1-7,8.3,14.2,14.2,0,0,1-7.6,2.1,16.7,16.7,0,0,1-4.9-.7,13.3,13.3,0,0,1-3.3-1.5,9.7,9.7,0,0,1-3.1-3.2,6.7,6.7,0,0,1-1-3.2,3.2,3.2,0,0,1,.2-1.3.5.5,0,1,0-1-.4,4.3,4.3,0,0,0-.3,1.7,7.7,7.7,0,0,0,1.1,3.8,10.7,10.7,0,0,0,3.4,3.6,14.3,14.3,0,0,0,3.6,1.6,17.7,17.7,0,0,0,5.2.8,15.3,15.3,0,0,0,8.1-2.3,20.5,20.5,0,0,0,7.4-8.7,28.9,28.9,0,0,0,3.2-12.7,17.5,17.5,0,0,0-3.5-11,12.4,12.4,0,0,0-4-3.3,12,12,0,0,0-5.1-1.3h-.5a14.3,14.3,0,0,0-6.9,1.8,22.4,22.4,0,0,0-6.8,6,25,25,0,0,0-2.4,3.6.5.5,0,1,0,.9.5Z"/><path class="cls-12" d="M296.1,71.7a8.6,8.6,0,0,0,2.3.3,4.6,4.6,0,0,0,2.4-.6,3,3,0,0,0,1-1,3.8,3.8,0,0,0,.5-1.5,7.4,7.4,0,0,0,.1-1,4.1,4.1,0,0,0-.3-1.7,2.6,2.6,0,0,0-.6-.8,2.5,2.5,0,0,0-1-.6h-1v.5l.4-.3h0a8,8,0,0,1-1-1.7,10.5,10.5,0,0,1-1-4.5,11.3,11.3,0,0,1,.2-2,13.2,13.2,0,0,1,.8-2.9,5.8,5.8,0,0,1,1.4-2l.7-.7a3.3,3.3,0,0,0,.6-.9.5.5,0,1,0-1-.4,2.6,2.6,0,0,1-.6.8,8.9,8.9,0,0,0-1.6,1.8,11.6,11.6,0,0,0-1.4,4.2,12.3,12.3,0,0,0-.2,2.2,11.5,11.5,0,0,0,1.2,5,8.8,8.8,0,0,0,1.2,1.9l.5.2v0h0v0h.5l.4.2a1.4,1.4,0,0,1,.6.6,2.9,2.9,0,0,1,.3,1.4,6.4,6.4,0,0,1-.1.8,2.7,2.7,0,0,1-.4,1.1,2.1,2.1,0,0,1-1.1.8l-1.5.2h-2a.5.5,0,1,0-.3,1Z"/><path class="cls-12" d="M278.9,43.7h0c0,.2,0,1.5-.2,3.1a21.2,21.2,0,0,1-.4,2.4,8.3,8.3,0,0,1-.7,2.1,4.9,4.9,0,0,1-1.2,1.4,7,7,0,0,1-2,1.2l-.7.2h-.3v0h0v0a.5.5,0,1,0,.2,1,8.1,8.1,0,0,0,1.8-.7,7.7,7.7,0,0,0,1.6-1,6,6,0,0,0,1.4-1.7,9.4,9.4,0,0,0,.8-2.3,25.2,25.2,0,0,0,.5-3.7c.1-1.1.1-1.9.1-2.1h0a.5.5,0,1,0-1.1,0Z"/><path class="cls-12" d="M283.8,77.8h0a7.8,7.8,0,0,1-1.6,1.6,7.2,7.2,0,0,1-4.4,1.5h-1.3a3.9,3.9,0,0,1-1.7-.7,3.8,3.8,0,0,1-1.3-1.9,7.4,7.4,0,0,1-.3-2.3,10.4,10.4,0,0,1,.1-1.3v-.4h0a.5.5,0,1,0-1-.2,10.6,10.6,0,0,0-.2,2,7.6,7.6,0,0,0,.7,3.5,4.5,4.5,0,0,0,1.3,1.5,4.9,4.9,0,0,0,2.2.9h1.5a8.3,8.3,0,0,0,5.1-1.8,8.7,8.7,0,0,0,1.8-1.8.5.5,0,0,0-.9-.6Z"/><path class="cls-4" d="M197,42.1h-1.2a6.1,6.1,0,0,1-3.1-.8,4.3,4.3,0,0,1-1.4-1.4,6,6,0,0,1-.8-2.4,26.1,26.1,0,0,0-2.8-8.5,13.2,13.2,0,0,0-2-2.9l-1.1-.9a2.8,2.8,0,0,0-1.2-.4H183a35,35,0,0,1-6.8,3.7A44,44,0,0,1,159,32.4l-4.4-.2a.5.5,0,0,0-.6.4l-.6,2h0a17.2,17.2,0,0,0-.2,2.8,35.2,35.2,0,0,0,2,10.9,46.7,46.7,0,0,0,9.6,16.6,27.6,27.6,0,0,0,7.3,5.7,18.4,18.4,0,0,0,8.6,2.2h1.9a18.6,18.6,0,0,0,9.4-3.5,16.9,16.9,0,0,0,4.2-4.6,23.2,23.2,0,0,0,2.9-7.7,30.1,30.1,0,0,0,.6-5.7c0-.7,0-1.2,0-1.2H199l.2.5a10.6,10.6,0,0,0,4.2-3.5,7,7,0,0,0,.4-7.2,5.6,5.6,0,0,0-.8-1.2,3.5,3.5,0,0,0-1-.8,3.8,3.8,0,0,0-1.6-.4l-1.3.2a4.7,4.7,0,0,0-1.3.8l-.5.5a.5.5,0,0,0,.8.7l-.2-.2.2.2h0l-.2-.2.2.2h0l.7-.6a2.9,2.9,0,0,1,1.6-.5,2.7,2.7,0,0,1,1.2.3l.7.5a4.9,4.9,0,0,1,1,1.6,6,6,0,0,1,.4,2.2,5.9,5.9,0,0,1-1,3.3,9.5,9.5,0,0,1-3.8,3.1.5.5,0,0,0-.3.5h0c0,.1,0,.5,0,1.1A26.7,26.7,0,0,1,196,62.3a16.4,16.4,0,0,1-4.8,6,17.5,17.5,0,0,1-8.8,3.3h-1.8A18.3,18.3,0,0,1,170,68.1c-4.8-3.4-8.8-8.7-11.5-14.4a47.3,47.3,0,0,1-3.2-8.5,30.9,30.9,0,0,1-1.1-7.7,16.1,16.1,0,0,1,.2-2.7h-.5l.5.2.6-2-.5-.2v.5l4.5.2a45,45,0,0,0,17.9-3.8,35.4,35.4,0,0,0,6.8-3.8l-.3-.4V26l.7.3a6.1,6.1,0,0,1,1.6,1.5,18.4,18.4,0,0,1,2.3,4.3,25.7,25.7,0,0,1,1.5,5.7,7.1,7.1,0,0,0,1,2.8,5.4,5.4,0,0,0,2.7,2.2,7.7,7.7,0,0,0,2.7.5h1.4a.5.5,0,0,0-.2-1Z"/><path class="cls-4" d="M199.1,38.3a53.7,53.7,0,0,0-3.6-10.1,34.5,34.5,0,0,0-5-7.7,16.7,16.7,0,0,0-7.5-5.2l-.2.5h.5l.5-2.4h0v-.2a1.1,1.1,0,0,0-.3-.8,1.2,1.2,0,0,0-.8-.3h-.6l-2.2,1a7.9,7.9,0,0,1-2.6.5h-.7a25.6,25.6,0,0,0-4-.3,25.1,25.1,0,0,0-5,.5,12.6,12.6,0,0,0-4.6,1.8.5.5,0,0,0,.6.9,11.6,11.6,0,0,1,4.2-1.6,24,24,0,0,1,4.8-.5,24.6,24.6,0,0,1,3.9.3h.9a8.9,8.9,0,0,0,2.9-.6l2.4-1.1h.2l-.5,2.4a.5.5,0,0,0,.4.6,15.7,15.7,0,0,1,7,4.9,38.3,38.3,0,0,1,6.4,11.2c.7,1.8,1.2,3.3,1.5,4.4l.4,1.3v.3h0a.5.5,0,1,0,1-.2Z"/><path class="cls-4" d="M156.7,19.1a27.5,27.5,0,0,0-2.5,4,20.2,20.2,0,0,0-2.5,9,11.2,11.2,0,0,0,1.5,5.8.5.5,0,0,0,.9-.5,10.1,10.1,0,0,1-1.4-5.3,19.2,19.2,0,0,1,2.4-8.6,29,29,0,0,1,1.7-2.8l.5-.8.2-.2h.1a.5.5,0,1,0-.8-.7Z"/><path class="cls-4" d="M177.7,44.9l.9,2.8a.5.5,0,0,0,1-.3l-.9-2.8a.5.5,0,0,0-1,.3"/><path class="cls-4" d="M163.7,40.2h-.9a4.5,4.5,0,0,0-2,.5,6,6,0,0,0-2.3,2.2.5.5,0,1,0,.9.6,5,5,0,0,1,1.9-1.8,3.5,3.5,0,0,1,1.6-.4h.6v0h0v0a.5.5,0,1,0,.3-1Z"/><path class="cls-4" d="M181.6,36.6a10,10,0,0,0-3-.4,8.2,8.2,0,0,0-4.3,1.1.5.5,0,0,0,.5.9,7.2,7.2,0,0,1,3.7-1l1.9.2h.7a.5.5,0,1,0,.3-1Z"/><path class="cls-4" d="M177,54.7h0a7.8,7.8,0,0,1-1.5,1.2A6.9,6.9,0,0,1,172,57a6.8,6.8,0,0,1-4.2-1.6.5.5,0,1,0-.6.8A7.8,7.8,0,0,0,172,58a8,8,0,0,0,4.2-1.3,8.7,8.7,0,0,0,1.6-1.3.5.5,0,0,0-.8-.7Z"/><path class="cls-4" d="M180.9,66.2l.2.5a14.1,14.1,0,0,0,6.3-3.9,5.8,5.8,0,0,0,1.4-3.7,4.4,4.4,0,0,0-.3-1.7.5.5,0,0,0-.7-.3l-9.1,4.1a.5.5,0,0,0-.3.7l2,4.5a.5.5,0,0,0,.7.3l-.2-.5.5-.2-1.8-4.1,8.6-3.9-.2-.5-.5.2h0a3.5,3.5,0,0,1,.2,1.3,4.8,4.8,0,0,1-1.2,3.1,13.1,13.1,0,0,1-5.8,3.6l.2.5.5-.2Z"/><path class="cls-4" d="M198.6,53.1h0a15.5,15.5,0,0,1,2.6,2.7,13.5,13.5,0,0,1,1.7,2.9,9.7,9.7,0,0,1,.7,3.7,14.4,14.4,0,0,1-.7,4.2,31,31,0,0,1-2.5,5.8l-1.2,2-.4.6-.2.4.3.2-.2-.3h-.1l.3.2-.2-.3.2.3v-.4h-.2l.2.3v-.3h-.1v0h0l-.2-.2-.7-.8-1.3-1.6-.7-.6-.4-.2h-.7l-.4.2-.5.6-.9,1.5c-.9,1.7-1.7,3.7-1.7,3.7l.5.2h.5V71.4a.5.5,0,1,0-1.1,0v6.4a.5.5,0,0,0,1,.2h0c.1-.3.7-1.6,1.3-2.9l.9-1.7.4-.5h.1v0h.1v0h.2l.8.8,1.3,1.6.6.6.3.2h.8l.2-.2.4-.6a41.4,41.4,0,0,0,2.9-5.3,19.5,19.5,0,0,0,2-7.7,10.7,10.7,0,0,0-.9-4.1,15.5,15.5,0,0,0-2.8-4.4,14.9,14.9,0,0,0-1.7-1.6.5.5,0,1,0-.6.8Z"/><path class="cls-4" d="M190.4,78.1l-1.7-2.4-1.3-1.6-.5-.6-.2-.2h-.8l.3.4-.3-.4h-.1l-.2.2-1.4,1.7L179.9,81l.4.3.3-.4h0a12.7,12.7,0,0,1-2.1-2.1,10.7,10.7,0,0,1-1.4-2.3,7.3,7.3,0,0,1-.6-2.9,6.6,6.6,0,0,1,.2-1.8.5.5,0,0,0-1-.3,7.6,7.6,0,0,0-.3,2.1,8.4,8.4,0,0,0,.7,3.3,13.4,13.4,0,0,0,3.8,4.9.5.5,0,0,0,.7-.1l.2-.3,3.1-4.1,1.7-2.1.6-.7.2-.2h0l-.2-.2.2.2h0l-.2-.2.2.2h0l-.3-.4v.5h.3l-.3-.4v.4h.1v0h0v0h.1l.4.4,1.9,2.5.8,1.1.2.3h.1a.5.5,0,0,0,.9-.6Z"/><path class="cls-4" d="M252.6,56.6a8.5,8.5,0,0,0-1-1.8,6.5,6.5,0,0,0-1.3-1.4,4.3,4.3,0,0,0-2-.8.5.5,0,1,0-.1,1,3.3,3.3,0,0,1,1.5.6,6,6,0,0,1,1.5,1.7l.4.7v.2h0a.5.5,0,0,0,1-.4Z"/><path class="cls-4" d="M236,48.1l-.7-.5a4.1,4.1,0,0,0-1.8-.4,4.2,4.2,0,0,0-2.5.9.5.5,0,1,0,.6.8,3.2,3.2,0,0,1,1.9-.7,3,3,0,0,1,1.4.3l.4.2h.1v0h0v0a.5.5,0,1,0,.7-.8Z"/><path class="cls-4" d="M263.2,76.6a14.5,14.5,0,0,0,.9-5.3,15.4,15.4,0,0,0-.9-5.3,9.8,9.8,0,0,1-.6-3.4,15.7,15.7,0,0,1,1.4-6.1,14.2,14.2,0,0,1,1.4-2.4,7.1,7.1,0,0,1,1.4-1.6l.3-.3a.9.9,0,0,0,.1-.4.9.9,0,0,0-.1-.5l-.4-.3h0a11.1,11.1,0,0,1-3-1.7,10.6,10.6,0,0,1-3.2-4.1,3.7,3.7,0,0,0-.8-1.2,3.8,3.8,0,0,0-1.9-.9l-2.3-.2h-3.6A22.7,22.7,0,0,1,245,42a23,23,0,0,1-8.3-4.7.5.5,0,0,0-.7.8,24.1,24.1,0,0,0,8.6,4.9,23.8,23.8,0,0,0,7.2,1h3.6a7.6,7.6,0,0,1,2.6.3l.8.5a2.6,2.6,0,0,1,.6.9,11.7,11.7,0,0,0,3.5,4.5,12.1,12.1,0,0,0,3.3,1.8h0v-.2h-.1v-.2h-.1a8.1,8.1,0,0,0-1.7,1.8,16.3,16.3,0,0,0-2,4.2,16.1,16.1,0,0,0-.9,5,10.9,10.9,0,0,0,.6,3.7,14.4,14.4,0,0,1,.9,4.9,14.8,14.8,0,0,1-.4,3.6l-.3,1v.3h0a.5.5,0,1,0,1,.4Z"/><path class="cls-4" d="M249.6,39.3h0a36.8,36.8,0,0,1-6.7-2.4,23.7,23.7,0,0,1-4.9-3,11.4,11.4,0,0,1-3.4-4.3.5.5,0,0,0-1,.4,12.5,12.5,0,0,0,3.8,4.8,28.7,28.7,0,0,0,7.8,4.2,35.4,35.4,0,0,0,4.1,1.3.5.5,0,0,0,.2-1Z"/><path class="cls-4" d="M235.2,25.4a6.9,6.9,0,0,0,2.2,1.3,28,28,0,0,0,8,1.9,31.7,31.7,0,0,1,7.4,2A41.2,41.2,0,0,1,266,38.8a24.6,24.6,0,0,1,4.9,6.3,18.2,18.2,0,0,1,2.1,7.7q.1,1.1.1,2.1c0,6.8-1.7,11.2-3.4,14a15.1,15.1,0,0,1-2.3,2.9l-.7.7-.2.2h-.1a.5.5,0,0,0,.3,1v0h0v0h.9a2,2,0,0,1,1.1.5l.4.6a2.7,2.7,0,0,1,.2,1A5.9,5.9,0,0,1,269,77a3.3,3.3,0,0,1-.5,1.1,2.5,2.5,0,0,1-1.2.9,4.3,4.3,0,0,1-1.6.3,9.3,9.3,0,0,1-2.5-.4l-.8-.3h-.3a.5.5,0,0,0-.6.1h0a23.9,23.9,0,0,1-5.6,4.5,31,31,0,0,1-16.3,4.5l-4-.2V88l.2-.5h0a17,17,0,0,1-5.5-4.2,20.3,20.3,0,0,1-3.7-6.1,25.8,25.8,0,0,1-1.7-9.6c0-7.1,2.3-16.5,9.2-29a.5.5,0,1,0-.9-.5c-6.9,12.5-9.3,22.2-9.3,29.5a26.8,26.8,0,0,0,1.8,10,21,21,0,0,0,6.1,8.5,15.9,15.9,0,0,0,3.7,2.4h.1l4.1.2a32.1,32.1,0,0,0,17-4.7,24.7,24.7,0,0,0,5.8-4.7L262,79l-.2.5,1.3.4a10.3,10.3,0,0,0,2.8.4,4.9,4.9,0,0,0,2.6-.6,3.5,3.5,0,0,0,1-1,4.3,4.3,0,0,0,.7-1.5,6.9,6.9,0,0,0,.2-1.6,3.5,3.5,0,0,0-.4-1.7,2.6,2.6,0,0,0-.7-.8,3.1,3.1,0,0,0-1.2-.6h-1.4V73l.3.4a13.4,13.4,0,0,0,3.7-4.1c1.8-2.9,3.6-7.6,3.6-14.5q0-1-.1-2.1a19.9,19.9,0,0,0-3.7-10.5,34.8,34.8,0,0,0-12.6-10.4,45.9,45.9,0,0,0-6.8-2.9,28.9,28.9,0,0,0-5.5-1.3,27,27,0,0,1-7.7-1.8l-1.5-.8-.3-.2H236a.5.5,0,1,0-.8.7Z"/><path class="cls-4" d="M226.8,54.7l-.7-.6-.7-.4-.9-.2h-.7a2.4,2.4,0,0,0-1,.8,5.5,5.5,0,0,0-.7,1.6,7.3,7.3,0,0,0-.3,2.1,7,7,0,0,0,1.2,3.9,6.9,6.9,0,0,0,1.2,1.4.5.5,0,0,0,.7-.8h0a6.3,6.3,0,0,1-2-4.5,6.2,6.2,0,0,1,.3-1.8,3.7,3.7,0,0,1,.8-1.6l.4-.2h.8l.7.5.2.2h.1a.5.5,0,1,0,.8-.7Z"/><path class="cls-4" d="M238.1,59.1l-2.3,2.7L234.1,64l-.6,1.1a3.8,3.8,0,0,0-.4,1h0a1.8,1.8,0,0,0,0,.3,2,2,0,0,0,.2.8,3.7,3.7,0,0,0,1,1.2,8.2,8.2,0,0,0,2.1,1.3l1.1.4h1.3a.5.5,0,1,0-.2-1h-.6l-1.2-.4a7,7,0,0,1-1.8-1.1l-.6-.6a1.1,1.1,0,0,1-.2-.6h0l.3-.7a13.6,13.6,0,0,1,1.1-1.8l2.2-2.7.8-.9.2-.3h.1a.5.5,0,0,0-.8-.7Z"/><path class="cls-4" d="M252,85.5h0a6.2,6.2,0,0,1-1.5,2.5,8.2,8.2,0,0,1-2.5,1.8,12.6,12.6,0,0,1-4.5,1.1h-1.4a10.5,10.5,0,0,1-3.8-.6,5.7,5.7,0,0,1-2.7-2l-.5-.8v-.2h0a.5.5,0,0,0-1,.2,5.2,5.2,0,0,0,1.5,2.3,7.2,7.2,0,0,0,2.5,1.5,11.6,11.6,0,0,0,4.1.7h1.4a13.6,13.6,0,0,0,4.9-1.2,8.9,8.9,0,0,0,3.7-3.2,6.3,6.3,0,0,0,.8-1.9.5.5,0,0,0-1-.2Z"/><path class="cls-4" d="M227.3,52.2s-3.3-1.3-7.8-2.5a62.1,62.1,0,0,0-15.7-2.5h-1.7a.5.5,0,0,0,.1,1.1h1.6a61.1,61.1,0,0,1,15.4,2.5l5.6,1.7,1.6.6.4.2h.1a.5.5,0,0,0,.4-1Z"/><path class="cls-4" d="M158.3,55.2s-4,1.6-8.3,3.5c-2.1,1-4.4,2.1-6.2,3.2l-2.4,1.6a7.3,7.3,0,0,0-1.6,1.5.5.5,0,1,0,.9.6,6.4,6.4,0,0,1,1.4-1.3,35,35,0,0,1,4.5-2.7c2.7-1.4,5.7-2.8,8.1-3.8l2.9-1.2.8-.3h.3a.5.5,0,0,0-.4-1Z"/><path class="cls-4" d="M269.3,101.9a12.6,12.6,0,0,0-4.4,4.1c-1.1,1.5-1.9,3.1-2.7,4.2a3.6,3.6,0,0,1-1,1,1.9,1.9,0,0,1-1,.3h-.5a1.3,1.3,0,0,1-.6-.6,3,3,0,0,1-.3-1.3h0a3,3,0,0,1,.2-1.1,11.7,11.7,0,0,1,1.5-2.5c1-1.3,2.2-2.7,3.3-3.9l1.4-1.6.5-.6.3-.5a4.5,4.5,0,0,0,.4-1.9,3.2,3.2,0,0,0-.3-1.5,1.7,1.7,0,0,0-.5-.6l-.8-.2a2.9,2.9,0,0,0-1.5.5,9.9,9.9,0,0,1-2.2,1.1,6.6,6.6,0,0,1-2,.4l-.8-.2h-.1v-.2h0a.7.7,0,0,1,0-.3v-.2l.6-.5,1.6-1.5a20.9,20.9,0,0,0,2.3-2.9,5,5,0,0,1,1.3-1.3,7.6,7.6,0,0,1,2.7-1.1,14.1,14.1,0,0,1,3-.3l2.9.2h1.2v-.5l-.2.5h0a10.6,10.6,0,0,1,2.9,2.6,14.4,14.4,0,0,1,3.1,8.6q0,.4,0,.7a11,11,0,0,1-.9,4.5,7.2,7.2,0,0,1-2.8,3.3l-1.2.6H274v0h0v0a.5.5,0,1,0,.2,1,7.4,7.4,0,0,0,3.1-1.7,8.4,8.4,0,0,0,2.1-2.9,12,12,0,0,0,1-5q0-.4,0-.8a15.4,15.4,0,0,0-3.4-9.3,11.5,11.5,0,0,0-3.1-2.7h-.1a21.3,21.3,0,0,0-4.3-.4,13.8,13.8,0,0,0-4.3.6,7.9,7.9,0,0,0-2,1,6.1,6.1,0,0,0-1.6,1.6,20.5,20.5,0,0,1-1.9,2.5,21.4,21.4,0,0,1-2,1.8l-.6.7a1.7,1.7,0,0,0-.3.9v.2a1.4,1.4,0,0,0,.2.7l.4.4.7.3h.8a7.6,7.6,0,0,0,2.3-.4,11,11,0,0,0,2.5-1.2,1.9,1.9,0,0,1,1-.4h.3l.2.2.2.5a2.8,2.8,0,0,1,.1.7,3.5,3.5,0,0,1-.3,1.4l-.5.6-1.8,2a50.7,50.7,0,0,0-3.3,4,13.8,13.8,0,0,0-1.3,2,4.5,4.5,0,0,0-.5,1.9h0a3.6,3.6,0,0,0,.7,2.2l.8.6,1,.2a3,3,0,0,0,1.5-.5,4.6,4.6,0,0,0,1.3-1.3c.9-1.2,1.7-2.7,2.7-4.2a11.6,11.6,0,0,1,4-3.7.5.5,0,1,0-.5-.9Z"/><path class="cls-4" d="M272.2,102.9s-1.5,2.3-3.1,5-1.6,2.9-2.2,4.2a21.2,21.2,0,0,0-.8,2,8.3,8.3,0,0,0-.4,1.7,2.7,2.7,0,0,1-.5,1.5,1,1,0,0,1-.8.4,1.2,1.2,0,0,1-1-.6,3.3,3.3,0,0,1-.5-2,6.4,6.4,0,0,1,.1-1,30.8,30.8,0,0,1,1.1-4.8l.4-1v-.2h0a.5.5,0,0,0-.9-.6c-.1.1-1,1.6-1.7,6.4a7.4,7.4,0,0,0-.1,1.2,4.3,4.3,0,0,0,.7,2.6,2.3,2.3,0,0,0,1.8,1,2.1,2.1,0,0,0,1.6-.8,3.7,3.7,0,0,0,.8-2.1,7.3,7.3,0,0,1,.4-1.5,26.2,26.2,0,0,1,1.5-3.5c.9-1.8,2.1-3.7,2.9-5.1l1.1-1.7.3-.5h.1a.5.5,0,1,0-.9-.6Z"/><path class="cls-4" d="M275.9,103.8a30.8,30.8,0,0,0-1.4,3.1,24.6,24.6,0,0,0-1,2.9,12.6,12.6,0,0,0-.4,3.1,7.1,7.1,0,0,0,0,.8h0a3.8,3.8,0,0,1,0,.5,2.1,2.1,0,0,1-.5,1.5,1.5,1.5,0,0,1-1.1.5,1.4,1.4,0,0,1-1-.4,1.6,1.6,0,0,1-.5-1.2h0a19.7,19.7,0,0,1,.2-2.6c.2-1.4.5-2.9.7-4l.3-1.4v-.4h0a.5.5,0,0,0-1-.3s-.4,1.4-.7,3.2-.4,1.9-.5,2.9a20.6,20.6,0,0,0-.2,2.7h0a2.7,2.7,0,0,0,.8,2,2.5,2.5,0,0,0,1.7.7,2.6,2.6,0,0,0,1.8-.8,3.1,3.1,0,0,0,.8-2.2,4.9,4.9,0,0,0,0-.6h0a6,6,0,0,1,0-.7,11.6,11.6,0,0,1,.4-2.8,26,26,0,0,1,1.4-4l.6-1.3.2-.4h.1a.5.5,0,0,0-.9-.5Z"/><path class="cls-4" d="M269,87.4l-2.8-2.7-2.6-2.2a14.8,14.8,0,0,0-2.5-1.7.5.5,0,1,0-.5.9,13.9,13.9,0,0,1,2.3,1.5c1.3,1,2.6,2.2,3.6,3.2l1.2,1.2.3.3h.1a.5.5,0,1,0,.8-.7Z"/><path class="cls-4" d="M275.9,108.8h0a42.9,42.9,0,0,1,2,5.4,41.7,41.7,0,0,1,1.8,11.5,25.4,25.4,0,0,1-1.1,7.8,18.7,18.7,0,0,1-4.2,7.1,10.1,10.1,0,0,1-3.6,2.5,11.3,11.3,0,0,1-4.2.8,22.8,22.8,0,0,1-9-2.2,59.5,59.5,0,0,1-12.3-7.8c-1.7-1.3-3-2.5-4-3.4l-1.1-1.1-.3-.3h-.1l-.2.2h.2l-.2.2h.3l-.4.2h.4V129l-.4.2h-.1l.4.3a.5.5,0,0,0,.1-.3h-.5l.4.3-.4-.3.2.4h.1l-.4-.3.2.4-.2-.3v.4h.1l-.2-.3v.4h0v0h.2l.9.2a20.4,20.4,0,0,0,4.9.7,8.9,8.9,0,0,0,3.8-.8,6.8,6.8,0,0,0,3.1-3,14.3,14.3,0,0,0,2-6.8,9.5,9.5,0,0,0-.3-2.2l-.2-.7V117h-.4l.2.3v-.2h-.4l.2.3h0l-.3-.4v.5h.2l-.3-.4v.5h.1v0h.1v0h.2l1.1.7c1.6,1.1,4.1,3,6.3,4.8l2.9,2.5,1,.9.3.3v.2a.5.5,0,1,0,.9-.5l-.3-.4-1.1-1.1c-1.5-1.4-4.1-3.6-6.4-5.3l-3.1-2.3-1.1-.7-.4-.2H253l.3.4-.3-.4-.2.3a.8.8,0,0,0-.1.3v.8a8.9,8.9,0,0,1,.3,2.4,13.2,13.2,0,0,1-1.9,6.3,5.7,5.7,0,0,1-2.7,2.6,7.9,7.9,0,0,1-3.4.7,17,17,0,0,1-3.7-.5l-1.4-.3h-1.3l-.2.2a.6.6,0,0,0-.1.3.6.6,0,0,0,0,.2h.1v.2l1.2,1.2a73.1,73.1,0,0,0,10.9,8.4,45.8,45.8,0,0,0,7.7,4,22.1,22.1,0,0,0,7.9,1.7,12.3,12.3,0,0,0,4.6-.8,11.1,11.1,0,0,0,4-2.8,19.8,19.8,0,0,0,4.4-7.5,26.4,26.4,0,0,0,1.2-8.1,46.3,46.3,0,0,0-3.9-17.4.5.5,0,0,0-1,.4Z"/><path class="cls-4" d="M261.3,122v-.2l-.7-2.5-.3-1.5v-1h0a.5.5,0,0,0-1-.3,1.2,1.2,0,0,0,0,.3,4.4,4.4,0,0,0,.1.6c.1.8.4,2,.7,3l.5,1.8a.5.5,0,1,0,1-.3Z"/><path class="cls-4" d="M217.6,82.4s-1.2,2.8-2.4,6.5c-.6,1.8-1.2,3.9-1.7,5.9a29.8,29.8,0,0,0-.9,5.7c-.1,3.3-.2,6.6-.4,9.1s-.2,2.3-.3,3.2a8.8,8.8,0,0,1-.2,1v.3h-.1a23.3,23.3,0,0,0-2,3.2,16.6,16.6,0,0,0-1.9,5.6.5.5,0,0,0,1,.1,15.5,15.5,0,0,1,1.7-5.3,22.3,22.3,0,0,1,1.9-3l.2-.4a4.9,4.9,0,0,0,.2-.9,21.7,21.7,0,0,0,.3-2.3c.2-2.7.3-6.7.5-10.8a28.8,28.8,0,0,1,.9-5.5,79,79,0,0,1,2.6-8.3l1.1-2.8.3-.8v-.2h0a.5.5,0,1,0-1-.4Z"/><path class="cls-4" d="M217.3,85.4h0a7.3,7.3,0,0,1-.9-3.5,7.8,7.8,0,0,1,.2-1.5,3.7,3.7,0,0,1,.4-1.1,11.9,11.9,0,0,1,1.8-2.3,26.7,26.7,0,0,1,3.6-3.1l1.5-1,.5-.2h.2v0h0v0a.5.5,0,0,0,.1-1h0v0h0v0h-.4l-.9.4-2.1,1.4a26.4,26.4,0,0,0-3.5,3.1,12.8,12.8,0,0,0-1.4,1.7,5.2,5.2,0,0,0-.8,1.7,8.8,8.8,0,0,0,.3,4.7,6.4,6.4,0,0,0,.5,1.1.5.5,0,1,0,.9-.6Z"/><path class="cls-4" d="M198.8,104.4a20.1,20.1,0,0,0-2.7-1.2,18.1,18.1,0,0,0-6.1-1.2,10.5,10.5,0,0,0-3.9.7.5.5,0,1,0,.4,1,9.4,9.4,0,0,1,3.5-.6,17.1,17.1,0,0,1,5.7,1.1l1.8.8.5.3h.2a.5.5,0,0,0,.5-.9Z"/><path class="cls-4" d="M154.5,124.6s.4-5.5.4-10.4c0-1.2,0-2.4-.1-3.5a20.3,20.3,0,0,0-.3-2.8,31.1,31.1,0,0,1-.7-6,10.9,10.9,0,0,1,.2-2,5,5,0,0,1,.5-1.5,31.1,31.1,0,0,1,2.1-3.1l.9-1.2.3-.3h.1l-.4-.3.3.4,5.1-3.4a.5.5,0,0,0-.6-.9l-5.1,3.4H157l-1.3,1.7a32,32,0,0,0-2.2,3.2,6.1,6.1,0,0,0-.6,1.8,11.9,11.9,0,0,0-.2,2.2,32.1,32.1,0,0,0,.8,6.2,19.3,19.3,0,0,1,.3,2.6c.1,1,.1,2.2.1,3.4s-.1,5-.2,7-.1,1.8-.1,2.4v.9a.5.5,0,1,0,1,.1Z"/><path class="cls-4" d="M170.7,120.1s.2-1.1.4-2.6a39.2,39.2,0,0,0,.4-5.2,12.1,12.1,0,0,0-.2-2.6c-.2-.7-.4-1.6-.8-2.8-1.4-4.2-4.1-11.1-6.8-17.1-1.3-3-2.7-5.8-3.8-7.9a25.1,25.1,0,0,0-1.6-2.6l-.7-.8-.7-.5a14.5,14.5,0,0,0-4.5-.9h-.2l-5.8,1.8-4,1.3-1.4.5-.4.2h-.3a.6.6,0,0,0-.1.3h0a.5.5,0,0,0,0,.2.5.5,0,0,0,1-.4l-.5.2h.5v-.2l-.5.2h0l.4.3a.5.5,0,0,0,.1-.3h-.5l.4.3-.3-.2.3.3h.1l-.3-.2.3.3v0h0v0h.2l1-.4,6.3-2.1,2.8-.9.9-.3h.3l-.2-.5V78h0v0a13.6,13.6,0,0,1,4.2.9h.2l.6.6a19.4,19.4,0,0,1,1.5,2.4c1,1.8,2.2,4.2,3.4,6.8s3.7,8.5,5.2,12.4l1.9,5.3c.5,1.5.9,2.7,1.1,3.4a11.1,11.1,0,0,1,.2,2.4,38.3,38.3,0,0,1-.4,5.1l-.3,1.8v.5h0a.5.5,0,1,0,1,.2Z"/><path class="cls-4" d="M103.3,93.6c-.1.1-7.2,6.6-9.7,23.1a.5.5,0,1,0,1,.2,50.6,50.6,0,0,1,5.7-17.4,28.6,28.6,0,0,1,2.6-3.9l.8-.9.2-.2h.1a.5.5,0,1,0-.7-.8Z"/><path class="cls-4" d="M119.6,63.9l.8,2.2a.5.5,0,0,0,1-.3l-.8-2.2a.5.5,0,0,0-1,.3"/><path class="cls-4" d="M134,60.2l.8,3a.5.5,0,0,0,1-.3l-.8-3a.5.5,0,0,0-1,.3"/><path class="cls-4" d="M128.8,62.7h0a30.5,30.5,0,0,1,1.5,2.8,20,20,0,0,1,.9,2.4,7.9,7.9,0,0,1,.4,2.2,2.6,2.6,0,0,1-.1.9,1.3,1.3,0,0,1-.5.6l-.6.2-1.6-.3-.9-.3h-1.4l-.5.2a.5.5,0,1,0,.6.9h1.1l1.3.4,1.4.2a2.1,2.1,0,0,0,1.2-.3,2.3,2.3,0,0,0,.9-1.1,3.6,3.6,0,0,0,.2-1.3,9,9,0,0,0-.5-2.6,24.5,24.5,0,0,0-1.5-3.7l-.9-1.7a.5.5,0,0,0-.9.5Z"/><path class="cls-4" d="M130.5,80.3l-.2-.5a12.4,12.4,0,0,1-4.4.9,5.7,5.7,0,0,1-3.8-1.2,3.8,3.8,0,0,1-.8-1l-.2-.4v-.2h-.1l-.3-.2.2.3h.1l-.3-.2.2.3-.2-.3v.3h.1l-.2-.3v.3h.9l8.1-1.5V76h-.5l.9,4.3h.5l-.2-.5.2.5h.5l-.9-4.3a.5.5,0,0,0-.6-.4l-7,1.3-1,.2h-1.2l-.3.4a1,1,0,0,0-.1.4,1.9,1.9,0,0,0,.1.6,3.7,3.7,0,0,0,.6,1.1,5.5,5.5,0,0,0,1.9,1.6,7.4,7.4,0,0,0,3.3.7,13.4,13.4,0,0,0,4.8-1,.5.5,0,0,0,.3-.6Z"/><path class="cls-4" d="M134.7,52.2l-.9-.3a7.4,7.4,0,0,0-1.9-.3,3.1,3.1,0,0,0-1.3.2l-.6.4-.4.6a.5.5,0,0,0,1,.4l.2-.3.4-.2h.7l1.6.3.6.2h.2a.5.5,0,0,0,.4-1Z"/><path class="cls-4" d="M118.9,54.4h-1.2a5.9,5.9,0,0,0-2.1.4l-1.1.6a3.7,3.7,0,0,0-.9,1.1.5.5,0,0,0,.9.5,2.6,2.6,0,0,1,.6-.8,3.2,3.2,0,0,1,1.3-.6l1.3-.2h1a.5.5,0,0,0,.2-1Z"/><path class="cls-4" d="M244.2,77.4h-.1a27.9,27.9,0,0,1-3.7-.3l-2.6-.6a6.2,6.2,0,0,1-2.1-1.1.5.5,0,1,0-.7.8,7.4,7.4,0,0,0,2.6,1.3,21.3,21.3,0,0,0,4.4.8h2.2a.5.5,0,1,0,0-1.1Z"/><path class="cls-4" d="M267.2,80h0a40.5,40.5,0,0,1,3.8,3.5,24.9,24.9,0,0,1,2.6,3.2,9.4,9.4,0,0,1,1.5,3.2.5.5,0,1,0,1-.2,10.5,10.5,0,0,0-1.7-3.7,30.7,30.7,0,0,0-4.2-4.8l-2.4-2.1a.5.5,0,0,0-.6.8Z"/><path class="cls-12" d="M290.2,76.8h0a23.4,23.4,0,0,1,5.1,4.2,20,20,0,0,1,3.3,5,15.7,15.7,0,0,1,1.5,6.7,17.7,17.7,0,0,1-1,5.7,161.9,161.9,0,0,1-9.3,20.4c-1.6,3.1-3.2,5.9-4.2,7.8l-1.3,2.3-.4.6v.2a.5.5,0,1,0,.9.5s2.8-4.7,6.1-11a162.7,162.7,0,0,0,9.3-20.6,18.7,18.7,0,0,0,1.1-6.1,16.8,16.8,0,0,0-1.6-7.2,22.4,22.4,0,0,0-5.5-7.1,22.2,22.2,0,0,0-3.3-2.5.5.5,0,0,0-.5.9Z"/><path class="cls-12" d="M290.2,61.7l-1.4,2.2a.5.5,0,0,0,.9.6l1.4-2.2a.5.5,0,0,0-.9-.6"/><path class="cls-12" d="M279.5,57l-1.1,2.3a.5.5,0,1,0,1,.4l1.1-2.3a.5.5,0,0,0-1-.4"/><path class="cls-12" d="M284.3,69.7l.2-.5-5.8-2.3a.5.5,0,0,0-.6.2l-.2.5a3.1,3.1,0,0,0-.2,1.1,2.4,2.4,0,0,0,.1.7,2.4,2.4,0,0,0,.7,1.1,4.2,4.2,0,0,0,1.5.8l1.7.3a3.7,3.7,0,0,0,1.4-.3,3.2,3.2,0,0,0,1.2-.9l.4-.6a.5.5,0,0,0,0-.4l-.3-.3-.2.5-.5-.2h0a2,2,0,0,1-.6.6,2.4,2.4,0,0,1-1.5.5l-1.4-.2a2.7,2.7,0,0,1-1.4-.8l-.2-.4a1.4,1.4,0,0,1-.1-.4,2.1,2.1,0,0,1,.2-.8v-.2h0l-.2-.2.2.2h0l-.2-.2.2.2-.4-.3-.2.5,5.8,2.3.2-.5-.5-.2Z"/><path class="cls-12" d="M202.5,30.4l-4.3-17.7h0a1.6,1.6,0,0,1,.1-.4,2.3,2.3,0,0,1,.9-1.2,5.2,5.2,0,0,1,3.1-.7l2.7.3a18.6,18.6,0,0,0,3.4.3,16.2,16.2,0,0,0,6.4-1.3,11,11,0,0,0,2.3-1.3l-.3-.4h-.5v.2a7.3,7.3,0,0,1-1,3.2,5.6,5.6,0,0,1-1.7,1.7,7,7,0,0,1-3,1l-6.1.7a5.8,5.8,0,0,0-1.7.6,7.7,7.7,0,0,0-1.6,1.2.5.5,0,0,0,.7.8l1.4-1,1-.4,2.3-.3,4.1-.4a7.8,7.8,0,0,0,3.8-1.5,6.7,6.7,0,0,0,1.6-1.8,8.1,8.1,0,0,0,1-2.7,7.2,7.2,0,0,0,.2-1.3.5.5,0,0,0-.9-.4h0a10.2,10.2,0,0,1-2.2,1.2,15.1,15.1,0,0,1-5.9,1.2,17.5,17.5,0,0,1-3.2-.3l-2.9-.3a7.4,7.4,0,0,0-2.8.5,4.1,4.1,0,0,0-1.3.8,3.3,3.3,0,0,0-.9,1.3,2.5,2.5,0,0,0-.1.7h0l4.3,17.7a.5.5,0,1,0,1-.2Z"/><path class="cls-4" d="M246.9,60.6l-1.1,3.1a.5.5,0,0,0,1,.4l1.1-3.1a.5.5,0,0,0-1-.4"/><path class="cls-4" d="M231.7,56l-1.1,3.1a.5.5,0,0,0,1,.4l1.1-3.1a.5.5,0,0,0-1-.4"/><path class="cls-4" d="M161.7,48.3l.8,3.1a.5.5,0,0,0,1-.2l-.8-3.1a.5.5,0,1,0-1,.2"/><path class="cls-4" d="M108.5,70.9a10.5,10.5,0,0,0-1.4-1.5,7.4,7.4,0,0,0-1.5-1.1,3.9,3.9,0,0,0-1.8-.5,3,3,0,0,0-1.3.3,3.8,3.8,0,0,0-1.2.9,4.2,4.2,0,0,0-.9,1.4,4.9,4.9,0,0,0-.3,1.6,6.2,6.2,0,0,0,1.5,4,5.5,5.5,0,0,0,1.7,1.4,5.1,5.1,0,0,0,2.3.5,6.4,6.4,0,0,0,2.5-.6.5.5,0,1,0-.4-1,5.3,5.3,0,0,1-2.1.5,4.1,4.1,0,0,1-1.8-.4,4.7,4.7,0,0,1-1.9-1.8,5.1,5.1,0,0,1-.7-2.5,3.9,3.9,0,0,1,.2-1.3,3.1,3.1,0,0,1,.7-1.1l.9-.6.8-.2a2.9,2.9,0,0,1,1.4.4,7.2,7.2,0,0,1,1.8,1.4l.5.6v.2h0a.5.5,0,1,0,.9-.6Z"/><path class="cls-4" d="M107.9,68.9h0a6.4,6.4,0,0,1,1.8,1.1,5.2,5.2,0,0,1,1.2,1.5,4.7,4.7,0,0,1,.5,2.2V74h0a9.1,9.1,0,0,1-1.3,4l-.9,1.8a4.8,4.8,0,0,0-.4,1.8,3.6,3.6,0,0,0,.7,2.1.5.5,0,0,0,.9-.6,2.5,2.5,0,0,1-.5-1.5,3.7,3.7,0,0,1,.3-1.4c.3-.8.9-1.6,1.3-2.6a8.8,8.8,0,0,0,.9-3.5h0v-.3a5.8,5.8,0,0,0-.7-2.8,6.6,6.6,0,0,0-2.3-2.4,6.8,6.8,0,0,0-1.4-.7.5.5,0,1,0-.3,1Z"/><path class="cls-4" d="M131.7,45.8h0a44.5,44.5,0,0,1,3.7,6.3,38.2,38.2,0,0,1,4.1,14q.1,1.8.1,3.5a25.9,25.9,0,0,1-2,10.9,14.5,14.5,0,0,1-6.3,6.7,12.6,12.6,0,0,1-6.2,1.6,18.1,18.1,0,0,1-5.5-.9l-1.7-.6-.4-.2h-.1a.5.5,0,1,0-.5.9,17,17,0,0,0,2.4,1,19.1,19.1,0,0,0,5.8,1,13.6,13.6,0,0,0,6.7-1.7,15.6,15.6,0,0,0,6.8-7.2,27,27,0,0,0,2.1-11.4q0-1.7-.1-3.6a39.4,39.4,0,0,0-4.3-14.6,45,45,0,0,0-3.7-6.3.5.5,0,0,0-.8.6Z"/><path class="cls-4" d="M101.2,69.9v0h0v0a14.9,14.9,0,0,1-2.7-3.7,23.9,23.9,0,0,1-2.6-11.3q0-.4,0-.9A13,13,0,0,1,98,47.2a19.5,19.5,0,0,1,7.9-6.6,24.8,24.8,0,0,1,8.2-2.4h3.2a19,19,0,0,1,7.8,1.5,14.1,14.1,0,0,1,6.6,6.2.5.5,0,0,0,.9-.5,15.1,15.1,0,0,0-7.1-6.7,20,20,0,0,0-8.2-1.6l-3.3.2a23.3,23.3,0,0,0-5.5,1.2,24.8,24.8,0,0,0-9.1,5.4,16,16,0,0,0-3.3,4.5A14,14,0,0,0,94.8,54q0,.4,0,.9a24.9,24.9,0,0,0,2.8,11.9,15.7,15.7,0,0,0,2.8,3.9.5.5,0,0,0,.7-.8Z"/><path class="cls-4" d="M107.8,66.3s.3-.7.5-1.7a15.1,15.1,0,0,0,.5-3.5,5.4,5.4,0,0,0-.2-1.7,10.6,10.6,0,0,0-.7-1.6l-1.4-2.4-.5-1a2.5,2.5,0,0,1-.2-.8,1,1,0,0,1,0-.3V53l.5-.6,1.8-1.4a22.2,22.2,0,0,1,4-2.1,12.6,12.6,0,0,1,4.4-.9h.3a31.6,31.6,0,0,1,3.9.5,23.6,23.6,0,0,0,3.8.4,6,6,0,0,0,2.4-.4,4.1,4.1,0,0,0,1.9-1.6.5.5,0,0,0-.9-.6,3,3,0,0,1-1.4,1.2,5,5,0,0,1-2,.3,22.8,22.8,0,0,1-3.6-.4,32.5,32.5,0,0,0-4.1-.5h-.3a12.4,12.4,0,0,0-3.7.6,22.3,22.3,0,0,0-5,2.3l-1.8,1.3-1.1,1.1-.3.5a2,2,0,0,0-.1.6,4.1,4.1,0,0,0,.4,1.6,23,23,0,0,0,1.3,2.4,13.7,13.7,0,0,1,1.1,2.2,4.4,4.4,0,0,1,.2,1.4,14.2,14.2,0,0,1-.5,3.3l-.3,1.2v.3h0a.5.5,0,1,0,1,.4Z"/><path class="cls-4" d="M108.6,50.3a9.9,9.9,0,0,0-1.7-1.9,9.6,9.6,0,0,0-2-1.4,7.9,7.9,0,0,0-2.8-.8.5.5,0,0,0-.1,1,6.8,6.8,0,0,1,2.4.7,9,9,0,0,1,2.5,1.9l.6.8.2.2h0a.5.5,0,1,0,.9-.6Z"/><path class="cls-4" d="M124.2,48.1a10.7,10.7,0,0,0-1-2.8,7.4,7.4,0,0,0-1.6-2.1,5.1,5.1,0,0,0-2.7-1.2.5.5,0,0,0-.1,1,4,4,0,0,1,2.1,1,7.2,7.2,0,0,1,1.8,2.7l.4,1.1v.3h0a.5.5,0,1,0,1-.2Z"/><path class="cls-4" d="M101.5,43.4a7.2,7.2,0,0,0,.6-1,5.9,5.9,0,0,0,.6-2.4,3.7,3.7,0,0,0-.2-1.2,3.4,3.4,0,0,0-1.2-1.6,6.1,6.1,0,0,0-2.4-1.1h-1a5.6,5.6,0,0,0-2,.4,10.5,10.5,0,0,0-3.4,2.3,19.9,19.9,0,0,0-4,5.6,15.1,15.1,0,0,0-1.7,6.3,6.7,6.7,0,0,0,.5,2.6,5.5,5.5,0,0,0,1.8,2.4,3.7,3.7,0,0,0,2.2.7,6.4,6.4,0,0,0,3.1-1l1.4-.9a.5.5,0,1,0-.7-.8h0l-1.2.8a5.4,5.4,0,0,1-2.5.8,2.6,2.6,0,0,1-1.6-.5,4.4,4.4,0,0,1-1.4-1.9,5.7,5.7,0,0,1-.4-2.2,12.7,12.7,0,0,1,.9-4.4,19.5,19.5,0,0,1,4-6.3,11.3,11.3,0,0,1,2.6-2,5.2,5.2,0,0,1,2.5-.7h.8l1.5.5a2.8,2.8,0,0,1,1.1,1.1,2.4,2.4,0,0,1,.3,1.2,4.9,4.9,0,0,1-.5,1.9l-.3.6v.2h0a.5.5,0,1,0,.9.6Z"/><path class="cls-4" d="M95.8,50.1h0l-2.1.2H92.3l-.5-.2-.3-.2a.5.5,0,1,0-.8.7l.6.4,1.1.3h1.2a14.8,14.8,0,0,0,2.3-.2.5.5,0,0,0-.2-1Z"/><path class="cls-4" d="M99.8,44.6a7.3,7.3,0,0,0-2.1-3.3.5.5,0,1,0-.7.8,5.8,5.8,0,0,1,1.4,1.8l.3.7v.2h0a.5.5,0,1,0,1-.3Z"/><path class="cls-4" d="M131.9,87.6l1.4,1.8,1.3,1.4,1.3,1.1.5.5a5.7,5.7,0,0,1,.9,1.4,5.1,5.1,0,0,1,.4,2,4.7,4.7,0,0,1-1.1,3,11.6,11.6,0,0,1-4.6,3.1,16.3,16.3,0,0,1-6.3,1.5,8.3,8.3,0,0,1-5.6-2,8,8,0,0,1-2.5-4.3,18.3,18.3,0,0,0-1.9-4.8l-.8-1.5a3.1,3.1,0,0,1-.3-1.2,2,2,0,0,1,0-.3.5.5,0,1,0-1-.2,3,3,0,0,0,0,.5,4.1,4.1,0,0,0,.4,1.6c.3.8.8,1.6,1.3,2.5a16,16,0,0,1,1.3,3.6,9.1,9.1,0,0,0,2.8,4.8,9.4,9.4,0,0,0,6.3,2.2,17.3,17.3,0,0,0,6.7-1.5,12.6,12.6,0,0,0,5-3.4,5.8,5.8,0,0,0,1.4-3.7,6.3,6.3,0,0,0-.8-3l-.7-1.1-.7-.7-1.1-1-1.8-2-.6-.8-.2-.2h-.1a.5.5,0,1,0-.8.6Z"/><path class="cls-4" d="M125.5,93.4h.2l2.2-.2,1.5-.4a5.2,5.2,0,0,0,1.4-.8.5.5,0,1,0-.7-.8l-1.2.6-2,.5h-1.5a.5.5,0,1,0,0,1.1Z"/><path class="cls-12" d="M143.1,52.5h0a5.9,5.9,0,0,1,0-.6,6.6,6.6,0,0,1,.7-3,3.9,3.9,0,0,1,1.2-1.4,4.7,4.7,0,0,1,2.2-.8h.9a4.9,4.9,0,0,1,2.4.6,4.4,4.4,0,0,1,1.8,1.9l.3.8v.2h0a.5.5,0,0,0,1-.2,6,6,0,0,0-1-2.2,5.2,5.2,0,0,0-1.7-1.5,5.9,5.9,0,0,0-2.9-.7h-1a5.8,5.8,0,0,0-2.7,1,4.9,4.9,0,0,0-1.2,1.3,6.2,6.2,0,0,0-.9,2.2,8.6,8.6,0,0,0-.2,1.8,6.7,6.7,0,0,0,0,.8.5.5,0,1,0,1-.1Z"/><path class="cls-12" d="M140.7,55.8h0a3.9,3.9,0,0,1,1-1.5,3.9,3.9,0,0,1,1.2-.8,5.3,5.3,0,0,1,1.9-.3h.3a8.6,8.6,0,0,1,2.4.4,3.4,3.4,0,0,1,1.6,1l.2.3h0a.5.5,0,0,0,1-.2l-.2-.5a3.5,3.5,0,0,0-1.4-1.3,8.1,8.1,0,0,0-3.6-.9h-.4a6.2,6.2,0,0,0-2.6.5,4.9,4.9,0,0,0-2.1,1.8,4.3,4.3,0,0,0-.5,1.1.5.5,0,1,0,1,.3Z"/><path class="cls-12" d="M215.5,39.9h0a8.6,8.6,0,0,1,.8-2.9,5.7,5.7,0,0,1,1.6-2,4.9,4.9,0,0,1,2.8-1h.3a3.3,3.3,0,0,1,1.7.4,2.7,2.7,0,0,1,.8.8,4.7,4.7,0,0,1,.7,1.8,11,11,0,0,1,.2,2.2,28.4,28.4,0,0,1-.3,3.8.5.5,0,0,0,1,.1,29.4,29.4,0,0,0,.3-4,12.5,12.5,0,0,0-.2-2.2,5.5,5.5,0,0,0-1.3-2.8,3.6,3.6,0,0,0-1.3-.9,4.6,4.6,0,0,0-1.8-.3h-.4a6,6,0,0,0-3.4,1.2,7.4,7.4,0,0,0-2.3,3.5,9.3,9.3,0,0,0-.4,2,.5.5,0,0,0,1,.1Z"/><path class="cls-12" d="M209.2,43.9h0a6.9,6.9,0,0,1,.8-1.9,4.3,4.3,0,0,1,1.1-1.2,2.9,2.9,0,0,1,1.7-.5h.9a3.9,3.9,0,0,1,1.6.8,3.7,3.7,0,0,1,1.2,1.8,6,6,0,0,1,.3,1.8c0,.2,0,.4,0,.5h0a.5.5,0,0,0,1,.2,6.3,6.3,0,0,0,.1-.9,6.5,6.5,0,0,0-.6-2.9,4.5,4.5,0,0,0-1.2-1.5,5,5,0,0,0-2-1h-1.2a4,4,0,0,0-2.3.7,5.9,5.9,0,0,0-1.9,2.3,7.5,7.5,0,0,0-.5,1.4.5.5,0,1,0,1,.2Z"/><g class="cls-13"><rect class="cls-14" x="213" y="29.6" width="5.7" height="2.49"/></g><path class="cls-4" d="M253.7,116.5s-.8-1.8-1.9-3.6a22.7,22.7,0,0,0-1.8-2.6l-1-1a2.9,2.9,0,0,0-1-.6l-1.7-.5-1.2-.2h-4.8l-1.7.2-.7.2-.6.3-.6.6-1.2,1.6c-.6,1-1.3,2.1-1.8,3.1l-.6,1.4-.2.6v.5c0,.2,0,.3,0,.4s.1,1.4.1,2a3.1,3.1,0,0,1-.1.8l-.5,1.3a5.9,5.9,0,0,0-.4,1.9,3.4,3.4,0,0,0,.2,1.2,3.5,3.5,0,0,0,.8,1.2,17.8,17.8,0,0,0,2.1,2l1.1.7,1.3.3,1-.2a4,4,0,0,0,1.6-.9l.4-.6a1.5,1.5,0,0,0,.2-.6,1.3,1.3,0,0,0-.2-.6l-.5-.5a.5.5,0,0,0-.6.9h.2v.2l-.4.4-1,.5h-.7l-.9-.2a5.2,5.2,0,0,1-1.4-.9l-1.5-1.5a2.4,2.4,0,0,1-.5-.8,2.4,2.4,0,0,1-.1-.9,4.9,4.9,0,0,1,.3-1.6c.2-.5.4-1,.5-1.4a4.2,4.2,0,0,0,.1-1.1c0-.7-.1-1.4-.1-2s0-.2,0-.3v-.2l.2-.7a31.2,31.2,0,0,1,1.9-3.6l1.1-1.7.5-.6.3-.3.4-.2,1.3-.2h6.4l1.7.5.6.4a9.8,9.8,0,0,1,1.5,1.7,34.6,34.6,0,0,1,2,3.4l.6,1.3.2.4h.1a.5.5,0,1,0,1-.4Z"/><path class="cls-4" d="M231.6,35.1H234l.8.2.4.3a.5.5,0,1,0,.8-.7,2,2,0,0,0-.8-.6l-1.5-.3h-2.1a.5.5,0,1,0,.1,1Z"/><path class="cls-15" d="M39.3,32.3a1.4,1.4,0,0,0,1,.5.8.8,0,0,0,.8-.7c0-.5-.3-.8-1.3-.8v-.4c.9,0,1.1-.3,1.1-.8a.6.6,0,0,0-.7-.6,1.2,1.2,0,0,0-.9.4l-.3-.3a1.7,1.7,0,0,1,1.2-.5c.7,0,1.2.4,1.2,1a1,1,0,0,1-.7,1h0a1,1,0,0,1,.9,1,1.2,1.2,0,0,1-1.3,1.1,1.7,1.7,0,0,1-1.3-.6Z"/><path class="cls-15" d="M43,33.4v1h-.5V30.1h.4v.4h0a1.6,1.6,0,0,1,1-.4c.8,0,1.2.6,1.2,1.6s-.6,1.7-1.3,1.7a1.4,1.4,0,0,1-.9-.4Zm.8-.6c.5,0,.9-.5.9-1.2s-.2-1.1-.8-1.1a1.3,1.3,0,0,0-.8.4v1.6A1.2,1.2,0,0,0,43.7,32.8Z"/><path class="cls-15" d="M46.4,31.5l-.9-1.5h.6l.4.7.3.5h0l.3-.5.4-.7H48l-.9,1.5,1,1.5h-.6l-.4-.7-.3-.5h0l-.3.5-.4.7h-.5Z"/><path class="cls-15" d="M46.4,72.5a1.4,1.4,0,0,0,1,.5.8.8,0,0,0,.8-.7c0-.5-.3-.8-1.3-.8v-.4c.9,0,1.1-.3,1.1-.8a.6.6,0,0,0-.7-.6,1.2,1.2,0,0,0-.9.4l-.3-.3a1.7,1.7,0,0,1,1.2-.5c.7,0,1.2.4,1.2,1a1,1,0,0,1-.7,1h0a1,1,0,0,1,.9,1,1.2,1.2,0,0,1-1.3,1.1,1.7,1.7,0,0,1-1.3-.6Z"/><path class="cls-15" d="M50.1,73.6v1h-.5V70.3H50v.4h0a1.6,1.6,0,0,1,1-.4c.8,0,1.2.6,1.2,1.6s-.6,1.7-1.3,1.7a1.4,1.4,0,0,1-.9-.4Zm.8-.6c.5,0,.9-.5.9-1.2s-.2-1.1-.8-1.1a1.3,1.3,0,0,0-.8.4v1.6A1.2,1.2,0,0,0,50.8,73Z"/><path class="cls-15" d="M53.5,71.7l-.9-1.5h.6l.4.7.3.5h0l.3-.5.4-.7h.5l-.9,1.5,1,1.5h-.6l-.4-.7-.3-.5h0l-.3.5-.4.7h-.5Z"/></svg>