<svg xmlns="http://www.w3.org/2000/svg" viewBox="0 0 673 285"><defs><style>.cls-1,.cls-2{fill:#80d5e6;}.cls-1{opacity:0.5;}.cls-2{opacity:0.4;}.cls-3{fill:#03b0d5;}.cls-4{fill:#fde493;}.cls-5{fill:#7ee6b7;}.cls-6{fill:#fdd345;}.cls-7{fill:#abf4d2;}</style></defs><title>illustration-samples</title><path class="cls-1" d="M105.6 176.7s12.7 2.8 16.1-1.6l.9-2.1s-14.5.2-15.6-6.3"/><path class="cls-1" d="M57.3 187.4s8.2-9.4 16.9-7.7l11.4-5.7-2.4-5.6s-15.5-1.1-25.9 19z"/><path class="cls-2" d="M84.5 175v-2.1s-1.4-14.9-.8-17.2-.4-7.9 1.1-12a13.8 13.8 0 0 1 5.7-7.1s-1.8-40.6 0-45a140 140 0 0 0 4.3-13.9s-13.4 3.2-15.5 12.4l-1.1 35.3s-11.1-5.4-9.7 5.1c2.9 21.4 12.9 13.5 12.9 13.5s-4.3 18-2.7 20.1l5.8 10.9z"/><path class="cls-3" d="M122.1 173.7a28 28 0 0 1-15.6-4.7 1 1 0 0 1 1.2-1.6 26.7 26.7 0 0 0 16.8 4.2c9.4-.9 11.3-5.7 11.3-5.9a1 1 0 0 1 1.9.6c-.1.3-2.2 6.3-13 7.2z"/><path class="cls-4" d="M54.3 111.1a1 1 0 0 1-.4-1.9c.3-.1 7.9-3.2 4.6-15.6l-11.9-.8c.9 1.4 1.8 3.3 1.4 5.1a3.6 3.6 0 0 1-2.3 2.5 1 1 0 1 1-.8-1.8 1.6 1.6 0 0 0 1.1-1.1c.4-1.6-1.5-4.3-2.3-5.1a1 1 0 0 1 .8-1.6l14.7.9a1 1 0 0 1 .9.7c1.2 4.2 2 10.2-1.1 14.9a10.5 10.5 0 0 1-4.5 3.9z"/><path class="cls-3" d="M79.3 123a1 1 0 0 1-1-.9c-.1-1.1-1.6-25.8 0-32.2s13.5-12.6 18.7-12.9a1 1 0 1 1 .1 2c-4.7.3-15.5 5.8-16.9 11.4v31.6a1 1 0 0 1-.9 1.1zM103.6 79.3a1 1 0 0 1-.3-1.9c.1 0 8-2.5 10.4-4a1 1 0 1 1 1.1 1.7c-2.6 1.6-10.5 4.1-10.9 4.2zM115.8 81.4a1 1 0 0 1-.4-1.9 79.9 79.9 0 0 0 10.2-5.2 1 1 0 1 1 1.1 1.7 80.3 80.3 0 0 1-10.5 5.4zM122.7 85.8a1 1 0 0 1-.4-1.9c3.4-1.5 9.2-4.4 10.3-5.7a1 1 0 1 1 1.5 1.3c-1.7 2-10 5.8-11 6.2zM76.7 145.8h-1c-2-.4-3.6-1.8-4.8-4.2-3.1-5.8-4.2-12.1-2.7-15.6a5 5 0 0 1 3.3-3c5.1-1.4 10.4 3.1 10.6 3.3a1 1 0 0 1-1.3 1.5c-.1-.1-4.7-4-8.8-2.9a3 3 0 0 0-2 1.9c-1.3 3-.2 8.7 2.6 13.9.9 1.8 2 2.9 3.3 3.1s5.1-1.6 6-2.5a1 1 0 0 1 1.4 1.4c-.1.2-3.2 3.1-6.6 3.1zM143 133.3h-.1a1 1 0 0 1-.9-1.1l.3-2.5c0-1.1.9-22.4-1.2-33.2l-6.1-13.3a1 1 0 0 1 1.1-1.7c.2.1 4.8 3.2 7 14.7s1.3 32.8 1.3 33.7l-.3 2.5a1 1 0 0 1-1.1.9zm.3-3.5zM101.1 200.2h-.2a1 1 0 0 1-.8-1.2c.5-2.4.9-6.2 1.3-9.9.8-7.1 1.2-10 2-10.9h.1c.9-.7 1.7-3.4 2.1-5.2s.5-7.8 1.2-13.5 1.9-14.3 1.2-15.5-1.3-1.5-1.6-1.4-.7.2-2.1 2.8c-2.4 4.2-3.6 16.4-3.6 16.5a1 1 0 1 1-2-.2c.1-.5 1.3-12.8 3.9-17.3 1.4-2.6 2.4-3.7 3.6-3.9s2.3 1 3.3 2.1.7 6.3-.7 17.1c-.7 5.4-1.5 11.1-1.2 13.1a1 1 0 0 1 0 .3c-.2.8-1.1 5-2.8 6.4s-1.1 6-1.5 9.7-.8 7.6-1.4 10.1a1 1 0 0 1-.8.9zM93.6 162.1h-.1a1 1 0 0 1-.8-1.1c0-.1 1.9-12.6 2.8-17.5s4.5-8.3 7.2-8.3 2.5 1.2 3.3 3.5a19.1 19.1 0 0 1 .8 3 1 1 0 0 1-2 .3c-.4-2.5-1.5-4.8-2.1-4.8s-4.4 2.1-5.3 6.7-2.8 17.3-2.8 17.5a1 1 0 0 1-1 .7zM88.9 160.5h-.1a1 1 0 0 1-.9-1.1s.3-4.8.9-11.3a31.2 31.2 0 0 1 2.7-10c1.2-2.4 3-5.3 5.4-5.3s4.1 2.6 4.4 3.9a1 1 0 0 1-2 .4c0-.1-.5-2.3-2.5-2.3s-5.5 6.7-6.2 13.5l-.9 11.2a1 1 0 0 1-.8 1zM83.6 156.8a1 1 0 0 1-1-1c-.4-16.2 4.7-19.2 6.3-19.7 3.3-1.1 4.9.4 5.1.6l-1.4 1.3s-.9-.8-3.1-.1-2.5 2-3.4 4.4-1.7 7.8-1.6 13.3a1 1 0 0 1-1 1zM83.6 193.9h-.3a1 1 0 0 1-.7-1.2c1.8-5.9 3.3-12.9 2.7-14a14.1 14.1 0 0 1-2.2-4.3 43.7 43.7 0 0 0-3.8-7.7c-3.7-5.7-.9-14-.7-14.3a1 1 0 0 1 1.9.7c0 .1-2.6 7.7.5 12.6a45.4 45.4 0 0 1 4 8 13.9 13.9 0 0 0 1.8 3.7c.7.7 1.2 2.3-.4 9-.8 3.5-1.8 6.9-1.9 7a1 1 0 0 1-.9.5zM100.5 111.1a1 1 0 0 1-.7-1.7 12.9 12.9 0 0 1 12.9-2.1 1 1 0 1 1-.7 1.9 11 11 0 0 0-10.9 1.7 1 1 0 0 1-.6.2zM105.5 128.3h-.3a1 1 0 0 1-.7-1.2 16.1 16.1 0 0 0 0-5.5 1 1 0 0 1 2-.3c0 .2.7 4 0 6.4a1 1 0 0 1-1 .6zM124.5 138.9l-2.9-.3a1 1 0 1 1 .4-2c2.8.5 4.8.3 5.9-.8s1.1-1.7.9-3.8c-4.9.2-5.5-.4-5.8-.6s-1.3-3-2.1-7.4a1 1 0 1 1 2-.4 47.2 47.2 0 0 0 1.6 6.3 26.4 26.4 0 0 0 5.2.1 1 1 0 0 1 1.1.9c.6 3.4-.4 5.3-1.4 6.2a6.5 6.5 0 0 1-4.9 1.8zm6.1-7.9zm-6.4-1zM147.7 198.3a1 1 0 0 1-.9-.5c-.4-.7-8.8-16.1-10.1-20.8-.5-2.6-.5-13-.2-21.5.6-18.3 1.7-19.1 2.1-19.5a3.4 3.4 0 0 1 3.5-.8c1.5.7 2.3 2.7 2.5 6.2a81.5 81.5 0 0 1 .1 11 68 68 0 0 0-.1 6.8 1 1 0 1 1-2 .1 69.2 69.2 0 0 1 .1-7 79.8 79.8 0 0 0-.1-10.8c-.1-2.9-.8-4.3-1.3-4.5s-.8 0-1.4.5-1.1 7.8-1.5 18.7-.2 18.3.2 20.4c1.2 4.6 9.8 20.2 9.9 20.4a1 1 0 0 1-.4 1.4zm-7.7-61zM148 158.6h-.1a1 1 0 0 1-.9-1.1 123.4 123.4 0 0 0 .3-12.8c-.3-10.4-1.8-11.1-1.8-11.1a2.2 2.2 0 0 0-1.8 0 4.3 4.3 0 0 0-1.8 2.2 1 1 0 0 1-1.9-.7 6.3 6.3 0 0 1 2.8-3.3 4.2 4.2 0 0 1 3.3-.1c1.3.5 2.9 2.4 3.2 12.9a125.8 125.8 0 0 1-.3 13.1 1 1 0 0 1-1 .9zM148 136.4h-.2a1 1 0 0 1-.8-1.2c.5-2.6.2-4.5-.7-5.6a3.9 3.9 0 0 0-2.7-1.3 1 1 0 0 1 0-2 5.8 5.8 0 0 1 4.2 2c1.4 1.7 1.8 4.1 1.1 7.3a1 1 0 0 1-.9.8zM167.4 193.9a1 1 0 0 1-.7-.3c-3.5-3.8-6.5-7.7-6.9-8.1s-9-9.7-8-18.2.6-9.2.6-9.3v-.2c0-.1 2.8-14-1-19.5a4.6 4.6 0 0 0-3.2-2.1 1 1 0 0 1 .3-2 6.6 6.6 0 0 1 4.5 2.9c4.2 6.1 1.6 19.6 1.3 21s-.1 2.3-.6 9.3c-.9 7.9 7.5 16.6 7.5 16.7h.1s3.1 4.1 6.8 8.1a1 1 0 0 1-.7 1.7zm-14.7-26.6zM135.2 127.7h-.1a1 1 0 0 1-.9-1.1c.2-2 .3-2.7.4-2.9s-.1-.8-.1-2.6a1 1 0 0 1 2 0 21.5 21.5 0 0 0 .1 2.4 1.2 1.2 0 0 1 0 .5c-.1.5-.2 1.5-.4 2.9a1 1 0 0 1-1 .8zM134.3 110.5a1 1 0 0 1-.7-1.7c.1-.1 3.7-3.6 9.6-.8a1 1 0 0 1-.8 1.8c-4.6-2.1-7.2.3-7.3.4a1 1 0 0 1-.8.3zM121.8 158c-3.7 0-6.3-1-7.8-2.9s-1.1-6.3-1.1-6.5a1 1 0 0 1 .6-.6h.7c1.2.2 12.3-.1 19.1-.4a1 1 0 0 1 .7.3 1 1 0 0 1 .3.7c0 3.1-2.5 9.2-11.9 9.4zm-7-8.1a5.4 5.4 0 0 0 .9 4c1.2 1.5 3.4 2.2 6.7 2.1 7.6-.2 9.4-4.4 9.8-6.4-11.3.4-15.7.4-17.4.3zm-.4-1.9zm0 0zM79.3 115.8a1 1 0 0 1-.5-1.9 17.6 17.6 0 0 0 3.7-2.5 1 1 0 1 1 1.7 1.1c-.7 1.1-3.6 2.7-4.4 3.1zM78.6 100.2a1 1 0 0 1-.5-1.8l4.1-2.5a1 1 0 1 1 1 1.7l-4 2.4zM117.4 182.7h-.1a1 1 0 0 1-.9-1.1 11.9 11.9 0 0 1 7.9-9.9 1 1 0 0 1 .6 1.9 9.9 9.9 0 0 0-6.5 8.2 1 1 0 0 1-1 .9zM55.2 191.4h-.4a1 1 0 0 1-.5-1.3 53.5 53.5 0 0 1 6-9.7c5.1-6.6 10.7-10.3 16.4-10.8a1 1 0 0 1 .2 2c-12.4 1.2-20.7 19.2-20.7 19.4a1 1 0 0 1-1 .4z"/><path class="cls-5" d="M65.8 71.8h-.3c-5.5-1.7-10.8-6-15.3-12.5a49.7 49.7 0 0 1-5-9.4 1 1 0 0 1 .5-1.2l13.4-6.9a1 1 0 0 1 1.4.6c3 9.9 16.7 19.7 16.8 19.8a1 1 0 0 1 0 1.6l-10.9 7.8zm-18.4-21.8a50.5 50.5 0 0 0 4.5 8.2c2.8 4.2 7.5 9.5 13.7 11.5l9.4-6.7c-3.2-2.6-12.8-10.5-16-19zM180.8 169.9l-.5-.2-16.3-10.3a1 1 0 0 1 .1-1.7c8.6-4.1 13.8-22.9 13.8-23.1a1 1 0 0 1 1.3-.7l15.3 6.2a1 1 0 0 1 .6 1c-1.3 14.5-13.2 27.8-13.7 28.4a1 1 0 0 1-.6.4zm-14.3-11.3l14.1 9c2.3-2.7 11.2-14 12.6-25.9l-13.6-5.6a78.6 78.6 0 0 1-3.5 9.3c-3 6.5-6.2 10.9-9.6 13.2z"/><path class="cls-6" d="M55.2 162.1h-.4c-3.8-1.6-7.2-5-10-10.1a38.5 38.5 0 0 1-3.1-7.1 1 1 0 0 1 .5-1.2l12.2-6.6a1 1 0 0 1 1.5.8c.3 8.2 9.8 15.1 9.9 15.2a1 1 0 0 1 0 1.6l-10 7.2zm-11.3-17.1c.9 2.7 4.5 11.7 11.2 14.9l8.5-6.1c-2.5-2-8.5-7.6-9.5-14.3zM54.6 111.1h-.1c-.4 0-10.2-1-14.7-2.9h-.1c-4.9-2.5-4.6-8.5-4.6-8.8a1 1 0 0 1 1.1-.9l14.4 1.2a1 1 0 0 1 .9 1.1c-.6 5 3.7 8.5 3.7 8.5a1 1 0 0 1-.6 1.8zm-14-4.7c2.8 1.2 8.2 2 11.4 2.4a11.6 11.6 0 0 1-2.5-7.2l-12.3-1.1c.1 1.7.8 4.6 3.4 5.9z"/><path class="cls-4" d="M156.4 104.3a1 1 0 0 1-.8-.4 15.2 15.2 0 0 1-2.8-7.9c-.6-8 4.4-14.9 8.8-19.4a1 1 0 0 1 1.1-.2l19.4 9.1a1 1 0 0 1 .3 1.6c-.2.2-6 6-2.2 10.9a1 1 0 0 1-1.6 1.2c-3.4-4.4-.9-9.6 1.4-12.5l-17.5-8.2c-5.4 5.7-8.1 11.7-7.7 17.2a13.5 13.5 0 0 0 2.3 6.9 1 1 0 0 1-.2 1.4z"/><path class="cls-5" d="M147.4 45.7h-.1c-14.5-1.3-27.8-13.2-28.4-13.7a1 1 0 0 1-.2-1.3l10.3-16.2a1 1 0 0 1 1.7.1c4.4 8.6 23.3 13.8 23.4 13.9a1 1 0 0 1 .7 1.4l-6.6 15.3a1 1 0 0 1-.8.5zm-26.5-14.6c2.7 2.3 14 11.2 25.9 12.6l5.8-13.7a80.3 80.3 0 0 1-9.3-3.5c-6.5-3-11-6.2-13.4-9.6z"/><path class="cls-6" d="M177.5 110.9h-.9c-7-.6-20.1-6.7-20.6-7a1 1 0 0 1 .2-1.9c.1 0 8-1.6 11.2-8.5a1 1 0 0 1 1.3-.5l19.1 9.1a1 1 0 0 1 .5 1.3 16.8 16.8 0 0 1-2.9 3.9 11 11 0 0 1-7.9 3.6zm-18.2-7.7c4.2 1.8 12.7 5.3 17.5 5.7s7.9-3.6 9.1-5.5l-17.2-8.2a17.8 17.8 0 0 1-9.4 7.9z"/><path class="cls-4" d="M217.9 81.9h-.5c-3.9-2-8.8-5.5-10.1-11a10.5 10.5 0 0 1 .3-5.9 1 1 0 0 1 1.8.8c-.1.3-3 8 8.2 14l8.7-8.1c-1.6-.3-3.7-1-4.6-2.5a3.6 3.6 0 0 1-.3-3.4 1 1 0 0 1 1.9.7 1.6 1.6 0 0 0 .1 1.6c.9 1.4 4.2 1.8 5.3 1.8a1 1 0 0 1 .6 1.7l-10.7 10a1 1 0 0 1-.7.3z"/><path class="cls-7" d="M254.1 116.4h-.4c-9.2-4.6-25.8-1.3-25.9-1.3a1 1 0 0 1-1.2-1.1l1.8-13.3a1 1 0 0 1 .5-.7c5-3 11.8-3.9 19.5-2.7a49.7 49.7 0 0 1 10.3 2.8 1 1 0 0 1 .6 1.2l-4.2 14.5a1 1 0 0 1-.6.6zm-14-4.6c4.5 0 9.4.5 13.3 2.2l3.6-12.5a50.4 50.4 0 0 0-9.1-2.3c-5-.8-12-1-17.8 2.2l-1.5 11.5a72.7 72.7 0 0 1 11.6-1.1zM187.9 47.7l-.7-.2c-6.2-5.4-17.7-3.2-17.8-3.2a1 1 0 0 1-1.2-1.1l1.6-12.2a1 1 0 0 1 .6-.8c3.8-1.7 8.6-1.8 14.2-.4a38.5 38.5 0 0 1 7.2 2.6 1 1 0 0 1 .5 1.1l-3.5 13.5a1 1 0 0 1-.7.7zm-12.9-5.9h1.1a21.1 21.1 0 0 1 11.2 3.2l3-11.1c-2.6-1.2-11.6-4.7-18.5-2.1l-1.4 10.3a36.5 36.5 0 0 1 4.6-.3z"/><path class="cls-4" d="M218 70h-.1a1 1 0 0 1-.7-.3c-3.3-3.8-8.7-3.1-8.7-3.1a1 1 0 0 1-.8-1.7c.3-.3 7.7-6.8 12.2-8.7h.1c5.1-1.9 9.4 2.4 9.5 2.6a1 1 0 0 1-.1 1.4l-10.8 9.6zm-6.9-5.4a11.6 11.6 0 0 1 7 3.1l9.2-8.2c-1.2-1-3.8-2.5-6.6-1.5s-7.1 4.4-9.6 6.5z"/><path class="cls-7" d="M19.7 87.1a1 1 0 0 1-.8-.5l-6.7-10.3a1 1 0 0 1-.1-1c1.8-3.8 5.4-6.9 10.6-9.5a38.5 38.5 0 0 1 7.2-2.7 1 1 0 0 1 1.1.5l6 12.5a1 1 0 0 1-.1 1 1 1 0 0 1-.9.5c-8.1 0-15.4 9.1-15.5 9.1a1 1 0 0 1-.8.4zm-5.5-11.4l5.7 8.7c2.2-2.4 8-8.1 14.8-8.8l-5-10.4c-2.8.9-12 4-15.5 10.5zM221.3 183.9h-.2a1 1 0 0 1-.7-.6c-2.9-7.6-14.1-11.1-14.3-11.2a1 1 0 0 1-.5-1.5l7.1-10a1 1 0 0 1 .9-.4c4.2.3 8.4 2.5 12.7 6.4a38.5 38.5 0 0 1 5.2 5.7 1 1 0 0 1-.1 1.3l-9.4 9.9a1 1 0 0 1-.7.4zm-13.3-13.3c3 1.1 10.4 4.4 13.6 10.5l7.8-8.4c-1.7-2.2-8-9.6-15.4-10.5zM29.6 142.8l-.7-.3c-4-3.7-11.8-2.4-11.9-2.4a1 1 0 0 1-1.1-1.1l1.3-8.3a1 1 0 0 1 .6-.8c6.4-2.6 14.6 1.8 14.9 2a1 1 0 0 1 .5 1.2l-2.7 8.9a1 1 0 0 1-.7.7zm-9.4-4.9a16.4 16.4 0 0 1 8.9 2.2l2-6.9c-2-.9-7.5-3.2-12-1.7l-1 6.4z"/><path class="cls-5" d="M297.8 192.4a1 1 0 0 1-.4-1.9c.3-.1 7.9-3.2 4.6-15.6l-11.9-.8c.9 1.4 1.8 3.3 1.4 5.1a3.6 3.6 0 0 1-2.3 2.5 1 1 0 0 1-.8-1.8 1.6 1.6 0 0 0 1.1-1.1c.4-1.6-1.5-4.3-2.3-5.1a1 1 0 0 1 .8-1.6l14.7.9a1 1 0 0 1 .9.7c1.2 4.2 2 10.2-1.1 14.9a10.5 10.5 0 0 1-4.5 3.9zM309.3 153h-.3c-5.6-1.6-10.9-5.9-15.3-12.4a49.7 49.7 0 0 1-5-9.4 1 1 0 0 1 .5-1.2l13.4-6.9a1 1 0 0 1 1.4.6c3 9.9 16.7 19.7 16.8 19.8a1 1 0 0 1 0 1.6l-10.9 7.8zm-18.4-21.8a50.5 50.5 0 0 0 4.5 8.2c2.8 4.2 7.5 9.5 13.7 11.5l9.4-6.7c-3.3-2.5-12.9-10.4-16.1-18.9zM298.1 192.4h-.1c-.4 0-10.2-1-14.7-2.9h-.1c-4.9-2.5-4.6-8.5-4.6-8.8a1 1 0 0 1 1.1-.9l14.4 1.2a1 1 0 0 1 .9 1.1c-.6 5 3.7 8.5 3.7 8.5a1 1 0 0 1-.6 1.8zm-14-4.7c2.8 1.2 8.2 2 11.4 2.4a11.6 11.6 0 0 1-2.5-7.2l-12.3-1.1c.1 1.6.8 4.5 3.4 5.9z"/><path class="cls-6" d="M263.2 168.4a1 1 0 0 1-.8-.5l-6.7-10.3a1 1 0 0 1-.1-1c1.8-3.8 5.4-6.9 10.6-9.5a38.5 38.5 0 0 1 7.2-2.7 1 1 0 0 1 1.1.5l6 12.5a1 1 0 0 1-.9 1.4h-.1c-8.1 0-15.4 9.1-15.5 9.1a1 1 0 0 1-.8.5zm-5.5-11.4l5.7 8.7c2.2-2.4 8-8.1 14.8-8.8l-5-10.4c-2.8.9-12 4-15.5 10.5z"/><path class="cls-7" d="M267.2 72.9a1 1 0 0 1-1-.9l-1.8-15a1 1 0 0 1 1-1.1c10.3.6 24.2-8.8 24.4-8.9a1 1 0 0 1 1.5.6l3.5 13a1 1 0 0 1-.2.9c-3.4 4.7-9.3 8.2-17 10.1a49.7 49.7 0 0 1-10.6 1.5zm-.7-15l1.5 12.9c3.7-.2 18-1.5 24.8-10.3l-3.1-11.2a75.4 75.4 0 0 1-7.4 4.1c-6.1 3-11.4 4.5-15.8 4.5z"/><path class="cls-5" d="M342.3 239.1h-16.5a1 1 0 0 1-.9-.7c-4.3-14 1.8-30.7 2-31.5a1 1 0 0 1 1.1-.6l18.9 3.5a1 1 0 0 1 .6 1.6c-6.4 7-4.2 26.4-4.2 26.6a1 1 0 0 1-1 1.1zm-15.8-2h14.7a78.7 78.7 0 0 1-.2-10c.3-7.1 1.6-12.4 3.9-15.8l-16.5-3c-1 3.4-5.1 17.2-1.9 28.7z"/><path class="cls-7" d="M295.7 228.4a26.9 26.9 0 0 1-9.2-1.8 38.5 38.5 0 0 1-6.9-3.4 1 1 0 0 1-.4-1.2l4.9-12.9a1 1 0 0 1 1.7-.3c5.6 6 17.3 5 17.4 5a1 1 0 0 1 1.1 1.2l-2.9 12a1 1 0 0 1-.7.7 16.3 16.3 0 0 1-5 .7zm-14.4-6.5c2.5 1.4 11.1 5.9 18.2 4l2.4-10.1c-3.2.1-11.3-.2-16.5-4.6z"/><path class="cls-4" d="M261.5 254.7l-.7-.3-6.8-6.2a1 1 0 0 1 .3-1.7c4.9-1.9 7.1-9.2 7.1-9.3a1 1 0 0 1 1.5-.5l6.7 4.7a1 1 0 0 1 .4.9c-.5 6.7-7.8 12-8.1 12.2zm-.6-1.8zm-4.5-5.2l5.1 4.7c1.6-1.3 5.9-5.2 6.6-9.7l-5.1-3.6c-.9 2.2-3 6.5-6.6 8.7z"/><path class="cls-6" d="M101.7 68.8l-.6-.2-3.7-3.1a1 1 0 0 1 1.3-1.5l3.7 3.1a1 1 0 0 1-.6 1.8zM108.8 62.7a1 1 0 0 1-1-.8l-.6-4a1 1 0 1 1 2-.3l.6 4a1 1 0 0 1-.8 1.1zM116.8 68.2h-.5a1 1 0 0 1-.3-1.4l4-6.7a1 1 0 1 1 1.7 1l-4 6.7a1 1 0 0 1-.9.4z"/><path class="cls-5" d="M498.3 264.8h-.2a1 1 0 0 1-.7-.7c-2.6-9.1-20.2-17.6-20.4-17.6a1 1 0 0 1-.4-1.4l8.8-14a1 1 0 0 1 1.1-.4c14.1 3.8 25.1 17.8 25.6 18.4a1 1 0 0 1-.1 1.3l-13 14.2a1 1 0 0 1-.7.2zm-19.5-19.7a78.6 78.6 0 0 1 8.6 5.1c5.8 4 9.6 7.9 11.3 11.7l11.3-12.3c-2.3-2.7-11.8-13.5-23.3-16.9z"/><path class="cls-4" d="M436.4 264.6h-1.7c-8-.8-13.9-6.9-17.6-12a1 1 0 0 1 0-1.2l12.3-17.5a1 1 0 0 1 .8-.4 1 1 0 0 1 .8.4c.2.3 4.9 6.9 10.3 4a1 1 0 0 1 .9 1.8c-4.9 2.6-9.6-.7-12-3.6l-11.1 15.8c4.7 6.3 10.1 10 15.6 10.6a13.5 13.5 0 0 0 7.2-1.1 1 1 0 0 1 1 1.7 14.6 14.6 0 0 1-6.5 1.5z"/><path class="cls-6" d="M442.1 263.2h-.3a1 1 0 0 1-.7-.9c0-.1-.2-8.1-6.4-12.5a1 1 0 0 1-.2-1.4l12.2-17.2a1 1 0 0 1 1.4-.2 16.8 16.8 0 0 1 3.4 3.6 10.8 10.8 0 0 1 1.9 9.2c-1.8 6.8-10.1 18.6-10.4 19.1a1 1 0 0 1-.9.3zm-5.5-14.5a17.8 17.8 0 0 1 6.2 10.7c2.5-3.8 7.4-11.6 8.6-16.3s-2.2-8.5-3.8-9.9z"/><path class="cls-4" d="M418.7 206.5a10.3 10.3 0 0 1-5.2-1.3 1 1 0 0 1 1.1-1.7c.3.2 7.3 4.4 15.3-5.7l-6.5-9.9c-.6 1.5-1.6 3.4-3.2 4.1a3.6 3.6 0 0 1-3.4-.3 1 1 0 0 1 1-1.7 1.6 1.6 0 0 0 1.6.2c1.5-.7 2.5-3.8 2.7-4.9a1 1 0 0 1 1.8-.3l8.1 12.3a1 1 0 0 1 0 1.1c-2.6 3.5-7 7.7-12.6 8z"/><path class="cls-7" d="M465.3 195.1h-.3l-12.8-4.1a1 1 0 0 1-.6-.6c-2.1-5.4-1.8-12.3.8-19.7a49.8 49.8 0 0 1 4.5-9.7 1 1 0 0 1 1.3-.4l13.6 6.6a1 1 0 0 1 .4 1.5c-6.1 8.3-5.8 25.1-5.8 25.3a1 1 0 0 1-.4.8zm-12-5.9l11 3.5c0-4.2.6-16.6 5.5-24.2l-11.7-5.7a50.5 50.5 0 0 0-3.9 8.5c-1.6 4.8-3.1 11.7-.9 17.9zM385.6 240.3h-.3l-11.7-3.7a1 1 0 0 1-.7-.7c-1-4.1-.3-8.8 2.1-14.1a38.5 38.5 0 0 1 3.8-6.7 1 1 0 0 1 1.2-.3l12.6 5.8a1 1 0 0 1 .2 1.7c-6.3 5.1-6.2 16.9-6.2 17a1 1 0 0 1-.4.8zm-10.9-5.5l9.9 3.1c.1-3.2 1-11.3 5.8-16.2l-10.4-4.7c-1.6 2.3-6.7 10.6-5.3 17.9z"/><path class="cls-4" d="M414.3 205.6a1 1 0 0 1-.8-.5c-.2-.4-5.3-8.8-6.5-13.5-1-5.4 4-8.8 4.2-8.9a1 1 0 0 1 1.4.3l7.6 12.3a1 1 0 0 1-.3 1.4c-4.4 2.6-4.6 8-4.6 8a1 1 0 0 1-.7.9zm-5.4-14.4c.7 3 3.3 7.7 4.9 10.6a11.6 11.6 0 0 1 4.2-6.3l-6.5-10.5c-1.2 1-3.1 3.3-2.6 6.2z"/><path class="cls-7" d="M517.9 225.8a1 1 0 0 1-.7-.3l-8.6-8.8a1 1 0 0 1-.3-.9c1-4 3.9-7.9 8.5-11.4a38.5 38.5 0 0 1 6.5-4.1 1 1 0 0 1 1.2.3l8.4 11a1 1 0 0 1-.6 1.6c-8 1.5-13.4 12-13.5 12.1a1 1 0 0 1-.7.5zm-7.5-10.1l7.3 7.4c1.6-2.8 6.2-9.5 12.7-11.6l-6.9-9.2c-2.6 1.4-11 6.3-13.1 13.5z"/><path class="cls-6" d="M644.5 215.4h-.2a1 1 0 0 1-.8-.6c-3.1-7.6-14.4-10.7-14.6-10.8a1 1 0 0 1-.6-1.5l6.9-10.2a1 1 0 0 1 .9-.4c4.2.2 8.5 2.2 12.9 6a38.5 38.5 0 0 1 5.3 5.6 1 1 0 0 1-.1 1.3l-9.1 10.4a1 1 0 0 1-.6.2zm-13.7-12.9c3 1 10.6 4.1 13.9 10.1l7.6-8.6c-1.8-2.2-8.3-9.4-15.7-10.1z"/><path class="cls-4" d="M559.3 239.5c-5.3 0-10.4-3-10.7-3.2a1 1 0 0 1-.4-1.2l3-8.7a1 1 0 0 1 1.7-.4c3.7 3.8 11.3 2.9 11.4 2.9a1 1 0 0 1 1.1 1.2l-1.7 8a1 1 0 0 1-.6.7 11.4 11.4 0 0 1-3.8.7zm-8.9-4.5c1.9 1 7.1 3.4 11.5 2.2l1.3-6.2c-2.3.1-7.1-.1-10.5-2.6zm-1.2.5z"/></svg>