<?xml version="1.0" encoding="UTF-8"?>
<svg width="202px" height="139px" viewBox="0 0 202 139" version="1.1" xmlns="http://www.w3.org/2000/svg" xmlns:xlink="http://www.w3.org/1999/xlink">
    <!-- Generator: Sketch 44.1 (41455) - http://www.bohemiancoding.com/sketch -->
    <title>Combined Shape</title>
    <desc>Created with Sketch.</desc>
    <defs></defs>
    <g id="Page-1" stroke="none" stroke-width="1" fill="none" fill-rule="evenodd">
        <g id="Group-3" fill-rule="nonzero" fill="#FFFFFF">
            <path d="M145.820878,85.0073381 C139.912893,85.0382698 134.778206,86.4611352 130.478678,88.5645014 C128.901153,85.4403845 127.323628,82.6565171 127.045242,80.615015 C126.735924,78.2332616 126.364741,76.7794646 126.735924,73.9337338 C127.107105,71.0880031 128.777426,67.03593 128.746494,66.7266115 C128.715562,66.4172929 128.375312,64.9634957 124.972807,64.9325638 C121.570303,64.901632 118.631777,65.5821328 118.291527,66.4791567 C117.951276,67.3761804 117.301707,69.417683 116.868661,71.5210491 C116.280956,74.6142347 110.063653,85.6569071 106.50649,91.4411639 C105.362011,89.1831387 104.372191,87.2035 104.155669,85.6259754 C103.84635,83.2442227 103.475167,81.7904255 103.84635,78.9446946 C104.217532,76.0989638 105.887852,72.0468907 105.856921,71.7375721 C105.825988,71.4282535 105.485738,69.9744563 102.083234,69.9435245 C98.6807302,69.9125926 95.7422036,70.5930935 95.4019535,71.4901172 C95.0617029,72.3871411 94.6905205,74.4905073 93.9790881,76.5320097 C93.2676551,78.5735123 85.0088497,97.0088982 82.8436202,101.772404 C81.7300731,104.216021 80.7711858,106.164727 80.0906844,107.494797 L80.0906844,107.494797 C80.0906844,107.494797 80.0597527,107.587593 79.966957,107.742252 C79.379252,108.886731 79.0390014,109.505368 79.0390014,109.505368 C79.0390014,109.505368 79.0390014,109.505368 79.0390014,109.5363 C78.5750239,110.37146 78.080114,111.144756 77.8326591,111.144756 C77.6470683,111.144756 77.3068176,108.917663 77.8945232,105.886341 C79.1317971,99.4834467 82.0703237,89.5233893 82.0393914,89.1831387 C82.0393914,88.9975478 82.5961653,87.2653634 80.1216168,86.3683401 C77.7089317,85.4713162 76.8428401,86.9560451 76.6263169,86.9560451 C76.4097937,86.9560451 76.2551345,87.4818866 76.2551345,87.4818866 C76.2551345,87.4818866 78.9462063,76.2845549 71.1204467,76.2845549 C66.2332131,76.2845549 59.4900687,81.6357657 56.1494283,86.4611352 C54.0460621,87.6056141 49.560943,90.0492309 44.7665054,92.6784385 C42.9415259,93.6991899 41.0546827,94.7199412 39.2915669,95.6788285 C39.1678395,95.5551011 39.0441121,95.4004419 38.9203847,95.2767145 C29.4552368,85.1619973 11.9478065,78.0167388 12.690171,64.4376541 C12.9685577,59.4885572 14.6698097,46.4971778 46.3130982,30.7219313 C72.3577206,17.8852112 93.0820642,21.4423746 96.6701592,29.3299979 C101.804848,40.5891934 85.5656229,61.4991278 58.6549086,64.5304497 C48.3855325,65.6749284 43.0033896,61.7156508 41.642388,60.2309217 C40.2195226,58.684329 40.0029996,58.5915334 39.4771581,58.9008519 C38.6110661,59.3648298 39.1678395,60.7567633 39.4771581,61.5609916 C40.2813863,63.6643577 43.5910949,67.3761804 49.1897608,69.2011599 C54.1388577,70.8096164 66.1713497,71.7066403 80.7402534,66.0770425 C97.0413415,59.7669439 109.785266,42.2285817 106.042512,27.5359502 C102.299757,12.6267957 77.5542725,7.70863066 54.1388577,16.0292999 C40.2195226,20.9783968 25.124777,28.7732244 14.2676956,38.9188732 C1.36911177,50.9822969 -0.672390718,61.468196 0.162769388,65.8605195 C3.1631594,81.4501748 24.6607992,91.5958238 33.259855,99.1122643 C32.8268091,99.3597193 32.4246949,99.5762425 32.0844445,99.7618333 C27.7849166,101.896131 11.391033,110.464255 7.3080281,119.527289 C2.6682497,129.796665 8.05039259,137.158447 11.607556,138.148266 C22.6502285,141.21052 34.0022196,135.70465 40.0957952,126.610684 C46.1893708,117.516719 45.4470062,105.70075 42.6322074,100.287675 C42.6012755,100.225811 42.5703437,100.163947 42.5084799,100.102084 C43.6220267,99.452515 44.7665054,98.7720143 45.8800522,98.1224453 C48.0762139,96.8233074 50.2414439,95.6169645 52.0973552,94.6271455 C51.0456721,97.5038081 50.2723758,100.937244 49.9011935,105.886341 C49.4372157,111.70153 51.8189685,119.248902 54.9430859,122.218361 C56.3350195,123.517499 57.9744078,123.54843 59.0260909,123.54843 C62.6760499,123.54843 64.3154383,120.517109 66.140418,116.929014 C68.3675116,112.53669 70.3780819,107.432934 70.3780819,107.432934 C70.3780819,107.432934 67.8726017,121.228541 74.6776099,121.228541 C77.1521584,121.228541 79.6576386,118.011628 80.7711858,116.37224 L80.7711858,116.403172 C80.7711858,116.403172 80.8330492,116.310376 80.9567766,116.093853 C81.2042315,115.691739 81.3588907,115.444284 81.3588907,115.444284 L81.3588907,115.382421 C82.3487104,113.650236 84.5758039,109.721891 87.8855123,103.195269 C92.1541086,94.7818046 96.2680451,84.264974 96.2680451,84.264974 C96.2680451,84.264974 96.6392275,86.8323176 97.9074337,91.1009139 C98.6497985,93.6063941 100.196391,96.3593292 101.433665,99.0194686 C100.443846,100.411402 99.825209,101.184699 99.825209,101.184699 C99.825209,101.184699 99.825209,101.184699 99.8561407,101.21563 C99.0519126,102.267314 98.1858204,103.411792 97.2269331,104.525339 C93.8553606,108.54648 89.8342193,113.155327 89.277446,114.485397 C88.627877,116.062921 88.7825362,117.2074 90.0198101,118.135356 C90.916834,118.815857 92.525291,118.908652 94.164679,118.815857 C97.1960007,118.599333 99.3302992,117.856969 100.381982,117.392991 C102.02137,116.805286 103.939145,115.908262 105.733193,114.578193 C109.042902,112.134576 111.053472,108.639276 110.867881,104.03043 C110.775085,101.494017 109.939926,98.9576052 108.919174,96.5758524 C109.228493,96.142806 109.50688,95.7097602 109.816198,95.2767145 C115.043682,87.6365458 119.095755,79.254013 119.095755,79.254013 C119.095755,79.254013 119.466937,81.8213572 120.735143,86.0899529 C121.35378,88.255183 122.621986,90.6060041 123.735533,92.8949617 C118.817368,96.8851708 115.786046,101.524949 114.703431,104.556271 C112.754724,110.185869 114.270385,112.722281 117.147048,113.309986 C118.446186,113.588373 120.302097,112.969736 121.663099,112.382031 C123.395283,111.825258 125.436786,110.86637 127.385492,109.443504 C130.695201,106.999888 133.881182,103.597384 133.695591,98.9885369 C133.602795,96.8851708 133.046022,94.8127363 132.272725,92.802166 C136.448526,91.0699822 141.830669,90.1110943 148.697541,90.9153224 C163.421104,92.6475068 166.328699,101.834268 165.771925,105.70075 C165.215152,109.567232 162.121966,111.670598 161.101215,112.320167 C160.080464,112.969736 159.740213,113.186259 159.833009,113.650236 C159.956736,114.330738 160.451646,114.299805 161.317738,114.176078 C162.52408,113.959555 169.050702,111.051961 169.329089,103.937634 C169.793066,94.8436687 161.132147,84.9145423 145.820878,85.0073381 L145.820878,85.0073381 Z M32.2391038,123.300975 C27.3518706,128.621255 20.5468623,130.631825 17.608336,128.930573 C14.4532868,127.105594 15.690561,119.248902 21.691341,113.619305 C25.3413,110.185869 30.0429421,106.999888 33.1670595,105.051181 C33.8784922,104.618135 34.9301753,103.999498 36.1983813,103.226201 C36.4149044,103.102474 36.5386318,103.04061 36.5386318,103.04061 L36.5386318,103.04061 C36.7860866,102.885951 37.0335415,102.731292 37.2809963,102.576633 C39.4771581,110.618915 37.3737919,117.702309 32.2391038,123.300975 L32.2391038,123.300975 Z M67.8107377,99.1122643 C66.1094856,103.257133 62.5523225,113.86676 60.3870926,113.279055 C58.5311812,112.784145 57.3867025,104.741862 60.0159103,96.792375 C61.3459801,92.802166 64.160779,88.0386598 65.8001673,86.1827486 C68.4603067,83.2132903 71.3988333,82.2234713 72.1102657,83.4298135 C73.0072896,85.0073381 68.8624207,96.5139884 67.8107377,99.1122643 L67.8107377,99.1122643 Z M97.165069,113.155327 C96.4536366,113.52651 95.7731353,113.773964 95.4638169,113.588373 C95.2472937,113.464646 95.7731353,112.969736 95.7731353,112.969736 C95.7731353,112.969736 99.4540266,109.010458 100.907824,107.216411 C101.742984,106.164727 102.732803,104.927454 103.784486,103.53552 L103.784486,103.937634 C103.784486,108.670208 99.2065717,111.856189 97.165069,113.155327 L97.165069,113.155327 Z M119.807187,107.989707 C119.281346,107.618525 119.374141,106.381251 121.137258,102.514768 C121.817758,100.999108 123.426215,98.4626954 126.17915,96.0190792 C126.488469,97.0088982 126.704991,97.9677855 126.674059,98.8648094 C126.643128,104.834658 122.374531,107.061751 119.807187,107.989707 Z M189.168445,21.2554312 C196.941914,23.9314233 201.965173,28.1233119 201.965173,32.4575846 C201.965173,36.9778803 196.596943,41.3975197 188.345676,44.1311662 C187.909604,44.27578 187.462703,44.4146602 187.007202,44.5490809 C187.169653,45.2027097 187.314586,45.8445529 187.438813,46.4730176 C189.067789,54.7010324 187.813408,61.4637974 183.952793,63.6986219 C180.214813,65.8624137 174.173524,63.7368459 168.056425,58.4730951 C167.391524,57.8995606 166.74274,57.3076034 166.110828,56.6979131 C165.609139,57.1830382 165.108088,57.6458661 164.608947,58.0822557 C158.29372,63.6024251 151.808397,65.8926743 147.944279,63.664539 C144.203114,61.5064808 143.02741,55.2113216 144.532795,47.283046 C144.697286,46.4214123 144.885825,45.5645437 145.09819,44.7134437 C144.444491,44.5268457 143.795545,44.3239836 143.151956,44.1050465 C135.214761,41.3924231 129.990827,36.9183147 129.990827,32.4575846 C129.990827,28.13892 134.857368,23.9750622 142.477304,21.3185006 C143.32906,21.0216282 144.219359,20.7425937 145.141192,20.4807599 C144.943712,19.6907613 144.766339,18.8958721 144.609243,18.0968622 C143.030277,10.0284322 144.141318,3.58037739 147.892358,1.40894086 C151.804256,-0.855507181 158.319203,1.57617046 164.81886,7.34734356 C165.223156,7.70710978 165.620753,8.07433465 166.011446,8.44882918 C166.594855,7.88562933 167.1924,7.3372598 167.80351,6.80424552 C174.005339,1.40734819 180.14601,-0.85041066 183.900554,1.31497375 C187.816593,3.5727326 188.96331,10.4313759 187.20947,18.9451144 C187.099881,19.4740238 186.980517,20.0008606 186.851439,20.5253545 C187.629784,20.7492144 188.402364,20.9926505 189.168445,21.2554312 Z M187.378611,41.2127708 L187.378929,41.2127708 C194.50291,38.8521259 198.890696,35.2399666 198.890696,32.4575846 C198.890696,29.8456175 194.828132,26.4554754 188.167616,24.1629964 C187.478948,23.9256897 186.764161,23.7011242 186.028033,23.4877074 C185.142512,26.3529079 183.960756,29.3799229 182.52513,32.4728741 C184.029241,35.6406805 185.258776,38.7071936 186.16978,41.5908689 C186.581324,41.468871 186.985223,41.3430506 187.378611,41.2127708 Z M184.422628,47.0702662 L184.422628,47.0702662 C184.310186,46.5023226 184.179588,45.9216378 184.033063,45.3291672 C181.051917,46.0181531 177.764661,46.5230272 174.285011,46.8316853 C172.306924,49.6952931 170.280101,52.2741328 168.252004,54.4923936 C168.857853,55.0753082 169.462109,55.6263696 170.061906,56.1423923 C175.292848,60.6438946 180.14378,62.3505921 182.412051,61.0376009 C183.477861,60.4206033 184.33981,58.8801798 184.768555,56.5695445 C185.245717,53.9980311 185.142831,50.7085452 184.422628,47.0702662 Z M154.528347,60.8108057 L154.528665,60.8108057 C156.994744,59.9396191 159.793053,58.208076 162.585628,55.7668424 C163.053016,55.3572724 163.510248,54.9362571 163.956911,54.5041793 C161.855233,52.2486502 159.7698,49.6729958 157.778653,46.8708648 C154.290721,46.5880079 151.027355,46.1188094 148.079336,45.4667732 C147.882086,46.258305 147.706825,47.0551551 147.553758,47.8564046 C146.266568,54.6363703 147.210061,59.6914822 149.480561,61.0006511 C150.547327,61.6157375 152.312316,61.5934402 154.528347,60.8108057 Z M144.146415,41.19557 L144.146415,41.19557 C144.734027,41.3954863 145.326464,41.5809282 145.923189,41.7517279 C146.832281,38.7877823 148.030601,35.6760376 149.474828,32.5324397 C148.049076,29.435029 146.867638,26.3720198 145.966828,23.4424758 C145.133657,23.6780628 144.30756,23.9379906 143.489601,24.221925 C136.972743,26.4940178 133.065304,29.8370171 133.065304,32.4575846 C133.065304,33.68935 133.966751,35.2071577 135.751807,36.736114 C137.738495,38.437078 140.636823,39.9959764 144.146415,41.19557 Z M147.626702,17.5063028 L147.626702,17.5059843 C147.772937,18.2492309 147.937884,18.9886736 148.121383,19.723608 C151.100299,19.0486375 154.340731,18.544719 157.725777,18.2309644 C159.699723,15.4450785 161.766044,12.8888547 163.856892,10.6435186 C163.495994,10.2985478 163.135734,9.96504421 162.777066,9.64651164 C157.165159,4.66370666 151.840887,2.67606342 149.432781,4.06996195 C147.172156,5.37849374 146.273894,10.5931904 147.626702,17.5063028 Z M178.673116,25.1724262 L178.673116,25.1724262 C179.388131,26.4069549 180.078423,27.6556391 180.743577,28.9177321 C181.653943,26.7867492 182.427022,24.7080057 183.047205,22.7200439 C180.981203,22.2482972 178.781098,21.8628728 176.484478,21.5730081 C177.239787,22.7569584 177.969502,23.9570429 178.673116,25.1724262 Z M166.012402,12.8407563 L166.012402,12.8407563 C164.571997,14.3948767 163.139556,16.1079448 161.741198,17.9519299 C164.575239,17.8192859 167.413948,17.8199237 170.247929,17.9538411 C168.850845,16.0926553 167.430509,14.3770388 166.012402,12.8407563 Z M153.270462,25.1934493 L153.270462,25.1934493 C153.977469,23.9676205 154.713164,22.7585623 155.476937,21.5672745 C153.195288,21.8523612 151.005377,22.2279111 148.951797,22.6875536 C149.577395,24.7038648 150.343466,26.7918457 151.238861,28.9155024 C151.887013,27.6591821 152.564398,26.4181599 153.270462,25.1934493 Z M155.542554,43.5673635 L155.542554,43.5673635 C154.760063,42.3534127 154.006626,41.1209785 153.282884,39.8711116 C152.573611,38.6458511 151.89325,37.4040803 151.242365,36.1468288 C150.327858,38.3160356 149.544905,40.4489297 148.909432,42.5009165 C150.962375,42.9478177 153.185413,43.3042556 155.542554,43.5673635 Z M166.09745,52.2916521 C167.506001,50.740717 168.921241,48.9989809 170.322784,47.0941561 C168.89544,47.1578627 167.445161,47.1906715 165.978,47.1906715 C164.550018,47.1906715 163.144971,47.1632777 161.766999,47.1091272 C163.186699,48.979869 164.640163,50.7190568 166.09745,52.2916521 Z M180.772882,36.036298 L180.772882,36.036298 C180.10548,37.3227843 179.409526,38.5942565 178.685538,39.8497699 C177.973345,41.0851312 177.236646,42.306202 176.475878,43.5122574 C178.849901,43.2274893 181.102882,42.8439761 183.189907,42.3677699 C182.545835,40.3505031 181.734851,38.2290762 180.772882,36.036298 Z M176.021969,38.3138059 L176.022288,38.3138059 C177.122001,36.4091489 178.153532,34.4659304 179.11492,32.4878452 C178.14354,30.5297102 177.108718,28.6036932 176.012094,26.7128497 C174.921632,24.826948 173.764957,22.9801149 172.54423,21.175798 C170.404329,21.0127093 168.206772,20.9273426 165.978319,20.9273426 C163.759739,20.9273426 161.56505,21.0120723 159.424511,21.1738868 C158.19131,22.9809845 157.02719,24.8342687 155.934668,26.7297319 L155.934668,26.7290948 C154.841803,28.6241545 153.820609,30.5596526 152.873252,32.5314841 C153.823025,34.5027251 154.847314,36.4371869 155.943906,38.3306881 C157.045647,40.234289 158.219004,42.0955314 159.461461,43.9104231 C161.559635,44.0464365 163.738398,44.1161952 165.978,44.1161952 C168.22684,44.1161952 170.433634,44.0375176 172.569076,43.8849405 C173.780123,42.0658132 174.931696,40.2077865 176.021969,38.3138059 Z M182.364908,3.9785431 L182.364908,3.9785431 C180.102053,2.67351516 175.135811,4.49934385 169.822051,9.1237997 C169.257865,9.61605705 168.705997,10.1222553 168.166956,10.6419259 C170.224039,12.8582755 172.273159,15.4189589 174.250928,18.2351053 C177.645848,18.5536379 180.88851,19.0664753 183.874434,19.7554613 C183.990915,19.2804988 184.098808,18.8034716 184.198063,18.324613 C185.712367,10.9738369 184.774925,5.36861923 182.364908,3.9785431 Z M165.978,26.0305529 C169.527727,26.0305529 172.405032,28.9081761 172.405032,32.4575846 C172.405032,36.0073115 169.527727,38.8849348 165.978,38.8849348 C162.428592,38.8849348 159.550968,36.0073115 159.550968,32.4575846 C159.550968,28.9081761 162.428592,26.0305529 165.978,26.0305529 Z" id="Combined-Shape"></path>
        </g>
    </g>
</svg>