<?xml version="1.0" encoding="UTF-8"?>
<svg width="139px" height="129px" viewBox="0 0 139 129" version="1.1" xmlns="http://www.w3.org/2000/svg" xmlns:xlink="http://www.w3.org/1999/xlink">
    <!-- Generator: Sketch 44.1 (41455) - http://www.bohemiancoding.com/sketch -->
    <title>sketch-logo</title>
    <desc>Created with Sketch.</desc>
    <defs></defs>
    <g id="Page-1" stroke="none" stroke-width="1" fill="none" fill-rule="evenodd">
        <g id="Artboard" transform="translate(-1017.000000, -378.000000)" stroke="#FFFFFF" stroke-width="2" fill="#FFFFFF">
            <g id="icons" transform="translate(124.000000, 276.000000)">
                <g id="1" transform="translate(838.000000, 48.000000)">
                    <path d="M162.993623,101.095732 L124.499731,101.095732 L124.499731,99.9682537 L162.692476,99.9682537 L124.499731,57.7052562 L86.3069847,99.9682537 L124.499731,99.9682537 L124.499731,101.095732 L86.0070683,101.095732 L124.499798,177.651961 L162.993623,101.095732 Z M191.018138,99.9682537 L162.845803,62.6152754 L164.468046,99.9682537 L191.018138,99.9682537 Z M190.919912,101.095732 L164.255208,101.095732 L126.787191,175.613586 L190.919912,101.095732 Z M125.640943,57.2869346 L163.295113,98.9539595 L161.66055,61.3332349 L125.640943,57.2869346 Z M123.884609,179.28473 L123.720305,179.202211 L123.754707,179.133792 L56.4240836,100.89955 C56.2515795,100.697732 56.2414322,100.404588 56.4004066,100.192622 L86.3462183,60.4873618 C86.439799,60.3644668 86.5796062,60.2844158 86.7340707,60.2663762 L124.282097,56.0482984 L124.287539,56 L124.499787,56.0238435 L124.712035,56 L124.717477,56.0482984 L162.265503,60.2663762 C162.419968,60.2844158 162.559775,60.3644668 162.653355,60.4873618 L192.599167,100.192622 C192.758142,100.404588 192.747994,100.697732 192.57549,100.89955 L125.244867,179.133791 L125.279269,179.202211 L125.114965,179.28473 L124.651715,179.823 L124.499787,179.692318 L124.347859,179.823 L123.884609,179.28473 Z M57.982548,99.9682537 L84.5326557,99.9682537 L86.1549647,62.61374 L57.982548,99.9682537 Z M58.0807812,101.095732 L122.212383,175.613529 L84.7449301,101.095732 L58.0807812,101.095732 Z M123.358505,57.2869487 L87.339038,61.3332334 L85.705608,98.9525649 L123.358505,57.2869487 Z" id="sketch-logo"></path>
                </g>
            </g>
        </g>
    </g>
</svg>