<?xml version="1.0" encoding="UTF-8"?>
<svg width="625px" height="319px" viewBox="0 0 625 319" version="1.1" xmlns="http://www.w3.org/2000/svg" xmlns:xlink="http://www.w3.org/1999/xlink">
    <!-- Generator: Sketch 44.1 (41455) - http://www.bohemiancoding.com/sketch -->
    <title>Group 2</title>
    <desc>Created with Sketch.</desc>
    <defs></defs>
    <g id="Page-1" stroke="none" stroke-width="1" fill="none" fill-rule="evenodd">
        <g id="Group-2" transform="translate(6.000000, 3.000000)">
            <g id="Hi" transform="translate(319.456301, 0.000000)">
                <path d="M42.4086041,128.433561 L0,144.827782 L21.5362153,100.508272 C17.8964949,91.8694789 15.8845675,82.3766404 15.8845675,72.413891 C15.8845675,32.4208033 48.3053708,-6.86424369e-15 88.2984585,-1.42108547e-14 L88.2984585,0 L224.098035,0 L224.098035,-4.26325641e-14 C264.091123,-4.99791752e-14 296.511926,32.4208033 296.511926,72.413891 L296.511926,72.413891 C296.511926,112.406979 264.091123,144.827782 224.098035,144.827782 L88.2984585,144.827782 C70.8815694,144.827782 54.9008251,138.678915 42.4086041,128.433561 Z" id="Combined-Shape" stroke="#FDBA2C" stroke-width="6" fill="#FFFFFF"></path>
                <path d="M162.835578,106.854644 L162.835578,44.6325805 L155.079442,44.6325805 L155.079442,71.5394188 L120.952442,71.5394188 L120.952442,44.6325805 L113.196305,44.6325805 L113.196305,106.854644 L120.952442,106.854644 L120.952442,78.524848 L155.079442,78.524848 L155.079442,106.854644 L162.835578,106.854644 Z M177.916955,106.854644 L185.328374,106.854644 L185.328374,60.3713561 L177.916955,60.3713561 L177.916955,106.854644 Z M181.622665,50.9280907 C184.466581,50.9280907 186.793422,48.5996143 186.793422,45.7536987 C186.793422,42.9077831 184.466581,40.5793067 181.622665,40.5793067 C178.778748,40.5793067 176.451907,42.9077831 176.451907,45.7536987 C176.451907,48.5996143 178.778748,50.9280907 181.622665,50.9280907 Z" fill="#544C63"></path>
            </g>
            <g id="Hey" transform="translate(152.668343, 165.138995)">
                <path d="M42.4086041,128.433561 L0,144.827782 L21.5362153,100.508272 C17.8964949,91.8694789 15.8845675,82.3766404 15.8845675,72.413891 L15.8845675,72.413891 L15.8845675,72.413891 C15.8845675,32.4208033 48.3053708,2.15574657e-14 88.2984585,1.42108547e-14 L88.2984585,0 L224.098035,0 C264.091123,-7.34661102e-15 296.511926,32.4208033 296.511926,72.413891 L296.511926,72.413891 C296.511926,112.406979 264.091123,144.827782 224.098035,144.827782 L88.2984585,144.827782 C70.8815694,144.827782 54.9008251,138.678915 42.4086041,128.433561 Z" id="Combined-Shape" stroke="#FDBA2C" stroke-width="6" fill="#FFFFFF" transform="translate(148.255963, 72.413891) scale(-1, 1) translate(-148.255963, -72.413891) "></path>
                <path d="M114.644315,102.439163 L114.644315,40.2170993 L106.888178,40.2170993 L106.888178,67.1239376 L72.7611779,67.1239376 L72.7611779,40.2170993 L65.0050415,40.2170993 L65.0050415,102.439163 L72.7611779,102.439163 L72.7611779,74.1093668 L106.888178,74.1093668 L106.888178,102.439163 L114.644315,102.439163 Z M148.081881,61.690826 C140.670462,61.690826 135.499704,67.1239376 134.939539,75.3598449 L160.534789,75.3598449 C160.36243,67.1239376 155.450211,61.690826 148.081881,61.690826 Z M160.319341,90.4087015 L167.73076,90.4087015 C165.490098,98.3858892 158.337217,103.258442 148.16806,103.258442 C135.284256,103.258442 127.226492,93.9445361 127.226492,79.2406388 C127.226492,64.6229815 135.413525,55.1365962 148.16806,55.1365962 C160.707147,55.1365962 168.334015,64.0624224 168.334015,78.5076 L168.334015,81.3535156 L134.939539,81.3535156 L134.939539,81.698475 C135.327345,90.8830208 140.455013,96.7042118 148.340419,96.7042118 C154.32988,96.7042118 158.380307,94.5050952 160.319341,90.4087015 Z M183.932467,119.255937 C192.16259,119.255937 195.868299,116.065062 199.832547,105.285078 L217.973288,55.9558749 L210.087883,55.9558749 L197.376437,94.2032557 L196.687003,94.2032557 L183.932467,55.9558749 L175.917793,55.9558749 L193.110562,102.482283 L192.248769,105.241959 C190.309735,110.84755 187.982894,112.874187 183.717019,112.874187 C182.682867,112.874187 181.519447,112.831067 180.614564,112.658587 L180.614564,118.997217 C181.648716,119.169697 182.941405,119.255937 183.932467,119.255937 Z" fill="#544C63"></path>
            </g>
            <g id="Yo" transform="translate(0.000000, 41.505523)">
                <path d="M42.4086041,128.433561 L0,144.827782 L21.5362153,100.508272 C17.8964949,91.8694789 15.8845675,82.3766404 15.8845675,72.413891 L15.8845675,72.413891 L15.8845675,72.413891 C15.8845675,32.4208033 48.3053708,7.34661102e-15 88.2984585,0 L88.2984585,0 L224.098035,0 C264.091123,-7.34661102e-15 296.511926,32.4208033 296.511926,72.413891 L296.511926,72.413891 C296.511926,112.406979 264.091123,144.827782 224.098035,144.827782 L88.2984585,144.827782 C70.8815694,144.827782 54.9008251,138.678915 42.4086041,128.433561 Z" id="Combined-Shape" stroke="#FDBA2C" stroke-width="6" fill="#FFFFFF"></path>
                <path d="M122.076836,104.205355 L122.076836,77.4278769 L144.138735,41.9832918 L135.305358,41.9832918 L118.543485,69.6231689 L117.854051,69.6231689 L101.092178,41.9832918 L92.2588004,41.9832918 L114.3207,77.4278769 L114.3207,104.205355 L122.076836,104.205355 Z M167.224247,98.3410445 C176.014535,98.3410445 180.969844,91.9592943 180.969844,80.9637114 C180.969844,69.9250085 176.014535,63.5863783 167.224247,63.5863783 C158.433959,63.5863783 153.47865,69.9250085 153.47865,80.9637114 C153.47865,91.9592943 158.433959,98.3410445 167.224247,98.3410445 Z M167.224247,105.024634 C153.995725,105.024634 145.808693,95.8832083 145.808693,80.9637114 C145.808693,66.0010946 153.995725,56.9027886 167.224247,56.9027886 C180.452769,56.9027886 188.639802,66.0010946 188.639802,80.9637114 C188.639802,95.8832083 180.452769,105.024634 167.224247,105.024634 Z M202.687027,41.9401718 L203.419551,83.5077874 L210.572432,83.5077874 L211.304956,41.9401718 L202.687027,41.9401718 Z M201.04962,98.9878435 C201.04962,102.480558 203.548819,104.981514 207.039081,104.981514 C210.529342,104.981514 212.985452,102.480558 212.985452,98.9878435 C212.985452,95.4520089 210.529342,92.9510528 207.039081,92.9510528 C203.548819,92.9510528 201.04962,95.4520089 201.04962,98.9878435 Z" id="Yo!" fill="#544C63"></path>
            </g>
        </g>
    </g>
</svg>