<?xml version="1.0" standalone="no"?>
<!DOCTYPE svg PUBLIC "-//W3C//DTD SVG 20010904//EN"
 "http://www.w3.org/TR/2001/REC-SVG-20010904/DTD/svg10.dtd">
<svg version="1.0" xmlns="http://www.w3.org/2000/svg"
 width="261.000000pt" height="261.000000pt" viewBox="0 0 261.000000 261.000000"
 preserveAspectRatio="xMidYMid meet">
<metadata>
Created by potrace 1.11, written by Peter Selinger 2001-2013
</metadata>
<g transform="translate(0.000000,261.000000) scale(0.100000,-0.100000)"
fill="#000000" stroke="none">
<path d="M1259 2601 c-88 -18 -166 -91 -188 -178 l-11 -42 -248 -3 c-234 -3
-249 -4 -289 -26 -92 -48 -152 -136 -160 -231 -3 -36 10 -161 36 -345 23 -160
41 -309 41 -333 0 -48 16 -39 -154 -79 l-79 -19 -54 -118 c-29 -65 -53 -124
-53 -130 0 -6 8 -19 17 -29 16 -18 16 -37 -5 -320 -23 -334 -21 -352 35 -381
16 -9 66 -18 111 -22 l82 -8 -6 -82 c-10 -123 21 -192 107 -236 38 -19 60 -19
877 -17 l839 3 36 27 c72 55 82 80 82 199 l0 107 80 7 c94 8 130 24 151 69 15
30 14 58 -6 329 -19 270 -20 299 -6 319 9 12 16 30 16 39 0 10 -24 69 -54 133
-43 90 -60 116 -78 121 -13 3 -61 13 -107 23 -53 11 -88 24 -95 35 -8 12 1 99
32 324 23 169 42 331 42 359 0 107 -54 195 -151 249 l-54 30 -246 3 -245 3
-12 43 c-32 120 -162 201 -283 177z m99 -173 c7 -6 18 -20 23 -30 9 -17 4 -18
-76 -18 -82 0 -85 1 -75 20 23 44 91 58 128 28z"/>
</g>
</svg>
