<svg id="icon" xmlns="http://www.w3.org/2000/svg" viewBox="0 0 24 24"><title>breakfast--remove</title><path d="M18,4.59V4H6V14.1a2.87,2.87,0,0,0,.66,1.82Z"/><path d="M2.91,19.67,4.59,18H2A2,2,0,0,0,2.91,19.67Z"/><path d="M20.37,5l-2,2H20V9.8A2.26,2.26,0,0,1,18,12V7.41L8.46,17a2.87,2.87,0,0,0,.44,0h6.2A2.9,2.9,0,0,0,18,14.1V14a4.19,4.19,0,0,0,4-4.2V7A2,2,0,0,0,20.37,5Z"/><path d="M5.41,20H20a2,2,0,0,0,2-2H7.41Z"/><rect x="11.15" y="-1.5" width="1" height="26.3" transform="translate(11.65 -4.82) rotate(45)"/></svg>