<svg xmlns="http://www.w3.org/2000/svg" viewBox="0 0 24 24"><path d="M12 15a2.951 2.951 0 01-1.284-.3L15 10.414V12a3.009 3.009 0 01-3 3zm5-6.586v3.866A4.872 4.872 0 0112 17a5.181 5.181 0 01-2.784-.8l-1.43 1.43A7.128 7.128 0 0011 18.923V20h-1a2 2 0 00-2 2h8a2 2 0 00-2-2h-1v-1.077a6.821 6.821 0 006-6.643V8h-1.586L17 8.414zm3.636-6.465L15 7.586V5a3.009 3.009 0 00-3-3 3.009 3.009 0 00-3 3v7c.002.445.104.884.3 1.284L7.787 14.8A4.492 4.492 0 017 12.28V8H5v4.28c0 1.431.475 2.822 1.349 3.956l-4.4 4.4.707.708L21.344 2.656l-.708-.707z"/></svg>