<svg xmlns="http://www.w3.org/2000/svg" viewBox="0 0 24 24"><defs/><path d="M20.965 16.611a4.333 4.333 0 0 1-1.511 2.522 8.529 8.529 0 0 1-2.329 1.409 14.174 14.174 0 0 1-10.253 0 8.526 8.526 0 0 1-2.328-1.408 4.337 4.337 0 0 1-1.509-2.521 3.419 3.419 0 0 1 .891-2.813A5.718 5.718 0 0 1 6 12.5v1.213a2.64 2.64 0 0 0-1.237 2.573 4.39 4.39 0 0 0 2.9 2.313 12.6 12.6 0 0 0 4.337.693 12.578 12.578 0 0 0 4.335-.694 4.385 4.385 0 0 0 2.9-2.311A2.633 2.633 0 0 0 18 13.722V12.5a5.732 5.732 0 0 1 2.074 1.3 3.427 3.427 0 0 1 .891 2.811z"/><path d="M12 11.5A2.5 2.5 0 1 0 9.5 9a2.507 2.507 0 0 0 2.5 2.5"/><path d="M16.707 5.659a.125.125 0 0 0 .038-.09v-.944a.125.125 0 0 0-.2-.1c-1.229 1-1.291 1.912-.237 3.647.381.626 1.274 2.093.243 2.976a4.166 4.166 0 0 0-.044 1.083.122.122 0 0 0 .079.076.126.126 0 0 0 .038.006.129.129 0 0 0 .071-.022c1.555-1.069 1.726-2.614.508-4.594-.684-1.111-.9-1.641-.492-2.041"/><path d="M13.894 12.5a2.268 2.268 0 0 1 2.24 2.576l-.267 1.982a16.635 16.635 0 0 1-3.846.431 16.566 16.566 0 0 1-3.911-.448l-.264-1.965a2.332 2.332 0 0 1 2.24-2.576h3.808"/><path d="M19.707 3.659a.125.125 0 0 0 .038-.09v-.944a.125.125 0 0 0-.2-.1c-1.229 1-1.291 1.912-.237 3.647.381.626 1.274 2.093.243 2.976a4.166 4.166 0 0 0-.044 1.083.122.122 0 0 0 .079.076.126.126 0 0 0 .038.006.129.129 0 0 0 .071-.022c1.551-1.066 1.722-2.611.505-4.591-.684-1.111-.9-1.641-.492-2.041"/></svg>