<svg xmlns="http://www.w3.org/2000/svg" viewBox="0 0 24 24"><path d="M12 2a10 10 0 1 0 10 10A10 10 0 0 0 12 2zm4.003 10.728a.407.407 0 0 1-.022-.267.43.43 0 0 1 .267-.207l1.264-.514a9.275 9.275 0 0 0 .852 2.181.685.685 0 0 0 .247.295.715.715 0 0 0 .48.016l1.706-.343a8.908 8.908 0 0 1-.606 1.82 5.226 5.226 0 0 1-4.188-2.981zm4.904.494a10.483 10.483 0 0 1-1.157-2.503c-.051-.269.645-.789.904-1.163a8.549 8.549 0 0 1 .253 3.666zM3 12a8.956 8.956 0 0 1 10.562-8.855 3.687 3.687 0 0 0-1.289.598 1.696 1.696 0 0 0-.785 1.753 1.96 1.96 0 0 1 .188.583c.004.78-1.538.805-1.529 1.585a1.663 1.663 0 0 1 .022.36c-.102.483-.97.177-1.276.564l-.054.968a1.696 1.696 0 0 0 1.63-.166 10.505 10.505 0 0 1 1.473-.871.423.423 0 0 1 .391.001c.155.114.11.35.134.54.065.497.672.726 1.174.706a4.407 4.407 0 0 1 1.495-.032c.48.15.811.842.417 1.153-1.483.246-3.162.682-4.553.113l-2 .083c-.13.725-.544 1.022-1.104 1.5-.188.16-.66.341-.771.563a1.377 1.377 0 0 0-.23.732 4.283 4.283 0 0 0 .804 2.259 1.99 1.99 0 0 0 2.16.706c.56-.217.376.064.974.115.445.038.479.329.625.75s.671.081.67.528a12.387 12.387 0 0 0 .334 2.74c-.154.008-.306.024-.462.024a9.01 9.01 0 0 1-9-9zm5.854-5.178a.168.168 0 0 1-.056-.12.173.173 0 0 1 .068-.098c.252-.23.607-1.18.903-1.223.392-.058.688 1.251.76 1.229a12.91 12.91 0 0 0-1.403.527z"/></svg>