<svg xmlns="http://www.w3.org/2000/svg" viewBox="0 0 18 18" enable-background="new 0 0 18 18"><path d="M9 1c-4.418 0-8 3.582-8 8s3.582 8 8 8 8-3.582 8-8-3.582-8-8-8zm0 15c-3.866 0-7-3.134-7-7s3.134-7 7-7 7 3.134 7 7-3.134 7-7 7zM9 3c-3.314 0-6 2.686-6 6s2.686 6 6 6 6-2.686 6-6-2.686-6-6-6zm.05 1c.635-.017 1.163.485 1.18 1.12.017.635-.485 1.163-1.12 1.18-.635.016-1.163-.485-1.18-1.12v-.03c-.011-.624.486-1.139 1.11-1.15h.01zm4.14 3l-3 1v2.17l1 3.34c.066.17-.017.361-.187.428-.137.054-.294.01-.383-.108l-1.62-3.58-1.7 3.59c-.109.15-.318.186-.47.08-.145-.092-.187-.283-.095-.428l.015-.022 1.06-3.32v-2.22l-3-1c-.108-.052-.177-.16-.18-.28.002-.125.071-.239.18-.3.113-.039.237-.039.35 0l3.84.65 3.82-.64h.15c.149-.021.292.062.35.2.082.158.025.352-.13.44z"/></svg>