<svg xmlns="http://www.w3.org/2000/svg" viewBox="0 0 18 18" enable-background="new 0 0 18 18"><path d="M9 1c-4.418 0-8 3.582-8 8s3.582 8 8 8 8-3.582 8-8-3.582-8-8-8zm-.005 3c1.104-.025 2.02.85 2.045 1.954s-.85 2.02-1.954 2.045h-.09c-1.104-.024-1.98-.939-1.955-2.044.023-1.069.884-1.931 1.954-1.955zm-.195 5h.388c.696 0 1.38.185 1.982.535l.003.002c.256.149.502.32.715.526.789.761 1.39 1.695 1.758 2.728-2.087 2.566-5.86 2.954-8.425.866-.32-.261-.613-.553-.873-.874.368-1.031.969-1.962 1.756-2.722.212-.206.457-.376.713-.525.602-.351 1.286-.536 1.983-.536z"/></svg>