<svg xmlns="http://www.w3.org/2000/svg" viewBox="0 0 24 24"><path d="M6.572 2.082C6.184 2.295 6 2.802 6 3.33v5.897C6 11.066 7.5 12 9 12s3-.933 3-2.774v-5.86c0-.544-.208-1.066-.608-1.285C10.858 1.789 10.052 1.5 9 1.5c-1.054 0-1.893.29-2.428.582zM1.145 16.865C2.648 16.135 5.25 15 9 15c1.014 0 1.944.083 2.793.219.263.042.423.308.366.569a6.771 6.771 0 0 0 1.44 5.825c.274.323.06.887-.364.887H3c-1.5 0-3-1.5-3-3v-.75c0-.81.437-1.541 1.145-1.885z"/><path fill-rule="evenodd" d="M18.75 22.5a5.25 5.25 0 1 0 0-10.5 5.25 5.25 0 0 0 0 10.5zm0-9a.75.75 0 0 0-.75.75v2.25h-2.25a.75.75 0 0 0 0 1.5H18v2.25a.75.75 0 0 0 1.5 0V18h2.25a.75.75 0 0 0 0-1.5H19.5v-2.25a.75.75 0 0 0-.75-.75z" clip-rule="evenodd"/></svg>