<svg xmlns="http://www.w3.org/2000/svg" viewBox="0 0 24 24"><path d="M8.072 2.082A1.383 1.383 0 0 0 7.5 3.329v5.897a2.792 2.792 0 0 0 3 2.774 2.791 2.791 0 0 0 3-2.774v-5.86a1.435 1.435 0 0 0-.608-1.285A4.966 4.966 0 0 0 10.5 1.5a5.122 5.122 0 0 0-2.428.582zM2.645 16.865A17.3 17.3 0 0 1 10.5 15a17.608 17.608 0 0 1 7.893 1.867A2 2 0 0 1 19.5 18.75v.75a3.226 3.226 0 0 1-3 3h-12a3.226 3.226 0 0 1-3-3v-.75a2.073 2.073 0 0 1 1.145-1.885zM16.5 6A1.5 1.5 0 0 1 18 4.5h3a1.5 1.5 0 0 1 0 3h-3A1.5 1.5 0 0 1 16.5 6zM18 9a1.5 1.5 0 0 0 0 3h1.5a1.5 1.5 0 0 0 0-3z"/></svg>