<svg xmlns="http://www.w3.org/2000/svg" viewBox="0 0 24 24"><path d="M10.8 1.774A2.637 2.637 0 0 1 12 1.5c.526 0 .93.14 1.196.28.2.106.304.358.304.62v2.262C13.5 5.55 12.75 6 12 6s-1.5-.45-1.5-1.338V2.4c0-.266.097-.521.3-.626zM15 13.835V9.452c0-.55-.198-1.066-.536-1.277-.756-.471-1.55-.675-2.429-.675-.882 0-1.724.282-2.5.784C9.2 8.502 9 9.017 9 9.568v4.383c0 .476.112.9.295 1.217.05.087.103.175.157.263.257.422.524.863.563 1.414l.408 4.312c.054.764.483 1.343.995 1.343h1.235c.511 0 .94-.58.994-1.343l.408-4.312c.035-.497.259-.914.477-1.32.074-.14.148-.277.214-.417.162-.346.254-.8.254-1.273z"/></svg>