<svg xmlns="http://www.w3.org/2000/svg" viewBox="0 0 18 18" enable-background="new 0 0 18 18"><path d="M16.166 10.003c-.142-.533-.69-.85-1.223-.708l-.002.001-2.342.628-1.599-.924 1.579-.912 2.374.636.26.035c.552.002 1.001-.444 1.003-.997.001-.455-.305-.854-.745-.97l-.442-.118.534-.308c.476-.275.641-.89.366-1.366-.277-.477-.887-.64-1.366-.366l-.514.297.11-.41c.143-.534-.173-1.082-.707-1.225s-1.082.173-1.225.707l-.627 2.342-1.6.923v-1.824l1.737-1.737c.39-.39.39-1.024 0-1.414-.39-.39-1.024-.39-1.414 0l-.323.323v-.616c0-.55-.45-1-1-1s-1 .45-1 1v.593l-.3-.3c-.39-.39-1.024-.39-1.414 0s-.39 1.024 0 1.414l1.714 1.714v1.847l-1.58-.912-.636-2.373c-.143-.533-.691-.85-1.224-.707s-.85.691-.707 1.224l.118.441-.533-.307c-.479-.274-1.089-.111-1.366.366-.274.479-.111 1.089.366 1.366l.514.297-.41.11c-.534.141-.853.688-.712 1.222.116.44.515.746.97.745l.26-.035 2.342-.628 1.598.923-1.579.912-2.374-.636c-.534-.143-1.082.173-1.225.707-.143.534.173 1.082.707 1.225l.442.118-.534.308c-.476.275-.64.89-.365 1.366s.89.641 1.366.366l.514-.297-.11.41c-.143.533.173 1.082.707 1.225l.26.034c.452 0 .848-.304.965-.741l.627-2.342 1.599-.923v1.824l-1.737 1.737c-.39.39-.39 1.024 0 1.414.39.39 1.024.39 1.414 0l.323-.323v.616c0 .55.45 1 1 1s1-.45 1-1v-.593l.3.3c.388.39 1.019.392 1.41.004l.004-.004c.39-.39.391-1.022.001-1.413l-.001-.001-1.714-1.714v-1.847l1.58.912.636 2.373c.117.437.513.741.965.741l.26-.034c.533-.143.85-.691.707-1.225l-.118-.441.533.308c.476.275 1.091.11 1.366-.366.274-.479.111-1.089-.366-1.366l-.514-.297.41-.11c.533-.143.849-.691.707-1.224z"/></svg>