<svg xmlns="http://www.w3.org/2000/svg" viewBox="0 0 24 24"><path d="M5.701 3.329a1.5 1.5 0 0 0-2.1-2.143A11.968 11.968 0 0 0 0 9.758a1.5 1.5 0 0 0 3 0 8.968 8.968 0 0 1 2.701-6.43zm14.697-2.143a1.5 1.5 0 1 0-2.13 2.113l.03.03A8.968 8.968 0 0 1 21 9.756a1.5 1.5 0 0 0 3 0 11.963 11.963 0 0 0-3.602-8.57zM4.814 9.476a7.186 7.186 0 1 1 14.372 0v.66a10.361 10.361 0 0 0 1.084 4.612l.51 1.025a2.062 2.062 0 0 1-1.836 2.985H5.056a2.062 2.062 0 0 1-1.837-2.985l.51-1.025a10.35 10.35 0 0 0 1.085-4.612v-.66zm5.017 10.781a1.02 1.02 0 0 0-.755 1.44 2.243 2.243 0 0 0 1.917 1.56h2a2.258 2.258 0 0 0 1.93-1.56 1.02 1.02 0 0 0-.755-1.44H9.831z"/></svg>