<svg xmlns="http://www.w3.org/2000/svg" viewBox="0 0 24 24"><path d="M22.06 3.31l-3.412 3.413c-.047.048.102-.102 0 0L4.061 21.311a1.5 1.5 0 0 1-2.122-2.122l1.218-1.218a.33.33 0 0 0 .053-.38 2.049 2.049 0 0 1 .01-1.826l.51-1.025a10.35 10.35 0 0 0 1.084-4.612v-.66a7.18 7.18 0 0 1 11.891-5.456.31.31 0 0 0 .422-.01l2.812-2.813a1.5 1.5 0 0 1 2.122 2.122zm-2.802 8.032a.318.318 0 0 0-.534-.195l-7.09 7.09a.3.3 0 0 0 .212.513h7.098a2.062 2.062 0 0 0 1.837-2.985l-.51-1.025a10.345 10.345 0 0 1-1.013-3.398zM9.831 20.25a1.02 1.02 0 0 0-.755 1.44 2.243 2.243 0 0 0 1.917 1.56h2a2.258 2.258 0 0 0 1.93-1.56 1.02 1.02 0 0 0-.755-1.44H9.831z"/></svg>