<svg xmlns="http://www.w3.org/2000/svg" viewBox="0 0 18 18"><path d="M16.975 6.863c-.179-.668-1.239-.971-1.578-1.556-.343-.593-.079-1.662-.561-2.144-.482-.482-1.55-.217-2.144-.56-.585-.338-.888-1.399-1.556-1.577C10.491.853 9.7 1.615 9 1.615s-1.491-.762-2.137-.59c-.668.179-.971 1.24-1.556 1.578-.593.343-1.662.079-2.144.561-.481.482-.217 1.55-.56 2.144-.338.584-1.399.887-1.578 1.555-.172.646.59 1.437.59 2.137s-.762 1.491-.589 2.137c.179.668 1.239.971 1.578 1.556.343.593.079 1.662.561 2.144.482.481 1.55.217 2.144.56.585.338.888 1.399 1.556 1.577.644.173 1.435-.589 2.135-.589.7 0 1.491.762 2.137.589.668-.179.971-1.239 1.556-1.578.593-.343 1.662-.079 2.144-.561s.217-1.55.56-2.144c.338-.585 1.399-.888 1.577-1.556.173-.644-.589-1.435-.589-2.135 0-.7.762-1.491.59-2.137zM9 14.6A5.6 5.6 0 1 1 9 3.4a5.6 5.6 0 0 1 0 11.2zm.371-9.575L10.395 7.1l2.29.333a.39.39 0 0 1 .217.667l-1.657 1.615.391 2.281a.391.391 0 0 1-.568.412L9.02 11.331l-2.048 1.077a.392.392 0 0 1-.529-.166c-.039-.076-.053-.162-.039-.246l.391-2.281L5.139 8.1a.392.392 0 0 1 .217-.668L7.645 7.1l1.024-2.075a.39.39 0 0 1 .702 0z"/></svg>