<svg xmlns="http://www.w3.org/2000/svg" viewBox="0 0 18 18" enable-background="new 0 0 18 18"><path d="M16.975 6.863c-.179-.668-1.239-.971-1.578-1.556-.343-.593-.079-1.662-.561-2.144-.482-.482-1.55-.217-2.144-.56-.585-.338-.888-1.399-1.556-1.577-.645-.173-1.436.589-2.136.589s-1.491-.762-2.137-.59c-.668.179-.971 1.24-1.556 1.578-.593.343-1.662.079-2.144.561-.481.482-.217 1.55-.56 2.144-.338.584-1.399.887-1.578 1.555-.172.646.59 1.437.59 2.137s-.762 1.491-.589 2.137c.179.668 1.239.971 1.578 1.556.343.593.079 1.662.561 2.144.482.481 1.55.217 2.144.56.585.338.888 1.399 1.556 1.577.644.173 1.435-.589 2.135-.589.7 0 1.491.762 2.137.589.668-.179.971-1.239 1.556-1.578.593-.343 1.662-.079 2.144-.561s.217-1.55.56-2.144c.338-.585 1.399-.888 1.577-1.556.173-.644-.589-1.435-.589-2.135 0-.7.762-1.491.59-2.137zm-7.975 7.737c-3.093 0-5.6-2.507-5.6-5.6s2.507-5.6 5.6-5.6c3.093 0 5.6 2.507 5.6 5.6s-2.507 5.6-5.6 5.6zm.371-9.575l1.024 2.075 2.29.333c.214.031.362.229.331.443-.012.085-.052.164-.114.224l-1.657 1.615.391 2.281c.037.213-.106.415-.319.452-.085.015-.173.001-.249-.04l-2.048-1.077-2.048 1.077c-.192.1-.429.026-.529-.166-.039-.076-.053-.162-.039-.246l.391-2.281-1.656-1.615c-.155-.151-.157-.4-.006-.554.06-.061.138-.101.223-.114l2.289-.332 1.024-2.075c.095-.194.329-.274.523-.179.078.038.141.101.179.179z"/></svg>