<svg xmlns="http://www.w3.org/2000/svg" viewBox="0 0 24 24"><path d="M22.514 8.476A.48.48 0 0 1 22.02 9h-9.25a.525.525 0 0 1-.499-.69l2.385-6.468a.474.474 0 0 1 .497-.339c2.915.343 6.968 3.595 7.361 6.974zM3.02 11.25a.788.788 0 0 1 .75-.75h18a.74.74 0 0 1 .744.7c.006 3-2.244 5.25-5.794 5.25H8.48a5.141 5.141 0 0 1-5.46-5.2zM8.27 22.5a2.25 2.25 0 1 0-2.25-2.25 2.25 2.25 0 0 0 2.25 2.25zm11.25-2.25A2.25 2.25 0 1 1 17.27 18a2.25 2.25 0 0 1 2.25 2.25zM4.08 3.44a1.5 1.5 0 0 0-2.195 2.046q.036.038.075.074c.733.736 1.06 1.1 1.06 1.94a1.5 1.5 0 0 0 3 0 5.31 5.31 0 0 0-1.9-4.02l-.04-.04z"/></svg>