<svg xmlns="http://www.w3.org/2000/svg" viewBox="0 0 16 16"><path d="M14.5 5H11V4c0-1.1-.9-2-2-2H7c-1.1 0-2 .9-2 2v1H1.5C.675 5 0 5.675 0 6.5v6c0 .825.675 1.5 1.5 1.5h13c.825 0 1.5-.675 1.5-1.5v-6c0-.825-.675-1.5-1.5-1.5zM7 4h2v1H7V4zm3.891 7.297a.372.372 0 0 1 0 .526l-.526.526a.372.372 0 0 1-.526 0L8 10.511l-1.838 1.838a.372.372 0 0 1-.526 0l-.526-.526a.372.372 0 0 1 0-.526l1.838-1.838L5.109 7.62a.372.372 0 0 1 0-.526l.526-.526a.372.372 0 0 1 .526 0L8 8.406l1.838-1.838a.372.372 0 0 1 .526 0l.526.526a.372.372 0 0 1 0 .526L9.053 9.458l1.838 1.839z"/></svg>