<svg xmlns="http://www.w3.org/2000/svg" viewBox="0 0 24 24"><path d="M12 1.5c2.693 0 4.547 1.413 5.445 2.386.393.425.555.985.555 1.5V6.75c0 .414.336.75.75.75h.75a3 3 0 0 1 3 3v9a3 3 0 0 1-3 3h-15a3 3 0 0 1-3-3v-9a3 3 0 0 1 3-3h.75A.75.75 0 0 0 6 6.75V5.319c0-.425.11-.939.457-1.358C7.312 2.926 9.297 1.5 12 1.5zm3 4.972c0-.274-.082-.539-.242-.71C14.208 5.176 13.276 4.5 12 4.5c-1.278 0-2.248.676-2.77 1.233-.155.164-.23.42-.23.684V7c0 .276.168.5.375.5h5.25c.207 0 .375-.224.375-.5v-.528zm2.56 6.589a1.5 1.5 0 0 0-2.12-2.122l-4.94 4.94-1.94-1.94a1.5 1.5 0 0 0-2.12 2.122l3 3a1.5 1.5 0 0 0 2.12 0l6-6z"/></svg>