<svg xmlns="http://www.w3.org/2000/svg" viewBox="0 0 18 18" enable-background="new 0 0 18 18"><path d="M15.5 6h-3.5v-1c0-1.1-.9-2-2-2h-2c-1.1 0-2 .9-2 2v1h-3.5c-.825 0-1.5.675-1.5 1.5v6c0 .825.675 1.5 1.5 1.5h13c.825 0 1.5-.675 1.5-1.5v-6c0-.825-.675-1.5-1.5-1.5zm-7.5-1h2v1h-2v-1zm3.891 7.297c.145.145.145.381 0 .526l-.526.526c-.145.145-.381.145-.526 0l-1.839-1.838-1.838 1.838c-.145.145-.381.145-.526 0l-.526-.526c-.145-.145-.145-.381 0-.526l1.838-1.838-1.839-1.839c-.145-.145-.145-.381 0-.526l.526-.526c.145-.145.381-.145.526 0l1.839 1.838 1.838-1.838c.145-.145.381-.145.526 0l.526.526c.145.145.145.381 0 .526l-1.837 1.838 1.838 1.839z"/></svg>