<svg xmlns="http://www.w3.org/2000/svg" viewBox="0 0 18 18" enable-background="new 0 0 18 18"><path d="M15.5 6h-3.5v-1c0-1.1-.9-2-2-2h-2c-1.1 0-2 .9-2 2v1h-3.5c-.825 0-1.5.675-1.5 1.5v6c0 .825.675 1.5 1.5 1.5h13c.825 0 1.5-.675 1.5-1.5v-6c0-.825-.675-1.5-1.5-1.5zm-7.5-1h2v1h-2v-1zm4.401 3.891l-3.832 4.494c-.281.333-.779.374-1.112.093l-.016-.014-1.803-1.586c-.167-.152-.185-.408-.039-.581l.525-.621c.139-.167.387-.189.554-.05l.011.01 1.08.939c.067.06.168.053.226-.016l3.201-3.753c.14-.166.389-.188.555-.048l.01.009.603.542c.166.153.183.409.037.582z"/></svg>