<svg xmlns="http://www.w3.org/2000/svg" viewBox="0 0 24 24"><path fill-rule="evenodd" d="M12 1.5a7.388 7.388 0 0 0-5.543 2.46A2.138 2.138 0 0 0 6 5.32v1.43a.75.75 0 0 1-.75.75H4.5a3 3 0 0 0-3 3v9a3 3 0 0 0 3 3h15a3 3 0 0 0 3-3v-9a3 3 0 0 0-3-3h-.75a.75.75 0 0 1-.75-.75V5.385a2.21 2.21 0 0 0-.555-1.5A7.451 7.451 0 0 0 12 1.5zm2.625 6c.207 0 .375-.224.375-.5v-.528a1.048 1.048 0 0 0-.242-.71A3.793 3.793 0 0 0 12 4.5a3.862 3.862 0 0 0-2.77 1.233 1.002 1.002 0 0 0-.23.684V7c0 .276.168.5.375.5z"/></svg>