<svg xmlns="http://www.w3.org/2000/svg" viewBox="0 0 24 24"><path d="M21.441.44l-3.76 3.757a2.055 2.055 0 0 0-.235-.312 7.44 7.44 0 0 0-10.988.075 2.125 2.125 0 0 0-.457 1.358V6.75a.75.75 0 0 1-.75.75h-.75a3 3 0 0 0-3 3v9a3.006 3.006 0 0 0 .101.777L.44 21.438a1.5 1.5 0 0 0 2.122 2.122l1.163-1.16c-.017-.004-.032-.008.001-.002L18.631 7.49l4.93-4.93a1.5 1.5 0 0 0-2.12-2.12zm-6.44 6.559c0 .276-.168.5-.375.5h-5.25c-.207 0-.375-.224-.375-.5v-.583a1.003 1.003 0 0 1 .23-.684 3.858 3.858 0 0 1 2.77-1.233 3.793 3.793 0 0 1 2.758 1.262 1.048 1.048 0 0 1 .242.71zm6.91 1.712a2.993 2.993 0 0 1 .59 1.788v9a3 3 0 0 1-3 3H8.121z"/></svg>