<svg xmlns="http://www.w3.org/2000/svg" viewBox="0 0 24 24"><path fill-rule="evenodd" d="M6.457 3.96C7.312 2.927 9.297 1.5 12 1.5c2.693 0 4.547 1.413 5.445 2.386.393.425.555.985.555 1.5V6.75c0 .414.336.75.75.75h.75a3 3 0 0 1 3 3v9a3 3 0 0 1-3 3h-15a3 3 0 0 1-3-3v-9a3 3 0 0 1 3-3h.75A.75.75 0 0 0 6 6.75V5.319c0-.425.11-.939.457-1.358zM15 7c0 .276-.168.5-.375.5h-5.25C9.168 7.5 9 7.276 9 7v-.583c0-.264.075-.52.23-.684C9.751 5.176 10.721 4.5 12 4.5c1.276 0 2.208.676 2.758 1.262.16.171.242.436.242.71V7zm-4.94 3.94a1.5 1.5 0 0 0-2.12 2.12L9.878 15l-1.94 1.94a1.5 1.5 0 0 0 2.122 2.12L12 17.122l1.94 1.94a1.5 1.5 0 0 0 2.12-2.122L14.122 15l1.94-1.94a1.5 1.5 0 0 0-2.122-2.12L12 12.878l-1.94-1.94z" clip-rule="evenodd"/></svg>