<svg xmlns="http://www.w3.org/2000/svg" viewBox="0 0 16 16"><path d="M1 13h14v.4c0 .884-.627 1.6-1.4 1.6H2.4c-.773 0-1.4-.716-1.4-1.6V13zm15-8.638V6.66a3.328 3.328 0 0 1-3.01 3.306C12.939 11.095 11.729 12 10.47 12H5.53C4.243 12 3 11.057 3 9.894V2h10v1h1.438C15.301 3 16 3.499 16 4.362zM9.053 7l1.838-1.838a.372.372 0 0 0 0-.526l-.526-.526a.372.372 0 0 0-.526 0L8 5.947 6.162 4.109a.372.372 0 0 0-.526 0l-.527.526a.372.372 0 0 0 0 .526L6.947 7 5.109 8.838a.372.372 0 0 0 0 .526l.526.526a.372.372 0 0 0 .526 0L8 8.053l1.838 1.838a.372.372 0 0 0 .526 0l.526-.526a.372.372 0 0 0 0-.526L9.053 7zM15 4.362c0-.315-.352-.362-.562-.362H13v4.966a2.337 2.337 0 0 0 2-2.305V4.362z"/></svg>