<svg xmlns="http://www.w3.org/2000/svg" viewBox="0 0 18 18" enable-background="new 0 0 18 18"><path d="M2 14h14v.4c0 .884-.627 1.6-1.4 1.6h-11.2c-.773 0-1.4-.716-1.4-1.6v-.4zm15-8.638v2.298c-.003 1.712-1.306 3.142-3.01 3.306-.051 1.129-1.261 2.034-2.52 2.034h-4.94c-1.287 0-2.53-.943-2.53-2.106v-7.894h10v1h1.438c.863 0 1.562.499 1.562 1.362zm-6.947 2.638l1.838-1.838c.145-.145.145-.381 0-.526l-.526-.526c-.145-.145-.381-.145-.526 0l-1.839 1.837-1.838-1.838c-.145-.145-.381-.145-.526 0l-.527.526c-.145.145-.145.381 0 .526l1.838 1.839-1.838 1.838c-.145.145-.145.381 0 .526l.526.526c.145.145.381.145.526 0l1.839-1.837 1.838 1.838c.145.145.381.145.526 0l.526-.526c.145-.145.145-.381 0-.526l-1.837-1.839zm5.947-2.638c0-.315-.352-.362-.562-.362h-1.438v4.966c1.146-.167 1.996-1.147 2-2.305v-2.299z"/></svg>