<svg xmlns="http://www.w3.org/2000/svg" viewBox="0 0 18 18" enable-background="new 0 0 18 18"><path d="M5 17h-1c-.552 0-1-.448-1-1v-1h3v1c0 .552-.448 1-1 1zm10-1v-1h-3v1c0 .552.448 1 1 1h1c.552 0 1-.448 1-1zm0-12v10h-12v-10c0-1.76 1.039-3 2.799-3h6.4c1.76 0 2.801 1.24 2.801 3zm-8-1.5c0 .275.225.5.5.5h3c.275 0 .5-.225.5-.5s-.225-.5-.5-.5h-3c-.275 0-.5.225-.5.5zm-1 8.5c0-.552-.448-1-1-1s-1 .448-1 1 .448 1 1 1 1-.448 1-1zm8 0c0-.552-.448-1-1-1s-1 .448-1 1 .448 1 1 1 1-.448 1-1zm0-6c0-.442-.558-1-1-1h-8c-.442 0-1 .558-1 1v4h10v-4z"/></svg>