<svg xmlns="http://www.w3.org/2000/svg" viewBox="0 0 16 16"><path d="M13 10.025v-.651C13 8.618 12.382 8 11.626 8h-.251C10.618 8 10 8.618 10 9.374v.651c-.558.065-1 .524-1 1.098v3.753C9 15.495 9.505 16 10.123 16h2.753c.619 0 1.124-.505 1.124-1.123v-3.753c0-.575-.442-1.034-1-1.099zm-1.626-.99h.251c.184 0 .34.156.34.34V10h-.93v-.626c0-.184.155-.339.339-.339zM3.473 1.5A1.498 1.498 0 0 1 4.968 0a1.502 1.502 0 0 1 1.504 1.5A1.5 1.5 0 0 1 4.968 3a1.498 1.498 0 0 1-1.495-1.5zM6.345 4h-.372l-.758 3.03c-.063.253-.422.253-.485 0L3.973 4H3.6a1.6 1.6 0 0 0-1.586 1.812L2.573 10a.4.4 0 0 0 .4.4h.4l.6 5.6h2l.6-5.6h.4a.4.4 0 0 0 .4-.4l.559-4.188A1.601 1.601 0 0 0 6.345 4z"/></svg>