<svg xmlns="http://www.w3.org/2000/svg" viewBox="0 0 24 24"><path fill-rule="evenodd" d="M15.679 3c1.435 0 2.76.79 3.473 2.068l1.53 2.75c.02.034.039.069.057.103.142.262.465.356.747.279.164-.045.336-.068.514-.068 1.105 0 2 .919 2 2.052 0 .959-.14 1.566-1.005 1.792-.268.07-.495.293-.495.577V21a1.5 1.5 0 0 1-1.5 1.5h-1.5A1.5 1.5 0 0 1 18 21v-1.5H6V21a1.5 1.5 0 0 1-1.5 1.5H3A1.5 1.5 0 0 1 1.5 21v-8.447c0-.284-.227-.507-.495-.577C.14 11.75 0 11.142 0 10.184c0-1.133.895-2.052 2-2.052.178 0 .35.023.514.068.282.077.605-.017.747-.279a2.64 2.64 0 0 1 .057-.103l1.53-2.75A3.985 3.985 0 0 1 8.321 3h7.358zm-3.68 5.25a3.75 3.75 0 0 0-3.437 2.25H9.75a.75.75 0 0 1 0 1.5h-3a.75.75 0 0 1-.75-.75v-3a.75.75 0 0 1 1.5 0v1.045A5.247 5.247 0 0 1 12 6.75a5.248 5.248 0 0 1 4.547 2.624.75.75 0 1 1-1.298.752 3.748 3.748 0 0 0-3.25-1.876zm2.251 5.25h1.188a3.751 3.751 0 0 1-6.687.374.75.75 0 1 0-1.298.752A5.248 5.248 0 0 0 12 17.25c1.91 0 3.582-1.02 4.5-2.545v1.045a.75.75 0 0 0 1.5 0v-3a.75.75 0 0 0-.75-.75h-3a.75.75 0 0 0 0 1.5z" clip-rule="evenodd"/></svg>