<svg xmlns="http://www.w3.org/2000/svg" viewBox="0 0 18 18" enable-background="new 0 0 18 18"><path d="M13.566 3.076c-1.15-1.32-2.815-2.078-4.566-2.076-1.751-.002-3.416.756-4.566 2.076-2.103 2.406-1.844 5.878.457 8.425l3.58 4.281c.141.139.331.217.529.218.198-.001.388-.079.528-.219l3.58-4.281c2.302-2.546 2.561-6.018.458-8.424zm-4.566 7.924c-2.209 0-4-1.791-4-4s1.791-4 4-4 4 1.791 4 4-1.791 4-4 4zm0-7c-1.654 0-3 1.346-3 3s1.346 3 3 3 3-1.346 3-3-1.346-3-3-3zm0 4.5c-.828 0-1.5-.672-1.5-1.5s.672-1.5 1.5-1.5 1.5.672 1.5 1.5-.672 1.5-1.5 1.5z"/></svg>