<svg xmlns="http://www.w3.org/2000/svg" viewBox="0 0 24 24"><path d="M21.237 1.462a.75.75 0 0 0-.474-1.423l-2.25.75a.75.75 0 0 0 .474 1.423l2.25-.75zM18.75 3a.75.75 0 0 0 0 1.5h3a.75.75 0 0 0 0-1.5h-3zm.237 2.289a.75.75 0 0 0-.474 1.423l2.25.75a.75.75 0 0 0 .474-1.423l-2.25-.75z"/><path fill-rule="evenodd" d="M3 3a3 3 0 0 1 3-3h8.25a.75.75 0 0 1 .75.75c0 .414.336.75.75.75a.75.75 0 0 1 .75.75v3a.75.75 0 0 1-.75.75.75.75 0 0 0-.75.75.75.75 0 0 1-.75.75h-.75c-.414 0-.752.338-.668.744.18.885.663 1.943 1.447 2.943.248.316.035.796-.362.743-1.29-.173-2.38-.666-3.121-1.48-.098-.108-.282-.042-.26.102.15.961.748 1.84 1.622 2.277l4.184 2.092A3 3 0 0 1 18 17.604V21a3 3 0 0 1-3 3H4.5a3 3 0 0 1-3-3v-3.845a3 3 0 0 1 1.08-2.305l2.34-1.95A3 3 0 0 0 6 10.595V8.25c0-.414-.341-.74-.742-.843A3.001 3.001 0 0 1 3 4.5V3zm6.75 12a.75.75 0 0 0-.75.75V18H6.75a.75.75 0 0 0 0 1.5H9v2.25a.75.75 0 0 0 1.5 0V19.5h2.25a.75.75 0 0 0 0-1.5H10.5v-2.25a.75.75 0 0 0-.75-.75z" clip-rule="evenodd"/></svg>