<svg xmlns="http://www.w3.org/2000/svg" viewBox="0 0 24 24"><path d="M6.96 4.832a.69.69 0 0 1 .92-.252l6.861 3.69c.337.182.591.484.712.846l2.624 7.864a1.5 1.5 0 0 0 2.846-.948L18.299 8.17a4.497 4.497 0 0 0-2.135-2.537l-6.862-3.69A3.692 3.692 0 0 0 4.388 3.29a3.685 3.685 0 0 0 1.397 5.134l6.247 3.404a1.498 1.498 0 1 0 1.437-2.631L7.221 5.793a.69.69 0 0 1-.262-.96zM18 19.503a1.5 1.5 0 1 0 0 2.997h4.5a1.5 1.5 0 1 0 0-2.997H18zm-10.5 0a2.999 2.999 0 0 1-3 2.997c-1.657 0-3-1.342-3-2.997a2.999 2.999 0 0 1 3-2.997c1.657 0 3 1.342 3 2.997z"/><path d="M3.682 12.01c-1.205 0-2.182 1.449-2.182 2.681v.46c0 .388.476.612.816.424a4.498 4.498 0 0 1 6.121 6.108c-.19.34.035.817.424.817h3.957c1.205 0 2.182-.999 2.182-2.231v-1.116c0-3.696-2.93-7.142-6.545-7.142H3.682z"/></svg>