<svg xmlns="http://www.w3.org/2000/svg" viewBox="0 0 18 18" enable-background="new 0 0 18 18"><path d="M9 1c-4.418 0-8 3.582-8 8s3.582 8 8 8 8-3.582 8-8-3.582-8-8-8zm3.855 10.451c.194.194.194.508.001.701l-.001.001-.702.702c-.194.194-.508.194-.701.001l-.001-.001-2.451-2.451-2.451 2.451c-.194.194-.508.194-.701.001l-.001-.001-.702-.702c-.194-.194-.194-.508-.001-.701l.001-.001 2.451-2.451-2.451-2.451c-.194-.194-.194-.508-.001-.701l.001-.001.702-.702c.194-.194.508-.194.701-.001l.001.001 2.451 2.451 2.451-2.451c.194-.194.508-.194.701-.001l.001.001.702.702c.194.194.194.508.001.701l-.001.001-2.451 2.451 2.451 2.451z"/></svg>