<svg xmlns="http://www.w3.org/2000/svg" viewBox="0 0 24 24"><path d="M22.386 2.426a1.496 1.496 0 0 0-.332-.493A1.495 1.495 0 0 0 21 1.5h-4.5a1.5 1.5 0 0 0 0 3h.879l-3.44 3.44a1.5 1.5 0 0 0 2.122 2.12L19.5 6.622V7.5a1.5 1.5 0 0 0 3 0V2.995c0-.193-.038-.387-.114-.57zm-.812 19.96c.174-.072.338-.178.48-.319l.013-.013c.268-.271.433-.643.433-1.054v-4.5a1.5 1.5 0 0 0-3 0v.879l-3.44-3.44a1.5 1.5 0 0 0-2.12 2.122l3.439 3.439H16.5a1.5 1.5 0 0 0 0 3h4.505c.193 0 .387-.038.57-.114zM1.933 1.946a1.495 1.495 0 0 0-.433 1.05V7.5a1.5 1.5 0 1 0 3 0v-.879l3.44 3.44a1.5 1.5 0 0 0 2.12-2.122L6.622 4.5H7.5a1.5 1.5 0 1 0 0-3H3c-.41 0-.783.165-1.054.433l-.013.013zm.013 20.121a1.496 1.496 0 0 0 1.05.433H7.5a1.5 1.5 0 0 0 0-3h-.879l3.44-3.44a1.5 1.5 0 0 0-2.122-2.12L4.5 17.378V16.5a1.5 1.5 0 0 0-3 0V21c0 .41.165.783.433 1.054l.013.013z"/></svg>