<svg xmlns="http://www.w3.org/2000/svg" viewBox="0 0 18 18" enable-background="new 0 0 18 18"><path d="M2 11.078l.087 3.467c.018.75.62 1.35 1.367 1.367l3.468.088c.521.013.954-.399.966-.919.013-.521-.399-.954-.919-.967l-1.706-.043 3.055-3.055c.354-.383.331-.98-.052-1.334-.362-.335-.92-.335-1.282 0l-3.055 3.055-.043-1.706c-.006-.242-.105-.472-.276-.643-.369-.368-.967-.367-1.335.003-.181.182-.281.43-.275.687zm14-4.156l-.087-3.467c-.017-.748-.619-1.35-1.367-1.367l-3.468-.088c-.521-.002-.946.419-.948.94-.002.506.395.924.901.947l1.706.043-3.055 3.054c-.354.383-.331.98.052 1.334.362.335.92.335 1.282 0l3.055-3.055.043 1.706c.014.521.446.932.967.92.52-.014.931-.447.919-.967z"/></svg>