<svg xmlns="http://www.w3.org/2000/svg" viewBox="0 0 24 24"><path d="M3.3 1.774A2.637 2.637 0 0 1 4.5 1.5c.526 0 .93.14 1.196.28.2.106.304.358.304.62v2.262C6 5.55 5.25 6 4.5 6S3 5.55 3 4.662V2.4c0-.266.096-.521.3-.626zm4.2 12.061V9.452c0-.55-.198-1.066-.536-1.277-.756-.471-1.55-.675-2.429-.675-.882 0-1.724.282-2.5.784-.336.218-.535.733-.535 1.284v4.383c0 .476.112.9.295 1.217.05.087.103.175.157.263.256.422.524.863.563 1.414l.408 4.312c.054.764.483 1.343.995 1.343h1.235c.511 0 .94-.58.994-1.343l.408-4.312c.035-.497.259-.914.477-1.32.074-.14.148-.277.214-.417.162-.346.254-.8.254-1.273zm3.3-7.561A2.637 2.637 0 0 1 12 6c.526 0 .93.14 1.196.28.2.106.304.358.304.62v2.262c0 .888-.75 1.338-1.5 1.338s-1.5-.45-1.5-1.338V6.9c0-.266.097-.521.3-.626zm4.2 9.061v-1.383c0-.55-.198-1.066-.536-1.277-.756-.471-1.55-.675-2.429-.675-.882 0-1.724.282-2.5.784-.336.218-.535.733-.535 1.284v1.383c0 .476.112.9.295 1.217.05.087.103.175.157.263.257.422.524.863.563 1.414l.408 2.812c.054.764.483 1.343.995 1.343h1.235c.511 0 .94-.58.994-1.343l.408-2.812c.035-.497.259-.914.477-1.32.074-.14.148-.277.214-.417.162-.346.254-.8.254-1.273zm5.149-13.43c-.487-.555-1.817-.707-2.27.642-.139.41-.163.948-.163 1.526 0 .563-.098 1.077-.372 1.315-.098.085-.14.247-.023.305.415.209 1.091.307 1.611.307h1.136c.52 0 1.196-.098 1.611-.307.117-.058.075-.22-.023-.305-.274-.238-.372-.752-.372-1.315 0-.205.02-.375.04-.534.034-.289.065-.541-.04-.904-.227-.787-.649-.883-1.135-.73zM16.5 9.452v2.883c0 .473.092.927.254 1.273.066.14.14.278.214.417.218.406.587 1.32.497 1.614l-.825 3.302a.45.45 0 0 0 .436.559h.66l.117 1.657c.053.764.483 1.343.994 1.343h1.306c.511 0 .94-.58.994-1.343l.117-1.657h.66a.45.45 0 0 0 .436-.56l-.825-3.301c-.09-.294.279-1.208.497-1.614.074-.14.148-.277.214-.417.162-.346.254-.8.254-1.273V9.452c0-.55-.198-1.066-.536-1.277-.756-.471-1.55-.675-2.429-.675h-.07c-.88 0-1.673.204-2.429.675-.338.211-.536.727-.536 1.277z"/></svg>