<svg xmlns="http://www.w3.org/2000/svg" viewBox="0 0 24 24"><path d="M3.3 1.774A2.637 2.637 0 0 1 4.5 1.5a2.563 2.563 0 0 1 1.196.28A.685.685 0 0 1 6 2.4v2.262A1.377 1.377 0 0 1 4.5 6 1.377 1.377 0 0 1 3 4.662V2.4a.679.679 0 0 1 .3-.626zm4.2 12.061V9.452a1.514 1.514 0 0 0-.536-1.277A4.444 4.444 0 0 0 4.535 7.5a4.575 4.575 0 0 0-2.5.784A1.542 1.542 0 0 0 1.5 9.568v4.383a2.458 2.458 0 0 0 .295 1.217c.05.087.103.175.157.263a3.142 3.142 0 0 1 .563 1.414l.408 4.312c.054.764.483 1.343.995 1.343h1.235c.511 0 .94-.58.994-1.343l.408-4.312a3.272 3.272 0 0 1 .477-1.32c.074-.14.148-.277.214-.417a3.083 3.083 0 0 0 .254-1.273zm3.3-7.56A2.637 2.637 0 0 1 12 6a2.563 2.563 0 0 1 1.196.28.685.685 0 0 1 .304.62v2.262A1.377 1.377 0 0 1 12 10.5a1.377 1.377 0 0 1-1.5-1.338V6.9a.681.681 0 0 1 .3-.626zm4.2 9.06v-1.383a1.514 1.514 0 0 0-.536-1.277A4.444 4.444 0 0 0 12.035 12a4.575 4.575 0 0 0-2.5.784A1.542 1.542 0 0 0 9 14.068v1.383a2.458 2.458 0 0 0 .295 1.217c.05.087.103.175.157.263a3.131 3.131 0 0 1 .563 1.414l.408 2.812c.054.764.483 1.343.995 1.343h1.235c.511 0 .94-.58.994-1.343l.408-2.812a3.272 3.272 0 0 1 .477-1.32c.074-.14.148-.277.214-.417A3.083 3.083 0 0 0 15 15.335zm5.149-13.43a1.341 1.341 0 0 0-2.27.642 5.032 5.032 0 0 0-.163 1.526 1.806 1.806 0 0 1-.372 1.315c-.098.085-.14.247-.023.305A4.024 4.024 0 0 0 18.932 6h1.136a4.024 4.024 0 0 0 1.611-.307c.117-.058.075-.22-.023-.305a1.806 1.806 0 0 1-.372-1.315 4.077 4.077 0 0 1 .04-.534 2.03 2.03 0 0 0-.04-.904c-.227-.787-.649-.883-1.135-.73zM16.5 9.452v2.883a3.083 3.083 0 0 0 .254 1.273c.066.14.14.278.214.417a3.659 3.659 0 0 1 .497 1.614l-.825 3.302a.45.45 0 0 0 .436.56h.66l.117 1.656c.053.764.483 1.343.994 1.343h1.306c.511 0 .94-.58.994-1.343l.117-1.657h.66a.45.45 0 0 0 .436-.56l-.825-3.3a3.659 3.659 0 0 1 .497-1.615c.074-.14.148-.277.214-.417a3.083 3.083 0 0 0 .254-1.273V9.452a1.514 1.514 0 0 0-.536-1.277 4.444 4.444 0 0 0-2.429-.675h-.07a4.441 4.441 0 0 0-2.429.675 1.514 1.514 0 0 0-.536 1.277z"/></svg>