<svg xmlns="http://www.w3.org/2000/svg" viewBox="0 0 18 18" enable-background="new 0 0 18 18"><path d="M9.5 16c.419 0 .835-.152 1.131-.449l4.525-4.539c1.111-1.093 1.127-2.879.034-3.991l-.033-.033-4.526-4.538c-.543-.546-1.491-.604-2.116-.127-.624.477-.689 1.306-.144 1.853l4.525 4.538c.139.139.139.433 0 .572l-4.525 4.539c-.545.546-.48 1.376.144 1.852.284.216.635.323.985.323zm-5.092-12.592l3.653 3.609c1.095 1.076 1.111 2.835.035 3.93l-.035.035-3.653 3.61c-.503.493-1.29.546-1.854.123-.609-.454-.735-1.316-.281-1.926l.138-.158 3.39-3.349c.156-.154.157-.406.003-.561l-.003-.003-3.39-3.349c-.542-.533-.549-1.404-.015-1.946l.158-.138c.564-.423 1.351-.37 1.854.123z"/></svg>