<svg xmlns="http://www.w3.org/2000/svg" viewBox="0 0 24 24"><path fill-rule="evenodd" d="M5.349 6.869c-.763.79-1.016 1.998-.742 2.922l.03.1.022.101c.287 1.286 1.28 2.966 2.894 4.844 1.35 1.571 2.954 3.075 4.447 4.336 1.493-1.261 3.096-2.765 4.447-4.336 1.613-1.877 2.607-3.558 2.894-4.844l.022-.101.03-.1c.274-.924.02-2.131-.742-2.922-.613-.637-1.122-.825-1.458-.861-.3-.032-.78.02-1.464.503l-1.08.941a4.025 4.025 0 0 1-5.298 0l-1.08-.941c-.683-.483-1.165-.535-1.464-.503-.336.036-.845.224-1.458.861zm4.792-2.708c-2.449-1.813-4.975-1.425-6.952.625-1.523 1.58-2.036 3.913-1.458 5.859.898 4.031 5.543 8.553 9.051 11.415.72.587 1.716.587 2.436 0 3.508-2.862 8.153-7.384 9.05-11.415.579-1.946.066-4.279-1.457-5.859-1.977-2.05-4.503-2.438-6.952-.625l-1.181 1.03a1.025 1.025 0 0 1-1.356 0l-1.18-1.03z" clip-rule="evenodd"/></svg>