<svg xmlns="http://www.w3.org/2000/svg" viewBox="0 0 24 24"><path d="M13.5 22.5a1.5 1.5 0 1 1-3 0 1.5 1.5 0 0 1 3 0z"/><path fill-rule="evenodd" d="M8.465 4.335C7.822 5.106 7.5 6.223 7.5 7.5a1.5 1.5 0 1 1-3 0c0-1.723.428-3.606 1.66-5.085C7.433.888 9.39 0 12 0s4.535.884 5.797 2.272C19.027 3.625 19.5 5.318 19.5 6.75c0 1.287-.214 2.681-.933 4-.728 1.334-1.91 2.473-3.646 3.342-.927.463-1.219 1.02-1.348 1.57-.123.52-.108.988-.089 1.568.008.235.016.488.016.77a1.5 1.5 0 0 1-3 0c0-.1-.005-.232-.01-.388-.024-.64-.062-1.685.162-2.637.32-1.361 1.154-2.68 2.927-3.567 1.263-.631 1.957-1.367 2.354-2.095.406-.744.567-1.6.567-2.563 0-.818-.277-1.75-.922-2.46C14.964 3.616 13.89 3 12 3s-2.933.612-3.535 1.335z" clip-rule="evenodd"/></svg>