<svg xmlns="http://www.w3.org/2000/svg" viewBox="0 0 18 18" enable-background="new 0 0 18 18"><path d="M9.062 1c-4.418 0-8 3.582-8 8s3.582 8 8 8 8-3.582 8-8-3.582-8-8-8zm.965 12.253c0 .221-.179.4-.4.4h-1.069c-.221 0-.4-.179-.4-.4v-1.006c0-.221.179-.4.4-.4h1.069c.221 0 .4.179.4.4v1.006zm1.782-4.862c-.158.225-.461.512-.91.863l-.443.343c-.224.164-.391.393-.48.656-.05.159-.077.404-.081.738h-1.271c-.223-.002-.402-.185-.4-.408l.001-.029c.033-.473.092-.814.176-1.023.108-.269.387-.578.835-.928l.455-.356c.15-.112.27-.235.361-.369.163-.218.25-.484.249-.756 0-.316-.093-.605-.277-.866-.185-.26-.523-.391-1.013-.391-.482 0-.824.161-1.026.481-.14.224-.231.453-.274.688-.037.184-.2.315-.387.313h-1.01c-.235 0-.431-.205-.401-.438.126-.959.528-1.654 1.208-2.087.491-.316 1.096-.475 1.812-.475.941 0 1.724.225 2.347.675.623.45.934 1.117.934 2 0 .542-.135.998-.405 1.369z"/></svg>