<svg xmlns="http://www.w3.org/2000/svg" viewBox="0 0 24 24"><path d="M14.898 11.223l2.271-2.271c-.015-.027-.007-.014 0 0l2.95-2.949h-.001l1.943-1.942a1.5 1.5 0 0 0-2.122-2.122l-2.005 2.005a.779.779 0 0 1-.87.15A12.29 12.29 0 0 0 12 3 13.578 13.578 0 0 0 .654 9.678a4.454 4.454 0 0 0 0 4.647 15.84 15.84 0 0 0 2.604 3.13.783.783 0 0 1 .039 1.127l-1.358 1.357a1.5 1.5 0 1 0 2.122 2.122l2.387-2.387c-.146.145-.064.063 0 0l2.504-2.505 2.27-2.27zM9.02 12.352a.877.877 0 0 1-.225.732l-1.28 1.28a.666.666 0 0 1-1.107-.185 6 6 0 0 1 7.771-7.771.666.666 0 0 1 .185 1.107l-1.281 1.281a.877.877 0 0 1-.731.224 3 3 0 0 0-3.332 3.332zm14.326 1.973A13.58 13.58 0 0 1 12 21a12.195 12.195 0 0 1-2.183-.196l2.466-2.466a1.73 1.73 0 0 1 .896-.454 6.007 6.007 0 0 0 4.705-4.705 1.73 1.73 0 0 1 .454-.896l4.008-4.008a16.307 16.307 0 0 1 1 1.403 4.454 4.454 0 0 1 0 4.647z"/></svg>