<svg xmlns="http://www.w3.org/2000/svg" viewBox="0 0 24 24"><path d="M1.5 16.479c0-.444.461-.745.885-.66.263.052.55.081.865.081.77 0 1.376-.17 1.873-.447.491-.274.842-.633 1.118-.958a14.982 14.982 0 0 0 .367-.45 3.77 3.77 0 0 1 .294-.332c.168-.161.288-.213.431-.213.218 0 .383.075.579.24.105.088.212.197.34.334l.114.124c.094.103.199.217.305.326.315.325.71.677 1.256.943.549.267 1.219.433 2.073.433.854 0 1.524-.166 2.073-.433.546-.266.94-.618 1.256-.943.106-.11.212-.224.306-.327l.114-.123c.127-.137.234-.246.34-.335.195-.164.36-.239.578-.239.143 0 .263.052.43.213.09.086.183.194.294.331.032.038.065.08.1.124.082.103.175.217.268.327.276.325.627.684 1.118.958.497.276 1.104.447 1.873.447.314 0 .602-.029.865-.081.424-.085.885.216.885.66V17.7c0 2.651-2.09 4.8-4.667 4.8H6.167c-2.578 0-4.667-2.149-4.667-4.8v-1.221zM12 6a1.5 1.5 0 1 0 0-3 1.5 1.5 0 0 0 0 3zm7.5.75a2.25 2.25 0 1 1-4.5 0 2.25 2.25 0 0 1 4.5 0z"/><path d="M12 13.5a3 3 0 1 0 0-6 3 3 0 0 0 0 6z"/></svg>