<svg xmlns="http://www.w3.org/2000/svg" viewBox="0 0 24 24"><path d="M9 3a1.5 1.5 0 0 0-1.5 1.5V6a1.5 1.5 0 0 0 3 0V4.5A1.5 1.5 0 0 0 9 3zM3 9a1.5 1.5 0 0 1 3 0v1.5a1.5 1.5 0 0 1-3 0zm10.89 2.49l3.457 4.52a3.406 3.406 0 0 1 .433 3.217A2.558 2.558 0 0 1 15.458 21l-1.19-.341a8.197 8.197 0 0 0-4.535 0L8.543 21a2.56 2.56 0 0 1-2.323-1.773 3.403 3.403 0 0 1 .434-3.218l3.457-4.519a2.298 2.298 0 0 1 3.779 0zM13.5 4.5a1.5 1.5 0 0 1 3 0V6a1.5 1.5 0 0 1-3 0zm6 3A1.5 1.5 0 0 0 18 9v1.5a1.5 1.5 0 0 0 3 0V9a1.5 1.5 0 0 0-1.5-1.5z"/></svg>