<svg xmlns="http://www.w3.org/2000/svg" viewBox="0 0 24 24"><path d="M12 7.5h-.001zm12 6.75V21a.75.75 0 0 1-.75.75h-.287a.75.75 0 0 1-.67-.415L21 18.75H3l-1.293 2.585a.75.75 0 0 1-.671.415H.75A.75.75 0 0 1 0 21v-6.75a2.99 2.99 0 0 1 .823-2.064 2.108 2.108 0 0 0 .677-1.4v-5.31a1.228 1.228 0 0 1 .684-1.16l1.991-.811c4.106-1.673 11.544-1.673 15.65 0l1.991.813a1.226 1.226 0 0 1 .684 1.16l-.003 5.305a2.112 2.112 0 0 0 .678 1.4A2.992 2.992 0 0 1 24 14.25zm-17.25-3h3a.75.75 0 0 0 0-1.5H8.562a3.752 3.752 0 0 1 6.687-.374.75.75 0 1 0 1.298-.752 5.251 5.251 0 0 0-9.047-.08V7.5a.75.75 0 0 0-1.5 0v3a.75.75 0 0 0 .75.75zM18 12a.75.75 0 0 0-.75-.75h-3a.75.75 0 0 0 0 1.5h1.188a3.751 3.751 0 0 1-6.687.374.75.75 0 1 0-1.298.752 5.251 5.251 0 0 0 9.047.079V15a.75.75 0 0 0 1.5 0z"/></svg>