<svg xmlns="http://www.w3.org/2000/svg" viewBox="0 0 24 24"><path d="M21.701 3.523l-2.323-.794a22.771 22.771 0 0 0-14.758 0l-2.322.793A1.195 1.195 0 0 0 1.5 4.658v11.114a3.547 3.547 0 0 0 3.5 3.59h2.613a2.1 2.1 0 0 1 1.504.635l2.13 2.186.02.019a1.05 1.05 0 0 0 1.485-.02l2.13-2.185a2.1 2.1 0 0 1 1.503-.634H19a3.547 3.547 0 0 0 3.5-3.591V4.659a1.194 1.194 0 0 0-.798-1.136zm-3.7 5.437h-1.536a8.767 8.767 0 0 1-1.116 3.954q-.153.256-.33.497a13.301 13.301 0 0 0 1.491.088 1.5 1.5 0 0 1-.02 3 12.36 12.36 0 0 1-4.53-.775 12.278 12.278 0 0 1-4.444.775 1.5 1.5 0 1 1-.032-3 13.133 13.133 0 0 0 1.442-.09 6.897 6.897 0 0 1-.27-.41A8.72 8.72 0 0 1 7.531 8.96h-1.53a1.5 1.5 0 1 1 0-3h4.5v-.712a1.5 1.5 0 0 1 3 0v.71H18a1.5 1.5 0 0 1 0 3zm-7.46 0h2.913a5.492 5.492 0 0 1-.677 2.409 3.493 3.493 0 0 1-.81.928 3.335 3.335 0 0 1-.748-.857h.001a5.474 5.474 0 0 1-.68-2.48z"/></svg>