<svg xmlns="http://www.w3.org/2000/svg" viewBox="0 0 24 24"><path fill-rule="evenodd" d="M2.298 5.023c-.477.163-.798.62-.798 1.136v11.113c0 1.983 1.567 3.591 3.5 3.591h2.614a2.1 2.1 0 0 1 1.504.634l2.13 2.186a1.05 1.05 0 0 0 1.504 0l2.13-2.186a2.1 2.1 0 0 1 1.504-.634H19c1.933 0 3.5-1.608 3.5-3.591V6.159c0-.515-.321-.973-.798-1.136L19.38 4.23a22.771 22.771 0 0 0-14.758 0l-2.323.794zM12 13.5a1.5 1.5 0 1 0 0-3 1.5 1.5 0 0 0 0 3zm6-1.5a1.5 1.5 0 1 1-3 0 1.5 1.5 0 0 1 3 0zM7.5 13.5a1.5 1.5 0 1 0 0-3 1.5 1.5 0 0 0 0 3z" clip-rule="evenodd"/></svg>