<svg xmlns="http://www.w3.org/2000/svg" viewBox="0 0 16 16"><path d="M5.985 4.333l-.188.5A.268.268 0 0 1 5.544 5H3.456a.268.268 0 0 1-.253-.167l-.188-.5C2.954 4.17 3.084 4 3.268 4h2.463c.185 0 .315.17.254.333zM4.5 0c-.673 0-1.241.542-1.328 1.265l-.17 1.428c-.019.163.098.307.249.307h2.497c.152 0 .269-.144.25-.307l-.17-1.428C5.741.542 5.173 0 4.5 0zM1.995 10.98c0 1.695.232 3.24.613 4.426.115.357.417.594.759.594h2.256c.342 0 .645-.237.759-.594.381-1.186.613-2.731.613-4.426 0-1.877-.81-3.571-1.318-4.796A.281.281 0 0 0 5.416 6H3.574a.282.282 0 0 0-.261.184c-.508 1.225-1.318 2.919-1.318 4.796zm7.2-4.58c-.768 0-1.488.19-2.131.511.457 1.13.931 2.528.931 4.069 0 1.689-.228 3.332-.637 4.644A4.748 4.748 0 0 0 9.195 16a4.8 4.8 0 1 0 0-9.6zM11 11a1 1 0 1 1 0-2 1 1 0 0 1 0 2z"/></svg>