<svg xmlns="http://www.w3.org/2000/svg" viewBox="0 0 18 18" enable-background="new 0 0 18 18"><path d="M2.5 6c-.828 0-1.5-.672-1.5-1.5s.672-1.5 1.5-1.5 1.5.672 1.5 1.5-.672 1.5-1.5 1.5zm1.5 3c0-.828-.672-1.5-1.5-1.5s-1.5.672-1.5 1.5.672 1.5 1.5 1.5 1.5-.672 1.5-1.5zm0 4.5c0-.828-.672-1.5-1.5-1.5s-1.5.672-1.5 1.5.672 1.5 1.5 1.5 1.5-.672 1.5-1.5zm4-7.5h8c.552 0 1-.448 1-1v-1c0-.552-.448-1-1-1h-8c-.552 0-1 .448-1 1v1c0 .552.448 1 1 1zm0 4.5h8c.552 0 1-.448 1-1v-1c0-.552-.448-1-1-1h-8c-.552 0-1 .448-1 1v1c0 .552.448 1 1 1zm0 4.5h8c.552 0 1-.448 1-1v-1c0-.552-.448-1-1-1h-8c-.552 0-1 .448-1 1v1c0 .552.448 1 1 1z"/></svg>