<svg xmlns="http://www.w3.org/2000/svg" viewBox="0 0 16 16"><path d="M4 6.537V8h8V6.537c0-1.178.86-2.163 2-2.39v-.171A.991.991 0 0 0 13 3H3c-.55 0-1 .439-1 .976v.171c1.14.226 2 1.212 2 2.39zm10.5-1.412c-.338 0-.647.117-.898.308l-.007.005a1.489 1.489 0 0 0-.307.312l-.007.009a1.49 1.49 0 0 0-.189.368l-.025.079a1.493 1.493 0 0 0-.067.419v2.5H3v-2.5a1.5 1.5 0 0 0-1-1.407 1.46 1.46 0 0 0-.5-.093c-.825 0-1.5.675-1.5 1.5v3.5c0 .55.45 1 1 1h1V13c0 .55.45 1 1 1s1-.45 1-1v-1.875h8V13c0 .55.45 1 1 1s1-.45 1-1v-1.875h1c.55 0 1-.45 1-1v-3.5c0-.825-.675-1.5-1.5-1.5z"/></svg>