<svg xmlns="http://www.w3.org/2000/svg" viewBox="0 0 18 18" enable-background="new 0 0 18 18"><path d="M15.8 6h-3.983l1.994-1.929c.245-.234.254-.622.02-.867l-.02-.02c-.256-.245-.66-.245-.916 0l-2.911 2.816h-1.968l-2.91-2.816c-.256-.245-.66-.245-.916 0-.245.234-.254.622-.02.867l.02.02 1.993 1.929h-3.983c-.66 0-1.2.562-1.2 1.25v6.5c0 .688.54 1.25 1.2 1.25h13.6c.66 0 1.2-.562 1.2-1.25v-6.5c0-.688-.54-1.25-1.2-1.25zm-1.8 8h-12v-7h12v7zm1.8-2.167h-.8c-.22 0-.4-.188-.4-.417s.18-.416.4-.416h.8c.22 0 .4.187.4.417s-.18.416-.4.416zm-.4-2.5c-.44 0-.8-.375-.8-.833s.36-.833.8-.833c.44 0 .8.375.8.833s-.36.833-.8.833z"/></svg>