<svg xmlns="http://www.w3.org/2000/svg" viewBox="0 0 18 18" enable-background="new 0 0 18 18"><path d="M9.707 8.293c.189.189.293.44.293.707.001.265-.105.52-.293.707-.189.189-.44.293-.707.293s-.518-.104-.707-.293c-.188-.187-.294-.442-.293-.707 0-.267.104-.518.293-.707s.44-.293.707-.293.518.104.707.293zm7.293.707c0 4.418-3.582 8-8 8s-8-3.582-8-8 3.582-8 8-8 8 3.582 8 8zm-3.342-5.003l-5.247 3.101c-.311.092-.594.26-.825.488-.228.231-.396.514-.488.825l-3.1 5.246c-.119.201.145.464.345.345l5.246-3.1c.311-.093.595-.26.826-.488.238-.238.394-.524.487-.825l3.1-5.246c.119-.201-.144-.464-.344-.346z"/></svg>