<svg xmlns="http://www.w3.org/2000/svg" width="18" height="18" viewBox="0 0 18 18"><path d="M9.707 8.293c.189.189.293.44.293.707a.993.993 0 0 1-.293.707C9.518 9.896 9.267 10 9 10s-.518-.104-.707-.293A.993.993 0 0 1 8 9c0-.267.104-.518.293-.707S8.733 8 9 8s.518.104.707.293zM17 9A8 8 0 1 1 1 9a8 8 0 0 1 16 0zm-3.342-5.003L8.411 7.098a1.97 1.97 0 0 0-.825.488 1.97 1.97 0 0 0-.488.825l-3.1 5.246c-.119.201.145.464.345.345l5.246-3.1c.311-.093.595-.26.826-.488.238-.238.394-.524.487-.825l3.1-5.246c.119-.201-.144-.464-.344-.346z"/></svg>