<svg xmlns="http://www.w3.org/2000/svg" viewBox="0 0 18 18" enable-background="new 0 0 18 18"><path d="M4 16h8.6c1.9 0 3.4-1.5 3.4-3.4v-5.6c0-.3-.2-.5-.5-.5s-.5.2-.5.5v5.5c0 .8-.8 1.5-1.6 1.5s-1.5-.7-1.5-1.5v-7.5c0-.6-.4-1-1-1h-7.9c-.6 0-1 .4-1 1v9c0 1.1.9 2 2 2zm2-6h3.5c.3 0 .5.2.5.5s-.2.5-.5.5h-3.5c-.3 0-.5-.2-.5-.5s.2-.5.5-.5zm-1.5-4h5c.3 0 .5.2.5.5s-.2.5-.5.5h-5c-.3 0-.5-.2-.5-.5s.2-.5.5-.5zm0 2h5c.3 0 .5.2.5.5s-.2.5-.5.5h-5c-.3 0-.5-.2-.5-.5s.2-.5.5-.5zm7.5-6c1.1 0 2 .9 2 2v8.5c0 .3-.2.5-.5.5s-.5-.2-.5-.5v-8c0-.8-.7-1.5-1.5-1.5h-7c-.3 0-.5-.2-.5-.5s.2-.5.5-.5h7.5z"/></svg>