<svg xmlns="http://www.w3.org/2000/svg" viewBox="0 0 24 24"><path fill-rule="evenodd" d="M16.167 3.005c-.783-.045-1.667.21-2.526 1.05l-7.41 7.256c-2.297 2.25-2.3 5.84-.057 8.037 2.261 2.214 5.983 2.21 8.298-.056l4.423-4.331a1.5 1.5 0 0 1 2.099 2.143l-4.423 4.331c-3.46 3.387-9.047 3.434-12.496.056-3.467-3.395-3.418-8.92.058-12.323l7.41-7.256C12.981.502 14.681-.086 16.34.01c1.623.093 3.104.835 4.194 1.902 1.09 1.067 1.859 2.53 1.956 4.146.1 1.655-.516 3.337-1.956 4.747l-7.467 7.312c-.568.556-1.476.952-2.395 1.052-.977.106-2.18-.102-3.15-1.052-.976-.956-1.2-2.155-1.088-3.14.105-.92.517-1.82 1.088-2.379l7.467-7.311a1.5 1.5 0 0 1 2.099 2.143l-7.465 7.31.001-.002s-.041.05-.093.163a1.397 1.397 0 0 0-.116.415c-.032.281.032.487.205.657.18.175.412.248.727.213.162-.017.319-.062.448-.12a.843.843 0 0 0 .176-.096l-.003.003 7.467-7.312c.858-.84 1.104-1.689 1.06-2.423-.046-.774-.426-1.562-1.06-2.182-.633-.62-1.45-1.004-2.268-1.051z" clip-rule="evenodd"/></svg>