<svg xmlns="http://www.w3.org/2000/svg" viewBox="0 0 18 18" enable-background="new 0 0 18 18"><path d="M14.841 3.492c-1.548-1.548-4.057-1.548-5.605 0l-6.405 6.406c-1.105 1.105-1.105 2.898 0 4.003s2.898 1.105 4.003 0l6.405-6.405c.647-.68.62-1.755-.06-2.402-.656-.624-1.686-.624-2.342 0l-6.405 6.405c-.211.231-.194.59.037.801.216.197.547.197.764 0l6.405-6.405c.231-.211.59-.194.801.037.197.216.197.547 0 .764l-6.405 6.405c-.68.647-1.755.62-2.402-.06-.624-.656-.624-1.686 0-2.342l6.405-6.405c1.105-1.105 2.898-1.105 4.003 0s1.105 2.898 0 4.003l-6.405 6.405c-.211.231-.194.59.037.801.216.197.547.197.764 0l6.405-6.405c1.547-1.549 1.547-4.058 0-5.606z"/></svg>