<svg xmlns="http://www.w3.org/2000/svg" viewBox="0 0 24 24"><path d="M14.079 15.703a1.023 1.023 0 0 1-.792-.14 17.189 17.189 0 0 1-2.673-2.177 17.208 17.208 0 0 1-2.178-2.673 1.025 1.025 0 0 1-.14-.794l.857-3.78a1.918 1.918 0 0 0-.428-1.817L6.393 1.99a2.307 2.307 0 0 0-2.972.11l-1.18.99a2.015 2.015 0 0 0-.716 1.869 21.167 21.167 0 0 0 5.836 11.68 21.183 21.183 0 0 0 11.679 5.835 2.018 2.018 0 0 0 1.871-.718l.987-1.18a2.304 2.304 0 0 0 .111-2.97l-2.331-2.332a1.916 1.916 0 0 0-1.817-.427l-3.781.856z"/></svg>