<svg xmlns="http://www.w3.org/2000/svg" width="18" height="18" viewBox="0 0 18 18"><path d="M10.946 12.382c1.073.829 2.906 2.252 3.585 2.827.26.22.559.226.77.012.21-.213.206-.5-.01-.758-.417-.501-1.953-2.466-2.833-3.593l3.335-3.335c.278-.278.049-.506-.04-.596-.67-.597-1.825-.569-3.113-.034a.508.508 0 0 1-.061-.039c-1.622-1.21-3.249-2.414-4.874-3.62l.166-.165a.69.69 0 0 0 0-.975l-.09-.09a.69.69 0 0 0-.975 0L2.345 6.477a.69.69 0 0 0 0 .976l.09.089a.69.69 0 0 0 .975 0l.23-.23c1.204 1.648 2.41 3.295 3.61 4.946-.556 1.327-.611 2.538.038 3.187.075.075.313.282.564.031l3.094-3.094z"/></svg>