<svg xmlns="http://www.w3.org/2000/svg" viewBox="0 0 24 24"><path d="M8.657.045C8.089-.138 7.5.262 7.5.829v2.843c0 .457.392.828.875.828h.375c.966 0 1.75-.742 1.75-1.657V1.231a.833.833 0 0 0-.593-.784L8.657.045zM6 7.5a1.5 1.5 0 1 0-3 0v6a6 6 0 0 0 6 6h3.75a.75.75 0 0 1 0 1.5H7.5a1.5 1.5 0 0 0 0 3h5.25a3.75 3.75 0 1 0 0-7.5H9a3 3 0 0 1-3-3v-6z"/><path d="M14.25 9H10.5v3h2.25A8.25 8.25 0 0 1 21 20.25V21a1.5 1.5 0 0 1-3 0v-.75c0-2.9-2.35-5.25-5.25-5.25h-3a2.25 2.25 0 0 1-2.25-2.25v-4.8A1.95 1.95 0 0 1 9.45 6h4.8a1.5 1.5 0 0 1 0 3z"/></svg>