<svg viewBox="0 0 18 18" xmlns="http://www.w3.org/2000/svg"><path d="m12.386 2.99647c1.4406 0 2.6084 1.16786 2.6084 2.60848v3.19106c0 .39783-.158.77936-.4393 1.06066l-4.92086 4.92083c-.58579.5858-1.53553.5858-2.12132 0l-4.29954-4.2995c-.58579-.58579-.58579-1.53554 0-2.12133l4.92086-4.92086c.2813-.2813.66283-.43934 1.06066-.43934zm-.9834 3.59299c-.3906-.39053-.3906-1.02369 0-1.41421.3905-.39053 1.0236-.39053 1.4142 0 .3905.39052.3905 1.02368 0 1.41421-.3906.39052-1.0237.39052-1.4142 0z" fill-rule="evenodd"/></svg>