<svg xmlns="http://www.w3.org/2000/svg" viewBox="0 0 16 16"><path d="M10 7.566c0 .414.108.825.335 1.171a2.586 2.586 0 0 0 4.33.001c.227-.347.335-.758.335-1.172 0-.305-.063-.607-.185-.886l-1.991-4.55.66-.14c.269-.057.442-.324.385-.593s-.324-.442-.593-.385L9 1.92v-.041A.882.882 0 0 0 8.121 1h-.242A.882.882 0 0 0 7 1.879v.466l-4.484.953a.501.501 0 0 0-.385.593.501.501 0 0 0 .593.385l.472-.1-2.011 4.596c-.122.28-.185.581-.185.886 0 .414.108.825.335 1.171a2.587 2.587 0 0 0 4.33.001c.227-.347.335-.758.335-1.172 0-.305-.063-.607-.185-.886L3.752 4.058l2.806-.596a.534.534 0 0 0-.058.236v1.891c0 .286.222.515.5.544V14H2.814c-.671 0-1.314.301-1.792.838-.067.074.029.162.177.162h13.602c.148 0 .244-.088.178-.162-.479-.537-1.122-.838-1.793-.838H9V6.132a.552.552 0 0 0 .5-.544v-1.89a.552.552 0 0 0-.5-.544v-.212l3.11-.661-1.925 4.399a2.213 2.213 0 0 0-.185.886zM2.04 8.667l1.277-2.918a.2.2 0 0 1 .366 0L4.96 8.667H2.04zm10.277-5.011a.2.2 0 0 1 .366 0l1.277 2.918h-2.92l1.277-2.918z"/></svg>