<svg xmlns="http://www.w3.org/2000/svg" viewBox="0 0 24 24"><path d="M12 1.5a2.634 2.634 0 0 0-1.2.274.679.679 0 0 0-.3.626v2.262A1.377 1.377 0 0 0 12 6a1.377 1.377 0 0 0 1.5-1.338V2.4a.685.685 0 0 0-.304-.62A2.566 2.566 0 0 0 12 1.5zm3 8.918a.45.45 0 0 1-.566.435l-.251-.067a8.465 8.465 0 0 0-4.366 0l-.251.067A.45.45 0 0 1 9 10.42v-.851a1.54 1.54 0 0 1 .536-1.284 4.76 4.76 0 0 1 1.872-.736c.104-.016.208.35.313.72.104.364.209.732.314.732.121 0 .241-.372.36-.74.117-.367.233-.728.348-.712a4.331 4.331 0 0 1 1.72.627A1.51 1.51 0 0 1 15 9.453v.965zm-9 3.509a.79.79 0 0 1 .568-.775l3.25-.866a8.465 8.465 0 0 1 4.365 0l3.249.866a.791.791 0 0 1 .568.775v.975a1.552 1.552 0 0 1-1.5 1.598h-.75a.75.75 0 0 0-.75.75V21a1.5 1.5 0 0 1-1.5 1.5h-3A1.5 1.5 0 0 1 9 21v-3.75a.75.75 0 0 0-.75-.75H7.5A1.552 1.552 0 0 1 6 14.902z"/></svg>