<svg xmlns="http://www.w3.org/2000/svg" viewBox="0 0 18 18" enable-background="new 0 0 18 18"><circle cx="8.998" cy="2.5" r="1.5"/><path d="M6.334 9h5.333l.292-2.188c.117-.877-.5-1.682-1.376-1.798l-.211-.014h-.372l-.757 3.03c-.063.253-.422.253-.485 0l-.758-3.03h-.372c-.884 0-1.6.716-1.6 1.6l.014.212.292 2.188zM14.567 10h-11.134c-.239 0-.433.194-.433.433v.134c0 .239.194.433.433.433h2.674l.549 5.13c.054.499.375.87.753.87h3.182c.378 0 .699-.371.752-.87l.55-5.13h2.674c.239 0 .433-.194.433-.433v-.134c0-.239-.194-.433-.433-.433z"/></svg>