<svg xmlns="http://www.w3.org/2000/svg" viewBox="0 0 24 24"><path fill-rule="evenodd" d="M0 4.5a3 3 0 0 1 3-3h18a3 3 0 0 1 3 3v3.75c0 .414-.341.74-.742.843a3.001 3.001 0 0 0 0 5.814c.401.103.742.429.742.843v3.75a3 3 0 0 1-3 3H3a3 3 0 0 1-3-3v-3.75c0-.414.341-.74.742-.843a3.001 3.001 0 0 0 0-5.814C.341 8.99 0 8.664 0 8.25V4.5zm12 5.506v6.41c0 .875.672 1.584 1.5 1.584s1.5-.709 1.5-1.583V8.379c0-1.98-2.162-3.09-3.639-1.868L8.075 9.23c-.651.54-.765 1.535-.254 2.223s1.454.808 2.106.269L12 10.006z" clip-rule="evenodd"/></svg>