<svg xmlns="http://www.w3.org/2000/svg" viewBox="0 0 24 24"><path d="M10.51 7.19a2.25 2.25 0 1 0-2.25-2.25 2.25 2.25 0 0 0 2.25 2.25zm-3.59-.868a1.5 1.5 0 0 1-.358 2.09 6.567 6.567 0 0 0-2.804 5.368v5.408a1.5 1.5 0 0 1-3 0v-5.41A9.561 9.561 0 0 1 4.83 5.965a1.5 1.5 0 0 1 2.091.358zm7.176 0a1.5 1.5 0 0 1 2.09-.359 9.562 9.562 0 0 1 4.072 7.816v1.789l.44-.44a1.5 1.5 0 0 1 2.12 2.122l-4.06 4.06-4.06-4.06a1.5 1.5 0 0 1 2.12-2.122l.44.44v-1.79a6.562 6.562 0 0 0-2.804-5.365 1.5 1.5 0 0 1-.358-2.091z"/></svg>