<svg xmlns="http://www.w3.org/2000/svg" viewBox="0 0 18 18" enable-background="new 0 0 18 18"><path d="M12.17 9.169c.195-.195.512-.195.707 0l.693.693 2.005-2.005c.567-.57.567-1.492 0-2.062l-3.371-3.371c-.57-.567-1.492-.567-2.062 0l-2.004 2.006.694.694c.195.196.195.512 0 .708-.196.195-.513.195-.708-.001l-.694-.694-5.005 5.005c-.567.57-.567 1.491 0 2.061l3.371 3.371c.57.567 1.492.567 2.062 0l5.005-5.005-.693-.693c-.195-.195-.195-.512 0-.707zm-3.467 3.353l-1.272-.016-.735 1.039c-.098.141-.291.175-.432.077-.057-.04-.099-.098-.119-.164l-.378-1.215-1.215-.378c-.164-.05-.256-.223-.206-.387.02-.067.062-.124.119-.164l1.039-.735-.016-1.273c-.002-.172.135-.313.307-.315.069-.001.135.021.19.062l1.02.761 1.205-.409c.163-.055.339.032.394.195.022.065.022.135 0 .2l-.409 1.205.761 1.02c.154.206.005.5-.253.497zm2.503-4.316c-.196.194-.511.194-.707 0l-.704-.704c-.192-.199-.186-.515.012-.707.194-.187.501-.187.695 0l.704.704c.195.195.195.512 0 .707z"/></svg>