<svg xmlns="http://www.w3.org/2000/svg" viewBox="0 0 16 16"><path d="M14 9.662V3.338A3.348 3.348 0 0 0 10.662 0H5.338A3.348 3.348 0 0 0 2 3.338v6.324c0 1.545 1.069 2.842 2.5 3.218v.018L2 16h1.921l1.636-2h4.885l1.636 2H14l-2.5-3.102v-.018c1.431-.376 2.5-1.673 2.5-3.218zM11 10a1 1 0 1 1 0-2 1 1 0 0 1 0 2zM6.5 1h3c.275 0 .5.225.5.5s-.225.5-.5.5h-3c-.275 0-.5-.225-.5-.5s.225-.5.5-.5zM4 3.8c0-.44.36-.8.8-.8h6.4c.44 0 .8.36.8.8v2.4c0 .44-.36.8-.8.8H4.8c-.44 0-.8-.36-.8-.8V3.8zM4 9a1 1 0 1 1 2 0 1 1 0 0 1-2 0z"/></svg>