<svg xmlns="http://www.w3.org/2000/svg" viewBox="0 0 18 18" enable-background="new 0 0 18 18"><path d="M9 1c-4.418 0-8 3.582-8 8s3.582 8 8 8 8-3.582 8-8-3.582-8-8-8zm-2.5 11.5c0 .275-.225.5-.5.5h-1c-.276-.001-.499-.224-.5-.5v-1c0-.275.225-.5.5-.5h1c.275 0 .5.225.5.5v1zm0-3c0 .275-.225.5-.5.5h-1c-.276-.001-.499-.224-.5-.5v-1c0-.275.225-.5.5-.5h1c.275 0 .5.225.5.5v1zm0-3c0 .275-.225.5-.5.5h-1c-.276-.001-.499-.224-.5-.5v-1c0-.275.225-.5.5-.5h1c.275 0 .5.225.5.5v1zm7 1.5c0 .55-.45 1-1 1h-1v4c0 .55-.45 1-1 1s-1-.45-1-1v-4h-1c-.55 0-1-.45-1-1v-1c0-.55.45-1 1-1h1v-1c0-.55.45-1 1-1s1 .45 1 1v1h1c.55 0 1 .45 1 1v1zm-1.5-1h-3c-.276 0-.5.224-.5.5s.224.5.5.5h3c.276 0 .5-.224.5-.5s-.224-.5-.5-.5z"/></svg>