<svg xmlns="http://www.w3.org/2000/svg" viewBox="0 0 16 16"><path d="M8 0a8 8 0 1 0 0 16A8 8 0 0 0 8 0zM5.5 11.5c0 .275-.225.5-.5.5H4a.501.501 0 0 1-.5-.5v-1c0-.275.225-.5.5-.5h1c.275 0 .5.225.5.5v1zm0-3c0 .275-.225.5-.5.5H4a.501.501 0 0 1-.5-.5v-1c0-.275.225-.5.5-.5h1c.275 0 .5.225.5.5v1zm0-3c0 .275-.225.5-.5.5H4a.501.501 0 0 1-.5-.5v-1c0-.275.225-.5.5-.5h1c.275 0 .5.225.5.5v1zm7 1.5c0 .55-.45 1-1 1h-1v4c0 .55-.45 1-1 1s-1-.45-1-1V8h-1c-.55 0-1-.45-1-1V6c0-.55.45-1 1-1h1V4c0-.55.45-1 1-1s1 .45 1 1v1h1c.55 0 1 .45 1 1v1zM11 6H8a.5.5 0 0 0 0 1h3a.5.5 0 0 0 0-1z"/></svg>