<svg xmlns="http://www.w3.org/2000/svg" viewBox="0 0 24 24"><path d="M9 1.5A1.5 1.5 0 0 0 7.5 3v6.75a.75.75 0 0 1-.75.75H6a1.5 1.5 0 0 0 0 3h6a1.5 1.5 0 0 0 0-3h-.75a.75.75 0 0 1-.75-.75V3A1.5 1.5 0 0 0 9 1.5zm9 3A1.5 1.5 0 1 0 16.5 3 1.5 1.5 0 0 0 18 4.5zm0 18a1.5 1.5 0 1 0-1.5-1.5 1.5 1.5 0 0 0 1.5 1.5zM19.5 12a1.5 1.5 0 1 1-1.5-1.5 1.5 1.5 0 0 1 1.5 1.5zM18 9a1.5 1.5 0 1 0-1.5-1.5A1.5 1.5 0 0 0 18 9zm1.5 7.5A1.5 1.5 0 1 1 18 15a1.5 1.5 0 0 1 1.5 1.5zM9 15a1.5 1.5 0 0 0-1.5 1.5V21a1.5 1.5 0 0 0 3 0v-4.5A1.5 1.5 0 0 0 9 15z"/></svg>