<svg xmlns="http://www.w3.org/2000/svg" viewBox="0 0 24 24"><path fill-rule="evenodd" d="M6.457 3.96C7.312 2.927 9.297 1.5 12 1.5c2.693 0 4.547 1.413 5.445 2.386.393.425.555.985.555 1.5v16.009c0 .61-.448 1.105-1 1.105H7c-.552 0-1-.495-1-1.105V5.319c0-.425.11-.939.457-1.358zM9 7v-.583c0-.264.075-.52.23-.684C9.751 5.176 10.721 4.5 12 4.5c1.276 0 2.208.676 2.758 1.262.16.171.242.436.242.71V7c0 .276-.168.5-.375.5h-5.25C9.168 7.5 9 7.276 9 7z" clip-rule="evenodd"/><path d="M1.5 9a1.5 1.5 0 1 1 3 0v12a1.5 1.5 0 0 1-3 0V9zM21 7.5A1.5 1.5 0 0 0 19.5 9v12a1.5 1.5 0 0 0 3 0V9A1.5 1.5 0 0 0 21 7.5z"/></svg>