<svg xmlns="http://www.w3.org/2000/svg" viewBox="0 0 24 24"><path fill-rule="evenodd" d="M12 4.5a3 3 0 0 0-3 3v1.72a20.5 20.5 0 0 1 9.325.78l1.991.647a.977.977 0 0 1 .684.924v8.262c0 1.473-1.343 2.667-3 2.667H6c-1.657 0-3-1.194-3-2.667v-8.262c0-.419.275-.791.684-.924L5.675 10c.108-.035.217-.07.325-.102V7.5a6 6 0 0 1 6-6c.912 0 1.778.204 2.552.568a6.018 6.018 0 0 1 3.142 3.534l-.003.001a1.5 1.5 0 0 1-2.842.947l-.002.001a3.009 3.009 0 0 0-1.575-1.769A2.99 2.99 0 0 0 12 4.5zm0 9a1.5 1.5 0 0 0-1.5 1.5v1.5a1.5 1.5 0 0 0 3 0V15a1.5 1.5 0 0 0-1.5-1.5z" clip-rule="evenodd"/></svg>