<svg xmlns="http://www.w3.org/2000/svg" viewBox="0 0 16 16"><circle cx="8" cy="8" r="3"/><path d="M8 0c-.6 0-1 .4-1 1v1c0 .5.4 1 1 1 .5 0 1-.4 1-1V1c0-.6-.4-1-1-1zM2.3 2.3c-.3.4-.3 1.1 0 1.5l.7.7c.4.4 1 .4 1.4 0 .4-.4.4-1 0-1.4l-.6-.8c-.4-.3-1.1-.3-1.5 0zM0 8c0 .6.4 1 1 1h1c.5 0 1-.4 1-1 0-.5-.4-1-1-1H1c-.6 0-1 .4-1 1zm2.3 5.7c.4.4 1 .4 1.4 0l.7-.7c.4-.4.4-1 0-1.4-.4-.4-1-.4-1.4 0l-.7.7c-.3.3-.3 1 0 1.4zM8 16c.6 0 1-.4 1-1v-1c0-.5-.4-1-1-1-.5 0-1 .4-1 1v1c0 .6.4 1 1 1zm5.7-2.3c.4-.4.4-1 0-1.4l-.7-.7c-.4-.4-1-.4-1.4 0-.4.4-.4 1 0 1.4l.7.7c.3.3 1 .3 1.4 0zM16 8c0-.6-.4-1-1-1h-1c-.5 0-1 .4-1 1 0 .5.4 1 1 1h1c.6 0 1-.4 1-1zm-2.3-5.7c-.4-.4-1-.4-1.4 0l-.7.7c-.4.4-.4 1 0 1.4.4.4 1 .4 1.4 0l.7-.7c.3-.3.3-1 0-1.4z"/></svg>