<svg xmlns="http://www.w3.org/2000/svg" viewBox="0 0 24 24"><path d="M14.486 2.603C14.6 2.78 14.46 3 14.25 3c-3.16 0-5.823 2.065-6.773 4.91a.874.874 0 0 1-.562.551 5.665 5.665 0 0 0-3.851 4.534c-.028.186-.21.313-.386.247A4.154 4.154 0 0 1 0 9.346 4.16 4.16 0 0 1 3.198 5.3c.518-.12.957-.52 1.092-1.04C4.925 1.807 7.129 0 9.75 0a5.624 5.624 0 0 1 4.736 2.603z"/><path d="M22.087 16.674c-.054.157.139.339.265.232A4.685 4.685 0 0 0 24 13.326c0-2.225-1.538-4.087-3.596-4.557a1.376 1.376 0 0 1-.96-.798C18.583 5.93 16.58 4.5 14.25 4.5c-2.621 0-4.825 1.808-5.46 4.258-.135.52-.574.92-1.092 1.041A4.16 4.16 0 0 0 4.5 13.846c0 1.77 1.094 3.28 2.634 3.88.216.083.422-.126.409-.358a2.212 2.212 0 0 1 .48-1.508l5.958-7.582C15.3 6.598 18 7.532 18 9.668v3.382c0 .248.201.45.45.45h1.36c1.725 0 2.784 1.704 2.277 3.174z"/><path d="M15.175 9.271l-6 7.5a.75.75 0 0 0 .576 1.23h3a.75.75 0 0 1 .75.75v4.5c0 .702.877 1.02 1.327.48l6-7.5a.75.75 0 0 0-.577-1.23h-3a.75.75 0 0 1-.75-.75v-4.5c0-.701-.877-1.019-1.326-.48z"/></svg>