<svg xmlns="http://www.w3.org/2000/svg" viewBox="0 0 18 18" enable-background="new 0 0 18 18"><circle cx="9" cy="9" r="3"/><path d="M9 1c-.6 0-1 .4-1 1v1c0 .5.4 1 1 1 .5 0 1-.4 1-1v-1c0-.6-.4-1-1-1zm-5.7 2.3c-.3.4-.3 1.1 0 1.5l.7.7c.4.4 1 .4 1.4 0s.4-1 0-1.4l-.6-.8c-.4-.3-1.1-.3-1.5 0zm-2.3 5.7c0 .6.4 1 1 1h1c.5 0 1-.4 1-1 0-.5-.4-1-1-1h-1c-.6 0-1 .4-1 1zm2.3 5.7c.4.4 1 .4 1.4 0l.7-.7c.4-.4.4-1 0-1.4s-1-.4-1.4 0l-.7.7c-.3.3-.3 1 0 1.4zm5.7 2.3c.6 0 1-.4 1-1v-1c0-.5-.4-1-1-1-.5 0-1 .4-1 1v1c0 .6.4 1 1 1zm5.7-2.3c.4-.4.4-1 0-1.4l-.7-.7c-.4-.4-1-.4-1.4 0s-.4 1 0 1.4l.7.7c.3.3 1 .3 1.4 0zm2.3-5.7c0-.6-.4-1-1-1h-1c-.5 0-1 .4-1 1 0 .5.4 1 1 1h1c.6 0 1-.4 1-1zm-2.3-5.7c-.4-.4-1-.4-1.4 0l-.7.7c-.4.4-.4 1 0 1.4s1 .4 1.4 0l.7-.7c.3-.3.3-1 0-1.4z"/></svg>