<svg xmlns="http://www.w3.org/2000/svg" viewBox="0 0 24 24"><path d="M12 1.5A10.5 10.5 0 1 0 22.5 12 10.5 10.5 0 0 0 12 1.5zm6.086 14.872a4.649 4.649 0 0 1-.297-.896.44.44 0 0 0-.133-.28.408.408 0 0 0-.23-.054 22.86 22.86 0 0 0-2.398.024l-.89-.05a3.245 3.245 0 0 1-1.644 1.426 2.97 2.97 0 0 0-1.194.578 1.7 1.7 0 0 0-.326 1.276 5.274 5.274 0 0 1 .047 1.032 7.497 7.497 0 0 1-6.475-6.615 2.584 2.584 0 0 1 .36.426v-.001a1.593 1.593 0 0 0 .552.579l.182-.792.49-2.168a3.127 3.127 0 0 1 .345-.993 1.06 1.06 0 0 1 .86-.535 17.686 17.686 0 0 0 1.39 1.72 3.166 3.166 0 0 0 1.185.91 1.224 1.224 0 0 0 1.376-.303.414.414 0 0 0 .1-.25.516.516 0 0 0-.11-.27l-.66-1.023a.151.151 0 0 1 .043-.25 11.785 11.785 0 0 1 2.537-1.488l-.548-1.794a1.577 1.577 0 0 1-.094-.49 1.57 1.57 0 0 1 .43-.878l1.15 1.343a.925.925 0 0 0 .41-1.135 1.624 1.624 0 0 0-.12-.225 1.593 1.593 0 0 1-.128-.246c-.008-.03-.004-.062-.01-.093a7.488 7.488 0 0 1 3.8 11.515z"/></svg>