<svg xmlns="http://www.w3.org/2000/svg" viewBox="0 0 24 24"><path d="M10.457 6.34c-.502.156-.994.341-1.475.554l-.285-.33a.177.177 0 0 1-.059-.126.182.182 0 0 1 .071-.104c.106-.097.23-.315.36-.545.194-.344.403-.712.589-.74.285-.042.523.607.667 1 .063.174.108.298.132.291z"/><path fill-rule="evenodd" d="M2.3 7.982a10.5 10.5 0 1 1 19.4 8.036A10.5 10.5 0 0 1 2.3 7.982zm12.77 2.965c.223-.04.444-.08.66-.116.415-.326.066-1.052-.437-1.21a4.627 4.627 0 0 0-1.57.033c-.527.021-1.164-.219-1.232-.742a1.423 1.423 0 0 1-.01-.162c-.006-.158-.01-.316-.13-.404a.444.444 0 0 0-.411-.002c-.54.263-1.057.57-1.547.916a1.78 1.78 0 0 1-1.711.174l.056-1.017c.149-.188.424-.22.688-.25.305-.036.594-.07.651-.342a1.748 1.748 0 0 0-.022-.378c-.005-.41.398-.621.802-.833.402-.21.805-.422.804-.831a2.06 2.06 0 0 0-.199-.612 1.6 1.6 0 0 1 .522-1.57A8.4 8.4 0 0 0 12 20.4c.06 0 .119-.004.178-.008.04-.003.081-.006.122-.007a11.75 11.75 0 0 1-.165-1.838c0-.24-.145-.263-.307-.288-.153-.024-.322-.05-.396-.266a3.644 3.644 0 0 1-.053-.157c-.117-.357-.194-.595-.604-.63a1.035 1.035 0 0 1-.476-.14c-.127-.07-.206-.113-.546.02a2.09 2.09 0 0 1-2.269-.743 4.497 4.497 0 0 1-.844-2.37c.006-.275.09-.542.242-.77.073-.147.3-.278.506-.396.119-.069.23-.133.303-.195l.137-.116c.518-.438.896-.758 1.022-1.459l2.1-.087c1.258.514 2.738.247 4.12-.003zm1.134 1.817a.427.427 0 0 1-.024-.28.45.45 0 0 1 .28-.218l1.328-.539c.2.798.5 1.568.894 2.29a.72.72 0 0 0 .26.31.75.75 0 0 0 .503.016l.65-.13a8.333 8.333 0 0 1-.54 1.436 5.174 5.174 0 0 1-3.351-2.885z" clip-rule="evenodd"/><path fill-rule="evenodd" d="M12 19.5a7.5 7.5 0 1 0 0-15 7.5 7.5 0 0 0 0 15zm0 3c5.799 0 10.5-4.701 10.5-10.5 0-5.8-4.7-10.5-10.5-10.5C6.201 1.5 1.5 6.201 1.5 12S6.201 22.5 12 22.5z" clip-rule="evenodd"/></svg>