<svg xmlns="http://www.w3.org/2000/svg" viewBox="0 0 24 24"><path d="M11.993 1.5a10.5 10.5 0 1 0 10.5 10.5 10.5 10.5 0 0 0-10.5-10.5zm.452 17.89c-.15.01-.3.023-.452.023A7.487 7.487 0 0 1 5.238 8.672c.031.071.053.146.09.215l.963 2.093a1.423 1.423 0 0 0 .293.467 2.2 2.2 0 0 0 .793.35 4.161 4.161 0 0 1 1.298.905 5.417 5.417 0 0 0 .997.771 5.362 5.362 0 0 0 1.85.496 3.56 3.56 0 0 1-.344 1.721 1.873 1.873 0 0 0 .06 1.704 2.125 2.125 0 0 0 .54.456 1.811 1.811 0 0 1 .586.532 1.33 1.33 0 0 1 .081 1.008zm6.206-4.033l-.05-.009-.002.005a.609.609 0 0 1-.06-.01.879.879 0 0 0-.075-.01l-.204-.018c-.154-.013-.309-.026-.459-.049-.52-.079-1.095-.373-1.165-.894a.5.5 0 0 0-.086-.3.38.38 0 0 0-.308-.062l-.077.003a1.856 1.856 0 0 1-1.002-.477 3.459 3.459 0 0 0-3.286-.284 1.13 1.13 0 0 1-.538.156c-.35-.028-.506-.364-.665-.708a2.937 2.937 0 0 0-.245-.455c-.452-.627-1.385-.578-2.15-.464a4.169 4.169 0 0 1 .072-1.943l1.15-.284a.62.62 0 0 1 .3-.023c.223.057.273.29.325.532a1.255 1.255 0 0 0 .157.452c.283.402.91.191 1.334-.058a18.23 18.23 0 0 1-.328-1.05.334.334 0 0 1 .115-.44c.023-.022.047-.043.068-.065a1.21 1.21 0 0 0 .208-.417 5.28 5.28 0 0 1 2.953-2.472 6.605 6.605 0 0 0-1.046-1.426 7.49 7.49 0 0 1 5.064 10.77z"/></svg>