<svg xmlns="http://www.w3.org/2000/svg" viewBox="0 0 24 24"><path fill-rule="evenodd" d="M13.297 3.81c-.973-1.11-3.632-1.414-4.54 1.284-.276.819-.325 1.895-.325 3.052 0 1.126-.197 2.154-.744 2.63-.197.17-.28.493-.046.61.83.417 2.183.614 3.223.614h2.27c1.04 0 2.393-.197 3.223-.614.234-.117.15-.44-.046-.61-.547-.476-.744-1.504-.744-2.63 0-.41.04-.75.079-1.068.07-.578.13-1.083-.08-1.808-.454-1.575-1.296-1.766-2.27-1.46zM12 10c-.552 0-1-.435-1-.972V9h2v.028c0 .537-.448.972-1 .972z" clip-rule="evenodd"/><path d="M4.99 15.598C6.325 14.972 8.896 14 11.972 14c3.04 0 5.652.974 7.016 1.6.641.294 1.012.946 1.012 1.65v.977C20 19.783 18.833 21 17.227 21H7.045C5.44 21 4 19.783 4 18.227v-.995c0-.695.36-1.339.99-1.634z"/></svg>