<svg xmlns="http://www.w3.org/2000/svg" viewBox="0 0 24 24"><path fill-rule="evenodd" d="M7 4.568c0-.453.184-.886.572-1.069C8.107 3.25 8.946 3 10 3c1.053 0 1.858.247 2.392.498.4.188.608.635.608 1.102v5.022C13 11.2 11.5 12 10 12s-3-.8-3-2.378V4.568zm2 4.46c0 .537.448.972 1 .972s1-.435 1-.972V9H9v.028z" clip-rule="evenodd"/><path d="M2.99 15.598C4.325 14.972 6.896 14 9.972 14c3.04 0 5.652.974 7.016 1.6.641.294 1.012.946 1.012 1.65v.977C18 19.783 16.833 21 15.227 21H5.045C3.44 21 2 19.783 2 18.227v-.995c0-.695.36-1.339.99-1.634zM16 7a1 1 0 0 1 1-1h4a1 1 0 1 1 0 2h-4a1 1 0 0 1-1-1zm1 3a1 1 0 1 0 0 2h3a1 1 0 1 0 0-2h-3z"/></svg>