<svg xmlns="http://www.w3.org/2000/svg" viewBox="0 0 24 24"><path d="M10.865 12h2.27a8.07 8.07 0 0 0 3.223-.614c.234-.117.15-.44-.046-.61a3.617 3.617 0 0 1-.744-2.63 8.345 8.345 0 0 1 .079-1.068 4.03 4.03 0 0 0-.08-1.808c-.454-1.575-1.296-1.766-2.27-1.46a2.682 2.682 0 0 0-4.54 1.284 10.123 10.123 0 0 0-.325 3.052 3.617 3.617 0 0 1-.744 2.63c-.197.17-.28.493-.046.61a8.07 8.07 0 0 0 3.223.614zM11 9h2v.028a1 1 0 0 1-2 0zm9 8.25v.977A2.712 2.712 0 0 1 17.227 21H7.045A2.951 2.951 0 0 1 4 18.227v-.995a1.77 1.77 0 0 1 .99-1.634A16.866 16.866 0 0 1 11.972 14a17.328 17.328 0 0 1 7.016 1.6A1.784 1.784 0 0 1 20 17.25z"/></svg>