<svg xmlns="http://www.w3.org/2000/svg" viewBox="0 0 24 24"><path fill-rule="evenodd" d="M5 2h13.922C20.5 2 22 3.5 22 5v14c0 1.5-1.5 3-3 3H5c-1.5 0-3-1.5-3-3.232V5c0-1.5 1.5-3 3-3zm14 6.5a.5.5 0 0 1-.5.5h-4a.5.5 0 0 1 0-1h4a.5.5 0 0 1 .5.5zm0 2a.5.5 0 0 1-.5.5h-4a.5.5 0 0 1 0-1h4a.5.5 0 0 1 .5.5zm-9.5.5C8.672 11 8 10.357 8 9.565V7.858C8 7.384 8.402 7 8.897 7h1.206c.495 0 .897.384.897.858v1.707C11 10.357 10.328 11 9.5 11zm-.016 2c-1.785 0-3.267.591-3.997.947a.892.892 0 0 0-.487.815v.653C5 16.305 5.81 17 6.713 17h5.727c.904 0 1.56-.695 1.56-1.585v-.643a.898.898 0 0 0-.499-.825c-.745-.355-2.253-.947-4.017-.947z" clip-rule="evenodd"/></svg>