<svg xmlns="http://www.w3.org/2000/svg" viewBox="0 0 24 24"><path fill-rule="evenodd" d="M5.5 7a.5.5 0 0 0 .5-.5V5.455c0-.384.11-.85.457-1.228C7.312 3.29 9.297 2 12 2c2.693 0 4.547 1.279 5.445 2.159.393.384.555.891.555 1.356V6.5a.5.5 0 0 0 .5.5h.532C20.12 7 21 7.933 21 9.083V18c0 1.5-1.5 3-3 3H6c-1.5 0-3-1.5-3-3V9.083C3 7.933 3.881 7 4.968 7H5.5zm3 0a.5.5 0 0 1-.5-.5v-.583c0-.264.1-.52.306-.684C9.003 4.676 10.296 4 12 4c1.7 0 2.944.676 3.677 1.262a.899.899 0 0 1 .323.71V6.5a.5.5 0 0 1-.5.5h-7zm7.207 5.858a1.16 1.16 0 0 0 0-1.54.944.944 0 0 0-1.414 0l-3.357 3.743-1.299-1.068c-.426-.383-1.056-.317-1.408.146-.352.463-.292 1.15.134 1.532L11.064 18l4.643-5.142z" clip-rule="evenodd"/></svg>