<svg xmlns="http://www.w3.org/2000/svg" viewBox="0 0 24 24"><path fill-rule="evenodd" d="M6 6.5a.5.5 0 0 1-.5.5h-.532C3.88 7 3 7.933 3 9.083V18c0 1.5 1.5 3 3 3h12c1.5 0 3-1.5 3-3V9.083C21 7.933 20.119 7 19.032 7H18.5a.5.5 0 0 1-.5-.5v-.985a1.89 1.89 0 0 0-.555-1.356C16.547 3.279 14.693 2 12 2 9.297 2 7.312 3.29 6.457 4.227A1.808 1.808 0 0 0 6 5.455V6.5zm2 0a.5.5 0 0 0 .5.5h7a.5.5 0 0 0 .5-.5v-.528a.899.899 0 0 0-.323-.71A5.854 5.854 0 0 0 12 4c-1.704 0-2.997.676-3.694 1.233A.863.863 0 0 0 8 5.917V6.5zm3 4.5a1 1 0 1 1 2 0v2h2a1 1 0 1 1 0 2h-2v2a1 1 0 1 1-2 0v-2H9a1 1 0 1 1 0-2h2v-2z" clip-rule="evenodd"/></svg>