<svg xmlns="http://www.w3.org/2000/svg" viewBox="0 0 24 24"><path d="M19.032 7.5H18.5A.5.5 0 0 1 18 7v-.985a1.89 1.89 0 0 0-.555-1.356A7.794 7.794 0 0 0 12 2.5a7.718 7.718 0 0 0-5.543 2.227A1.808 1.808 0 0 0 6 5.955V7a.5.5 0 0 1-.5.5h-.532A2.027 2.027 0 0 0 3 9.583V18.5a3.226 3.226 0 0 0 3 3h12a3.226 3.226 0 0 0 3-3V9.583A2.028 2.028 0 0 0 19.032 7.5zM15 15.5h-2v2a1 1 0 0 1-2 0v-2H9a1 1 0 0 1 0-2h2v-2a1 1 0 0 1 2 0v2h2a1 1 0 0 1 0 2zM16 7a.5.5 0 0 1-.5.5h-7A.5.5 0 0 1 8 7v-.583a.863.863 0 0 1 .306-.684A6 6 0 0 1 12 4.5a5.854 5.854 0 0 1 3.677 1.262.9.9 0 0 1 .323.71z"/></svg>