<svg xmlns="http://www.w3.org/2000/svg" width="24" height="24" viewBox="0 0 24 24"><path d="M2 18h20c0 1.105-1.895 2-3 2H5c-1.105 0-3-.895-3-2zM22 6.952v2.873a4.165 4.165 0 0 1-4 4.157v.104a2.913 2.913 0 0 1-2.913 2.913H8.913A2.913 2.913 0 0 1 6 14.086V4h12v1h2.048C21.126 5 22 5.874 22 6.952zm-6.156.799l-.689-.632a.443.443 0 0 0-.646.045l-3.659 4.378a.178.178 0 0 1-.259.018l-1.234-1.096a.443.443 0 0 0-.646.047l-.6.725a.496.496 0 0 0 .045.677l2.06 1.85a.882.882 0 0 0 1.289-.092l4.38-5.243a.495.495 0 0 0-.041-.677zM20 7h-2v4.993a2.177 2.177 0 0 0 2-2.168V7z"/></svg>