<svg xmlns="http://www.w3.org/2000/svg" viewBox="0 0 24 24"><path fill-rule="evenodd" d="M2 4a1 1 0 0 0-1 1v10a3 3 0 0 0 3 3h9.518c.269 0 .486-.214.526-.48C14.279 15.954 15.379 15 17 15c1.532 0 2.59 1.085 2.924 2.565a.543.543 0 0 0 .518.435h1.826C23 18 23 16.5 23 15.5s0-2.5-1-4c-.86-1.29-2.458-2.21-3.525-2.442-.297-.065-.585-.196-.775-.432l-2.311-2.88C14.443 4.502 13.533 4 12.015 4h-1.553c-.366 0-.888.36-.888 1s.522 1 .888 1h1.56c1.11 0 1.622 0 2.072.603l.767 1.01c.961.887.11 2.384-.511 2.387h-3.4a2 2 0 0 1-1.868-1.286L7.92 5.671C7.765 4.707 6.963 4 6.023 4H2zm15 16a2 2 0 1 0-.001-4.001A2 2 0 0 0 17 20z" clip-rule="evenodd"/></svg>