<svg xmlns="http://www.w3.org/2000/svg" viewBox="0 0 24 24"><path d="M6.09 14.835a.893.893 0 0 0 .397.578l2.7 1.715c.515.327.813.811.813 1.32v2.747c0 .815-.753 1.519-1.803 1.683l-1.27.115a1.667 1.667 0 0 1-1.519-.692C3.237 19.235 2 15.73 2 12.001 2 8.27 3.237 4.764 5.41 1.698a1.666 1.666 0 0 1 1.515-.691l1.272.113C9.247 1.285 10 1.99 10 2.805v2.746c0 .51-.298.994-.813 1.322l-2.7 1.714a.892.892 0 0 0-.397.577 14.425 14.425 0 0 0-.285 2.837c0 .964.1 1.91.285 2.834z"/><path d="M14.164 8.32a1.037 1.037 0 0 1-.05 1.413L12.817 11h8.233c.524 0 .95.448.95 1s-.425 1-.95 1h-8.233l1.297 1.267c.385.376.407 1.009.05 1.414a.918.918 0 0 1-1.343.052l-3.089-3.018a1 1 0 0 1 0-1.43l3.089-3.018a.918.918 0 0 1 1.343.053z"/></svg>