<svg xmlns="http://www.w3.org/2000/svg" viewBox="0 0 24 24"><path d="M17 4.5a1 1 0 1 0-1-1 1 1 0 0 0 1 1zM15 6a1.5 1.5 0 1 1-1.5-1.5A1.5 1.5 0 0 1 15 6zm4 3.5a2 2 0 1 0-2-2 2 2 0 0 0 2 2zm5 6.61v1c0 1 0 2.5-1 2.5h-.501a.559.559 0 0 1-.534-.5 2.89 2.89 0 0 0-2.97-2.5 2.872 2.872 0 0 0-2.97 2.5c-.036.274-.256.39-.532.39H8.72a.771.771 0 0 1-.807-.618 2.896 2.896 0 0 0-2.93-2.272 2.873 2.873 0 0 0-2.962 2.457.624.624 0 0 1-.584.541h-.03a.541.541 0 0 1-.09-.002c-.985.003-1.244-1.625-1.312-2.482a1.716 1.716 0 0 1 .225-.966l1.658-2.997A1.297 1.297 0 0 1 3 12.5h11c1 0 .88-.79.194-1.288a6.749 6.749 0 0 0-1.596-.924 8.646 8.646 0 0 0-3.061-.504 14.726 14.726 0 0 0-3.226.386c-1.39.31-3.24.884-4.401 1.284a.547.547 0 0 1-.69-.377l-.003-.012a.626.626 0 0 1 .334-.781 31.455 31.455 0 0 1 4.52-1.406A15.214 15.214 0 0 1 9.393 8.5h.1a10.034 10.034 0 0 1 3.498.543 16.858 16.858 0 0 1 4.05 2.904 1.13 1.13 0 0 0 .668.287 12.66 12.66 0 0 1 4.79 1.376 2.75 2.75 0 0 1 1.5 2.5z"/><path d="M6.986 19.5a2 2 0 0 1-2 2h-.002a2 2 0 1 1 2.002-2.002zm12.01 2a2 2 0 1 0-2-2 2 2 0 0 0 2 2z"/></svg>