<svg xmlns="http://www.w3.org/2000/svg" viewBox="0 0 24 24"><path fill-rule="evenodd" d="M12.868 21.76C15.124 20.426 21 16.423 21 10.946V4.777a1.01 1.01 0 0 0-.684-.959l-2.624-.884a17.822 17.822 0 0 0-11.384 0l-2.624.884A1.01 1.01 0 0 0 3 4.777v6.17c0 5.477 5.876 9.479 8.132 10.813.54.32 1.196.32 1.736 0zM8.608 7.147l.931-1.862c.19-.38.732-.38.922 0l.931 1.862c.1.2.261.361.46.461l1.863.931c.38.19.38.732 0 .922l-1.862.931c-.2.1-.361.261-.461.46l-.931 1.863a.515.515 0 0 1-.922 0l-.931-1.862a1.03 1.03 0 0 0-.46-.461l-1.863-.931a.515.515 0 0 1 0-.922l1.862-.931c.2-.1.361-.261.461-.46zm6.298 4.22l-.315.63a1.328 1.328 0 0 1-.594.594l-.63.315a.664.664 0 0 0 0 1.188l.63.315c.257.128.466.337.594.594l.315.63c.245.49.943.49 1.188 0l.315-.63c.129-.257.337-.466.594-.594l.63-.315a.664.664 0 0 0 0-1.188l-.63-.315a1.328 1.328 0 0 1-.594-.594l-.315-.63a.664.664 0 0 0-1.188 0z" clip-rule="evenodd"/></svg>