<svg xmlns="http://www.w3.org/2000/svg" viewBox="0 0 24 24"><path d="M22.505 10.062A.616.616 0 0 0 23 9.5V7a3 3 0 0 0-3-3H4a3 3 0 0 0-3 3v2.5a.616.616 0 0 0 .495.562 2 2 0 0 1 0 3.876A.615.615 0 0 0 1 14.5V17a3 3 0 0 0 3 3h16a3 3 0 0 0 3-3v-2.5a.615.615 0 0 0-.495-.562 2 2 0 0 1 0-3.876zm-5.627 1.125L14.5 13.5l.715 3.041a.358.358 0 0 1-.526.405L12 15.5l-2.689 1.446a.359.359 0 0 1-.527-.405L9.5 13.5l-2.377-2.313a.374.374 0 0 1 .206-.65L10.5 10l1.173-2.771a.348.348 0 0 1 .654 0L13.5 10l3.172.537a.375.375 0 0 1 .206.65z"/></svg>