<svg xmlns="http://www.w3.org/2000/svg" viewBox="0 0 24 24"><path d="M3.382 1.312A.695.695 0 0 0 3 1.98v2.534C3 5.5 4 6 5 6s2-.5 2-1.486V2a.73.73 0 0 0-.405-.689A3.961 3.961 0 0 0 5 1.001a4.077 4.077 0 0 0-1.618.311zM12.002 7a2.467 2.467 0 0 0-.96.182.433.433 0 0 0-.24.418v1.508c0 .592.6.892 1.2.892s1.2-.3 1.2-.892V7.6a.436.436 0 0 0-.244-.413A2.377 2.377 0 0 0 12 7zm3 5.302v3.921a1.493 1.493 0 0 1-.254.85c-.066.092-.14.184-.214.277a1.797 1.797 0 0 0-.477.88l-.408 3.875a1 1 0 0 1-.994.895H11.42a1 1 0 0 1-.995-.895l-.408-3.875a1.785 1.785 0 0 0-.563-.943q-.08-.086-.157-.175A1.232 1.232 0 0 1 9 16.3v-3.922a.92.92 0 0 1 .536-.856 6.28 6.28 0 0 1 2.5-.523 6.198 6.198 0 0 1 2.428.45.906.906 0 0 1 .536.852zM2.266 7.828A.741.741 0 0 0 2 8.432v6.154a1 1 0 0 0 .293.707l.254.254a2 2 0 0 1 .558 1.085l.825 5.95a.5.5 0 0 0 .494.418h1.152a.5.5 0 0 0 .494-.418l.825-5.95a2 2 0 0 1 .558-1.085l.254-.254A1 1 0 0 0 8 14.586v-6.09a.833.833 0 0 0-.33-.693A4.595 4.595 0 0 0 5.002 7a4.644 4.644 0 0 0-2.736.828zm14 0a.738.738 0 0 0-.265.604v5.154a1 1 0 0 0 .293.707l.329.33a1 1 0 0 1 .273.902l-.775 4.877a.5.5 0 0 0 .49.598h1.057l.194 1.164c.08.483.15.836.639.836h1c.488 0 .558-.353.64-.836L20.332 21h1.057a.5.5 0 0 0 .49-.598l-.776-4.877a1 1 0 0 1 .273-.903l.33-.33a1 1 0 0 0 .292-.706v-5.09a.835.835 0 0 0-.328-.693A4.592 4.592 0 0 0 19.002 7a4.644 4.644 0 0 0-2.736.828zM19.72 1.45a1.49 1.49 0 0 0-2.522.713 5.638 5.638 0 0 0-.18 1.696 2.009 2.009 0 0 1-.413 1.46c-.11.096-.156.275-.026.34A4.47 4.47 0 0 0 18.37 6h1.262a4.505 4.505 0 0 0 1.79-.34c.13-.066.084-.245-.026-.34a2.013 2.013 0 0 1-.413-1.46 4.74 4.74 0 0 1 .044-.594 2.249 2.249 0 0 0-.044-1.005c-.252-.875-.72-.98-1.261-.81z"/></svg>