<svg xmlns="http://www.w3.org/2000/svg" viewBox="0 0 24 24"><path d="M11.562 2.448a1 1 0 0 1-.803 1.164 8.003 8.003 0 0 0-6.55 7.87 6.495 6.495 0 0 1-.485 2.465 1 1 0 0 1-1.864-.724l.014-.035a4.489 4.489 0 0 0 .334-1.707 10.002 10.002 0 0 1 8.19-9.836 1 1 0 0 1 1.164.803zm2.051.086a1 1 0 0 1 1.227-.703h.001a10.004 10.004 0 0 1 7.367 9.65v.5a24.56 24.56 0 0 1-.674 5.733 1 1 0 1 1-1.945-.466 22.56 22.56 0 0 0 .62-5.267v-.5a8.004 8.004 0 0 0-5.894-7.72 1 1 0 0 1-.702-1.227zm-1.405 4.447a4.502 4.502 0 0 0-4.193 2.864 1 1 0 1 1-1.863-.728 6.502 6.502 0 0 1 12.113 0 1 1 0 0 1-1.863.728 4.502 4.502 0 0 0-4.194-2.864zm0 3.5a1 1 0 0 0-1 1v.5a13.462 13.462 0 0 1-.807 4.607 13.468 13.468 0 0 1-2.32 4.033 1 1 0 0 1-1.536-1.28 11.542 11.542 0 0 0 1.976-3.435 11.461 11.461 0 0 0 .687-3.925v-.5a3 3 0 0 1 6 0v.5a17.416 17.416 0 0 1-3.128 9.987 1 1 0 0 1-1.64-1.143 15.414 15.414 0 0 0 2.77-8.844v-.5a1 1 0 0 0-1-1zm-5.5 2.022a1 1 0 0 1 .754 1.196 9.973 9.973 0 0 1-2.207 4.345 1 1 0 1 1-1.509-1.314 7.973 7.973 0 0 0 1.766-3.473 1 1 0 0 1 1.196-.754zm11.02-.022a1 1 0 0 1 .922 1.071 20.89 20.89 0 0 1-2.214 7.94 1 1 0 1 1-1.783-.907 18.894 18.894 0 0 0 2.003-7.18 1 1 0 0 1 1.07-.924z"/></svg>