<svg xmlns="http://www.w3.org/2000/svg" viewBox="0 0 24 24"><path d="M9.413 8.483L8.224 7.144a.472.472 0 0 1 .236-.764l1.261-.346a.94.94 0 0 1 .543.013l3.063 1.01c.438.146.413.773-.036.896l-2.935.806a.93.93 0 0 1-.943-.276z"/><path d="M2.34 9.001a.936.936 0 0 0-.695-.076l-.295.082a.472.472 0 0 0-.234.764l2.528 2.845c.705.794 1.95 1.314 3 1.028l4.22-1.16a.46.46 0 0 1 .587.467l-.323 6.565c-.015.316.28.55.587.467l1.15-.316a.958.958 0 0 0 .659-.635l2.785-7.626c.106-.29.523-.56.822-.642l5.235-1.437c.502-.138.82-.674.514-1.087-.804-1.082-2.454-1.28-3.946-.87L7.028 10.639a2.81 2.81 0 0 1-2.075-.23L2.339 9z"/></svg>