<svg xmlns="http://www.w3.org/2000/svg" viewBox="0 0 24 24"><path fill-rule="evenodd" d="M19.616 3.046a5.995 5.995 0 0 0-2.536 1.547l-8.188 8.373a3.384 3.384 0 0 0-.403.498L7.202 14.65a.903.903 0 0 1-.594.24l-2.579.049a.913.913 0 0 0-.977.617c-.156.453.05.95.473 1.155l2.56 1.012a.91.91 0 0 1 .492.468l1.038 2.27a.905.905 0 0 0 1.16.474h.001a.934.934 0 0 0 .574-.987l-.114-2.36a.918.918 0 0 1 .282-.709l1.173-1.121c.195-.13.377-.28.54-.447l1.27-1.298.609.621 2.886 6.062a.452.452 0 0 0 .732.123l.504-.516a1.883 1.883 0 0 0 .487-1.728l-1.582-7.085a1.838 1.838 0 0 1 .478-1.685l2.887-2.952a6.154 6.154 0 0 0 1.411-2.28l.021-.059c.3-.853-.469-1.728-1.318-1.469z" clip-rule="evenodd"/><path fill-rule="evenodd" d="M12.031 8.219a.458.458 0 0 0-.258-.765L5.517 6.067a1.792 1.792 0 0 0-1.69.498l-.519.53a.46.46 0 0 0 .12.73l5.644 3.073c.358.18.56-.104.833-.399l2.126-2.28z" clip-rule="evenodd"/></svg>