<svg xmlns="http://www.w3.org/2000/svg" viewBox="0 0 24 24"><path d="M9.882 7.852L9.49 5.986a.498.498 0 0 1 .623-.575l1.353.357a1.004 1.004 0 0 1 .496.303l2.303 2.567a.494.494 0 0 1-.508.802l-3.147-.83a1 1 0 0 1-.728-.758z"/><path d="M3.05 4.542a1.01 1.01 0 0 0-.602-.441l-.316-.083a.498.498 0 0 0-.622.576l.835 3.965a3.413 3.413 0 0 0 2.236 2.55l4.526 1.194a.492.492 0 0 1 .297.742l-3.78 5.854a.492.492 0 0 0 .297.742l1.233.326a1.02 1.02 0 0 0 .948-.23l6.623-5.51a1.424 1.424 0 0 1 1.102-.15l5.615 1.48c.538.143 1.117-.18 1.052-.721-.172-1.424-1.596-2.49-3.196-2.911l-12.77-3.37a3.031 3.031 0 0 1-1.8-1.322L3.05 4.543z"/><path d="M15.913 18.189a1.51 1.51 0 0 0 1.85-1.045 1.484 1.484 0 0 0-1.072-1.817 1.51 1.51 0 0 0-1.85 1.045 1.484 1.484 0 0 0 1.072 1.817z"/></svg>