<svg xmlns="http://www.w3.org/2000/svg" viewBox="0 0 24 24"><path d="M10.384 7.851l-.392-1.866a.498.498 0 0 1 .623-.575l1.353.357c.192.05.365.156.496.303l2.303 2.567c.33.367-.026.93-.508.802l-3.147-.83a1 1 0 0 1-.728-.758z"/><path d="M3.552 4.541A1.01 1.01 0 0 0 2.95 4.1l-.316-.083a.498.498 0 0 0-.622.576l.835 3.965c.233 1.106 1.11 2.25 2.236 2.55l4.526 1.194c.329.086.478.46.297.742l-3.78 5.854a.492.492 0 0 0 .297.742l1.233.326c.335.089.694.002.948-.23l6.623-5.51c.252-.21.782-.235 1.102-.15l5.615 1.481c.538.142 1.117-.18 1.052-.722-.172-1.424-1.596-2.49-3.196-2.911L7.03 8.554a3.031 3.031 0 0 1-1.8-1.322l-1.678-2.69z"/><path d="M16.415 18.188c.807.213 1.635-.255 1.85-1.045.215-.79-.265-1.604-1.072-1.817-.807-.213-1.635.255-1.85 1.045-.215.79.265 1.604 1.072 1.817z"/></svg>