<svg xmlns="http://www.w3.org/2000/svg" viewBox="0 0 24 24"><path d="M12.02 2a5.794 5.794 0 0 0-4.847 2.1A5.913 5.913 0 0 0 6 7.644a1 1 0 1 0 2 0 3.916 3.916 0 0 1 .756-2.32A3.814 3.814 0 0 1 12.02 4a3.663 3.663 0 0 1 3.773 2.432 3.844 3.844 0 0 1-.895 3.967 10.544 10.544 0 0 1-.88.704l-.099.074a12.256 12.256 0 0 0-1.27 1.056A5.085 5.085 0 0 0 11 16v1a1 1 0 0 0 2 0v-1a3.09 3.09 0 0 1 1.05-2.34 10.237 10.237 0 0 1 1.068-.883l.111-.083a11.943 11.943 0 0 0 1.043-.843 5.84 5.84 0 0 0 1.414-6.063A5.653 5.653 0 0 0 12.02 2zM13 21a1 1 0 1 1-1-1 1 1 0 0 1 1 1z"/></svg>