<svg xmlns="http://www.w3.org/2000/svg" width="24" height="24" viewBox="0 0 24 24"><path d="M12 2C6.477 2 2 6.477 2 12s4.477 10 10 10 10-4.477 10-10S17.523 2 12 2zm1.205 15.316a.5.5 0 0 1-.5.5h-1.336a.5.5 0 0 1-.5-.5v-1.258a.5.5 0 0 1 .5-.5h1.336a.5.5 0 0 1 .5.5v1.258zm2.228-6.078c-.198.281-.577.641-1.138 1.078l-.553.43c-.301.234-.501.508-.6.82-.062.198-.097.505-.102.922h-1.59a.506.506 0 0 1-.499-.547c.042-.59.116-1.016.22-1.278.135-.336.483-.723 1.044-1.16l.569-.445c.187-.141.337-.294.452-.461.208-.286.312-.602.312-.945 0-.396-.116-.756-.347-1.082-.231-.325-.653-.488-1.267-.488-.603 0-1.03.201-1.282.602a2.439 2.439 0 0 0-.343.859.487.487 0 0 1-.484.391h-1.26c-.294 0-.539-.256-.501-.547.156-1.199.659-2.069 1.509-2.61.614-.396 1.37-.594 2.266-.594 1.177 0 2.155.281 2.934.844.778.562 1.168 1.396 1.168 2.5-.001.678-.17 1.248-.508 1.711z"/></svg>