<svg xmlns="http://www.w3.org/2000/svg" viewBox="0 0 24 24"><path d="M4.608 5.93C4.245 6.085 4 6.52 4 7.013V10a1 1 0 0 0 1 1h1a1 1 0 0 0 1-1V9a1 1 0 0 1 1-1h2a1 1 0 0 1 1 1v1.2a.8.8 0 0 0 .8.8h.4a.8.8 0 0 0 .8-.8V9a1 1 0 0 1 1-1h2a1 1 0 0 1 1 1v1a1 1 0 0 0 1 1h.999a1 1 0 0 0 1-1.001L19.997 9H20V7.013c0-.492-.245-.928-.608-1.083l-1.77-.758c-3.65-1.563-7.595-1.563-11.244 0l-1.77.758zM3 12a1 1 0 0 0-1 1v6a1 1 0 0 0 1 1h.28a1 1 0 0 0 .948-.684L5 17h14l.772 2.316a1 1 0 0 0 .949.684H21a1 1 0 0 0 1-1v-6a1 1 0 0 0-1-1H3z"/></svg>