<svg xmlns="http://www.w3.org/2000/svg" viewBox="0 0 24 24"><path d="M12 10c-.345 0-.621.09-.8.182-.136.07-.2.24-.2.418v1.508c0 .592.5.892 1 .892s1-.3 1-.892V10.6c0-.175-.07-.343-.203-.413A1.701 1.701 0 0 0 12 10zm3.108 3.426a.522.522 0 0 1 .74 0 .527.527 0 0 1 0 .742l-1.173 1.176a3.539 3.539 0 0 0-1.021 2.212l-.286 3.525a1 1 0 0 1-.997.919h-.742a1 1 0 0 1-.996-.919l-.287-3.525a3.539 3.539 0 0 0-1.02-2.212l-1.173-1.176a.527.527 0 0 1 0-.742.522.522 0 0 1 .739 0l1.542 1.547c.416.417.979.527 1.566.527.587 0 1.15-.11 1.566-.527l1.542-1.547z"/></svg>