<svg xmlns="http://www.w3.org/2000/svg" viewBox="0 0 24 24"><path fill-rule="evenodd" d="M21 10.823c0 5.419-5.876 9.378-8.132 10.698a1.706 1.706 0 0 1-1.736 0C8.876 20.201 3 16.242 3 10.823V4.721a1 1 0 0 1 .684-.949l2.624-.875a17.999 17.999 0 0 1 11.384 0l2.624.875a1 1 0 0 1 .684.949v6.102zm-9-5.85c0-.552.448-1.003 1-.968a16.03 16.03 0 0 1 4.06.79l1.256.419a1 1 0 0 1 .684.948v4.661c0 2.455-1.68 4.74-3.812 6.594a22.374 22.374 0 0 1-2.837 2.08A.23.23 0 0 1 12 19.3V4.974z" clip-rule="evenodd"/></svg>