<svg xmlns="http://www.w3.org/2000/svg" viewBox="0 0 24 24"><path d="M8 3a1 1 0 0 0-1 1v8c0 2 1 4 3.5 4H13c1 0 1.699.393 2 1l1.35 3.506a.885.885 0 0 0 .768.494h3.047c.552 0 1.02-.473.762-.961a1.987 1.987 0 0 0-1.754-1.064.402.402 0 0 1-.356-.216L16.5 14.306c-.3-.576-.784-.988-1.344-1.145l-2.989-.838a1 1 0 0 1-.724-.855l-.697-6.454C10.536 3.841 9.653 3 8.628 3H8z"/><path d="M6 6a1 1 0 0 0-2 0v5.636c0 1.876.267 3.726 1.249 5.122C6.284 18.227 7.968 19 10.333 19H13a1 1 0 1 0 0-2h-2.667c-1.9 0-2.884-.592-3.449-1.394C6.267 14.73 6 13.397 6 11.636V6z"/></svg>