<svg xmlns="http://www.w3.org/2000/svg" viewBox="0 0 24 24"><path d="M3 7c.005-.486.279-.916.684-1.07l1.991-.758a17.655 17.655 0 0 1 12.65 0l1.991.758c.405.154.68.584.684 1.07v2.541c0 .318-.293.554-.608.514a7.286 7.286 0 0 0-3.738.525l-.775.325c-.623.261-.879.885-.879 1.386v.209a.5.5 0 0 1-.5.5h-5a.5.5 0 0 1-.5-.5v-.209c0-.501-.255-1.125-.88-1.386l-.774-.325a7.286 7.286 0 0 0-3.738-.524C3.293 10.095 3 9.859 3 9.54V7z"/><path d="M1.266 11.827c-.159.067-.266.254-.266.464V16a3 3 0 0 0 3 3h16a3 3 0 0 0 3-3v-3.709c0-.21-.107-.397-.266-.464l-.775-.325a6.274 6.274 0 0 0-4.918 0l-.775.325c-.159.067-.266.254-.266.464V13a1 1 0 0 1-1 1H9a1 1 0 0 1-1-1v-.709c0-.21-.107-.397-.266-.464l-.774-.325a6.274 6.274 0 0 0-4.92 0l-.774.325z"/></svg>