<svg xmlns="http://www.w3.org/2000/svg" viewBox="0 0 24 24"><path fill-rule="evenodd" d="M3.403 4.941L9.23 3.092a1.973 1.973 0 0 1 1.491.122l2.948 1.497a.987.987 0 0 0 .69.077l6.399-1.624A1.004 1.004 0 0 1 22 4.148v13.358c0 .932-.625 1.744-1.515 1.97l-5.767 1.463a1.973 1.973 0 0 1-1.38-.153l-3.007-1.527a.986.986 0 0 0-.69-.077l-6.398 1.624A1.004 1.004 0 0 1 2 19.821V6.88c0-.888.568-1.673 1.403-1.938zm7.32.305A.5.5 0 0 0 10 5.7v11.047a.51.51 0 0 0 .276.454l3 1.523A.5.5 0 0 0 14 18.27V7.223a.508.508 0 0 0-.276-.454l-3-1.523z" clip-rule="evenodd"/></svg>