<svg xmlns="http://www.w3.org/2000/svg" viewBox="0 0 24 24"><path fill-rule="evenodd" d="M12.332 3.417c1.983-1.89 5.178-1.89 7.16 0a4.766 4.766 0 0 1 0 6.956l-7.226 6.886a3.116 3.116 0 0 1-4.27 0 2.883 2.883 0 0 1 0-4.203l4.336-4.13a1 1 0 0 1 1.38 1.447l-4.336 4.131a.884.884 0 0 0 0 1.307 1.116 1.116 0 0 0 1.51 0l7.227-6.886c1.183-1.127 1.183-2.933 0-4.06-1.21-1.153-3.191-1.153-4.401 0L6.486 11.75c-1.981 1.888-1.981 4.927 0 6.815 2.008 1.913 5.283 1.913 7.291 0l4.336-4.131a1 1 0 1 1 1.38 1.448l-4.336 4.13c-2.78 2.65-7.27 2.65-10.051 0-2.808-2.675-2.808-7.034 0-9.71l7.226-6.885z" clip-rule="evenodd"/></svg>