<svg xmlns="http://www.w3.org/2000/svg" viewBox="0 0 24 24"><path d="M20.224 5.755l-2.526-3.19a3.368 3.368 0 0 0-3.922-.739l-.673.323a1.024 1.024 0 0 0-.488 1.4 1.112 1.112 0 0 0 1.462.467l.674-.323a1.123 1.123 0 0 1 1.307.247l1.23 1.555H6.712l1.23-1.555a1.123 1.123 0 0 1 1.308-.247l.673.323a1.112 1.112 0 0 0 1.462-.468 1.023 1.023 0 0 0-.488-1.4l-.673-.323a3.37 3.37 0 0 0-3.922.74l-2.526 3.19A3 3 0 0 0 2 8.495v2a3.998 3.998 0 0 0 2 3.465v.991a7.26 7.26 0 0 0 5 7.044 9.079 9.079 0 0 0 6 0 7.26 7.26 0 0 0 5-7.044v-.99a4 4 0 0 0 2-3.466v-2a3 3 0 0 0-1.776-2.74zM20 10.495a2 2 0 0 1-2 2h-3.543l-.732-.925a2.2 2.2 0 0 0-3.45 0l-.732.925H6a2 2 0 0 1-2-2v-2a1 1 0 0 1 1-1h14a1 1 0 0 1 1 1z"/></svg>