<svg viewBox="0 0 24 24" xmlns="http://www.w3.org/2000/svg"><path d="m17.0789 3.00963c2.161 0 3.9127 1.75178 3.9127 3.91271v4.47596c0 .7956-.316 1.5587-.8786 2.1213l-6.6313 6.6313c-1.1716 1.1716-3.0711 1.1716-4.24266 0l-5.38865-5.3887c-1.17157-1.1715-1.17157-3.071 0-4.2426l6.63131-6.63129c.5626-.56261 1.3257-.87868 2.1213-.87868zm-1.4751 5.38948c-.5858-.58578-.5858-1.53553 0-2.12132.5858-.58578 1.5356-.58578 2.1214 0 .5857.58579.5857 1.53554 0 2.12132-.5858.58579-1.5356.58579-2.1214 0z" fill-rule="evenodd"/></svg>