<svg xmlns="http://www.w3.org/2000/svg" viewBox="0 0 24 24"><path d="M15.776 4.144l-1.189 1.34a.93.93 0 0 1-.942.275l-2.935-.806c-.45-.123-.475-.75-.036-.895l3.062-1.011a.94.94 0 0 1 .544-.013l1.26.346a.472.472 0 0 1 .236.764z"/><path d="M22.356 5.925a.936.936 0 0 0-.695.076l-2.613 1.407a2.808 2.808 0 0 1-2.075.231L5.067 4.369c-1.492-.409-3.142-.21-3.946.871-.306.413.012.949.514 1.087L6.87 7.764c.298.082.715.352.821.643l2.786 5.625c.097.309.346.55.66.635l1.149.316a.461.461 0 0 0 .587-.467l-.323-4.565a.46.46 0 0 1 .586-.466l4.22 1.159c1.05.286 2.295-.234 3-1.028l2.529-2.845a.472.472 0 0 0-.235-.764l-.294-.082zM4.293 14.293l-3 2.995a1 1 0 0 0-.084 1.32l.083.094 3 3.006a1 1 0 0 0 1.499-1.32l-.083-.094-1.291-1.293h8.584a1 1 0 0 0 .993-.883L14 18a1 1 0 0 0-.884-.993L13.001 17H4.41l1.297-1.294a1 1 0 0 0 .084-1.32l-.084-.094a1 1 0 0 0-1.32-.084l-.094.084z"/></svg>