<svg xmlns="http://www.w3.org/2000/svg" viewBox="0 0 24 24"><path d="M3.382 1.312c-.26.114-.382.385-.382.668v2.534C3 5.5 4 6 5 6s2-.5 2-1.486V2c0-.292-.139-.571-.405-.689A3.961 3.961 0 0 0 5 1c-.703 0-1.262.155-1.618.312zm5.204 7.274c.228-.228.44-.545.258-.81a.76.76 0 0 0-.391-.298C7.444 7.144 5.94 7 5.036 7c-.907 0-2.463.198-3.488.55C1.2 7.67 1 8.013 1 8.38v5.92c0 .402.62.749 1.191.964.428.16.77.533.805.989l.45 5.823a1 1 0 0 0 .997.923h1.184a1 1 0 0 0 .997-.923L7.1 16.43a1 1 0 0 0-.29-.79l-1.225-1.226a2 2 0 0 1 0-2.828l3-3zm9.828 5.828L17.24 15.59a1 1 0 0 0-.29.793l.496 5.695a1 1 0 0 0 .997.923h1.184a1 1 0 0 0 .997-.923l.45-5.823c.036-.456.378-.832.797-1.014C22.418 15 23 14.623 23 14.223V8.301c0-.366-.2-.708-.548-.823C21.443 7.144 19.94 7 19.035 7c-.907 0-2.462.198-3.488.55a.768.768 0 0 0-.35.248c-.198.244-.005.565.217.788l3 3a2 2 0 0 1 0 2.828zM17 1.98c0-.283.123-.554.382-.668A4.083 4.083 0 0 1 19 1c.702 0 1.239.155 1.595.311.267.118.405.397.405.689v2.514C21 5.5 20 6 19 6s-2-.5-2-1.486V1.98z"/><path d="M10.707 16.707a1 1 0 0 1-1.414 0l-3-3a1 1 0 0 1 0-1.414l3-3a1 1 0 0 1 1.414 1.414L9.414 12h5.172l-1.293-1.293a1 1 0 0 1 1.414-1.414l3 3a1 1 0 0 1 0 1.414l-3 3a1 1 0 0 1-1.414-1.414L14.586 14H9.414l1.293 1.293a1 1 0 0 1 0 1.414z"/></svg>