<svg xmlns="http://www.w3.org/2000/svg" viewBox="0 0 24 24"><path d="M15.707 2.292l4 3.996a1 1 0 0 1 .083 1.32l-.083.094-4 4.006a1 1 0 0 1-1.498-1.32l.084-.095 2.29-2.292H6a1 1 0 0 1-.993-.884L5 7a1 1 0 0 1 .883-.993L6 6h10.59l-2.296-2.293a1 1 0 0 1-.084-1.32l.083-.095a1 1 0 0 1 1.32-.084zm2.283 14.591l.007.117a1 1 0 0 1-.883.993l-.117.007H7.413l2.293 2.293a1 1 0 0 1 .084 1.32l-.083.094a1 1 0 0 1-1.32.084l-.094-.084-4-3.996a1 1 0 0 1-.084-1.32l.083-.093 4-4.004a1 1 0 0 1 1.498 1.32l-.083.093L7.417 16h9.58a1 1 0 0 1 .994.884z"/></svg>