<svg xmlns="http://www.w3.org/2000/svg" viewBox="0 0 24 24"><path d="M5 3a1 1 0 0 0-1 1v.5a.5.5 0 0 1-.5.5H2c-.416 0-1 0-1 1s.584 1 1 1h9c1.263 0 2 0 2.5.5l1.248 2.575c.547 1.093-.042 1.922-.748 1.925H1a1 1 0 0 0-1 1l.002 2.872s0 2.59 1.505 3.056c.263.082.489-.153.526-.427C2.261 16.834 3.63 16 5 16s2.74.834 2.967 2.501c.037.274.257.499.533.499h7a.538.538 0 0 0 .522-.5c.156-1.667 1.13-2.5 2.978-2.5 1.741 0 2.804.834 2.975 2.5.029.275.249.5.525.5h.5c.787-.272 1.035-1.824.988-2.933.047-1.076 0-3.277-1.046-3.807-1.547-.783-2.886-.973-3.898-1.057a1.014 1.014 0 0 1-.745-.422l-2.95-4.168C14.273 5.253 13.226 5 11.5 5a.5.5 0 0 1-.5-.5V4a1 1 0 0 0-1-1H5z"/><path d="M21 19a2 2 0 1 1-4.001-.001A2 2 0 0 1 21 19zM5 21a2 2 0 1 0-.001-4.001A2 2 0 0 0 5 21z"/></svg>