<svg xmlns="http://www.w3.org/2000/svg" viewBox="0 0 24 24"><path d="M22.505 10.062A.616.616 0 0 0 23 9.5V7a3 3 0 0 0-3-3H4a3 3 0 0 0-3 3v2.5a.616.616 0 0 0 .495.562 2 2 0 0 1 0 3.876A.615.615 0 0 0 1 14.5V17a3 3 0 0 0 3 3h16a3 3 0 0 0 3-3v-2.5a.615.615 0 0 0-.495-.562 2 2 0 0 1 0-3.876zM9.988 6h.756a.59.59 0 0 1 .506.3l2.173 3.392a.2.2 0 0 1-.169.308h-2.047a.5.5 0 0 1-.477-.349L9.703 6.415A.317.317 0 0 1 9.988 6zm7.658 6.354l-.207.206a1.5 1.5 0 0 1-1.06.44h-1.804a.587.587 0 0 0-.492.276L11.251 17.7a.59.59 0 0 1-.506.3h-.756a.317.317 0 0 1-.285-.415L11 13.5c.06-.206 0-.5-.484-.5H9a.826.826 0 0 0-.791.365l-.223.329-.643 1.119a.734.734 0 0 1-1.026.092A.66.66 0 0 1 6 14.31a.625.625 0 0 1 .04-.255l.971-1.952A.472.472 0 0 0 7.043 12a.466.466 0 0 0-.033-.103l-.97-1.952a.626.626 0 0 1-.039-.255.66.66 0 0 1 .317-.595.734.734 0 0 1 1.026.092l.643 1.118.223.33A.825.825 0 0 0 9 11h7.38a1.5 1.5 0 0 1 1.059.439l.207.207a.5.5 0 0 1 0 .708z"/></svg>