<svg xmlns="http://www.w3.org/2000/svg" viewBox="0 0 24 24"><path d="M12 2C6.477 2 2 6.477 2 12s4.477 10 10 10 10-4.477 10-10S17.523 2 12 2zm4.5 9v1.001a1 1 0 0 1-.999.999H13v3.5a1 1 0 0 1-2 0V13H9.5v3.5a1 1 0 0 1-2 0v-9a1 1 0 0 1 2 0V11H11V7.5a1 1 0 0 1 2 0V11h1.5V7.5a1 1 0 0 1 2 0V11z"/><path d="M12 2C6.477 2 2 6.477 2 12s4.477 10 10 10 10-4.477 10-10S17.523 2 12 2zm4.5 9v1.001a1 1 0 0 1-.999.999H13v3.5a1 1 0 0 1-2 0V13H9.5v3.5a1 1 0 0 1-2 0v-9a1 1 0 0 1 2 0V11H11V7.5a1 1 0 0 1 2 0V11h1.5V7.5a1 1 0 0 1 2 0V11z"/></svg>