<svg xmlns="http://www.w3.org/2000/svg" viewBox="0 0 24 24"><path fill-rule="evenodd" d="M4 11c0-.326.245-.616.608-.719L6 9.885V8.154C6 4.755 8.466 2 12 2c3.18 0 5.495 2.106 5.927 5.003.082.546-.375.997-.927.997s-.987-.451-1.07-.997C15.63 5.025 14.365 4 12 4 9.266 4 8 5.37 8 8v1.389a20.726 20.726 0 0 1 9.622.389l1.77.503c.363.103.608.393.608.719v8c0 1.5-1.5 3-3 3H7c-1.5 0-3-1.5-3-3v-8zm8.322 7C13.25 18 14 17.373 14 16.602v-2.204c0-.341-.147-.655-.392-.898h-3.216a1.263 1.263 0 0 0-.392.898v2.204c0 .771.75 1.398 1.678 1.398h.644z" clip-rule="evenodd"/></svg>