<svg xmlns="http://www.w3.org/2000/svg" viewBox="0 0 24 24"><path d="M14 4a2 2 0 1 0-3.444 1.384c.243.253.444.564.444.914 0 .467-.333.859-.77 1.024a4.935 4.935 0 0 0-.272.113c-.434.194-.957.152-1.293-.185l-.362-.361C8.073 6.659 8 6.324 8 6a2 2 0 1 0-2 2c.324 0 .66.073.889.303l.361.362c.337.336.38.859.185 1.293a4.51 4.51 0 0 0-.107.258c-.17.444-.57.784-1.045.784h-.55a2 2 0 1 0 0 2h.55c.475 0 .875.34 1.045.784.033.087.069.173.107.258.194.434.152.957-.185 1.293l-.361.362c-.23.23-.565.303-.889.303a2 2 0 1 0 2 2c0-.324.073-.66.303-.889l.362-.361c.336-.337.859-.38 1.293-.185.09.04.18.078.272.113.437.165.77.557.77 1.024 0 .35-.201.661-.444.914a2 2 0 1 0 2.887 0c-.242-.253-.443-.564-.443-.914 0-.467.333-.859.77-1.024.092-.035.183-.073.272-.113.434-.194.957-.152 1.293.184l.362.363c.23.229.303.564.303.888a2 2 0 1 0 2-2c-.324 0-.66-.073-.889-.303l-.361-.362c-.337-.336-.38-.859-.185-1.293.04-.09.078-.18.113-.272.165-.437.557-.77 1.024-.77.35 0 .661.201.914.444a2 2 0 1 0 0-2.887c-.253.242-.564.443-.914.443-.467 0-.859-.333-1.024-.77a5.022 5.022 0 0 0-.113-.272c-.194-.434-.152-.957.184-1.293l.363-.362C17.34 8.073 17.675 8 18 8a2 2 0 1 0-2-2c0 .324-.073.66-.303.889l-.362.361c-.336.337-.859.38-1.293.185-.09-.04-.18-.078-.272-.113-.437-.165-.77-.557-.77-1.024 0-.35.201-.661.444-.914.344-.36.556-.847.556-1.384z"/></svg>