<svg xmlns="http://www.w3.org/2000/svg" viewBox="0 0 24 24"><path d="M11.5 1a.5.5 0 0 0-.5.5v2a.5.5 0 0 0 .5.5h1a.5.5 0 0 0 .5-.5v-2a.5.5 0 0 0-.5-.5zm0 19a.5.5 0 0 0-.5.5v2a.5.5 0 0 0 .5.5h1a.5.5 0 0 0 .5-.5v-2a.5.5 0 0 0-.5-.5zM1 12.5a.5.5 0 0 0 .5.5h2a.5.5 0 0 0 .5-.5v-1a.5.5 0 0 0-.5-.5h-2a.5.5 0 0 0-.5.5zm19 0a.5.5 0 0 0 .5.5h2a.5.5 0 0 0 .5-.5v-1a.5.5 0 0 0-.5-.5h-2a.5.5 0 0 0-.5.5zM4.99 20.425a.5.5 0 0 1-.707 0h-.001l-.707-.707a.5.5 0 0 1 0-.707v-.001l1.415-1.414a.5.5 0 0 1 .707 0l.707.707a.5.5 0 0 1 0 .707zM19.01 6.404a.5.5 0 0 1-.707 0l-.707-.707a.5.5 0 0 1 0-.707l1.414-1.415a.5.5 0 0 1 .707 0l.708.707a.5.5 0 0 1 0 .707v.001zm1.415 13.314a.5.5 0 0 0 0-.707l-1.415-1.415a.5.5 0 0 0-.707 0l-.707.707a.5.5 0 0 0 0 .707l1.414 1.415a.5.5 0 0 0 .707 0zM6.404 5.697a.5.5 0 0 0 0-.707L4.99 3.575a.5.5 0 0 0-.707 0l-.708.707a.5.5 0 0 0 0 .707v.001L4.99 6.404a.5.5 0 0 0 .707 0zM12 18a6 6 0 1 0-6-6 6 6 0 0 0 6 6z"/></svg>