<svg xmlns="http://www.w3.org/2000/svg" viewBox="0 0 24 24"><path d="M13 3a1 1 0 0 0-2 0v3.296L8.659 4.247a1 1 0 0 0-1.317 1.506L11 8.953V11H8.954L5.753 7.341a1 1 0 1 0-1.506 1.317L6.297 11H3a1 1 0 0 0 0 2h3.296l-2.049 2.341a1 1 0 1 0 1.506 1.318L8.953 13H11v2.046l-3.659 3.201a1 1 0 1 0 1.317 1.506L11 17.703V21a1 1 0 0 0 2 0v-3.296l2.341 2.049a1 1 0 1 0 1.318-1.506L13 15.047V13h2.046l3.201 3.659a1 1 0 0 0 1.506-1.317L17.703 13H21a1 1 0 0 0 0-2h-3.296l2.049-2.342a1 1 0 0 0-1.506-1.317L15.047 11H13V8.954l3.659-3.201a1 1 0 0 0-1.317-1.506L13 6.297z"/></svg>