<svg xmlns="http://www.w3.org/2000/svg" viewBox="0 0 24 24"><path d="M14.317 5.534a.294.294 0 0 1-.262.49 6.503 6.503 0 0 0-6.809 4.721.562.562 0 0 1-.411.393A5.002 5.002 0 0 0 3.006 16a.244.244 0 0 1-.378.217 3.997 3.997 0 0 1 1.494-7.114 1.432 1.432 0 0 0 1.064-1.002 5.502 5.502 0 0 1 9.131-2.567z"/><path d="M18.506 20a4.852 4.852 0 0 1-.5-.027V20h-10a3.998 3.998 0 0 1-.884-7.897 1.432 1.432 0 0 0 1.064-1.002 5.502 5.502 0 0 1 10.38-.759 1.341 1.341 0 0 0 .936.77A4.502 4.502 0 0 1 18.506 20z"/></svg>