<svg xmlns="http://www.w3.org/2000/svg" width="18" height="18"><rect width="4" height="2" x="1" y="8" opacity=".45" rx="1"/><rect width="4" height="2" x="13" y="8" rx="1"/><rect width="4" height="2" x="8" y="17" opacity=".3" rx="1" transform="rotate(-90 8 17)"/><rect width="4" height="2" x="8" y="5" opacity=".65" rx="1" transform="rotate(-90 8 5)"/><rect width="4" height="2" x="12.134" y="16.428" opacity=".25" rx="1" transform="rotate(-120 12.134 16.428)"/><rect width="4" height="2" x="6.134" y="6.036" opacity=".55" rx="1" transform="rotate(-120 6.134 6.036)"/><rect width="4" height="2" x="15.428" y="13.866" opacity=".2" rx="1" transform="rotate(-150 15.428 13.866)"/><rect width="4" height="2" x="5.036" y="7.866" opacity=".5" rx="1" transform="rotate(-150 5.036 7.866)"/><rect width="4" height="2" x="16.428" y="5.866" opacity=".85" rx="1" transform="rotate(150 16.428 5.866)"/><rect width="4" height="2" x="6.036" y="11.866" opacity=".4" rx="1" transform="rotate(150 6.036 11.866)"/><rect width="4" height="2" x="13.866" y="2.572" opacity=".75" rx="1" transform="rotate(120 13.866 2.572)"/><rect width="4" height="2" x="7.866" y="12.964" opacity=".35" rx="1" transform="rotate(120 7.866 12.964)"/></svg>