<svg xmlns="http://www.w3.org/2000/svg" width="36" height="36"><path d="M18 9.986a1.418 1.418 0 0 1-1.414-1.415V2.914c0-.778.636-1.414 1.414-1.414.778 0 1.414.636 1.414 1.414v5.657c0 .778-.636 1.415-1.414 1.415" clip-rule="evenodd" opacity=".65"/><path d="M22.007 11.06a1.418 1.418 0 0 1-.518-1.932l2.83-4.9a1.418 1.418 0 0 1 1.931-.517c.674.389.907 1.258.518 1.932l-2.829 4.899a1.418 1.418 0 0 1-1.932.517" clip-rule="evenodd" opacity=".75"/><path d="M24.94 13.993a1.418 1.418 0 0 1 .518-1.932l4.9-2.829a1.418 1.418 0 0 1 1.931.518 1.418 1.418 0 0 1-.517 1.932l-4.9 2.829a1.418 1.418 0 0 1-1.931-.518" clip-rule="evenodd" opacity=".85"/><path d="M26.014 18c0-.778.637-1.414 1.415-1.414h5.657c.778 0 1.414.636 1.414 1.414 0 .778-.636 1.414-1.414 1.414h-5.657A1.418 1.418 0 0 1 26.014 18" clip-rule="evenodd" opacity=".9"/><path d="M24.94 22.007a1.418 1.418 0 0 1 1.932-.518l4.9 2.83c.673.388.906 1.257.517 1.931a1.418 1.418 0 0 1-1.932.518l-4.899-2.829a1.419 1.419 0 0 1-.517-1.932" clip-rule="evenodd" opacity=".2"/><path d="M22.007 24.94a1.418 1.418 0 0 1 1.932.518l2.829 4.9a1.418 1.418 0 0 1-.518 1.931 1.418 1.418 0 0 1-1.932-.517l-2.829-4.9a1.418 1.418 0 0 1 .518-1.931" clip-rule="evenodd" opacity=".25"/><path d="M18 26.014c.778 0 1.414.637 1.414 1.415v5.657c0 .778-.636 1.414-1.414 1.414a1.418 1.418 0 0 1-1.414-1.414v-5.657c0-.778.636-1.415 1.414-1.415" clip-rule="evenodd" opacity=".3"/><path d="M13.993 24.94a1.42 1.42 0 0 1 .518 1.932l-2.83 4.9a1.418 1.418 0 0 1-1.931.517 1.418 1.418 0 0 1-.518-1.932l2.829-4.899a1.418 1.418 0 0 1 1.932-.517" clip-rule="evenodd" opacity=".35"/><path d="M11.06 22.007a1.418 1.418 0 0 1-.518 1.932l-4.9 2.829a1.418 1.418 0 0 1-1.931-.518 1.418 1.418 0 0 1 .517-1.932l4.9-2.829a1.418 1.418 0 0 1 1.931.518" clip-rule="evenodd" opacity=".4"/><path d="M9.986 18c0 .778-.637 1.414-1.415 1.414H2.914A1.418 1.418 0 0 1 1.5 18c0-.778.636-1.414 1.414-1.414h5.657c.778 0 1.415.636 1.415 1.414" clip-rule="evenodd" opacity=".45"/><path d="M11.06 13.993a1.418 1.418 0 0 1-1.932.518l-4.9-2.83a1.418 1.418 0 0 1-.517-1.931 1.418 1.418 0 0 1 1.932-.518l4.899 2.829c.674.389.906 1.258.517 1.932" clip-rule="evenodd" opacity=".5"/><path d="M13.993 11.06a1.418 1.418 0 0 1-1.932-.518l-2.829-4.9a1.418 1.418 0 0 1 .518-1.931 1.418 1.418 0 0 1 1.932.517l2.829 4.9a1.418 1.418 0 0 1-.518 1.931" clip-rule="evenodd" opacity=".55"/></svg>